<svg xmlns="http://www.w3.org/2000/svg" viewBox="0 0 1200 900" width="100%" height="auto">
  <defs>
    <style>
      .f-sans { font-family: -apple-system, BlinkMacSystemFont, "PingFang SC", "Segoe UI", "Microsoft YaHei", sans-serif; }
      .f-mono { font-family: "SF Mono", "Menlo", "Consolas", monospace; }

      .top-title { font-family: -apple-system, BlinkMacSystemFont, "PingFang SC", "Segoe UI", sans-serif; font-size: 22px; font-weight: 800; fill: #ffffff; }
      .top-sub { font-family: -apple-system, BlinkMacSystemFont, "PingFang SC", "Segoe UI", sans-serif; font-size: 12px; fill: rgba(255,255,255,.7); }
      .top-tag { font-family: -apple-system, BlinkMacSystemFont, "PingFang SC", "Segoe UI", sans-serif; font-size: 9px; font-weight: 700; fill: #0096f0; }

      .prod-name { font-family: -apple-system, BlinkMacSystemFont, "PingFang SC", "Segoe UI", sans-serif; font-size: 20px; font-weight: 800; fill: #ffffff; }
      .prod-company { font-family: -apple-system, BlinkMacSystemFont, "PingFang SC", "Segoe UI", sans-serif; font-size: 11px; fill: rgba(255,255,255,.65); }
      .prod-price { font-family: -apple-system, BlinkMacSystemFont, "PingFang SC", "Segoe UI", sans-serif; font-size: 12px; font-weight: 700; fill: #ffffff; }
      .prod-status { font-family: -apple-system, BlinkMacSystemFont, "PingFang SC", "Segoe UI", sans-serif; font-size: 8.5px; font-weight: 600; fill: #ffffff; text-anchor: middle; dominant-baseline: central; }
      .prod-status-bg { fill: rgba(255,255,255,.15); }

      .diagram-label { font-family: -apple-system, BlinkMacSystemFont, "PingFang SC", "Segoe UI", sans-serif; font-size: 8px; fill: #475569; }
      .diagram-label-bold { font-family: -apple-system, BlinkMacSystemFont, "PingFang SC", "Segoe UI", sans-serif; font-size: 8px; font-weight: 700; fill: #1e293b; }

      .sec-hdr-text { font-family: -apple-system, BlinkMacSystemFont, "PingFang SC", "Segoe UI", sans-serif; font-size: 12px; font-weight: 700; fill: #ffffff; text-anchor: middle; dominant-baseline: central; }
      .item-bullet { font-family: -apple-system, "PingFang SC", sans-serif; font-size: 10.5px; fill: #334155; }
      .item-bullet-red { font-family: -apple-system, "PingFang SC", sans-serif; font-size: 10.5px; fill: #991b1b; }
      .item-text { font-family: -apple-system, "PingFang SC", "Segoe UI", "Microsoft YaHei", sans-serif; font-size: 10.5px; fill: #334155; }

      .bottom-title { font-family: -apple-system, BlinkMacSystemFont, "PingFang SC", "Segoe UI", sans-serif; font-size: 16px; font-weight: 800; fill: #059669; }
      .bottom-col-title { font-family: -apple-system, BlinkMacSystemFont, "PingFang SC", "Segoe UI", sans-serif; font-size: 12px; font-weight: 800; fill: #1e293b; }
      .bottom-sub-title { font-family: -apple-system, BlinkMacSystemFont, "PingFang SC", "Segoe UI", sans-serif; font-size: 10px; font-weight: 700; fill: #059669; }
      .bottom-text { font-family: -apple-system, "PingFang SC", "Segoe UI", sans-serif; font-size: 9.5px; fill: #475569; }
      .bottom-banner-text { font-family: -apple-system, BlinkMacSystemFont, "PingFang SC", "Segoe UI", sans-serif; font-size: 14px; font-weight: 800; fill: #ffffff; text-anchor: middle; dominant-baseline: central; }
      .bottom-banner-sub { font-family: -apple-system, BlinkMacSystemFont, "PingFang SC", "Segoe UI", sans-serif; font-size: 10px; fill: rgba(255,255,255,.85); text-anchor: middle; dominant-baseline: central; }
    </style>
    <filter id="shadow" x="-2%" y="-2%" width="104%" height="106%">
      <feDropShadow dx="0" dy="1.5" stdDeviation="3" flood-color="#000" flood-opacity="0.07"/>
    </filter>
    <filter id="shadow-light" x="-2%" y="-2%" width="104%" height="104%">
      <feDropShadow dx="0" dy="1" stdDeviation="2" flood-color="#000" flood-opacity="0.04"/>
    </filter>
    <linearGradient id="topGrad" x1="0" y1="0" x2="1" y2="0">
      <stop offset="0%" stop-color="#0f172a"/>
      <stop offset="100%" stop-color="#1e293b"/>
    </linearGradient>
    <linearGradient id="dnsysHeader" x1="0" y1="0" x2="0" y2="1">
      <stop offset="0%" stop-color="#1e293b"/>
      <stop offset="100%" stop-color="#0f172a"/>
    </linearGradient>
    <linearGradient id="yuanheHeader" x1="0" y1="0" x2="0" y2="1">
      <stop offset="0%" stop-color="#1e293b"/>
      <stop offset="100%" stop-color="#0f172a"/>
    </linearGradient>
    <linearGradient id="skipHeader" x1="0" y1="0" x2="0" y2="1">
      <stop offset="0%" stop-color="#1e293b"/>
      <stop offset="100%" stop-color="#0f172a"/>
    </linearGradient>
    <linearGradient id="redGrad" x1="0" y1="0" x2="1" y2="0">
      <stop offset="0%" stop-color="#c45a5a"/>
      <stop offset="100%" stop-color="#a04545"/>
    </linearGradient>
    <linearGradient id="greenGrad" x1="0" y1="0" x2="1" y2="0">
      <stop offset="0%" stop-color="#059669"/>
      <stop offset="100%" stop-color="#047857"/>
    </linearGradient>
    <linearGradient id="blueGrad" x1="0" y1="0" x2="1" y2="0">
      <stop offset="0%" stop-color="#0096f0"/>
      <stop offset="100%" stop-color="#0078cc"/>
    </linearGradient>
    <linearGradient id="bottomGrad" x1="0" y1="0" x2="0" y2="1">
      <stop offset="0%" stop-color="#059669"/>
      <stop offset="100%" stop-color="#047857"/>
    </linearGradient>
    <marker id="dot-red" viewBox="0 0 10 10" refX="8" refY="5" markerWidth="4" markerHeight="4">
      <circle cx="5" cy="5" r="3" fill="#c45a5a"/>
    </marker>
  </defs>

  <!-- Background -->
  <rect width="1200" height="900" fill="#ffffff"/>

  <!-- ====== TOP HEADER ====== -->
  <rect x="0" y="0" width="1200" height="55" fill="url(#topGrad)"/>
  <text x="28" y="24" class="top-title">三大关键竞品深度对比</text>
  <text x="28" y="43" class="top-sub">DNSYS Z1 · 远也 PowerKnee · Skip MO/GO — 人机共生战略下的竞争坐标</text>
  <rect x="1020" y="12" width="152" height="18" rx="9" fill="rgba(255,255,255,0.08)"/>
  <text x="1096" y="24" class="top-tag" text-anchor="middle">骨骼流形 · 膝安策略</text>

  <!-- ================================================================ -->
  <!-- COLUMN 1: DNSYS Z1  (x=28, w=370)                                -->
  <!-- ================================================================ -->
  <g transform="translate(28, 0)">
    <!-- === Column Header (y=65, h=70) === -->
    <rect x="0" y="65" width="370" height="72" rx="8" fill="url(#dnsysHeader)" filter="url(#shadow)"/>
    <rect x="320" y="72" width="42" height="20" rx="4" class="prod-status-bg"/>
    <text x="341" y="82" class="prod-status">已发货</text>
    <text x="185" y="91" class="prod-name" text-anchor="middle">DNSYS Z1</text>
    <text x="185" y="109" class="prod-company" text-anchor="middle">DeepNexus · Kickstarter 众筹</text>
    <text x="185" y="127" class="prod-price" text-anchor="middle">$699-2,298 (KS) / $1,398 (Pro)</text>

    <!-- === Diagram (y=145, h=110) === -->
    <rect x="0" y="145" width="370" height="108" rx="6" fill="#f8fafc" stroke="#e2e8f0" stroke-width="1" filter="url(#shadow-light)"/>

    <!-- Leg silhouette -->
    <rect x="170" y="155" width="18" height="30" rx="5" fill="#e8edf3" stroke="#94a3b8" stroke-width="1.2"/>
    <circle cx="179" cy="189" r="9" fill="#e8edf3" stroke="#94a3b8" stroke-width="1.2"/>
    <rect x="173" y="198" width="12" height="40" rx="4" fill="#e8edf3" stroke="#94a3b8" stroke-width="1.2"/>
    <path d="M173,238 L173,244 L191,244 L191,238 Z" fill="#e8edf3" stroke="#94a3b8" stroke-width="1.2"/>

    <!-- Waist controller -->
    <rect x="136" y="152" width="50" height="16" rx="3" fill="#e2e8f0" stroke="#64748b" stroke-width="1"/>
    <text x="161" y="163" class="diagram-label-bold" text-anchor="middle">控制器</text>
    <line x1="161" y1="168" x2="179" y2="170" stroke="#94a3b8" stroke-width="0.8" stroke-dasharray="2,2"/>

    <!-- Battery pack -->
    <rect x="191" y="162" width="34" height="22" rx="3" fill="#fef3c7" stroke="#d97706" stroke-width="1.2"/>
    <text x="208" y="173" class="diagram-label-bold" text-anchor="middle" fill="#92400e">电池</text>
    <text x="208" y="182" class="diagram-label" text-anchor="middle" fill="#92400e">450g</text>
    <line x1="191" y1="173" x2="188" y2="173" stroke="#d97706" stroke-width="0.8"/>

    <!-- Motor at knee -->
    <circle cx="179" cy="189" r="9" fill="#dbeafe" stroke="#3b82f6" stroke-width="1.5"/>
    <text x="179" y="192" class="diagram-label-bold" text-anchor="middle" fill="#1e40af">M</text>
    <text x="155" y="200" class="diagram-label" fill="#1e40af">900W</text>
    <text x="155" y="189" class="diagram-label" fill="#1e40af">0.01s响应</text>

    <!-- Shin cuff -->
    <rect x="169" y="213" width="20" height="6" rx="2" fill="#d1fae5" stroke="#059669" stroke-width="0.8"/>
    <text x="194" y="218" class="diagram-label" fill="#059669">绑带</text>

    <!-- Key annotation box -->
    <rect x="272" y="155" width="88" height="50" rx="4" fill="#fff" stroke="#e2e8f0" stroke-width="0.8"/>
    <text x="316" y="170" class="diagram-label" text-anchor="middle">双膝 2.72kg</text>
    <text x="316" y="182" class="diagram-label" text-anchor="middle">续航 70min</text>
    <text x="316" y="194" class="diagram-label" text-anchor="middle">噪音 70dB</text>
    <line x1="272" y1="180" x2="200" y2="180" stroke="#e2e8f0" stroke-width="0.8" stroke-dasharray="2,2"/>

    <!-- === 致命缺陷 (y=261, h=168) === -->
    <rect x="0" y="261" width="370" height="166" rx="6" fill="#fef2f2" stroke="#fecaca" stroke-width="1"/>
    <rect x="0" y="261" width="370" height="28" rx="6" fill="url(#redGrad)"/>
    <rect x="0" y="275" width="370" height="14" fill="url(#redGrad)"/>
    <text x="185" y="275" class="sec-hdr-text">致命缺陷 · 根本原因分析</text>

    <!-- Item 1 -->
    <circle cx="20" cy="304" r="3" fill="#c45a5a"/>
    <text x="28" y="305" class="item-text"><tspan font-weight="700" fill="#991b1b">900W/70min续航瓶颈：</tspan>18650电芯&lt;260Wh/kg，无主动热管理→温升降频</text>
    <!-- Item 2 -->
    <circle cx="20" cy="336" r="3" fill="#c45a5a"/>
    <text x="28" y="337" class="item-text"><tspan font-weight="700" fill="#991b1b">蓝牙5.0断连>500ms：</tspan>单BLE链路无有线备份，实时控制中断窗口>150ms</text>
    <!-- Item 3 -->
    <circle cx="20" cy="368" r="3" fill="#c45a5a"/>
    <text x="28" y="369" class="item-text"><tspan font-weight="700" fill="#991b1b">通用助力曲线：</tspan>固定阈值步态检测，非RL无法在线个性化适配</text>
    <!-- Item 4 -->
    <circle cx="20" cy="400" r="3" fill="#c45a5a"/>
    <text x="28" y="401" class="item-text"><tspan font-weight="700" fill="#991b1b">Avatar效应：</tspan>绑带力经软组织衰减，骨骼助力效率&lt;30%</text>

    <!-- === Bones超越 (y=435, h=168) === -->
    <rect x="0" y="435" width="370" height="166" rx="6" fill="#f0fdf4" stroke="#a7f3d0" stroke-width="1"/>
    <rect x="0" y="435" width="370" height="28" rx="6" fill="url(#greenGrad)"/>
    <rect x="0" y="449" width="370" height="14" fill="url(#greenGrad)"/>
    <text x="185" y="449" class="sec-hdr-text">Bones 如何超越 · 逐项精确打击</text>

    <!-- Item 1 -->
    <circle cx="20" cy="478" r="3" fill="#059669"/>
    <text x="28" y="479" class="item-text"><tspan font-weight="700" fill="#065f46">自研BMS+21700(300Wh/kg)→&gt;8h续航，</tspan>模块热插拔0中断</text>
    <!-- Item 2 -->
    <circle cx="20" cy="510" r="3" fill="#059669"/>
    <text x="28" y="511" class="item-text"><tspan font-weight="700" fill="#065f46">CAN FD主链路+蓝牙5.2热备，</tspan>双模切换延迟&lt;2ms</text>
    <!-- Item 3 -->
    <circle cx="20" cy="542" r="3" fill="#059669"/>
    <text x="28" y="543" class="item-text"><tspan font-weight="700" fill="#065f46">RL个性化步态策略：</tspan>3分钟在线自适应，异常步态识别率&gt;95%</text>
    <!-- Item 4 -->
    <circle cx="20" cy="574" r="3" fill="#059669"/>
    <text x="28" y="575" class="item-text"><tspan font-weight="700" fill="#065f46">碳纤维骨骼锚定+医用硅胶内衬，</tspan>力传递效率&gt;85%</text>

    <!-- === 值得借鉴 (y=609, h=55) === -->
    <rect x="0" y="609" width="370" height="55" rx="6" fill="#eff6ff" stroke="#bfdbfe" stroke-width="1"/>
    <rect x="0" y="609" width="370" height="24" rx="6" fill="url(#blueGrad)"/>
    <rect x="0" y="619" width="370" height="14" fill="url(#blueGrad)"/>
    <text x="185" y="621" class="sec-hdr-text">值得借鉴</text>
    <circle cx="20" cy="643" r="2.5" fill="#0096f0"/>
    <text x="28" y="644" class="item-text">CES 2026三奖：精准产品定义与众筹营销节奏</text>
    <circle cx="20" cy="656" r="2.5" fill="#0096f0"/>
    <text x="28" y="657" class="item-text">双膝&lt;3kg轻量化方向（需平衡续航与可靠性）</text>
  </g>

  <!-- ================================================================ -->
  <!-- COLUMN 2: 远也 PowerKnee  (x=412, w=370)                          -->
  <!-- ================================================================ -->
  <g transform="translate(412, 0)">
    <!-- === Column Header (y=65, h=72) === -->
    <rect x="0" y="65" width="370" height="72" rx="8" fill="url(#yuanheHeader)" filter="url(#shadow)"/>
    <rect x="315" y="72" width="47" height="20" rx="4" class="prod-status-bg"/>
    <text x="339" y="82" class="prod-status">京东在售</text>
    <text x="185" y="91" class="prod-name" text-anchor="middle">远也 PowerKnee</text>
    <text x="185" y="109" class="prod-company" text-anchor="middle">远也科技 Yrobot · 伟创力代工</text>
    <text x="185" y="127" class="prod-price" text-anchor="middle">$849 (KS) / ¥7,999 (JD)</text>

    <!-- === Diagram (y=145, h=108) === -->
    <rect x="0" y="145" width="370" height="108" rx="6" fill="#f8fafc" stroke="#e2e8f0" stroke-width="1" filter="url(#shadow-light)"/>

    <!-- Leg silhouette -->
    <rect x="170" y="155" width="18" height="30" rx="5" fill="#e8edf3" stroke="#94a3b8" stroke-width="1.2"/>
    <circle cx="179" cy="189" r="9" fill="#e8edf3" stroke="#94a3b8" stroke-width="1.2"/>
    <rect x="173" y="198" width="12" height="40" rx="4" fill="#e8edf3" stroke="#94a3b8" stroke-width="1.2"/>
    <path d="M173,238 L173,244 L191,244 L191,238 Z" fill="#e8edf3" stroke="#94a3b8" stroke-width="1.2"/>

    <!-- Magnesium shell outline -->
    <rect x="163" y="179" width="32" height="28" rx="6" fill="none" stroke="#a78bfa" stroke-width="1.2" stroke-dasharray="3,2"/>
    <text x="148" y="197" class="diagram-label" fill="#7c3aed" text-anchor="end">镁合金壳体</text>
    <text x="148" y="207" class="diagram-label" fill="#7c3aed" text-anchor="end">1520W</text>

    <!-- 3 straps -->
    <line x1="168" y1="158" x2="190" y2="158" stroke="#f59e0b" stroke-width="2.5" stroke-linecap="round"/>
    <line x1="167" y1="166" x2="191" y2="166" stroke="#f59e0b" stroke-width="2.5" stroke-linecap="round"/>
    <line x1="168" y1="174" x2="190" y2="174" stroke="#f59e0b" stroke-width="2.5" stroke-linecap="round"/>
    <text x="198" y="168" class="diagram-label" fill="#b45309">3绑带</text>

    <!-- AI Processor label -->
    <rect x="265" y="155" width="95" height="40" rx="4" fill="#fff" stroke="#e2e8f0" stroke-width="0.8"/>
    <text x="313" y="170" class="diagram-label" text-anchor="middle">2.5kg 全重</text>
    <text x="313" y="182" class="diagram-label" text-anchor="middle">AI预测+前馈导纳</text>
    <text x="313" y="192" class="diagram-label" text-anchor="middle" fill="#7c3aed">限重≤65-75kg</text>
    <line x1="265" y1="178" x2="198" y2="178" stroke="#e2e8f0" stroke-width="0.8" stroke-dasharray="2,2"/>

    <!-- Weight indication -->
    <rect x="135" y="152" width="28" height="16" rx="3" fill="#fef2f2" stroke="#fca5a5" stroke-width="0.8"/>
    <text x="149" y="163" class="diagram-label-bold" text-anchor="middle" fill="#b91c1c">偏重</text>

    <!-- === 致命缺陷 (y=261, h=168) === -->
    <rect x="0" y="261" width="370" height="166" rx="6" fill="#fef2f2" stroke="#fecaca" stroke-width="1"/>
    <rect x="0" y="261" width="370" height="28" rx="6" fill="url(#redGrad)"/>
    <rect x="0" y="275" width="370" height="14" fill="url(#redGrad)"/>
    <text x="185" y="275" class="sec-hdr-text">致命缺陷 · 根本原因分析</text>

    <!-- Item 1 -->
    <circle cx="20" cy="304" r="3" fill="#c45a5a"/>
    <text x="28" y="305" class="item-text"><tspan font-weight="700" fill="#991b1b">承重限65-75kg：</tspan>镁合金壳体σ_f&lt;180MPa，安全系数&lt;1.5</text>
    <!-- Item 2 -->
    <circle cx="20" cy="336" r="3" fill="#c45a5a"/>
    <text x="28" y="337" class="item-text"><tspan font-weight="700" fill="#991b1b">BOM¥2500+：</tspan>伟创力代工MOQ&gt;10K，月销数百→库存积压</text>
    <!-- Item 3 -->
    <circle cx="20" cy="368" r="3" fill="#c45a5a"/>
    <text x="28" y="369" class="item-text"><tspan font-weight="700" fill="#991b1b">前馈导纳非RL：</tspan>KAM开环控制，膝关节炎风险未量化优化</text>
    <!-- Item 4 -->
    <circle cx="20" cy="400" r="3" fill="#c45a5a"/>
    <text x="28" y="401" class="item-text"><tspan font-weight="700" fill="#991b1b">$11M/7年融资：</tspan>年均$1.57M不足以支撑NMPA二类注册</text>

    <!-- === Bones超越 (y=435, h=168) === -->
    <rect x="0" y="435" width="370" height="166" rx="6" fill="#f0fdf4" stroke="#a7f3d0" stroke-width="1"/>
    <rect x="0" y="435" width="370" height="28" rx="6" fill="url(#greenGrad)"/>
    <rect x="0" y="449" width="370" height="14" fill="url(#greenGrad)"/>
    <text x="185" y="449" class="sec-hdr-text">Bones 如何超越 · 逐项精确打击</text>

    <!-- Item 1 -->
    <circle cx="20" cy="478" r="3" fill="#059669"/>
    <text x="28" y="479" class="item-text"><tspan font-weight="700" fill="#065f46">7075-T6铝合金+拓扑优化，</tspan>承重45-120kg，安全系数&gt;2.0</text>
    <!-- Item 2 -->
    <circle cx="20" cy="510" r="3" fill="#059669"/>
    <text x="28" y="511" class="item-text"><tspan font-weight="700" fill="#065f46">模块化设计+自建组装线，</tspan>BOM&lt;¥800，MOQ灵活500台</text>
    <!-- Item 3 -->
    <circle cx="20" cy="542" r="3" fill="#059669"/>
    <text x="28" y="543" class="item-text"><tspan font-weight="700" fill="#065f46">深度RL+力矩传感器闭环，</tspan>KAM实时优化，目标降低&gt;35%</text>
    <!-- Item 4 -->
    <circle cx="20" cy="574" r="3" fill="#059669"/>
    <text x="28" y="575" class="item-text"><tspan font-weight="700" fill="#065f46">NMPA二类储备¥6M，</tspan>同步启动FDA 510(k)流程</text>

    <!-- === 值得借鉴 (y=609, h=55) === -->
    <rect x="0" y="609" width="370" height="55" rx="6" fill="#eff6ff" stroke="#bfdbfe" stroke-width="1"/>
    <rect x="0" y="609" width="370" height="24" rx="6" fill="url(#blueGrad)"/>
    <rect x="0" y="619" width="370" height="14" fill="url(#blueGrad)"/>
    <text x="185" y="621" class="sec-hdr-text">值得借鉴</text>
    <circle cx="20" cy="643" r="2.5" fill="#0096f0"/>
    <text x="28" y="644" class="item-text">5分钟快速穿戴：3绑带系统设计理念</text>
    <circle cx="20" cy="656" r="2.5" fill="#0096f0"/>
    <text x="28" y="657" class="item-text">京东+¥7,999直营：验证电商渠道可触达C端需求</text>
  </g>

  <!-- ================================================================ -->
  <!-- COLUMN 3: Skip MO/GO  (x=796, w=370)                              -->
  <!-- ================================================================ -->
  <g transform="translate(796, 0)">
    <!-- === Column Header (y=65, h=72) === -->
    <rect x="0" y="65" width="370" height="72" rx="8" fill="url(#skipHeader)" filter="url(#shadow)"/>
    <rect x="305" y="72" width="57" height="20" rx="4" class="prod-status-bg"/>
    <text x="334" y="82" class="prod-status">2027春延迟</text>
    <text x="185" y="91" class="prod-name" text-anchor="middle">Skip MO / GO</text>
    <text x="185" y="109" class="prod-company" text-anchor="middle">Skip · Google X 衍生 · 始祖鸟联名</text>
    <text x="185" y="127" class="prod-price" text-anchor="middle">$5,000 · 2027年春季预计发货</text>

    <!-- === Diagram (y=145, h=108) === -->
    <rect x="0" y="145" width="370" height="108" rx="6" fill="#f8fafc" stroke="#e2e8f0" stroke-width="1" filter="url(#shadow-light)"/>

    <!-- Pants outline (wider leg) -->
    <rect x="164" y="155" width="30" height="34" rx="5" fill="#ecfdf5" stroke="#059669" stroke-width="1" stroke-dasharray="4,2"/>
    <circle cx="179" cy="189" r="9" fill="#ecfdf5" stroke="#059669" stroke-width="1" stroke-dasharray="4,2"/>
    <rect x="168" y="198" width="22" height="40" rx="4" fill="#ecfdf5" stroke="#059669" stroke-width="1" stroke-dasharray="4,2"/>
    <path d="M168,238 L168,244 L190,244 L190,238 Z" fill="#ecfdf5" stroke="#059669" stroke-width="1" stroke-dasharray="4,2"/>

    <!-- Waistband battery -->
    <rect x="135" y="152" width="88" height="14" rx="7" fill="#d1fae5" stroke="#059669" stroke-width="1.2"/>
    <text x="179" y="162" class="diagram-label-bold" text-anchor="middle" fill="#065f46">腰带电池 · 3h续航</text>

    <!-- Custom actuator -->
    <circle cx="179" cy="189" r="9" fill="#dbeafe" stroke="#3b82f6" stroke-width="1.5"/>
    <text x="179" y="192" class="diagram-label-bold" text-anchor="middle" fill="#1e40af">MA</text>
    <text x="155" y="200" class="diagram-label" fill="#1e40af">磁力致动器</text>

    <!-- Regen indicator -->
    <path d="M85,182 L100,182 L100,177 L115,185 L100,193 L100,188 L85,188 Z" fill="#059669"/>
    <text x="100" y="178" class="diagram-label-bold" text-anchor="middle" fill="#065f46" font-size="6">再生</text>
    <text x="100" y="200" class="diagram-label" text-anchor="middle" fill="#065f46">下坡充电</text>

    <!-- Annotation box -->
    <rect x="255" y="155" width="105" height="45" rx="4" fill="#fff" stroke="#e2e8f0" stroke-width="0.8"/>
    <text x="308" y="169" class="diagram-label" text-anchor="middle">3.2kg · 10尺码</text>
    <text x="308" y="181" class="diagram-label" text-anchor="middle">3h续航 · $5,000</text>
    <text x="308" y="193" class="diagram-label" text-anchor="middle" fill="#059669">裤子承载系统</text>
    <line x1="255" y1="180" x2="200" y2="180" stroke="#e2e8f0" stroke-width="0.8" stroke-dasharray="2,2"/>

    <!-- === 致命缺陷 (y=261, h=168) === -->
    <rect x="0" y="261" width="370" height="166" rx="6" fill="#fef2f2" stroke="#fecaca" stroke-width="1"/>
    <rect x="0" y="261" width="370" height="28" rx="6" fill="url(#redGrad)"/>
    <rect x="0" y="275" width="370" height="14" fill="url(#redGrad)"/>
    <text x="185" y="275" class="sec-hdr-text">致命缺陷 · 根本原因分析</text>

    <!-- Item 1 -->
    <circle cx="20" cy="304" r="3" fill="#c45a5a"/>
    <text x="28" y="305" class="item-text"><tspan font-weight="700" fill="#991b1b">2027春延迟发货：</tspan>始祖鸟联名供应链复杂，Google X转产困难</text>
    <!-- Item 2 -->
    <circle cx="20" cy="336" r="3" fill="#c45a5a"/>
    <text x="28" y="337" class="item-text"><tspan font-weight="700" fill="#991b1b">$5,000定价脱节：</tspan>目标用户支付意愿$1,500-2,500，严重错位</text>
    <!-- Item 3 -->
    <circle cx="20" cy="368" r="3" fill="#c45a5a"/>
    <text x="28" y="369" class="item-text"><tspan font-weight="700" fill="#991b1b">放弃老年市场：</tspan>&gt;3.5亿膝OA人群无人服务，战略盲区</text>
    <!-- Item 4 -->
    <circle cx="20" cy="400" r="3" fill="#c45a5a"/>
    <text x="28" y="401" class="item-text"><tspan font-weight="700" fill="#991b1b">$6M融资过低：</tspan>始祖鸟渠道成本&gt;40%毛利，不可持续</text>

    <!-- === Bones超越 (y=435, h=168) === -->
    <rect x="0" y="435" width="370" height="166" rx="6" fill="#f0fdf4" stroke="#a7f3d0" stroke-width="1"/>
    <rect x="0" y="435" width="370" height="28" rx="6" fill="url(#greenGrad)"/>
    <rect x="0" y="449" width="370" height="14" fill="url(#greenGrad)"/>
    <text x="185" y="449" class="sec-hdr-text">Bones 如何超越 · 逐项精确打击</text>

    <!-- Item 1 -->
    <circle cx="20" cy="478" r="3" fill="#059669"/>
    <text x="28" y="479" class="item-text"><tspan font-weight="700" fill="#065f46">自研磁力致动器，跳过定制磁铁长交期，</tspan>2026Q4量产</text>
    <!-- Item 2 -->
    <circle cx="20" cy="510" r="3" fill="#059669"/>
    <text x="28" y="511" class="item-text"><tspan font-weight="700" fill="#065f46">定价¥4,999(≈$690)渗透定价+耗材订阅，</tspan>先亏后赚</text>
    <!-- Item 3 -->
    <circle cx="20" cy="542" r="3" fill="#059669"/>
    <text x="28" y="543" class="item-text"><tspan font-weight="700" fill="#065f46">"膝安"专攻45-75岁OA人群，</tspan>医院+社区双渠道</text>
    <!-- Item 4 -->
    <circle cx="20" cy="574" r="3" fill="#059669"/>
    <text x="28" y="575" class="item-text"><tspan font-weight="700" fill="#065f46">目标$12M Series A，</tspan>自研率&gt;70%，渠道成本&lt;15%</text>

    <!-- === 值得借鉴 (y=609, h=55) === -->
    <rect x="0" y="609" width="370" height="55" rx="6" fill="#eff6ff" stroke="#bfdbfe" stroke-width="1"/>
    <rect x="0" y="609" width="370" height="24" rx="6" fill="url(#blueGrad)"/>
    <rect x="0" y="619" width="370" height="14" fill="url(#blueGrad)"/>
    <text x="185" y="621" class="sec-hdr-text">值得借鉴</text>
    <circle cx="20" cy="643" r="2.5" fill="#0096f0"/>
    <text x="28" y="644" class="item-text">始祖鸟联名：品牌溢价策略（可选Patagonia/萨洛蒙）</text>
    <circle cx="20" cy="656" r="2.5" fill="#0096f0"/>
    <text x="28" y="657" class="item-text">裤子承载系统的人体工学设计思路</text>
  </g>

  <!-- ================================================================== -->
  <!-- BOTTOM SUMMARY (y=680, h=215)                                       -->
  <!-- ================================================================== -->

  <!-- Background -->
  <rect x="28" y="680" width="1144" height="205" rx="8" fill="#f8fafc" stroke="#e2e8f0" stroke-width="1" filter="url(#shadow)"/>

  <!-- Top accent bar -->
  <rect x="28" y="680" width="1144" height="4" rx="2" fill="#059669"/>

  <!-- Title -->
  <text x="600" y="705" class="bottom-title" text-anchor="middle">Bones 综合优势 · 三维降维打击</text>

  <!-- Divider -->
  <line x1="56" y1="715" x2="1144" y2="715" stroke="#e2e8f0" stroke-width="1"/>

  <!-- ===== Sub-column 1: 避DNSYS之短 (x=56, w=348) ===== -->
  <rect x="56" y="725" width="348" height="80" rx="6" fill="#ffffff" stroke="#e2e8f0" stroke-width="1" filter="url(#shadow-light)"/>
  <rect x="56" y="725" width="3" height="80" rx="1.5" fill="#0096f0"/>
  <text x="73" y="742" class="bottom-col-title">避 DNSYS 之短 — 续航·通信·个性化</text>
  <circle cx="73" cy="755" r="2" fill="#0096f0"/>
  <text x="80" y="756" class="bottom-text">自研BMS+21700高密度电芯(300Wh/kg)→8h+续航，超越70min瓶颈</text>
  <circle cx="73" cy="771" r="2" fill="#0096f0"/>
  <text x="80" y="772" class="bottom-text">CAN FD+蓝牙5.2双模通信，消除蓝牙断连导致的实时控制风险</text>
  <circle cx="73" cy="787" r="2" fill="#0096f0"/>
  <text x="80" y="788" class="bottom-text">RL步态策略3分钟在线自定义，解决非RL通用曲线无效的根源问题</text>

  <!-- ===== Sub-column 2: 超越远也之限 (x=426, w=348) ===== -->
  <rect x="426" y="725" width="348" height="80" rx="6" fill="#ffffff" stroke="#e2e8f0" stroke-width="1" filter="url(#shadow-light)"/>
  <rect x="426" y="725" width="3" height="80" rx="1.5" fill="#059669"/>
  <text x="443" y="742" class="bottom-col-title">超越远也之限 — 承重·成本·KAM闭环</text>
  <circle cx="443" cy="755" r="2" fill="#059669"/>
  <text x="450" y="756" class="bottom-text">7075-T6铝合金+拓扑优化，承重45-120kg覆盖全人群，安全系数>2.0</text>
  <circle cx="443" cy="771" r="2" fill="#059669"/>
  <text x="450" y="772" class="bottom-text">自建模块化柔性产线，BOM&lt;¥800 vs 远也¥2500+，MOQ灵活500台起</text>
  <circle cx="443" cy="787" r="2" fill="#059669"/>
  <text x="450" y="788" class="bottom-text">深度RL+KAM实时力矩闭环优化，目标降KAM>35%，从根源降低OA风险</text>

  <!-- ===== Sub-column 3: 借Skip之势 (x=796, w=348) ===== -->
  <rect x="796" y="725" width="348" height="80" rx="6" fill="#ffffff" stroke="#e2e8f0" stroke-width="1" filter="url(#shadow-light)"/>
  <rect x="796" y="725" width="3" height="80" rx="1.5" fill="#c45a5a"/>
  <text x="813" y="742" class="bottom-col-title">借 Skip 之势 — 量产·定价·市场定位</text>
  <circle cx="813" cy="755" r="2" fill="#c45a5a"/>
  <text x="820" y="756" class="bottom-text">自研磁力致动器跳过定制磁铁长交期瓶颈，确保2026Q4准时量产</text>
  <circle cx="813" cy="771" r="2" fill="#c45a5a"/>
  <text x="820" y="772" class="bottom-text">¥4,999(≈$690)渗透定价+耗材订阅制，对标$5,000实现10倍性价比</text>
  <circle cx="813" cy="787" r="2" fill="#c45a5a"/>
  <text x="820" y="788" class="bottom-text">专攻45-75岁膝OA人群，全球>3.5亿人，不做Skip放弃的最大市场</text>

  <!-- ===== Bottom Banner ===== -->
  <rect x="56" y="818" width="1088" height="34" rx="6" fill="url(#bottomGrad)"/>
  <text x="600" y="835" class="bottom-banner-text">四维突破 · 人机共生</text>
  <text x="600" y="848" class="bottom-banner-sub">长续航(8h+) · 自适应(RL个性化) · 高承载(45-120kg) · 低价格(¥4,999起) ｜ 膝安产品线 2026Q4 量产</text>

  <!-- ===== Footer ===== -->
  <text x="600" y="890" class="top-sub" fill="#94a3b8" font-size="9" text-anchor="middle">骨骼流形 Bones &amp; Manifold · 膝安策略 · 竞争分析</text>
</svg>
