<svg xmlns="http://www.w3.org/2000/svg" viewBox="0 0 1200 800" width="100%" height="auto">
  <defs>
    <style>
      .title-main { font-family: -apple-system,BlinkMacSystemFont,"PingFang SC","Segoe UI",sans-serif; font-size: 24px; font-weight: 800; fill: #1a1a2e; }
      .title-sub { font-family: -apple-system,BlinkMacSystemFont,"PingFang SC","Segoe UI",sans-serif; font-size: 13px; fill: #6b7280; }
      .section-title { font-family: -apple-system,BlinkMacSystemFont,"PingFang SC","Segoe UI",sans-serif; font-size: 17px; font-weight: 700; fill: #0096f0; }
      .card-num { font-family: -apple-system,sans-serif; font-size: 10px; font-weight: 700; fill: #fff; text-anchor: middle; dominant-baseline: central; }
      .card-title { font-family: -apple-system,BlinkMacSystemFont,"PingFang SC","Segoe UI",sans-serif; font-size: 11px; font-weight: 700; fill: #fff; }
      .card-en { font-family: -apple-system,sans-serif; font-size: 9px; fill: rgba(255,255,255,.8); }
      .prod-name { font-family: -apple-system,BlinkMacSystemFont,"PingFang SC","Segoe UI",sans-serif; font-size: 10px; font-weight: 700; fill: #1a1a2e; }
      .prod-detail { font-family: -apple-system,BlinkMacSystemFont,"PingFang SC","Segoe UI",sans-serif; font-size: 8.5px; fill: #6b7280; }
      .badge-text { font-family: -apple-system,BlinkMacSystemFont,"PingFang SC","Segoe UI",sans-serif; font-size: 9px; font-weight: 700; fill: #fff; text-anchor: middle; dominant-baseline: central; }
      .legend-text { font-family: -apple-system,BlinkMacSystemFont,"PingFang SC","Segoe UI",sans-serif; font-size: 11px; fill: #6b7280; }
      .mech-label { font-family: -apple-system,sans-serif; font-size: 6.5px; fill: #adb5bd; text-anchor: middle; }
    </style>
    <filter id="card-shadow" x="-2%" y="-2%" width="104%" height="108%">
      <feDropShadow dx="0" dy="1.5" stdDeviation="3" flood-color="#000" flood-opacity="0.06"/>
    </filter>
    <filter id="shadow-light" x="-2%" y="-2%" width="104%" height="106%">
      <feDropShadow dx="0" dy="1" stdDeviation="2" flood-color="#000" flood-opacity="0.04"/>
    </filter>
    <!-- Arrow marker for clip-on diagram -->
    <marker id="arrow-down" viewBox="0 0 10 10" refX="5" refY="10" markerWidth="5" markerHeight="5" orient="auto">
      <path d="M 0,0 L 5,10 L 10,0 Z" fill="#FF9800"/>
    </marker>
  </defs>

  <!-- Background -->
  <rect width="1200" height="800" fill="#ffffff"/>

  <!-- ===== HEADER ===== -->
  <text x="25" y="36" class="title-main">髋关节与髋膝一体外骨骼架构分类</text>
  <text x="25" y="55" class="title-sub">Hip &amp; Hip-Knee Integrated Exoskeleton Architecture Classification — 力学路径与代表产品</text>

  <!-- ===== CARD ROW 1: Hip Exoskeletons 1-3 ===== -->
  <!-- Card 1: Omega Waist-Link -->
  <g transform="translate(25, 75)">
    <rect width="370" height="150" rx="8" fill="#fff" stroke="#e2e5e8" stroke-width="1" filter="url(#card-shadow)"/>
    <!-- Header bar -->
    <path d="M0,8 Q0,0 8,0 L362,0 Q370,0 370,8 L370,26 L0,26 Z" fill="#0096f0"/>
    <circle cx="16" cy="13" r="7" fill="#fff" opacity="0.25"/>
    <text x="16" y="13" class="card-num">1</text>
    <text x="30" y="17" class="card-title">Omega腰带+刚性连杆式</text>
    <text x="30" y="13" dy="0" class="card-en" fill="rgba(255,255,255,.65)" style="font-size:8px">Omega Waist-Link</text>
    <!-- Rating badge: 部分借鉴 -->
    <rect x="298" y="5" width="64" height="16" rx="4" fill="#FF9800"/>
    <text x="330" y="13" class="badge-text" style="font-size:8.5px">部分借鉴</text>
    <!-- Mech diagram -->
    <g transform="translate(14, 33)">
      <!-- Human outline -->
      <path d="M10,18 Q42,8 75,18" fill="none" stroke="#e2e5e8" stroke-width="2" stroke-linecap="round"/>
      <line x1="42" y1="8" x2="42" y2="0" stroke="#e2e5e8" stroke-width="1.5" stroke-linecap="round"/>
      <line x1="28" y1="20" x2="22" y2="82" stroke="#e2e5e8" stroke-width="1.5" stroke-linecap="round"/>
      <line x1="57" y1="20" x2="63" y2="82" stroke="#e2e5e8" stroke-width="1.5" stroke-linecap="round"/>
      <!-- Omega belt loops -->
      <ellipse cx="22" cy="14" rx="7" ry="5" fill="none" stroke="#0096f0" stroke-width="2"/>
      <ellipse cx="63" cy="14" rx="7" ry="5" fill="none" stroke="#0096f0" stroke-width="2"/>
      <path d="M10,16 Q42,6 75,16" fill="none" stroke="#0096f0" stroke-width="2.5" stroke-linecap="round"/>
      <!-- Rigid links -->
      <line x1="22" y1="19" x2="20" y2="78" stroke="#0096f0" stroke-width="2.5" stroke-linecap="round"/>
      <line x1="63" y1="19" x2="65" y2="78" stroke="#0096f0" stroke-width="2.5" stroke-linecap="round"/>
      <circle cx="20" cy="78" r="3" fill="#0096f0"/>
      <circle cx="65" cy="78" r="3" fill="#0096f0"/>
      <!-- Hip joint indicators -->
      <circle cx="28" cy="20" r="2" fill="none" stroke="#0096f0" stroke-width="1.5" opacity="0.5"/>
      <circle cx="57" cy="20" r="2" fill="none" stroke="#0096f0" stroke-width="1.5" opacity="0.5"/>
    </g>
    <!-- Product info -->
    <g transform="translate(108, 34)">
      <text x="0" y="0" class="prod-name">极壳 Hypershell X</text>
      <text x="0" y="12" class="prod-detail">$799-1,999 · 78+国 · 1.8-2.4kg · 18-22Nm</text>
      <text x="0" y="30" class="prod-name">海尔 W3</text>
      <text x="0" y="42" class="prod-detail">1.75kg · ¥15,999</text>
      <text x="0" y="60" class="prod-name">Honda Walking Assist</text>
      <text x="0" y="72" class="prod-detail">~2.8kg</text>
    </g>
  </g>

  <!-- Card 2: Belt-Cable -->
  <g transform="translate(425, 75)">
    <rect width="370" height="150" rx="8" fill="#fff" stroke="#e2e5e8" stroke-width="1" filter="url(#card-shadow)"/>
    <path d="M0,8 Q0,0 8,0 L362,0 Q370,0 370,8 L370,26 L0,26 Z" fill="#0096f0"/>
    <circle cx="16" cy="13" r="7" fill="#fff" opacity="0.25"/>
    <text x="16" y="13" class="card-num">2</text>
    <text x="30" y="17" class="card-title">腰带+皮带/缆绳式</text>
    <text x="30" y="13" class="card-en" fill="rgba(255,255,255,.65)" style="font-size:8px">Belt-Cable</text>
    <!-- Rating badge: 推荐借鉴 -->
    <rect x="298" y="5" width="64" height="16" rx="4" fill="#4CAF50"/>
    <text x="330" y="13" class="badge-text" style="font-size:8.5px">推荐借鉴</text>
    <!-- Mech diagram -->
    <g transform="translate(14, 33)">
      <path d="M10,18 Q42,8 75,18" fill="none" stroke="#e2e5e8" stroke-width="2" stroke-linecap="round"/>
      <line x1="42" y1="8" x2="42" y2="0" stroke="#e2e5e8" stroke-width="1.5" stroke-linecap="round"/>
      <line x1="28" y1="20" x2="22" y2="82" stroke="#e2e5e8" stroke-width="1.5" stroke-linecap="round"/>
      <line x1="57" y1="20" x2="63" y2="82" stroke="#e2e5e8" stroke-width="1.5" stroke-linecap="round"/>
      <!-- Belt -->
      <path d="M8,16 Q42,6 76,16" fill="none" stroke="#0096f0" stroke-width="3" stroke-linecap="round"/>
      <!-- Cables (dashed) -->
      <path d="M24,16 Q18,45 20,78" fill="none" stroke="#0096f0" stroke-width="1.8" stroke-dasharray="3,3" stroke-linecap="round"/>
      <path d="M61,16 Q67,45 65,78" fill="none" stroke="#0096f0" stroke-width="1.8" stroke-dasharray="3,3" stroke-linecap="round"/>
      <circle cx="20" cy="78" r="2.5" fill="#0096f0"/>
      <circle cx="65" cy="78" r="2.5" fill="#0096f0"/>
      <!-- Pulley indicators -->
      <circle cx="24" cy="16" r="3" fill="none" stroke="#0096f0" stroke-width="1.5"/>
      <circle cx="61" cy="16" r="3" fill="none" stroke="#0096f0" stroke-width="1.5"/>
    </g>
    <!-- Product info -->
    <g transform="translate(108, 34)">
      <text x="0" y="0" class="prod-name">肯綮 Ant-H1 Pro</text>
      <text x="0" y="12" class="prod-detail">2.4kg · ¥21,500 · IP56 · 23+国</text>
      <text x="0" y="34" class="prod-name">肯綮 π系列</text>
      <text x="0" y="46" class="prod-detail">1.8kg · 待发布 · ≤¥3,999</text>
    </g>
  </g>

  <!-- Card 3: Backpack -->
  <g transform="translate(825, 75)">
    <rect width="370" height="150" rx="8" fill="#fff" stroke="#e2e5e8" stroke-width="1" filter="url(#card-shadow)"/>
    <path d="M0,8 Q0,0 8,0 L362,0 Q370,0 370,8 L370,26 L0,26 Z" fill="#0096f0"/>
    <circle cx="16" cy="13" r="7" fill="#fff" opacity="0.25"/>
    <text x="16" y="13" class="card-num">3</text>
    <text x="30" y="17" class="card-title">背包式</text>
    <text x="30" y="13" class="card-en" fill="rgba(255,255,255,.65)" style="font-size:8px">Backpack Frame</text>
    <!-- Rating badge: 部分借鉴 -->
    <rect x="298" y="5" width="64" height="16" rx="4" fill="#FF9800"/>
    <text x="330" y="13" class="badge-text" style="font-size:8.5px">部分借鉴</text>
    <!-- Mech diagram -->
    <g transform="translate(14, 33)">
      <path d="M10,18 Q42,8 75,18" fill="none" stroke="#e2e5e8" stroke-width="2" stroke-linecap="round"/>
      <line x1="42" y1="8" x2="42" y2="-2" stroke="#e2e5e8" stroke-width="1.5" stroke-linecap="round"/>
      <line x1="28" y1="20" x2="22" y2="82" stroke="#e2e5e8" stroke-width="1.5" stroke-linecap="round"/>
      <line x1="57" y1="20" x2="63" y2="82" stroke="#e2e5e8" stroke-width="1.5" stroke-linecap="round"/>
      <!-- Backpack frame -->
      <rect x="28" y="-6" width="28" height="30" rx="4" fill="none" stroke="#0096f0" stroke-width="2"/>
      <line x1="28" y1="4" x2="14" y2="16" stroke="#0096f0" stroke-width="1.5"/>
      <line x1="56" y1="4" x2="70" y2="16" stroke="#0096f0" stroke-width="1.5"/>
      <!-- Structural frame to hips -->
      <path d="M28,20 L26,36" stroke="#0096f0" stroke-width="2" stroke-linecap="round"/>
      <path d="M56,20 L58,36" stroke="#0096f0" stroke-width="2" stroke-linecap="round"/>
      <path d="M26,36 L24,78" stroke="#0096f0" stroke-width="2" stroke-linecap="round"/>
      <path d="M58,36 L60,78" stroke="#0096f0" stroke-width="2" stroke-linecap="round"/>
      <circle cx="24" cy="78" r="3" fill="#0096f0"/>
      <circle cx="60" cy="78" r="3" fill="#0096f0"/>
      <!-- Floating hip arc -->
      <path d="M14,36 Q42,28 70,36" fill="none" stroke="#FF9800" stroke-width="1.5" stroke-dasharray="3,2" opacity="0.6"/>
    </g>
    <!-- Product info -->
    <g transform="translate(108, 34)">
      <text x="0" y="0" class="prod-name">傲鲨 VIATRIX</text>
      <text x="0" y="12" class="prod-detail">3kg · ¥6,799 · 46Nm · FLOAT 360浮动髋</text>
      <text x="0" y="34" class="prod-name">埃斯顿</text>
      <text x="0" y="46" class="prod-detail">暂无完整参数</text>
    </g>
  </g>

  <!-- ===== CARD ROW 2: Hip Exoskeletons 4-6 ===== -->
  <!-- Card 4: Industrial Passive Spring -->
  <g transform="translate(25, 248)">
    <rect width="370" height="150" rx="8" fill="#fff" stroke="#e2e5e8" stroke-width="1" filter="url(#card-shadow)"/>
    <path d="M0,8 Q0,0 8,0 L362,0 Q370,0 370,8 L370,26 L0,26 Z" fill="#0096f0"/>
    <circle cx="16" cy="13" r="7" fill="#fff" opacity="0.25"/>
    <text x="16" y="13" class="card-num">4</text>
    <text x="30" y="17" class="card-title">工业被动弹簧式</text>
    <text x="30" y="13" class="card-en" fill="rgba(255,255,255,.65)" style="font-size:8px">Industrial Passive Spring</text>
    <!-- Rating badge: 部分借鉴 -->
    <rect x="298" y="5" width="64" height="16" rx="4" fill="#FF9800"/>
    <text x="330" y="13" class="badge-text" style="font-size:8.5px">部分借鉴</text>
    <!-- Mech diagram -->
    <g transform="translate(14, 33)">
      <path d="M10,18 Q42,8 75,18" fill="none" stroke="#e2e5e8" stroke-width="2" stroke-linecap="round"/>
      <line x1="42" y1="8" x2="42" y2="0" stroke="#e2e5e8" stroke-width="1.5" stroke-linecap="round"/>
      <line x1="28" y1="20" x2="22" y2="82" stroke="#e2e5e8" stroke-width="1.5" stroke-linecap="round"/>
      <line x1="57" y1="20" x2="63" y2="82" stroke="#e2e5e8" stroke-width="1.5" stroke-linecap="round"/>
      <!-- Belt -->
      <path d="M8,16 Q42,6 76,16" fill="none" stroke="#0096f0" stroke-width="2.5" stroke-linecap="round"/>
      <!-- Left spring -->
      <path d="M22,16 L18,28 L28,32 L18,36 L28,40 L18,44 L22,50" fill="none" stroke="#0096f0" stroke-width="1.8" stroke-linecap="round" stroke-linejoin="round"/>
      <line x1="22" y1="50" x2="20" y2="78" stroke="#0096f0" stroke-width="2" stroke-linecap="round"/>
      <!-- Right spring -->
      <path d="M62,16 L66,28 L56,32 L66,36 L56,40 L66,44 L62,50" fill="none" stroke="#0096f0" stroke-width="1.8" stroke-linecap="round" stroke-linejoin="round"/>
      <line x1="62" y1="50" x2="64" y2="78" stroke="#0096f0" stroke-width="2" stroke-linecap="round"/>
      <circle cx="20" cy="78" r="2.5" fill="#0096f0"/>
      <circle cx="64" cy="78" r="2.5" fill="#0096f0"/>
    </g>
    <!-- Product info -->
    <g transform="translate(108, 34)">
      <text x="0" y="0" class="prod-name">SuitX backX</text>
      <text x="0" y="12" class="prod-detail">$4,000 · 2.0kg · 零功耗</text>
      <text x="0" y="34" class="prod-name">Laevo FLEX</text>
      <text x="0" y="46" class="prod-detail">~$2,700 · 气弹簧</text>
    </g>
  </g>

  <!-- Card 5: Pneumatic Hip -->
  <g transform="translate(425, 248)">
    <rect width="370" height="150" rx="8" fill="#fff" stroke="#e2e5e8" stroke-width="1" filter="url(#card-shadow)"/>
    <path d="M0,8 Q0,0 8,0 L362,0 Q370,0 370,8 L370,26 L0,26 Z" fill="#0096f0"/>
    <circle cx="16" cy="13" r="7" fill="#fff" opacity="0.25"/>
    <text x="16" y="13" class="card-num">5</text>
    <text x="30" y="17" class="card-title">气动人工肌肉髋部</text>
    <text x="30" y="13" class="card-en" fill="rgba(255,255,255,.65)" style="font-size:8px">Pneumatic Artificial Muscle</text>
    <!-- Rating badge: 不推荐 -->
    <rect x="298" y="5" width="64" height="16" rx="4" fill="#9E9E9E"/>
    <text x="330" y="13" class="badge-text" style="font-size:8.5px">不推荐</text>
    <!-- Mech diagram -->
    <g transform="translate(14, 33)">
      <path d="M10,18 Q42,8 75,18" fill="none" stroke="#e2e5e8" stroke-width="2" stroke-linecap="round"/>
      <line x1="42" y1="8" x2="42" y2="0" stroke="#e2e5e8" stroke-width="1.5" stroke-linecap="round"/>
      <line x1="28" y1="20" x2="22" y2="82" stroke="#e2e5e8" stroke-width="1.5" stroke-linecap="round"/>
      <line x1="57" y1="20" x2="63" y2="82" stroke="#e2e5e8" stroke-width="1.5" stroke-linecap="round"/>
      <!-- Air supply -->
      <rect x="34" y="-4" width="16" height="12" rx="3" fill="none" stroke="#0096f0" stroke-width="1.5"/>
      <text x="42" y="4" class="mech-label" fill="#0096f0" font-size="6">气源</text>
      <!-- Left air muscle -->
      <path d="M18,16 L14,28 Q12,38 16,46 L18,52" fill="none" stroke="#9E9E9E" stroke-width="1.5" stroke-linecap="round"/>
      <path d="M18,16 L12,20 L18,24 L12,28 L18,32 L12,36 L18,40 L12,44 L18,48 L14,52" fill="none" stroke="#0096f0" stroke-width="1.5" stroke-linecap="round" stroke-linejoin="round"/>
      <line x1="16" y1="52" x2="20" y2="78" stroke="#0096f0" stroke-width="1.5" stroke-linecap="round"/>
      <!-- Right air muscle -->
      <path d="M66,16 L70,28 Q72,38 68,46 L66,52" fill="none" stroke="#9E9E9E" stroke-width="1.5" stroke-linecap="round"/>
      <path d="M66,16 L72,20 L66,24 L72,28 L66,32 L72,36 L66,40 L72,44 L66,48 L70,52" fill="none" stroke="#0096f0" stroke-width="1.5" stroke-linecap="round" stroke-linejoin="round"/>
      <line x1="68" y1="52" x2="64" y2="78" stroke="#0096f0" stroke-width="1.5" stroke-linecap="round"/>
    </g>
    <!-- Product info -->
    <g transform="translate(108, 34)">
      <text x="0" y="0" class="prod-name">Innophys Muscle Suit</text>
      <text x="0" y="12" class="prod-detail">35,000+台 · 3.8kg/430g</text>
      <text x="0" y="27" class="prod-detail">无电池 · ~$400-1,000</text>
    </g>
  </g>

  <!-- Card 6: Active Frame -->
  <g transform="translate(825, 248)">
    <rect width="370" height="150" rx="8" fill="#fff" stroke="#e2e5e8" stroke-width="1" filter="url(#card-shadow)"/>
    <path d="M0,8 Q0,0 8,0 L362,0 Q370,0 370,8 L370,26 L0,26 Z" fill="#0096f0"/>
    <circle cx="16" cy="13" r="7" fill="#fff" opacity="0.25"/>
    <text x="16" y="13" class="card-num">6</text>
    <text x="30" y="17" class="card-title">主动外骨骼框架式</text>
    <text x="30" y="13" class="card-en" fill="rgba(255,255,255,.65)" style="font-size:8px">Active Rigid Frame</text>
    <!-- Rating badge: 部分借鉴 -->
    <rect x="298" y="5" width="64" height="16" rx="4" fill="#FF9800"/>
    <text x="330" y="13" class="badge-text" style="font-size:8.5px">部分借鉴</text>
    <!-- Mech diagram -->
    <g transform="translate(14, 33)">
      <path d="M10,18 Q42,8 75,18" fill="none" stroke="#e2e5e8" stroke-width="2" stroke-linecap="round"/>
      <line x1="42" y1="8" x2="42" y2="-4" stroke="#e2e5e8" stroke-width="1.5" stroke-linecap="round"/>
      <line x1="28" y1="20" x2="22" y2="82" stroke="#e2e5e8" stroke-width="1.5" stroke-linecap="round"/>
      <line x1="57" y1="20" x2="63" y2="82" stroke="#e2e5e8" stroke-width="1.5" stroke-linecap="round"/>
      <!-- Rigid back frame -->
      <line x1="42" y1="-4" x2="42" y2="22" stroke="#0096f0" stroke-width="3" stroke-linecap="round"/>
      <!-- Motor housings -->
      <rect x="9" y="20" width="16" height="12" rx="2" fill="#0096f0" opacity="0.15"/>
      <rect x="9" y="20" width="16" height="12" rx="2" fill="none" stroke="#0096f0" stroke-width="1.5"/>
      <text x="17" y="30" class="mech-label" fill="#0096f0" font-size="6">M</text>
      <rect x="59" y="20" width="16" height="12" rx="2" fill="#0096f0" opacity="0.15"/>
      <rect x="59" y="20" width="16" height="12" rx="2" fill="none" stroke="#0096f0" stroke-width="1.5"/>
      <text x="67" y="30" class="mech-label" fill="#0096f0" font-size="6">M</text>
      <!-- Frame to legs -->
      <line x1="17" y1="32" x2="20" y2="78" stroke="#0096f0" stroke-width="2" stroke-linecap="round"/>
      <line x1="67" y1="32" x2="64" y2="78" stroke="#0096f0" stroke-width="2" stroke-linecap="round"/>
      <circle cx="20" cy="78" r="3" fill="#0096f0"/>
      <circle cx="64" cy="78" r="3" fill="#0096f0"/>
    </g>
    <!-- Product info -->
    <g transform="translate(108, 34)">
      <text x="0" y="0" class="prod-name">CYBERDYNE HAL Lumbar</text>
      <text x="0" y="12" class="prod-detail">14kg · FDA/CE · 月租$1,500</text>
      <text x="0" y="34" class="prod-name">German Bionic Apogee</text>
      <text x="0" y="46" class="prod-detail">7kg · $9,900 · 36kg助力</text>
    </g>
  </g>

  <!-- ===== SECTION DIVIDER ===== -->
  <line x1="25" y1="425" x2="1175" y2="425" stroke="#e2e5e8" stroke-width="1"/>
  <rect x="25" y="418" width="380" height="16" rx="3" fill="#0096f0" opacity="0.08"/>
  <text x="26" y="430" class="section-title" font-size="13">髋膝一体外骨骼架构分类 · Hip-Knee Integrated</text>

  <!-- ===== CARD ROW 3: Hip-Knee 7-9 ===== -->
  <!-- Card 7: 4-Motor Waist -->
  <g transform="translate(25, 455)">
    <rect width="370" height="145" rx="8" fill="#fff" stroke="#e2e5e8" stroke-width="1" filter="url(#card-shadow)"/>
    <path d="M0,8 Q0,0 8,0 L362,0 Q370,0 370,8 L370,26 L0,26 Z" fill="#0096f0"/>
    <circle cx="16" cy="13" r="7" fill="#fff" opacity="0.25"/>
    <text x="16" y="13" class="card-num">7</text>
    <text x="30" y="17" class="card-title">腰带4电机联动式</text>
    <text x="30" y="13" class="card-en" fill="rgba(255,255,255,.65)" style="font-size:8px">4-Motor Waist</text>
    <!-- Rating badge: 推荐借鉴 -->
    <rect x="298" y="5" width="64" height="16" rx="4" fill="#4CAF50"/>
    <text x="330" y="13" class="badge-text" style="font-size:8.5px">推荐借鉴</text>
    <!-- Mech diagram -->
    <g transform="translate(14, 33)">
      <!-- Hip-knee human outline -->
      <path d="M10,12 Q42,2 75,12" fill="none" stroke="#e2e5e8" stroke-width="2" stroke-linecap="round"/>
      <line x1="42" y1="2" x2="42" y2="-5" stroke="#e2e5e8" stroke-width="1.5" stroke-linecap="round"/>
      <path d="M28,14 L22,38 L28,50 L24,82" fill="none" stroke="#e2e5e8" stroke-width="1.5" stroke-linecap="round" stroke-linejoin="round"/>
      <path d="M57,14 L63,38 L57,50 L61,82" fill="none" stroke="#e2e5e8" stroke-width="1.5" stroke-linecap="round" stroke-linejoin="round"/>
      <!-- Belt -->
      <path d="M6,12 Q42,1 78,12" fill="none" stroke="#0096f0" stroke-width="2.5" stroke-linecap="round"/>
      <!-- 4 motors -->
      <circle cx="18" cy="5" r="5" fill="none" stroke="#0096f0" stroke-width="1.8"/>
      <circle cx="18" cy="5" r="2" fill="#0096f0"/>
      <circle cx="42" cy="0" r="5" fill="none" stroke="#0096f0" stroke-width="1.8"/>
      <circle cx="42" cy="0" r="2" fill="#0096f0"/>
      <circle cx="66" cy="5" r="5" fill="none" stroke="#0096f0" stroke-width="1.8"/>
      <circle cx="66" cy="5" r="2" fill="#0096f0"/>
      <circle cx="42" cy="14" r="5" fill="none" stroke="#0096f0" stroke-width="1.8"/>
      <circle cx="42" cy="14" r="2" fill="#0096f0"/>
      <!-- Linkages -->
      <line x1="18" y1="10" x2="22" y2="38" stroke="#0096f0" stroke-width="1.5" stroke-linecap="round"/>
      <line x1="66" y1="10" x2="63" y2="38" stroke="#0096f0" stroke-width="1.5" stroke-linecap="round"/>
      <circle cx="22" cy="38" r="2.5" fill="#0096f0"/>
      <circle cx="63" cy="38" r="2.5" fill="#0096f0"/>
    </g>
    <!-- Product info -->
    <g transform="translate(108, 34)">
      <text x="0" y="0" class="prod-name">Vastnaut One 4x4</text>
      <text x="0" y="12" class="prod-detail">2.7kg · $1,299-1,899</text>
      <text x="0" y="27" class="prod-detail">KS $1.26M · 4电机</text>
    </g>
  </g>

  <!-- Card 8: Modular Clip-On -->
  <g transform="translate(425, 455)">
    <rect width="370" height="145" rx="8" fill="#fff" stroke="#e2e5e8" stroke-width="1" filter="url(#card-shadow)"/>
    <path d="M0,8 Q0,0 8,0 L362,0 Q370,0 370,8 L370,26 L0,26 Z" fill="#0096f0"/>
    <circle cx="16" cy="13" r="7" fill="#fff" opacity="0.25"/>
    <text x="16" y="13" class="card-num">8</text>
    <text x="30" y="17" class="card-title">模块化即插即用式</text>
    <text x="30" y="13" class="card-en" fill="rgba(255,255,255,.65)" style="font-size:8px">Modular Clip-On</text>
    <!-- Rating badge: 推荐借鉴 -->
    <rect x="298" y="5" width="64" height="16" rx="4" fill="#4CAF50"/>
    <text x="330" y="13" class="badge-text" style="font-size:8.5px">推荐借鉴</text>
    <!-- Mech diagram -->
    <g transform="translate(14, 33)">
      <path d="M10,12 Q42,2 75,12" fill="none" stroke="#e2e5e8" stroke-width="2" stroke-linecap="round"/>
      <line x1="42" y1="2" x2="42" y2="-5" stroke="#e2e5e8" stroke-width="1.5" stroke-linecap="round"/>
      <path d="M28,14 L22,38 L28,50 L24,82" fill="none" stroke="#e2e5e8" stroke-width="1.5" stroke-linecap="round" stroke-linejoin="round"/>
      <path d="M57,14 L63,38 L57,50 L61,82" fill="none" stroke="#e2e5e8" stroke-width="1.5" stroke-linecap="round" stroke-linejoin="round"/>
      <!-- Hip module -->
      <rect x="14" y="6" width="56" height="16" rx="4" fill="none" stroke="#0096f0" stroke-width="1.5"/>
      <text x="42" y="17" class="mech-label" fill="#0096f0" font-size="7" font-weight="bold">髋模块 Hip</text>
      <!-- Clip arrow -->
      <line x1="36" y1="22" x2="36" y2="32" stroke="#FF9800" stroke-width="1.5" marker-end="url(#arrow-down)"/>
      <line x1="48" y1="22" x2="48" y2="32" stroke="#FF9800" stroke-width="1.5" marker-end="url(#arrow-down)"/>
      <!-- Knee module -->
      <rect x="14" y="36" width="56" height="16" rx="4" fill="none" stroke="#0096f0" stroke-width="1.5"/>
      <text x="42" y="47" class="mech-label" fill="#0096f0" font-size="7" font-weight="bold">膝模块 Knee</text>
      <!-- Connection lines -->
      <line x1="28" y1="52" x2="24" y2="78" stroke="#0096f0" stroke-width="1.5" stroke-linecap="round"/>
      <line x1="56" y1="52" x2="60" y2="78" stroke="#0096f0" stroke-width="1.5" stroke-linecap="round"/>
    </g>
    <!-- Product info -->
    <g transform="translate(108, 34)">
      <text x="0" y="0" class="prod-name" font-size="9.5">DNSYS X1(髋)+Z1(膝) 可叠加</text>
      <text x="0" y="20" class="prod-name">Ascentiz K1</text>
      <text x="0" y="32" class="prod-detail">1.77kg · 48Nm · $549-1,648</text>
    </g>
  </g>

  <!-- Card 9: Full Rigid Frame -->
  <g transform="translate(825, 455)">
    <rect width="370" height="145" rx="8" fill="#fff" stroke="#e2e5e8" stroke-width="1" filter="url(#card-shadow)"/>
    <path d="M0,8 Q0,0 8,0 L362,0 Q370,0 370,8 L370,26 L0,26 Z" fill="#0096f0"/>
    <circle cx="16" cy="13" r="7" fill="#fff" opacity="0.25"/>
    <text x="16" y="13" class="card-num">9</text>
    <text x="30" y="17" class="card-title">全下肢刚性框架式</text>
    <text x="30" y="13" class="card-en" fill="rgba(255,255,255,.65)" style="font-size:8px">Full Rigid Frame (Medical)</text>
    <!-- Rating badge: 不推荐 -->
    <rect x="298" y="5" width="64" height="16" rx="4" fill="#9E9E9E"/>
    <text x="330" y="13" class="badge-text" style="font-size:8.5px">不推荐</text>
    <!-- Mech diagram -->
    <g transform="translate(14, 33)">
      <path d="M12,12 Q42,2 72,12" fill="none" stroke="#e2e5e8" stroke-width="2" stroke-linecap="round"/>
      <line x1="42" y1="2" x2="42" y2="-5" stroke="#e2e5e8" stroke-width="1.5" stroke-linecap="round"/>
      <!-- Full leg frame - left -->
      <line x1="24" y1="14" x2="18" y2="38" stroke="#0096f0" stroke-width="2.5" stroke-linecap="round"/>
      <line x1="18" y1="38" x2="24" y2="50" stroke="#0096f0" stroke-width="2.5" stroke-linecap="round"/>
      <line x1="24" y1="50" x2="20" y2="85" stroke="#0096f0" stroke-width="2.5" stroke-linecap="round"/>
      <!-- Full leg frame - right -->
      <line x1="60" y1="14" x2="66" y2="38" stroke="#0096f0" stroke-width="2.5" stroke-linecap="round"/>
      <line x1="66" y1="38" x2="60" y2="50" stroke="#0096f0" stroke-width="2.5" stroke-linecap="round"/>
      <line x1="60" y1="50" x2="64" y2="85" stroke="#0096f0" stroke-width="2.5" stroke-linecap="round"/>
      <!-- Belt connection -->
      <path d="M24,12 L60,12" fill="none" stroke="#0096f0" stroke-width="2" stroke-linecap="round"/>
      <!-- Joint circles -->
      <circle cx="18" cy="38" r="3.5" fill="#0096f0"/>
      <circle cx="66" cy="38" r="3.5" fill="#0096f0"/>
      <circle cx="24" cy="50" r="3" fill="#0096f0"/>
      <circle cx="60" cy="50" r="3" fill="#0096f0"/>
      <!-- Cross braces -->
      <line x1="18" y1="58" x2="24" y2="65" stroke="#0096f0" stroke-width="1" opacity="0.4"/>
      <line x1="66" y1="58" x2="60" y2="65" stroke="#0096f0" stroke-width="1" opacity="0.4"/>
    </g>
    <!-- Product info -->
    <g transform="translate(108, 34)">
      <text x="0" y="0" class="prod-name">ReWalk P6.0</text>
      <text x="0" y="12" class="prod-detail">23.3kg · $70-85K · FDA/CE</text>
      <text x="0" y="30" class="prod-name">EksoNR</text>
      <text x="0" y="42" class="prod-detail">22.7-25kg · $100K+</text>
      <text x="0" y="60" class="prod-name">傅利叶 ExoMotus M4</text>
      <text x="0" y="72" class="prod-detail">18kg · 120Nm</text>
    </g>
  </g>

  <!-- ===== CARD ROW 4: Self-Balancing (single wide card) ===== -->
  <g transform="translate(150, 625)">
    <rect width="900" height="140" rx="8" fill="#fff" stroke="#e2e5e8" stroke-width="1" filter="url(#card-shadow)"/>
    <path d="M0,8 Q0,0 8,0 L892,0 Q900,0 900,8 L900,26 L0,26 Z" fill="#0096f0"/>
    <circle cx="16" cy="13" r="7" fill="#fff" opacity="0.25"/>
    <text x="16" y="13" class="card-num">10</text>
    <text x="30" y="17" class="card-title">自平衡免提式</text>
    <text x="30" y="13" class="card-en" fill="rgba(255,255,255,.65)" style="font-size:8px">Self-Balancing Hands-Free</text>
    <!-- Rating badge: 不推荐 -->
    <rect x="828" y="5" width="64" height="16" rx="4" fill="#9E9E9E"/>
    <text x="860" y="13" class="badge-text" style="font-size:8.5px">不推荐</text>
    <!-- Mech diagram (wider, more detailed) -->
    <g transform="translate(20, 33)">
      <!-- Full body outline -->
      <rect x="30" y="-2" width="14" height="24" rx="3" fill="none" stroke="#e2e5e8" stroke-width="1.5"/>
      <path d="M25,22 Q37,18 49,22" fill="none" stroke="#e2e5e8" stroke-width="2" stroke-linecap="round"/>
      <path d="M25,24 Q37,20 49,24" fill="none" stroke="#e2e5e8" stroke-width="2" stroke-linecap="round"/>
      <!-- Legs -->
      <path d="M32,24 L28,44 L34,56 L30,88" fill="none" stroke="#e2e5e8" stroke-width="1.5" stroke-linecap="round" stroke-linejoin="round"/>
      <path d="M42,24 L46,44 L40,56 L44,88" fill="none" stroke="#e2e5e8" stroke-width="1.5" stroke-linecap="round" stroke-linejoin="round"/>
      <!-- Exoskeleton frame -->
      <line x1="24" y1="10" x2="50" y2="10" stroke="#0096f0" stroke-width="2.5" stroke-linecap="round"/>
      <line x1="24" y1="10" x2="20" y2="44" stroke="#0096f0" stroke-width="2" stroke-linecap="round"/>
      <line x1="50" y1="10" x2="54" y2="44" stroke="#0096f0" stroke-width="2" stroke-linecap="round"/>
      <line x1="20" y1="44" x2="28" y2="60" stroke="#0096f0" stroke-width="2" stroke-linecap="round"/>
      <line x1="54" y1="44" x2="46" y2="60" stroke="#0096f0" stroke-width="2" stroke-linecap="round"/>
      <!-- Motor indicators -->
      <rect x="16" y="44" width="10" height="10" rx="2" fill="none" stroke="#0096f0" stroke-width="1.5"/>
      <text x="21" y="51" class="mech-label" fill="#0096f0" font-size="5.5">M</text>
      <rect x="48" y="44" width="10" height="10" rx="2" fill="none" stroke="#0096f0" stroke-width="1.5"/>
      <text x="53" y="51" class="mech-label" fill="#0096f0" font-size="5.5">M</text>
      <!-- Wheels -->
      <circle cx="30" cy="92" r="6" fill="none" stroke="#0096f0" stroke-width="2"/>
      <circle cx="30" cy="92" r="2" fill="#0096f0"/>
      <circle cx="44" cy="92" r="6" fill="none" stroke="#0096f0" stroke-width="2"/>
      <circle cx="44" cy="92" r="2" fill="#0096f0"/>
      <!-- Gyroscope/balance symbol -->
      <circle cx="85" cy="24" r="12" fill="none" stroke="#0096f0" stroke-width="1.5" opacity="0.5"/>
      <path d="M77,24 Q85,16 93,24" fill="none" stroke="#0096f0" stroke-width="1.5" opacity="0.7"/>
      <path d="M77,24 Q85,32 93,24" fill="none" stroke="#0096f0" stroke-width="1.5" opacity="0.7"/>
      <line x1="85" y1="16" x2="85" y2="32" stroke="#0096f0" stroke-width="1" opacity="0.4"/>
      <line x1="77" y1="24" x2="93" y2="24" stroke="#0096f0" stroke-width="1" opacity="0.4"/>
      <text x="85" y="44" class="mech-label" fill="#0096f0" font-size="6.5">自平衡 IMU</text>
      <!-- DOF annotation -->
      <text x="21" y="70" class="mech-label" fill="#999" font-size="5.5">12主动自由度</text>
    </g>
    <!-- Product info (more horizontal space) -->
    <g transform="translate(140, 34)">
      <text x="0" y="0" class="prod-name" style="font-size:12px">Wandercraft Atalante X</text>
      <text x="0" y="18" class="prod-detail" style="font-size:10px">80kg · FDA 2024 · 12主动DoF · 2km/h</text>
      <text x="0" y="42" class="prod-detail" style="font-size:9px;fill:#9E9E9E">全自平衡下肢外骨骼，无需拐杖/助行器 · 医用康复场景</text>
      <text x="0" y="58" class="prod-detail" style="font-size:9px;fill:#9E9E9E">80kg自重 + $15万级售价，消费级参考价值有限</text>
    </g>
    <!-- Key insight badge -->
    <g transform="translate(140, 80)">
      <rect x="0" y="0" width="320" height="20" rx="4" fill="#f8f9fb" stroke="#e2e5e8" stroke-width="0.5"/>
      <text x="10" y="13" class="prod-detail" fill="#9E9E9E" font-size="8.5" font-weight="600">核心技术</text>
      <text x="62" y="13" class="prod-detail" fill="#6b7280" font-size="8.5">IMU融合 · 模型预测控制 · 主动平衡</text>
    </g>
  </g>

  <!-- ===== LEGEND ===== -->
  <g transform="translate(25, 782)">
    <line x1="0" y1="0" x2="1150" y2="0" stroke="#e2e5e8" stroke-width="0.5"/>
    <text x="0" y="16" class="legend-text" fill="#9E9E9E" style="font-size:9px">评级依据：对Bones产品线的技术借鉴价值、集成难度、目标市场匹配度综合评估</text>
    <!-- Green -->
    <circle cx="380" cy="10" r="4" fill="#4CAF50"/>
    <text x="390" y="14" class="legend-text" style="font-size:9px">推荐借鉴 — 核心架构可复用</text>
    <!-- Orange -->
    <circle cx="560" cy="10" r="4" fill="#FF9800"/>
    <text x="570" y="14" class="legend-text" style="font-size:9px">部分借鉴 — 局部设计可参考</text>
    <!-- Gray -->
    <circle cx="740" cy="10" r="4" fill="#9E9E9E"/>
    <text x="750" y="14" class="legend-text" style="font-size:9px">不推荐 — 方向/重量/成本不匹配</text>
  </g>
</svg>