<svg xmlns="http://www.w3.org/2000/svg" viewBox="0 0 1200 1000" width="1200" height="1000">
  <defs>
    <!-- Bone color gradient background -->
    <linearGradient id="boneBg" x1="0%" y1="0%" x2="100%" y2="100%">
      <stop offset="0%" style="stop-color:#f5f0eb"/>
      <stop offset="50%" style="stop-color:#efe8e0"/>
      <stop offset="100%" style="stop-color:#e8dfd5"/>
    </linearGradient>
    <!-- Blue theme gradient -->
    <linearGradient id="blueTheme" x1="0%" y1="0%" x2="100%" y2="100%">
      <stop offset="0%" style="stop-color:#0096f0"/>
      <stop offset="100%" style="stop-color:#0072b8"/>
    </linearGradient>
    <linearGradient id="blueLight" x1="0%" y1="0%" x2="100%" y2="100%">
      <stop offset="0%" style="stop-color:#e6f4ff"/>
      <stop offset="100%" style="stop-color:#b3d9ff"/>
    </linearGradient>
    <linearGradient id="metalGrad" x1="0%" y1="0%" x2="100%" y2="100%">
      <stop offset="0%" style="stop-color:#c0c0c0"/>
      <stop offset="50%" style="stop-color:#808080"/>
      <stop offset="100%" style="stop-color:#606060"/>
    </linearGradient>
    <linearGradient id="carbonFiber" x1="0%" y1="0%" x2="100%" y2="100%">
      <stop offset="0%" style="stop-color:#2a2a2a"/>
      <stop offset="30%" style="stop-color:#3a3a3a"/>
      <stop offset="60%" style="stop-color:#2a2a2a"/>
      <stop offset="100%" style="stop-color:#1a1a1a"/>
    </linearGradient>
    <linearGradient id="skinGrad" x1="0%" y1="0%" x2="100%" y2="100%">
      <stop offset="0%" style="stop-color:#fce4d6"/>
      <stop offset="100%" style="stop-color:#f5d0b8"/>
    </linearGradient>
    <linearGradient id="motorBody" x1="0%" y1="0%" x2="100%" y2="100%">
      <stop offset="0%" style="stop-color:#d4d4d4"/>
      <stop offset="100%" style="stop-color:#a0a0a0"/>
    </linearGradient>
    <filter id="shadow" x="-5%" y="-5%" width="110%" height="110%">
      <feDropShadow dx="2" dy="2" stdDeviation="3" flood-color="#00000040"/>
    </filter>
    <filter id="shadowLight" x="-5%" y="-5%" width="110%" height="110%">
      <feDropShadow dx="1" dy="1" stdDeviation="2" flood-color="#00000030"/>
    </filter>
    <marker id="arrowBlue" markerWidth="10" markerHeight="7" refX="9" refY="3.5" orient="auto">
      <polygon points="0 0, 10 3.5, 0 7" fill="#0096f0"/>
    </marker>
    <marker id="arrowRed" markerWidth="10" markerHeight="7" refX="9" refY="3.5" orient="auto">
      <polygon points="0 0, 10 3.5, 0 7" fill="#e63946"/>
    </marker>
    <marker id="arrowGray" markerWidth="10" markerHeight="7" refX="9" refY="3.5" orient="auto">
      <polygon points="0 0, 10 3.5, 0 7" fill="#666"/>
    </marker>
  </defs>

  <!-- Background -->
  <rect x="0" y="0" width="1200" height="1000" fill="url(#boneBg)" rx="8"/>

  <!-- 60px isolation border -->
  <rect x="5" y="5" width="1190" height="990" fill="none" stroke="#0096f0" stroke-width="1.5" rx="4" stroke-dasharray="8,4" opacity="0.3"/>

  <!-- Title bar -->
  <rect x="40" y="20" width="1120" height="60" rx="8" fill="url(#blueTheme)" filter="url(#shadow)"/>
  <text x="600" y="46" text-anchor="middle" fill="white" font-size="22" font-weight="bold" font-family="system-ui, sans-serif">架构演进 Gen 0-1 — 铰链单轴 + 腰带集中供电</text>
  <text x="600" y="66" text-anchor="middle" fill="rgba(255,255,255,0.8)" font-size="13" font-family="system-ui, sans-serif">Gen 0-1: Hinged Single-Axis Joint with Belt-Mounted Concentrated Power Supply</text>

  <!-- ===== LEFT PANEL: Human leg anatomy + exoskeleton ===== 720x700区域 -->
  <g transform="translate(20, 95)">

    <!-- Left panel label -->
    <rect x="0" y="0" width="720" height="30" rx="4" fill="#0096f0" opacity="0.15"/>
    <text x="360" y="20" text-anchor="middle" fill="#0096f0" font-size="15" font-weight="bold" font-family="system-ui, sans-serif">系统架构与力传递 — 产品/解剖放大图</text>

    <!-- ============ 放大1.45x的人体腿部与外骨骼 ============ -->
    <g transform="translate(80, 25) scale(1.45)">
      <!-- === Human Leg Figure (stylized) === -->
      <g transform="translate(0, 0)">
        <!-- Pelvis/hip area -->
        <ellipse cx="40" cy="20" rx="50" ry="25" fill="url(#skinGrad)" stroke="#d4a373" stroke-width="0.8"/>
        <!-- Upper leg (femur) -->
        <rect x="10" y="40" width="60" height="180" rx="20" fill="url(#skinGrad)" stroke="#d4a373" stroke-width="0.8"/>
        <!-- Knee joint -->
        <circle cx="40" cy="225" r="22" fill="#fce4d6" stroke="#d4a373" stroke-width="1.2"/>
        <!-- Lower leg (tibia/fibula) -->
        <rect x="15" y="245" width="50" height="180" rx="15" fill="url(#skinGrad)" stroke="#d4a373" stroke-width="0.8"/>
        <!-- Ankle -->
        <ellipse cx="40" cy="430" rx="25" ry="15" fill="#fce4d6" stroke="#d4a373" stroke-width="0.8"/>
        <!-- Foot -->
        <path d="M15,440 L15,470 Q20,480 40,480 Q60,480 65,470 L65,445 Z" fill="url(#skinGrad)" stroke="#d4a373" stroke-width="0.8"/>
        <!-- Femur bone hint -->
        <rect x="25" y="55" width="8" height="170" rx="4" fill="#e8d5c4" stroke="#c4a882" stroke-width="0.5" opacity="0.6"/>
        <!-- Tibia bone hint -->
        <rect x="30" y="255" width="7" height="165" rx="3.5" fill="#e8d5c4" stroke="#c4a882" stroke-width="0.5" opacity="0.6"/>
      </g>

      <!-- === Exoskeleton Frame (carbon fiber look) === -->
      <g transform="translate(0, 0)">
        <!-- Hip mounting bracket -->
        <rect x="-20" y="10" width="30" height="15" rx="3" fill="url(#carbonFiber)" stroke="#555" stroke-width="0.6"/>
        <!-- Upper strut (carbon fiber) -->
        <rect x="-18" y="22" width="8" height="200" rx="3" fill="url(#carbonFiber)" stroke="#555" stroke-width="0.4"/>
        <line x1="-18" y1="50" x2="-10" y2="50" stroke="#444" stroke-width="0.3" opacity="0.5"/>
        <line x1="-18" y1="80" x2="-10" y2="80" stroke="#444" stroke-width="0.3" opacity="0.5"/>
        <line x1="-18" y1="110" x2="-10" y2="110" stroke="#444" stroke-width="0.3" opacity="0.5"/>
        <line x1="-18" y1="140" x2="-10" y2="140" stroke="#444" stroke-width="0.3" opacity="0.5"/>
        <line x1="-18" y1="170" x2="-10" y2="170" stroke="#444" stroke-width="0.3" opacity="0.5"/>
        <!-- Knee hinge joint (motor capsule) -->
        <rect x="-32" y="215" width="40" height="30" rx="8" fill="url(#metalGrad)" stroke="#555" stroke-width="0.8" filter="url(#shadowLight)"/>
        <circle cx="-12" cy="230" r="8" fill="#333" stroke="#555" stroke-width="0.4"/>
        <circle cx="-12" cy="230" r="3" fill="#666"/>
        <!-- Lower strut -->
        <rect x="-18" y="245" width="8" height="180" rx="3" fill="url(#carbonFiber)" stroke="#555" stroke-width="0.4"/>
        <line x1="-18" y1="280" x2="-10" y2="280" stroke="#444" stroke-width="0.3" opacity="0.5"/>
        <line x1="-18" y1="320" x2="-10" y2="320" stroke="#444" stroke-width="0.3" opacity="0.5"/>
        <line x1="-18" y1="360" x2="-10" y2="360" stroke="#444" stroke-width="0.3" opacity="0.5"/>
        <!-- Ankle joint -->
        <circle cx="-14" cy="430" r="8" fill="url(#metalGrad)" stroke="#555" stroke-width="0.6"/>
        <!-- Shroud/cable along leg -->
        <rect x="-5" y="25" width="4" height="395" rx="2" fill="#0096f0" opacity="0.25"/>
      </g>

      <!-- === Force Vectors on leg === -->
      <g transform="translate(0, 0)">
        <!-- Ground reaction force arrow -->
        <line x1="55" y1="475" x2="55" y2="380" stroke="#e63946" stroke-width="2.5" marker-end="url(#arrowRed)"/>
        <text x="62" y="440" font-size="9" fill="#e63946" font-weight="bold" font-family="system-ui, sans-serif">地面反力</text>
        <!-- Motor torque arrow at knee -->
        <path d="M-40,230 Q-50,225 -50,215" stroke="#0096f0" stroke-width="2" fill="none" marker-end="url(#arrowBlue)"/>
        <text x="-60" y="222" font-size="9" fill="#0096f0" font-weight="bold" font-family="system-ui, sans-serif">电机扭矩</text>
        <!-- Hip load arrow -->
        <line x1="-20" y1="15" x2="-20" y2="-10" stroke="#e63946" stroke-width="2" marker-end="url(#arrowRed)"/>
        <text x="-40" y="-8" font-size="9" fill="#e63946" font-weight="bold" font-family="system-ui, sans-serif">髋部支撑力</text>
      </g>
    </g>

    <!-- ============ 右侧详图区域 ============ -->
    <!-- Belt Battery Pack (放大) -->
    <g transform="translate(230, 40)">
      <rect x="0" y="0" width="280" height="120" rx="8" fill="white" stroke="#0096f0" stroke-width="1.5" filter="url(#shadowLight)"/>
      <text x="140" y="20" text-anchor="middle" fill="#0096f0" font-size="13" font-weight="bold" font-family="system-ui, sans-serif">腰带电池组 (Belt Battery Pack)</text>
      <rect x="15" y="32" width="250" height="16" rx="8" fill="#444" stroke="#333" stroke-width="0.5"/>
      <rect x="30" y="56" width="220" height="36" rx="5" fill="#0096f0" opacity="0.15" stroke="#0096f0" stroke-width="0.8"/>
      <rect x="42" y="62" width="28" height="24" rx="3" fill="#0096f0" opacity="0.5"/>
      <rect x="78" y="62" width="28" height="24" rx="3" fill="#0096f0" opacity="0.5"/>
      <rect x="114" y="62" width="28" height="24" rx="3" fill="#0096f0" opacity="0.5"/>
      <rect x="150" y="62" width="28" height="24" rx="3" fill="#0096f0" opacity="0.5"/>
      <text x="196" y="78" font-size="11" fill="#0096f0" font-weight="bold" font-family="system-ui, sans-serif">4S1P</text>
      <!-- Cable routing -->
      <path d="M30,74 Q12,74 12,96 Q12,110 18,118" stroke="#0096f0" stroke-width="2.5" fill="none" marker-end="url(#arrowBlue)"/>
      <text x="14" y="108" font-size="9" fill="#0096f0" font-family="system-ui, sans-serif">屏蔽电缆</text>
      <text x="140" y="107" text-anchor="middle" font-size="10" fill="#555" font-family="system-ui, sans-serif">72 Wh | 腰带集中安装</text>
    </g>

    <!-- Wear time indicator -->
    <g transform="translate(535, 40)">
      <circle cx="30" cy="30" r="24" fill="none" stroke="#0096f0" stroke-width="3.5"/>
      <path d="M30,30 L30,12" stroke="#0096f0" stroke-width="3"/>
      <path d="M30,30 L48,36" stroke="#0096f0" stroke-width="2.5"/>
      <text x="30" y="68" text-anchor="middle" fill="#0096f0" font-size="11" font-weight="bold" font-family="system-ui, sans-serif">30秒</text>
      <text x="30" y="82" text-anchor="middle" fill="#0096f0" font-size="9" font-family="system-ui, sans-serif">穿戴</text>
    </g>

    <!-- EM Clutch detail -->
    <g transform="translate(230, 175)">
      <rect x="0" y="0" width="280" height="65" rx="6" fill="white" stroke="#0096f0" stroke-width="1.2" stroke-dasharray="5,3" filter="url(#shadowLight)"/>
      <text x="140" y="20" text-anchor="middle" fill="#0096f0" font-size="12" font-weight="bold" font-family="system-ui, sans-serif">电磁离合器 (EM Clutch)</text>
      <text x="140" y="40" text-anchor="middle" fill="#555" font-size="11" font-family="system-ui, sans-serif">不驱动时分离，减小被动阻尼</text>
      <text x="140" y="57" text-anchor="middle" fill="#777" font-size="10" font-family="system-ui, sans-serif">零背隙 | 响应时间 &lt; 5ms</text>
    </g>

    <!-- Cable path label (repositioned) -->
    <g transform="translate(535, 165)">
      <path d="M-15,0 Q10,-20 10,-40 Q10,-55 -5,-65" stroke="#0096f0" stroke-width="2" fill="none" stroke-dasharray="4,3"/>
      <text x="15" y="-35" font-size="10" fill="#0096f0" font-family="system-ui, sans-serif">电缆沿腿</text>
      <text x="15" y="-22" font-size="10" fill="#0096f0" font-family="system-ui, sans-serif">外缘固定</text>
    </g>

    <!-- AK80-9 Motor Cross-Section Detail (放大) -->
    <g transform="translate(230, 260)">
      <rect x="0" y="0" width="300" height="175" rx="8" fill="white" stroke="#0096f0" stroke-width="1.5" filter="url(#shadowLight)"/>
      <text x="150" y="20" text-anchor="middle" fill="#0096f0" font-size="13" font-weight="bold" font-family="system-ui, sans-serif">AK80-9 电机剖面 (Motor Cross-Section)</text>
      <!-- Motor stator rings -->
      <circle cx="150" cy="85" r="45" fill="none" stroke="#888" stroke-width="7"/>
      <circle cx="150" cy="85" r="38" fill="none" stroke="#0096f0" stroke-width="2.5" opacity="0.4"/>
      <circle cx="150" cy="85" r="32" fill="none" stroke="#0096f0" stroke-width="2.5" opacity="0.4"/>
      <circle cx="150" cy="85" r="26" fill="none" stroke="#0096f0" stroke-width="2.5" opacity="0.4"/>
      <circle cx="150" cy="85" r="20" fill="none" stroke="#0096f0" stroke-width="2.5" opacity="0.4"/>
      <!-- Stator teeth -->
      <g stroke="#666" stroke-width="3.5">
        <line x1="150" y1="40" x2="150" y2="52"/>
        <line x1="150" y1="118" x2="150" y2="130"/>
        <line x1="105" y1="85" x2="117" y2="85"/>
        <line x1="183" y1="85" x2="195" y2="85"/>
        <line x1="118" y1="53" x2="127" y2="62"/>
        <line x1="182" y1="53" x2="173" y2="62"/>
        <line x1="118" y1="117" x2="127" y2="108"/>
        <line x1="182" y1="117" x2="173" y2="108"/>
      </g>
      <!-- Rotor magnet -->
      <circle cx="150" cy="85" r="16" fill="#555" stroke="#333" stroke-width="1.2"/>
      <circle cx="150" cy="85" r="8" fill="#0096f0" opacity="0.5"/>
      <circle cx="150" cy="85" r="4" fill="#333"/>
      <!-- Annotations -->
      <line x1="195" y1="60" x2="235" y2="48" stroke="#999" stroke-width="0.8"/>
      <text x="237" y="51" font-size="10" fill="#555" font-family="system-ui, sans-serif">定子绕组</text>
      <line x1="166" y1="73" x2="235" y2="115" stroke="#999" stroke-width="0.8"/>
      <text x="237" y="118" font-size="10" fill="#555" font-family="system-ui, sans-serif">永磁转子</text>
      <line x1="195" y1="97" x2="235" y2="90" stroke="#999" stroke-width="0.8"/>
      <text x="237" y="93" font-size="10" fill="#555" font-family="system-ui, sans-serif">减速器</text>
      <!-- Specs -->
      <text x="150" y="155" text-anchor="middle" fill="#555" font-size="11" font-family="system-ui, sans-serif">480g 每台 | 额定转矩 8 Nm | 峰值 22 Nm</text>
    </g>

    <!-- Control Board Detail (放大) -->
    <g transform="translate(230, 455)">
      <rect x="0" y="0" width="300" height="85" rx="6" fill="white" stroke="#0096f0" stroke-width="1.2" filter="url(#shadowLight)"/>
      <text x="150" y="20" text-anchor="middle" fill="#0096f0" font-size="12" font-weight="bold" font-family="system-ui, sans-serif">嵌入式控制板 (Embedded Control Board)</text>
      <rect x="20" y="30" width="260" height="40" rx="3" fill="#e6f4ff" stroke="#0096f0" stroke-width="0.5"/>
      <text x="150" y="46" text-anchor="middle" fill="#333" font-size="11" font-family="system-ui, sans-serif">STM32G4 | 6轴IMU | CAN FD | 实时关节控制 1kHz</text>
      <text x="150" y="62" text-anchor="middle" fill="#666" font-size="10" font-family="system-ui, sans-serif">PPO 强化学习策略网络 | Sim-to-Real 直接迁移</text>
    </g>

    <!-- ===== 底部设计要点总结（填充剩余空间） ===== -->
    <g transform="translate(230, 560)">
      <rect x="0" y="0" width="490" height="140" rx="8" fill="white" stroke="#0096f0" stroke-width="1.2" filter="url(#shadowLight)"/>
      <text x="245" y="22" text-anchor="middle" fill="#0096f0" font-size="13" font-weight="bold" font-family="system-ui, sans-serif">Gen 0-1 设计特征总结</text>
      <line x1="15" y1="32" x2="475" y2="32" stroke="#0096f0" stroke-width="0.5" opacity="0.3"/>
      <circle cx="20" cy="48" r="3.5" fill="#0096f0"/>
      <text x="30" y="52" fill="#444" font-size="11" font-family="system-ui, sans-serif">关节电机直连结构，力传递路径最短，末端质量大，摆动惯量高</text>
      <circle cx="20" cy="70" r="3.5" fill="#0096f0"/>
      <text x="30" y="74" fill="#444" font-size="11" font-family="system-ui, sans-serif">腰带集中供电降低重心，屏蔽电缆沿腿外缘固定至关节</text>
      <circle cx="20" cy="92" r="3.5" fill="#0096f0"/>
      <text x="30" y="96" fill="#444" font-size="11" font-family="system-ui, sans-serif">EM离合器在摆动相分离，减小惯性负载，降低被动阻尼</text>
      <circle cx="20" cy="114" r="3.5" fill="#0096f0"/>
      <text x="30" y="118" fill="#444" font-size="11" font-family="system-ui, sans-serif">PPO强化学习 Sim-to-Real，策略网络在嵌入式平台实时推理</text>
      <circle cx="20" cy="136" r="3.5" fill="#0096f0"/>
      <text x="30" y="140" fill="#444" font-size="11" font-family="system-ui, sans-serif">铰链单轴关节 | 直驱+谐波减速 | 重量 2.4kg | 穿戴 30秒</text>
    </g>
  </g>

  <!-- Divider / 隔离带 -->
  <line x1="740" y1="95" x2="740" y2="950" stroke="#0096f0" stroke-width="0.8" opacity="0.15"/>

  <!-- ===== RIGHT PANEL: Parameter Table (压缩到380px宽) ===== -->
  <g transform="translate(800, 95)">
    <rect x="0" y="0" width="380" height="30" rx="4" fill="#0096f0" opacity="0.15"/>
    <text x="190" y="20" text-anchor="middle" fill="#0096f0" font-size="14" font-weight="bold" font-family="system-ui, sans-serif">完整参数表</text>

    <g transform="translate(8, 50)">
      <!-- Table header -->
      <rect x="0" y="0" width="105" height="28" rx="4" fill="#0096f0" opacity="0.15"/>
      <rect x="105" y="0" width="245" height="28" rx="4" fill="#0096f0" opacity="0.15"/>
      <text x="52" y="19" text-anchor="middle" fill="#0096f0" font-size="12" font-weight="bold" font-family="system-ui, sans-serif">参数</text>
      <text x="227" y="19" text-anchor="middle" fill="#0096f0" font-size="12" font-weight="bold" font-family="system-ui, sans-serif">Gen 0-1 规格</text>

      <!-- Row 1: Motor -->
      <rect x="0" y="30" width="105" height="34" rx="2" fill="#f8f9fa" stroke="#e0e0e0" stroke-width="0.5"/>
      <rect x="105" y="30" width="245" height="34" rx="2" fill="white" stroke="#e0e0e0" stroke-width="0.5"/>
      <circle cx="12" cy="47" r="4" fill="#0096f0"/>
      <text x="22" y="51" fill="#333" font-size="11" font-family="system-ui, sans-serif">驱动电机</text>
      <text x="227" y="47" text-anchor="middle" fill="#333" font-size="11" font-family="system-ui, sans-serif">AK80-9 × 2</text>
      <text x="227" y="60" text-anchor="middle" fill="#666" font-size="9" font-family="system-ui, sans-serif">480g 每台</text>

      <!-- Row 2: Peak Torque -->
      <rect x="0" y="66" width="105" height="28" rx="2" fill="#f8f9fa" stroke="#e0e0e0" stroke-width="0.5"/>
      <rect x="105" y="66" width="245" height="28" rx="2" fill="white" stroke="#e0e0e0" stroke-width="0.5"/>
      <circle cx="12" cy="80" r="4" fill="#0096f0"/>
      <text x="22" y="84" fill="#333" font-size="11" font-family="system-ui, sans-serif">峰值扭矩</text>
      <text x="227" y="84" text-anchor="middle" fill="#333" font-size="11" font-family="system-ui, sans-serif">22 Nm (单关节)</text>

      <!-- Row 3: Battery -->
      <rect x="0" y="96" width="105" height="34" rx="2" fill="#f8f9fa" stroke="#e0e0e0" stroke-width="0.5"/>
      <rect x="105" y="96" width="245" height="34" rx="2" fill="white" stroke="#e0e0e0" stroke-width="0.5"/>
      <circle cx="12" cy="113" r="4" fill="#0096f0"/>
      <text x="22" y="117" fill="#333" font-size="11" font-family="system-ui, sans-serif">电池组</text>
      <text x="227" y="113" text-anchor="middle" fill="#333" font-size="11" font-family="system-ui, sans-serif">4S1P 锂聚合物</text>
      <text x="227" y="127" text-anchor="middle" fill="#666" font-size="9" font-family="system-ui, sans-serif">72 Wh | 腰带集中</text>

      <!-- Row 4: Frame -->
      <rect x="0" y="132" width="105" height="34" rx="2" fill="#f8f9fa" stroke="#e0e0e0" stroke-width="0.5"/>
      <rect x="105" y="132" width="245" height="34" rx="2" fill="white" stroke="#e0e0e0" stroke-width="0.5"/>
      <circle cx="12" cy="149" r="4" fill="#0096f0"/>
      <text x="22" y="153" fill="#333" font-size="11" font-family="system-ui, sans-serif">框架材料</text>
      <text x="227" y="149" text-anchor="middle" fill="#333" font-size="11" font-family="system-ui, sans-serif">T700 碳纤维</text>
      <text x="227" y="163" text-anchor="middle" fill="#666" font-size="9" font-family="system-ui, sans-serif">3K编织预浸布</text>

      <!-- Row 5: System Mass -->
      <rect x="0" y="168" width="105" height="28" rx="2" fill="#f8f9fa" stroke="#e0e0e0" stroke-width="0.5"/>
      <rect x="105" y="168" width="245" height="28" rx="2" fill="white" stroke="#e0e0e0" stroke-width="0.5"/>
      <circle cx="12" cy="182" r="4" fill="#0096f0"/>
      <text x="22" y="186" fill="#333" font-size="11" font-family="system-ui, sans-serif">系统总质量</text>
      <text x="227" y="186" text-anchor="middle" fill="#333" font-size="11" font-family="system-ui, sans-serif">2.4 kg (双侧)</text>

      <!-- Row 6: Wear Time -->
      <rect x="0" y="198" width="105" height="28" rx="2" fill="#f8f9fa" stroke="#e0e0e0" stroke-width="0.5"/>
      <rect x="105" y="198" width="245" height="28" rx="2" fill="white" stroke="#e0e0e0" stroke-width="0.5"/>
      <circle cx="12" cy="212" r="4" fill="#0096f0"/>
      <text x="22" y="216" fill="#333" font-size="11" font-family="system-ui, sans-serif">穿戴时间</text>
      <text x="227" y="216" text-anchor="middle" fill="#333" font-size="11" font-family="system-ui, sans-serif">30 秒</text>

      <!-- Row 7: Control -->
      <rect x="0" y="228" width="105" height="34" rx="2" fill="#f8f9fa" stroke="#e0e0e0" stroke-width="0.5"/>
      <rect x="105" y="228" width="245" height="34" rx="2" fill="white" stroke="#e0e0e0" stroke-width="0.5"/>
      <circle cx="12" cy="245" r="4" fill="#0096f0"/>
      <text x="22" y="249" fill="#333" font-size="11" font-family="system-ui, sans-serif">控制算法</text>
      <text x="227" y="245" text-anchor="middle" fill="#333" font-size="11" font-family="system-ui, sans-serif">PPO 强化学习</text>
      <text x="227" y="259" text-anchor="middle" fill="#666" font-size="9" font-family="system-ui, sans-serif">Sim-to-Real迁移</text>

      <!-- Row 8: EM Clutch -->
      <rect x="0" y="264" width="105" height="34" rx="2" fill="#f8f9fa" stroke="#e0e0e0" stroke-width="0.5"/>
      <rect x="105" y="264" width="245" height="34" rx="2" fill="white" stroke="#e0e0e0" stroke-width="0.5"/>
      <circle cx="12" cy="281" r="4" fill="#0096f0"/>
      <text x="22" y="285" fill="#333" font-size="11" font-family="system-ui, sans-serif">电磁离合器</text>
      <text x="227" y="281" text-anchor="middle" fill="#333" font-size="11" font-family="system-ui, sans-serif">关节处集成</text>
      <text x="227" y="295" text-anchor="middle" fill="#666" font-size="9" font-family="system-ui, sans-serif">非驱动相分离</text>

      <!-- Row 9: Noise -->
      <rect x="0" y="300" width="105" height="28" rx="2" fill="#f8f9fa" stroke="#e0e0e0" stroke-width="0.5"/>
      <rect x="105" y="300" width="245" height="28" rx="2" fill="white" stroke="#e0e0e0" stroke-width="0.5"/>
      <circle cx="12" cy="314" r="4" fill="#0096f0"/>
      <text x="22" y="318" fill="#333" font-size="11" font-family="system-ui, sans-serif">工作噪声</text>
      <text x="227" y="318" text-anchor="middle" fill="#333" font-size="11" font-family="system-ui, sans-serif">≤50 dB (1m)</text>

      <!-- Row 10: BOM Cost -->
      <rect x="0" y="330" width="105" height="34" rx="2" fill="#f8f9fa" stroke="#e0e0e0" stroke-width="0.5"/>
      <rect x="105" y="330" width="245" height="34" rx="2" fill="white" stroke="#e0e0e0" stroke-width="0.5"/>
      <circle cx="12" cy="347" r="4" fill="#0096f0"/>
      <text x="22" y="351" fill="#333" font-size="11" font-family="system-ui, sans-serif">BOM 成本</text>
      <text x="227" y="347" text-anchor="middle" fill="#333" font-size="11" font-family="system-ui, sans-serif">¥8,000 / 套</text>
      <text x="227" y="361" text-anchor="middle" fill="#666" font-size="9" font-family="system-ui, sans-serif">100套批量</text>

      <!-- Row 11: Joint Type -->
      <rect x="0" y="366" width="105" height="28" rx="2" fill="#f8f9fa" stroke="#e0e0e0" stroke-width="0.5"/>
      <rect x="105" y="366" width="245" height="28" rx="2" fill="white" stroke="#e0e0e0" stroke-width="0.5"/>
      <circle cx="12" cy="380" r="4" fill="#0096f0"/>
      <text x="22" y="384" fill="#333" font-size="11" font-family="system-ui, sans-serif">关节类型</text>
      <text x="227" y="384" text-anchor="middle" fill="#333" font-size="11" font-family="system-ui, sans-serif">铰链单轴</text>

      <!-- Row 12: Transmission -->
      <rect x="0" y="396" width="105" height="28" rx="2" fill="#f8f9fa" stroke="#e0e0e0" stroke-width="0.5"/>
      <rect x="105" y="396" width="245" height="28" rx="2" fill="white" stroke="#e0e0e0" stroke-width="0.5"/>
      <circle cx="12" cy="410" r="4" fill="#0096f0"/>
      <text x="22" y="414" fill="#333" font-size="11" font-family="system-ui, sans-serif">传动方式</text>
      <text x="227" y="414" text-anchor="middle" fill="#333" font-size="11" font-family="system-ui, sans-serif">直驱+谐波减速</text>
    </g>

    <!-- Key metrics bar -->
    <g transform="translate(8, 470)">
      <rect x="0" y="0" width="354" height="50" rx="6" fill="#0096f0" opacity="0.06"/>
      <text x="177" y="18" text-anchor="middle" fill="#0096f0" font-size="11" font-weight="bold" font-family="system-ui, sans-serif">关键指标雷达</text>
      <rect x="20" y="28" width="50" height="14" rx="3" fill="#0096f0" opacity="0.15"/>
      <text x="45" y="39" text-anchor="middle" fill="#333" font-size="9" font-family="system-ui, sans-serif">扭矩密度 4.6</text>
      <rect x="150" y="28" width="50" height="14" rx="3" fill="#0096f0" opacity="0.15"/>
      <text x="175" y="39" text-anchor="middle" fill="#333" font-size="9" font-family="system-ui, sans-serif">能效 72%</text>
      <rect x="280" y="28" width="50" height="14" rx="3" fill="#0096f0" opacity="0.15"/>
      <text x="305" y="39" text-anchor="middle" fill="#333" font-size="9" font-family="system-ui, sans-serif">TRL 4</text>
    </g>

    <!-- Timeline -->
    <g transform="translate(8, 530)">
      <text x="177" y="12" text-anchor="middle" fill="#666" font-size="10" font-family="system-ui, sans-serif">演进路线</text>
      <rect x="20" y="22" width="314" height="28" rx="14" fill="#f0f0f0"/>
      <rect x="20" y="22" width="105" height="28" rx="14" fill="url(#blueTheme)"/>
      <text x="72" y="41" text-anchor="middle" fill="white" font-size="11" font-weight="bold" font-family="system-ui, sans-serif">Gen 0-1</text>
      <line x1="125" y1="36" x2="157" y2="36" stroke="#ccc" stroke-width="2"/>
      <text x="175" y="41" text-anchor="middle" fill="#999" font-size="11" font-family="system-ui, sans-serif">Gen 2+</text>
      <line x1="225" y1="36" x2="257" y2="36" stroke="#ccc" stroke-width="2"/>
      <text x="275" y="41" text-anchor="middle" fill="#999" font-size="11" font-family="system-ui, sans-serif">Gen 3</text>
    </g>
  </g>

  <!-- Footer / 全中文图例 -->
  <rect x="40" y="955" width="1120" height="36" rx="4" fill="#0096f0" opacity="0.08"/>
  <text x="600" y="968" text-anchor="middle" fill="#555" font-size="11" font-family="system-ui, sans-serif">骨骼流形 | 架构演进 Gen 0-1 — 铰链单轴 + 腰带集中供电 | 附图 C-10a</text>
  <text x="600" y="984" text-anchor="middle" fill="#777" font-size="10" font-family="system-ui, sans-serif">图例：蓝色标注为主动驱动元件 | 红色箭头为力学传递路径 | 碳纤维框架以深色标示 | 骨骼透视以浅色叠加</text>
</svg>