<svg xmlns="http://www.w3.org/2000/svg" viewBox="0 0 1400 950" width="1400" height="950">
  <defs>
    <linearGradient id="bgGrad" x1="0" y1="0" x2="0" y2="1">
      <stop offset="0%" stop-color="#fafcff"/>
      <stop offset="100%" stop-color="#f0f5ff"/>
    </linearGradient>
    <filter id="shadow" x="-2%" y="-2%" width="104%" height="104%">
      <feDropShadow dx="1" dy="2" stdDeviation="3" flood-opacity="0.12"/>
    </filter>
    <filter id="shadowLight" x="-2%" y="-2%" width="104%" height="104%">
      <feDropShadow dx="0" dy="1" stdDeviation="2" flood-opacity="0.06"/>
    </filter>
  </defs>

  <!-- Background -->
  <rect width="1400" height="950" fill="url(#bgGrad)" rx="4"/>
  <rect x="15" y="15" width="1370" height="920" rx="8" fill="none" stroke="#0096f0" stroke-width="0.8" opacity="0.25"/>

  <!-- Title -->
  <text x="700" y="42" text-anchor="middle" font-family="'PingFang SC','Microsoft YaHei',sans-serif" font-size="22" font-weight="bold" fill="#1a1a1a">竞品架构对比：电机位置·供电方式·穿戴系统·关键技术参数</text>
  <text x="700" y="62" text-anchor="middle" font-family="sans-serif" font-size="13" fill="#666">基于2026年Q1可获取的最新产品与技术资料整理</text>
  <line x1="200" y1="75" x2="1200" y2="75" stroke="#0096f0" stroke-width="1.5" opacity="0.3"/>

  <!-- ==================== Product Cards Row ==================== -->

  <!-- Card 1: 远也 PowerKnee -->
  <g transform="translate(25, 92)">
    <rect x="0" y="0" width="325" height="410" rx="10" fill="#fff" stroke="#e0e0e0" stroke-width="1.2" filter="url(#shadow)"/>
    <rect x="0" y="0" width="325" height="36" rx="10" fill="#fce4ec"/>
    <rect x="0" y="18" width="325" height="18" fill="#fce4ec"/>
    <text x="162" y="24" text-anchor="middle" font-family="sans-serif" font-size="14" font-weight="bold" fill="#c62828">远也 PowerKnee</text>

    <!-- Simplified product sketch -->
    <g transform="translate(72, 50)">
      <!-- Thigh outline -->
      <rect x="40" y="10" width="50" height="60" rx="8" fill="#f0f0f0" stroke="#ccc" stroke-width="1"/>
      <text x="65" y="48" text-anchor="middle" font-family="sans-serif" font-size="9" fill="#666">大腿</text>
      <!-- Knee motor -->
      <circle cx="65" cy="95" r="22" fill="none" stroke="#c62828" stroke-width="2.5"/>
      <circle cx="65" cy="95" r="6" fill="#c62828"/>
      <text x="65" y="99" text-anchor="middle" font-family="sans-serif" font-size="7" fill="#c62828">电机</text>
      <!-- Shank outline -->
      <rect x="45" y="125" width="40" height="65" rx="5" fill="#f0f0f0" stroke="#ccc" stroke-width="1"/>
      <text x="65" y="162" text-anchor="middle" font-family="sans-serif" font-size="9" fill="#666">小腿</text>
      <!-- Battery -->
      <rect x="98" y="80" width="35" height="28" rx="4" fill="#fef2f2" stroke="#c62828" stroke-width="1"/>
      <text x="115" y="98" text-anchor="middle" font-family="sans-serif" font-size="7" fill="#c62828">电池</text>
      <!-- Straps -->
      <line x1="30" y1="30" x2="95" y2="30" stroke="#999" stroke-width="1.5"/>
      <line x1="30" y1="55" x2="95" y2="55" stroke="#999" stroke-width="1.5"/>
      <line x1="35" y1="140" x2="95" y2="140" stroke="#999" stroke-width="1.5"/>
    </g>

    <!-- Specs -->
    <g transform="translate(15, 240)">
      <rect x="0" y="0" width="295" height="155" rx="5" fill="#fafafa" stroke="#e0e0e0" stroke-width="0.8"/>
      <g transform="translate(8, 12)">
        <text x="0" y="0" font-family="sans-serif" font-size="10" fill="#888">电机位置</text>
        <text x="95" y="0" font-family="sans-serif" font-size="10" font-weight="bold" fill="#333">膝部外侧（内置）</text>
      </g>
      <g transform="translate(8, 34)">
        <text x="0" y="0" font-family="sans-serif" font-size="10" fill="#888">电池位置</text>
        <text x="95" y="0" font-family="sans-serif" font-size="10" font-weight="bold" fill="#333">膝部外侧（内置）</text>
      </g>
      <g transform="translate(8, 56)">
        <text x="0" y="0" font-family="sans-serif" font-size="10" fill="#888">绑带数量</text>
        <text x="95" y="0" font-family="sans-serif" font-size="10" font-weight="bold" fill="#333">3条（大腿+小腿）</text>
      </g>
      <g transform="translate(8, 78)">
        <text x="0" y="0" font-family="sans-serif" font-size="10" fill="#888">单侧重量</text>
        <text x="95" y="0" font-family="sans-serif" font-size="10" font-weight="bold" fill="#333">~3.0 kg</text>
      </g>
      <g transform="translate(8, 100)">
        <text x="0" y="0" font-family="sans-serif" font-size="10" fill="#888">穿戴时间</text>
        <text x="95" y="0" font-family="sans-serif" font-size="10" font-weight="bold" fill="#333">~5分钟</text>
      </g>
      <g transform="translate(8, 122)">
        <text x="0" y="0" font-family="sans-serif" font-size="10" fill="#888">参考价格</text>
        <text x="95" y="0" font-family="sans-serif" font-size="10" font-weight="bold" fill="#333">¥7,999 / 腿</text>
      </g>
    </g>
  </g>

  <!-- Card 2: DNSYS Z1 -->
  <g transform="translate(367, 92)">
    <rect x="0" y="0" width="325" height="410" rx="10" fill="#fff" stroke="#e0e0e0" stroke-width="1.2" filter="url(#shadow)"/>
    <rect x="0" y="0" width="325" height="36" rx="10" fill="#e8eaf6"/>
    <rect x="0" y="18" width="325" height="18" fill="#e8eaf6"/>
    <text x="162" y="24" text-anchor="middle" font-family="sans-serif" font-size="14" font-weight="bold" fill="#283593">DNSYS Z1</text>

    <!-- Product sketch -->
    <g transform="translate(72, 50)">
      <!-- Thigh unit -->
      <rect x="30" y="10" width="55" height="60" rx="8" fill="#f0f0f0" stroke="#ccc" stroke-width="1"/>
      <text x="57" y="48" text-anchor="middle" font-family="sans-serif" font-size="9" fill="#666">大腿</text>
      <!-- Motor at knee -->
      <circle cx="57" cy="95" r="20" fill="none" stroke="#283593" stroke-width="2.5"/>
      <circle cx="57" cy="95" r="6" fill="#283593"/>
      <text x="57" y="99" text-anchor="middle" font-family="sans-serif" font-size="7" fill="#283593">电机</text>
      <!-- Shank -->
      <rect x="37" y="125" width="40" height="65" rx="5" fill="#f0f0f0" stroke="#ccc" stroke-width="1"/>
      <text x="57" y="162" text-anchor="middle" font-family="sans-serif" font-size="9" fill="#666">小腿</text>
      <!-- Battery on shank -->
      <rect x="82" y="130" width="40" height="30" rx="4" fill="#e8eaf6" stroke="#283593" stroke-width="1"/>
      <text x="102" y="150" text-anchor="middle" font-family="sans-serif" font-size="7" fill="#283593">电池</text>
      <!-- Straps -->
      <line x1="20" y1="30" x2="95" y2="30" stroke="#999" stroke-width="1.5"/>
      <line x1="20" y1="50" x2="95" y2="50" stroke="#999" stroke-width="1.5"/>
      <line x1="25" y1="140" x2="95" y2="140" stroke="#999" stroke-width="1.5"/>
    </g>

    <!-- Specs -->
    <g transform="translate(15, 240)">
      <rect x="0" y="0" width="295" height="155" rx="5" fill="#fafafa" stroke="#e0e0e0" stroke-width="0.8"/>
      <g transform="translate(8, 12)">
        <text x="0" y="0" font-family="sans-serif" font-size="10" fill="#888">电机位置</text>
        <text x="95" y="0" font-family="sans-serif" font-size="10" font-weight="bold" fill="#333">膝部外侧（分体）</text>
      </g>
      <g transform="translate(8, 34)">
        <text x="0" y="0" font-family="sans-serif" font-size="10" fill="#888">电池位置</text>
        <text x="95" y="0" font-family="sans-serif" font-size="10" font-weight="bold" fill="#333">大腿外侧（可拆卸）</text>
      </g>
      <g transform="translate(8, 56)">
        <text x="0" y="0" font-family="sans-serif" font-size="10" fill="#888">绑带数量</text>
        <text x="95" y="0" font-family="sans-serif" font-size="10" font-weight="bold" fill="#333">3条 / 腿</text>
      </g>
      <g transform="translate(8, 78)">
        <text x="0" y="0" font-family="sans-serif" font-size="10" fill="#888">单侧重量</text>
        <text x="95" y="0" font-family="sans-serif" font-size="10" font-weight="bold" fill="#333">~1.6 kg</text>
      </g>
      <g transform="translate(8, 100)">
        <text x="0" y="0" font-family="sans-serif" font-size="10" fill="#888">穿戴时间</text>
        <text x="95" y="0" font-family="sans-serif" font-size="10" font-weight="bold" fill="#333">~3分钟</text>
      </g>
      <g transform="translate(8, 122)">
        <text x="0" y="0" font-family="sans-serif" font-size="10" fill="#888">参考价格</text>
        <text x="95" y="0" font-family="sans-serif" font-size="10" font-weight="bold" fill="#333">$899-2,298 / 腿</text>
      </g>
    </g>
  </g>

  <!-- Card 3: Skip MO/GO -->
  <g transform="translate(710, 92)">
    <rect x="0" y="0" width="325" height="410" rx="10" fill="#fff" stroke="#e0e0e0" stroke-width="1.2" filter="url(#shadow)"/>
    <rect x="0" y="0" width="325" height="36" rx="10" fill="#e8f5e9"/>
    <rect x="0" y="18" width="325" height="18" fill="#e8f5e9"/>
    <text x="162" y="24" text-anchor="middle" font-family="sans-serif" font-size="14" font-weight="bold" fill="#2e7d32">Skip MO/GO</text>

    <!-- Product sketch -->
    <g transform="translate(52, 50)">
      <!-- Pant outline -->
      <rect x="15" y="10" width="100" height="190" rx="6" fill="none" stroke="#2e7d32" stroke-width="1.5" stroke-dasharray="4,2"/>
      <text x="65" y="210" text-anchor="middle" font-family="sans-serif" font-size="9" fill="#2e7d32">裤子承载系统</text>
      <!-- Motor -->
      <circle cx="65" cy="85" r="16" fill="none" stroke="#2e7d32" stroke-width="2"/>
      <circle cx="65" cy="85" r="5" fill="#2e7d32"/>
      <text x="65" y="89" text-anchor="middle" font-family="sans-serif" font-size="6" fill="#2e7d32">电机</text>
      <!-- Battery at waist -->
      <rect x="20" y="15" width="30" height="20" rx="3" fill="#e8f5e9" stroke="#2e7d32" stroke-width="1"/>
      <text x="35" y="29" text-anchor="middle" font-family="sans-serif" font-size="6" fill="#2e7d32">电池</text>
      <line x1="35" y1="35" x2="50" y2="70" stroke="#2e7d32" stroke-width="0.8" stroke-dasharray="2,2"/>
      <!-- Leg outlines inside pants -->
      <rect x="30" y="40" width="25" height="55" rx="5" fill="#f0f0f0" stroke="#ccc" stroke-width="0.8"/>
      <rect x="72" y="40" width="25" height="55" rx="5" fill="#f0f0f0" stroke="#ccc" stroke-width="0.8"/>
      <text x="42" y="115" text-anchor="middle" font-family="sans-serif" font-size="7" fill="#999">左</text>
      <text x="84" y="115" text-anchor="middle" font-family="sans-serif" font-size="7" fill="#999">右</text>
    </g>

    <!-- Specs -->
    <g transform="translate(15, 240)">
      <rect x="0" y="0" width="295" height="155" rx="5" fill="#fafafa" stroke="#e0e0e0" stroke-width="0.8"/>
      <g transform="translate(8, 12)">
        <text x="0" y="0" font-family="sans-serif" font-size="10" fill="#888">电机位置</text>
        <text x="95" y="0" font-family="sans-serif" font-size="10" font-weight="bold" fill="#333">膝部（裤子内置）</text>
      </g>
      <g transform="translate(8, 34)">
        <text x="0" y="0" font-family="sans-serif" font-size="10" fill="#888">电池位置</text>
        <text x="95" y="0" font-family="sans-serif" font-size="10" font-weight="bold" fill="#333">腰部（裤子腰带）</text>
      </g>
      <g transform="translate(8, 56)">
        <text x="0" y="0" font-family="sans-serif" font-size="10" fill="#888">绑带数量</text>
        <text x="95" y="0" font-family="sans-serif" font-size="10" font-weight="bold" fill="#333">0（裤子整体穿戴）</text>
      </g>
      <g transform="translate(8, 78)">
        <text x="0" y="0" font-family="sans-serif" font-size="10" fill="#888">系统重量</text>
        <text x="95" y="0" font-family="sans-serif" font-size="10" font-weight="bold" fill="#333">~2.0 kg（整条裤子）</text>
      </g>
      <g transform="translate(8, 100)">
        <text x="0" y="0" font-family="sans-serif" font-size="10" fill="#888">穿戴时间</text>
        <text x="95" y="0" font-family="sans-serif" font-size="10" font-weight="bold" fill="#333">~1分钟（穿裤子）</text>
      </g>
      <g transform="translate(8, 122)">
        <text x="0" y="0" font-family="sans-serif" font-size="10" fill="#888">参考价格</text>
        <text x="95" y="0" font-family="sans-serif" font-size="10" font-weight="bold" fill="#333">$5,000</text>
      </g>
    </g>
  </g>

  <!-- Card 4: Bones -->
  <g transform="translate(1052, 92)">
    <rect x="0" y="0" width="325" height="410" rx="10" fill="#fff" stroke="#0096f0" stroke-width="2" filter="url(#shadow)"/>
    <rect x="0" y="0" width="325" height="36" rx="10" fill="#0096f0"/>
    <rect x="0" y="18" width="325" height="18" fill="#0096f0"/>
    <rect x="260" y="6" width="55" height="24" rx="4" fill="#fff" opacity="0.2"/>
    <text x="287" y="22" text-anchor="middle" font-family="sans-serif" font-size="10" font-weight="bold" fill="#fff">BEST</text>
    <text x="162" y="24" text-anchor="middle" font-family="sans-serif" font-size="14" font-weight="bold" fill="#fff">Bones 膝安</text>

    <!-- Product sketch -->
    <g transform="translate(62, 50)">
      <!-- Waist belt -->
      <rect x="5" y="5" width="120" height="22" rx="5" fill="#e3f2fd" stroke="#0096f0" stroke-width="1.5"/>
      <text x="65" y="20" text-anchor="middle" font-family="sans-serif" font-size="9" fill="#0096f0">腰带 · 电池 · 主控</text>
      <!-- Cable to left knee -->
      <line x1="35" y1="27" x2="35" y2="70" stroke="#0096f0" stroke-width="1.5"/>
      <!-- Cable to right knee -->
      <line x1="95" y1="27" x2="95" y2="70" stroke="#0096f0" stroke-width="1.5"/>
      <!-- Left knee unit -->
      <circle cx="35" cy="90" r="18" fill="#0096f0" opacity="0.85"/>
      <text x="35" y="94" text-anchor="middle" font-family="sans-serif" font-size="8" font-weight="bold" fill="#fff">左膝</text>
      <!-- Right knee unit -->
      <circle cx="95" cy="90" r="18" fill="#0096f0" opacity="0.85"/>
      <text x="95" y="94" text-anchor="middle" font-family="sans-serif" font-size="8" font-weight="bold" fill="#fff">右膝</text>
      <!-- Frame lines -->
      <line x1="35" y1="108" x2="35" y2="180" stroke="#0096f0" stroke-width="1"/>
      <line x1="95" y1="108" x2="95" y2="180" stroke="#0096f0" stroke-width="1"/>
      <!-- Leg indicators -->
      <rect x="22" y="130" width="25" height="55" rx="4" fill="#f0f0f0" stroke="#ccc" stroke-width="0.8"/>
      <rect x="82" y="130" width="25" height="55" rx="4" fill="#f0f0f0" stroke="#ccc" stroke-width="0.8"/>
      <text x="34" y="165" text-anchor="middle" font-family="sans-serif" font-size="7" fill="#999">左</text>
      <text x="95" y="165" text-anchor="middle" font-family="sans-serif" font-size="7" fill="#999">右</text>
    </g>

    <!-- Specs -->
    <g transform="translate(15, 240)">
      <rect x="0" y="0" width="295" height="155" rx="5" fill="#f0f5ff" stroke="#0096f0" stroke-width="0.8"/>
      <g transform="translate(8, 12)">
        <text x="0" y="0" font-family="sans-serif" font-size="10" fill="#888">电机位置</text>
        <text x="95" y="0" font-family="sans-serif" font-size="10" font-weight="bold" fill="#0096f0">膝部同心直驱</text>
      </g>
      <g transform="translate(8, 34)">
        <text x="0" y="0" font-family="sans-serif" font-size="10" fill="#888">电池位置</text>
        <text x="95" y="0" font-family="sans-serif" font-size="10" font-weight="bold" fill="#0096f0">腰部集中供电</text>
      </g>
      <g transform="translate(8, 56)">
        <text x="0" y="0" font-family="sans-serif" font-size="10" fill="#888">绑带数量</text>
        <text x="95" y="0" font-family="sans-serif" font-size="10" font-weight="bold" fill="#0096f0">2条（大腿+小腿）</text>
      </g>
      <g transform="translate(8, 78)">
        <text x="0" y="0" font-family="sans-serif" font-size="10" fill="#888">单侧重量</text>
        <text x="95" y="0" font-family="sans-serif" font-size="10" font-weight="bold" fill="#0096f0">~1.15 kg</text>
      </g>
      <g transform="translate(8, 100)">
        <text x="0" y="0" font-family="sans-serif" font-size="10" fill="#888">穿戴时间</text>
        <text x="95" y="0" font-family="sans-serif" font-size="10" font-weight="bold" fill="#0096f0">~30秒</text>
      </g>
      <g transform="translate(8, 122)">
        <text x="0" y="0" font-family="sans-serif" font-size="10" fill="#888">参考价格</text>
        <text x="95" y="0" font-family="sans-serif" font-size="10" font-weight="bold" fill="#0096f0">¥2,499 / ¥3,999 / ¥5,999</text>
      </g>
    </g>
  </g>

  <!-- ==================== DETAILED COMPARISON TABLE ==================== -->
  <g transform="translate(25, 525)">
    <rect x="0" y="0" width="1350" height="390" rx="10" fill="#fff" stroke="#e0e0e0" stroke-width="1" filter="url(#shadow)"/>
    <rect x="0" y="0" width="1350" height="34" rx="10" fill="#333"/>
    <rect x="0" y="17" width="1350" height="17" fill="#333"/>
    <text x="675" y="23" text-anchor="middle" font-family="'PingFang SC','Microsoft YaHei',sans-serif" font-size="14" font-weight="bold" fill="#fff">关键技术参数对比表 Detailed Comparison</text>

    <!-- Table header -->
    <g transform="translate(0, 42)">
      <rect x="10" y="0" width="220" height="32" rx="3" fill="#f5f5f5" stroke="#e0e0e0" stroke-width="0.8"/>
      <text x="120" y="21" text-anchor="middle" font-family="sans-serif" font-size="11" font-weight="bold" fill="#333">参数</text>
      <rect x="240" y="0" width="260" height="32" rx="3" fill="#fce4ec" stroke="#e0e0e0" stroke-width="0.8"/>
      <text x="370" y="21" text-anchor="middle" font-family="sans-serif" font-size="11" font-weight="bold" fill="#c62828">远也 PowerKnee</text>
      <rect x="510" y="0" width="260" height="32" rx="3" fill="#e8eaf6" stroke="#e0e0e0" stroke-width="0.8"/>
      <text x="640" y="21" text-anchor="middle" font-family="sans-serif" font-size="11" font-weight="bold" fill="#283593">DNSYS Z1</text>
      <rect x="780" y="0" width="260" height="32" rx="3" fill="#e8f5e9" stroke="#e0e0e0" stroke-width="0.8"/>
      <text x="910" y="21" text-anchor="middle" font-family="sans-serif" font-size="11" font-weight="bold" fill="#2e7d32">Skip MO/GO</text>
      <rect x="1050" y="0" width="290" height="32" rx="3" fill="#e3f2fd" stroke="#0096f0" stroke-width="1"/>
      <text x="1195" y="21" text-anchor="middle" font-family="sans-serif" font-size="11" font-weight="bold" fill="#0096f0">Bones 膝安</text>
    </g>

    <!-- Table rows -->
    <g transform="translate(0, 74)">
      <!-- Row 1: Motor type -->
      <rect x="10" y="0" width="1330" height="30" rx="2" fill="#fafafa" stroke="#e0e0e0" stroke-width="0.5"/>
      <text x="120" y="19" text-anchor="middle" font-family="sans-serif" font-size="10" fill="#666">电机类型</text>
      <text x="370" y="19" text-anchor="middle" font-family="sans-serif" font-size="10" fill="#333">BLDC 内置谐波减速</text>
      <text x="640" y="19" text-anchor="middle" font-family="sans-serif" font-size="10" fill="#333">BLDC 行星减速</text>
      <text x="910" y="19" text-anchor="middle" font-family="sans-serif" font-size="10" fill="#333">磁力致动器</text>
      <text x="1195" y="19" text-anchor="middle" font-family="sans-serif" font-size="10" font-weight="bold" fill="#0096f0">BLDC 直驱</text>

      <!-- Row 2: Peak torque -->
      <rect x="10" y="30" width="1330" height="30" rx="2" fill="#fff" stroke="#e0e0e0" stroke-width="0.5"/>
      <text x="120" y="49" text-anchor="middle" font-family="sans-serif" font-size="10" fill="#666">峰值扭矩</text>
      <text x="370" y="49" text-anchor="middle" font-family="sans-serif" font-size="10" fill="#333">~30 Nm</text>
      <text x="640" y="49" text-anchor="middle" font-family="sans-serif" font-size="10" fill="#333">~28 Nm</text>
      <text x="910" y="49" text-anchor="middle" font-family="sans-serif" font-size="10" fill="#333">~25 Nm</text>
      <text x="1195" y="49" text-anchor="middle" font-family="sans-serif" font-size="10" font-weight="bold" fill="#0096f0">30 Nm（目标）</text>

      <!-- Row 3: KAM control -->
      <rect x="10" y="60" width="1330" height="30" rx="2" fill="#fafafa" stroke="#e0e0e0" stroke-width="0.5"/>
      <text x="120" y="79" text-anchor="middle" font-family="sans-serif" font-size="10" fill="#666">KAM控制</text>
      <text x="370" y="79" text-anchor="middle" font-family="sans-serif" font-size="10" fill="#999">无</text>
      <text x="640" y="79" text-anchor="middle" font-family="sans-serif" font-size="10" fill="#999">无</text>
      <text x="910" y="79" text-anchor="middle" font-family="sans-serif" font-size="10" fill="#999">无</text>
      <text x="1195" y="79" text-anchor="middle" font-family="sans-serif" font-size="10" font-weight="bold" fill="#0096f0">有（独家功能）</text>

      <!-- Row 4: Swing zero-resistance -->
      <rect x="10" y="90" width="1330" height="30" rx="2" fill="#fff" stroke="#e0e0e0" stroke-width="0.5"/>
      <text x="120" y="109" text-anchor="middle" font-family="sans-serif" font-size="10" fill="#666">摆动相零阻力</text>
      <text x="370" y="109" text-anchor="middle" font-family="sans-serif" font-size="10" fill="#999">部分</text>
      <text x="640" y="109" text-anchor="middle" font-family="sans-serif" font-size="10" fill="#d13438">无（高阻力）</text>
      <text x="910" y="109" text-anchor="middle" font-family="sans-serif" font-size="10" fill="#333">有</text>
      <text x="1195" y="109" text-anchor="middle" font-family="sans-serif" font-size="10" font-weight="bold" fill="#0096f0">有（离合器物理断开）</text>

      <!-- Row 5: Control algorithm -->
      <rect x="10" y="120" width="1330" height="30" rx="2" fill="#fafafa" stroke="#e0e0e0" stroke-width="0.5"/>
      <text x="120" y="139" text-anchor="middle" font-family="sans-serif" font-size="10" fill="#666">控制算法</text>
      <text x="370" y="139" text-anchor="middle" font-family="sans-serif" font-size="10" fill="#333">SNAC预测+前馈</text>
      <text x="640" y="139" text-anchor="middle" font-family="sans-serif" font-size="10" fill="#333">FSM + 预定义曲线</text>
      <text x="910" y="139" text-anchor="middle" font-family="sans-serif" font-size="10" fill="#333">通用助力算法</text>
      <text x="1195" y="139" text-anchor="middle" font-family="sans-serif" font-size="10" font-weight="bold" fill="#0096f0">RL个性化 + 阻抗</text>

      <!-- Row 6: User base -->
      <rect x="10" y="150" width="1330" height="30" rx="2" fill="#fff" stroke="#e0e0e0" stroke-width="0.5"/>
      <text x="120" y="169" text-anchor="middle" font-family="sans-serif" font-size="10" fill="#666">目标用户</text>
      <text x="370" y="169" text-anchor="middle" font-family="sans-serif" font-size="10" fill="#333">中风/神经损伤</text>
      <text x="640" y="169" text-anchor="middle" font-family="sans-serif" font-size="10" fill="#333">户外/运动爱好者</text>
      <text x="910" y="169" text-anchor="middle" font-family="sans-serif" font-size="10" fill="#333">户外/徒步</text>
      <text x="1195" y="169" text-anchor="middle" font-family="sans-serif" font-size="10" font-weight="bold" fill="#0096f0">膝OA老年人</text>

      <!-- Row 7: Clinical validation -->
      <rect x="10" y="180" width="1330" height="30" rx="2" fill="#fafafa" stroke="#e0e0e0" stroke-width="0.5"/>
      <text x="120" y="199" text-anchor="middle" font-family="sans-serif" font-size="10" fill="#666">临床验证</text>
      <text x="370" y="199" text-anchor="middle" font-family="sans-serif" font-size="10" fill="#27ae60">NMPA认证</text>
      <text x="640" y="199" text-anchor="middle" font-family="sans-serif" font-size="10" fill="#f39c12">有限</text>
      <text x="910" y="199" text-anchor="middle" font-family="sans-serif" font-size="10" fill="#f39c12">进行中</text>
      <text x="1195" y="199" text-anchor="middle" font-family="sans-serif" font-size="10" font-weight="bold" fill="#f39c12">待启动</text>

      <!-- Row 8: Manufacturing -->
      <rect x="10" y="210" width="1330" height="30" rx="2" fill="#fff" stroke="#e0e0e0" stroke-width="0.5"/>
      <text x="120" y="229" text-anchor="middle" font-family="sans-serif" font-size="10" fill="#666">量产状态</text>
      <text x="370" y="229" text-anchor="middle" font-family="sans-serif" font-size="10" fill="#27ae60">已量产</text>
      <text x="640" y="229" text-anchor="middle" font-family="sans-serif" font-size="10" fill="#27ae60">已量产</text>
      <text x="910" y="229" text-anchor="middle" font-family="sans-serif" font-size="10" fill="#27ae60">已量产</text>
      <text x="1195" y="229" text-anchor="middle" font-family="sans-serif" font-size="10" font-weight="bold" fill="#f39c12">Phase 0 原型</text>

      <!-- Row 9: Comfort for OA -->
      <rect x="10" y="240" width="1330" height="30" rx="2" fill="#fafafa" stroke="#e0e0e0" stroke-width="0.5"/>
      <text x="120" y="259" text-anchor="middle" font-family="sans-serif" font-size="10" fill="#666">老年OA舒适度</text>
      <text x="370" y="259" text-anchor="middle" font-family="sans-serif" font-size="10" fill="#d13438">低（太重）</text>
      <text x="640" y="259" text-anchor="middle" font-family="sans-serif" font-size="10" fill="#f39c12">中</text>
      <text x="910" y="259" text-anchor="middle" font-family="sans-serif" font-size="10" fill="#f39c12">中（裤子穿着）</text>
      <text x="1195" y="259" text-anchor="middle" font-family="sans-serif" font-size="10" font-weight="bold" fill="#27ae60">高</text>

      <!-- Row 10: KOA suitability -->
      <rect x="10" y="270" width="1330" height="30" rx="2" fill="#fff" stroke="#0096f0" stroke-width="0.8"/>
      <text x="120" y="289" text-anchor="middle" font-family="sans-serif" font-size="10" font-weight="bold" fill="#333">膝OA综合评分</text>
      <text x="370" y="289" text-anchor="middle" font-family="sans-serif" font-size="12" font-weight="bold" fill="#f39c12">6/10</text>
      <text x="640" y="289" text-anchor="middle" font-family="sans-serif" font-size="12" font-weight="bold" fill="#f39c12">5/10</text>
      <text x="910" y="289" text-anchor="middle" font-family="sans-serif" font-size="12" font-weight="bold" fill="#27ae60">8/10</text>
      <text x="1195" y="289" text-anchor="middle" font-family="sans-serif" font-size="12" font-weight="bold" fill="#0096f0">9/10</text>
    </g>

    <!-- Summary bar -->
    <g transform="translate(10, 330)">
      <rect x="0" y="0" width="1330" height="46" rx="6" fill="#f0f5ff" stroke="#0096f0" stroke-width="0.8"/>
      <text x="665" y="18" text-anchor="middle" font-family="sans-serif" font-size="11" font-weight="bold" fill="#0096f0">竞争格局总结 Market Summary</text>
      <text x="665" y="36" text-anchor="middle" font-family="sans-serif" font-size="10" fill="#333">PowerKnee/DNSYS: 硬件成熟但非为OA优化 | Skip MO/GO: 最佳技术对标但$5,000定价偏高且无KAM | Bones: 硬件/IP/定价全面领先，需量产验证</text>
    </g>
  </g>

  <text x="700" y="940" text-anchor="middle" font-family="sans-serif" font-size="10" fill="#ccc">Bones &amp; Manifold · Confidential · Appendix C — Diagram 3: Competitor Architecture Comparison</text>
</svg>
