<?xml version="1.0" encoding="UTF-8"?>
<svg xmlns="http://www.w3.org/2000/svg" viewBox="0 0 1200 1215" width="1200" height="1000" font-family="system-ui, -apple-system, 'Segoe UI', Roboto, Helvetica, 'PingFang SC', 'Microsoft YaHei', 'Noto Sans SC', sans-serif">
  <defs>
    <filter id="shadow" x="-5%" y="-5%" width="115%" height="115%">
      <feDropShadow dx="0" dy="3" stdDeviation="5" flood-color="#00000018"/>
    </filter>
    <marker id="arrowBlue" viewBox="0 0 10 10" refX="8" refY="5" markerWidth="7" markerHeight="7" orient="auto">
      <path d="M 0 1 L 10 5 L 0 9 Z" fill="#0096f0"/>
    </marker>
    <marker id="arrowAmber" viewBox="0 0 10 10" refX="8" refY="5" markerWidth="7" markerHeight="7" orient="auto">
      <path d="M 0 1 L 10 5 L 0 9 Z" fill="#d97706"/>
    </marker>
    <marker id="arrowGreen" viewBox="0 0 10 10" refX="8" refY="5" markerWidth="6" markerHeight="6" orient="auto">
      <path d="M 0 1 L 10 5 L 0 9 Z" fill="#16a34a"/>
    </marker>
    <marker id="arrowGray" viewBox="0 0 10 10" refX="8" refY="5" markerWidth="6" markerHeight="6" orient="auto">
      <path d="M 0 1 L 10 5 L 0 9 Z" fill="#64748b"/>
    </marker>
  </defs>

  <!-- Background -->
  <rect width="1200" height="1000" fill="#ffffff"/>

  <!-- ========== TITLE SECTION ========== -->
  <text x="30" y="32" font-size="18" font-weight="bold" fill="#0f172a">TRL 7-9 · 商业化量产 — 4大成熟膝关节外骨骼架构</text>
  <text x="30" y="52" font-size="11" fill="#64748b">TRL 7-9 · Commercialized — 4 Mature Knee Exoskeleton Architectures</text>

  <!-- ================================================================ -->
  <!-- CARD 1: 铰链单轴外置式 Lateral Hinge                               -->
  <!-- ================================================================ -->
  <g transform="translate(30, 75)">
    <rect x="0" y="0" width="555" height="480" rx="8" fill="#ffffff" stroke="#0096f0" stroke-width="2" filter="url(#shadow)"/>
    <path d="M 0,8 Q 0,0 8,0 L 547,0 Q 555,0 555,8 L 555,34 L 0,34 Z" fill="#0096f0"/>
    <text x="18" y="23" font-size="14" font-weight="bold" fill="#ffffff">铰链单轴外置式 · Lateral Hinge</text>

    <!-- === DIAGRAM === -->
    <g transform="translate(0, 0)">
      <!-- Leg silhouette -->
      <path d="M 260,52 C 270,48 282,50 290,55 C 295,60 296,100 295,138 C 295,145 282,148 275,148 C 268,148 258,145 258,138 Z" fill="#f8fafc" stroke="#e2e8f0" stroke-width="1"/>
      <path d="M 258,140 C 258,148 295,145 295,138 C 292,185 290,215 288,225 C 286,230 270,230 262,228 C 256,226 254,222 256,215 Z" fill="#f8fafc" stroke="#e2e8f0" stroke-width="1"/>
      <!-- Femur bone -->
      <line x1="265" y1="55" x2="275" y2="140" stroke="#94a3b8" stroke-width="5" stroke-linecap="round"/>
      <!-- Tibia bone -->
      <line x1="275" y1="140" x2="270" y2="225" stroke="#94a3b8" stroke-width="4" stroke-linecap="round"/>
      <!-- Knee joint -->
      <circle cx="275" cy="140" r="10" fill="#dbeafe" stroke="#0096f0" stroke-width="2"/>
      <!-- Foot -->
      <path d="M 268,222 L 248,224 L 246,230 L 274,228 Z" fill="#f8fafc" stroke="#94a3b8" stroke-width="1.5" stroke-linejoin="round"/>

      <!-- Motor box -->
      <rect x="300" y="118" width="52" height="44" rx="6" fill="#e0f2fe" stroke="#0096f0" stroke-width="1.5"/>
      <text x="326" y="138" font-size="10" font-weight="bold" fill="#0096f0" text-anchor="middle">电机</text>
      <text x="326" y="150" font-size="10" fill="#475569" text-anchor="middle">Motor</text>

      <!-- Hinge pin -->
      <circle cx="275" cy="140" r="4" fill="#0096f0" stroke="none"/>
      <line x1="300" y1="140" x2="285" y2="140" stroke="#0096f0" stroke-width="1.5" stroke-dasharray="4,3"/>

      <!-- Thigh strap -->
      <path d="M 260,90 Q 240,85 245,80 Q 250,75 290,80 Q 295,85 290,90 Q 280,95 260,90 Z" fill="none" stroke="#0096f0" stroke-width="2.5" stroke-linecap="round"/>
      <!-- Calf strap -->
      <path d="M 260,185 Q 240,180 245,175 Q 250,170 290,175 Q 295,180 290,185 Q 280,190 260,185 Z" fill="none" stroke="#0096f0" stroke-width="2.5" stroke-linecap="round"/>

      <!-- Torque arrow -->
      <path d="M 294,152 Q 312,140 292,126" fill="none" stroke="#0096f0" stroke-width="2" marker-end="url(#arrowBlue)"/>

      <!-- Force path label -->
      <text x="310" y="172" font-size="10" fill="#475569">
        <tspan x="310" dy="0">电机→铰链→绑带→肢体</tspan>
      </text>
      <text x="310" y="188" font-size="10" fill="#94a3b8">Motor→Hinge→Strap→Limb</text>

      <!-- Anatomy labels -->
      <text x="250" y="78" font-size="10" fill="#64748b" text-anchor="end">大腿 Thigh</text>
      <text x="250" y="200" font-size="10" fill="#64748b" text-anchor="end">小腿 Calf</text>
    </g>

    <!-- === DIVIDER === -->
    <line x1="20" y1="235" x2="535" y2="235" stroke="#e2e8f0" stroke-width="1"/>

    <!-- === PRODUCTS === -->
    <text x="20" y="252" font-size="10" fill="#64748b">代表产品 Products</text>
    <text x="20" y="268" font-size="11" fill="#334155">远也PowerKnee (2.5kg, ¥7,999) · DNSYS Z1 (1.36kg, $699-2,298)</text>
    <text x="20" y="284" font-size="11" fill="#334155">Hypershell X (1.8kg, $799-1,999)</text>

    <!-- === KEY SPECS === -->
    <text x="20" y="300" font-size="10" fill="#64748b">关键参数 Key Specs</text>
    <g transform="translate(20, 308)">
      <rect x="0" y="0" width="105" height="18" rx="9" fill="#e0f2fe"/>
      <text x="52" y="12" font-size="10" fill="#0369a1" text-anchor="middle">力矩效率 &gt;90%</text>
      <rect x="112" y="0" width="75" height="18" rx="9" fill="#e0f2fe"/>
      <text x="150" y="12" font-size="10" fill="#0369a1" text-anchor="middle">最成熟架构</text>
      <rect x="194" y="0" width="75" height="18" rx="9" fill="#e0f2fe"/>
      <text x="232" y="12" font-size="10" fill="#0369a1" text-anchor="middle">单侧 650g</text>
      <rect x="276" y="0" width="60" height="18" rx="9" fill="#e0f2fe"/>
      <text x="306" y="12" font-size="10" fill="#0369a1" text-anchor="middle">已验证量产</text>
    </g>

    <!-- === PROS / CONS === -->
    <text x="20" y="348" font-size="10" fill="#64748b">评价 Assessment</text>
    <text x="20" y="364" font-size="11" fill="#16a34a">
      <tspan font-weight="bold">✓ 优势 Pros</tspan>
      <tspan dx="10">力矩效率&gt;90% · 最成熟 · 单侧650g · 量产</tspan>
    </text>
    <text x="20" y="380" font-size="11" fill="#dc2626">
      <tspan font-weight="bold">✗ 局限 Cons</tspan>
      <tspan dx="10">单轴≠人体ICR · 噪音70dB</tspan>
    </text>

    <!-- === BONES NOTE === -->
    <rect x="20" y="390" width="515" height="26" rx="6" fill="#f0f9ff" stroke="#bae6fd" stroke-width="1"/>
    <text x="30" y="407" font-size="11" fill="#0369a1">
      <tspan font-weight="bold">Bones &amp; Manifold:</tspan>
      <tspan dx="6">Gen 0-2 首选架构 — 力矩效率最高，供应链成熟，量产验证充分</tspan>
    </text>
  </g>

  <!-- ================================================================ -->
  <!-- CARD 2: 被动弹簧阻尼式 Passive Spring-Damper                        -->
  <!-- ================================================================ -->
  <g transform="translate(615, 75)">
    <rect x="0" y="0" width="555" height="480" rx="8" fill="#ffffff" stroke="#d97706" stroke-width="2" filter="url(#shadow)"/>
    <path d="M 0,8 Q 0,0 8,0 L 547,0 Q 555,0 555,8 L 555,34 L 0,34 Z" fill="#d97706"/>
    <text x="18" y="23" font-size="14" font-weight="bold" fill="#ffffff">被动弹簧阻尼式 · Passive Spring-Damper</text>

    <!-- === DIAGRAM === -->
    <g transform="translate(0, 0)">
      <!-- Leg silhouette -->
      <path d="M 260,52 C 270,48 282,50 290,55 C 295,60 296,100 295,138 C 295,145 282,148 275,148 C 268,148 258,145 258,138 Z" fill="#f8fafc" stroke="#e2e8f0" stroke-width="1"/>
      <path d="M 258,140 C 258,148 295,145 295,138 C 292,185 290,215 288,225 C 286,230 270,230 262,228 C 256,226 254,222 256,215 Z" fill="#f8fafc" stroke="#e2e8f0" stroke-width="1"/>
      <line x1="265" y1="55" x2="275" y2="140" stroke="#94a3b8" stroke-width="5" stroke-linecap="round"/>
      <line x1="275" y1="140" x2="270" y2="225" stroke="#94a3b8" stroke-width="4" stroke-linecap="round"/>
      <circle cx="275" cy="140" r="10" fill="#fffbeb" stroke="#d97706" stroke-width="2"/>
      <path d="M 268,222 L 248,224 L 246,230 L 274,228 Z" fill="#f8fafc" stroke="#94a3b8" stroke-width="1.5" stroke-linejoin="round"/>

      <!-- Spring zigzag -->
      <polyline points="250,80 232,92 250,104 232,116 250,128 232,140 250,152 232,164 250,176 232,188 250,200" fill="none" stroke="#d97706" stroke-width="2" stroke-linejoin="round"/>
      <line x1="245" y1="80" x2="260" y2="80" stroke="#d97706" stroke-width="1.5"/>
      <line x1="245" y1="200" x2="260" y2="200" stroke="#d97706" stroke-width="1.5"/>

      <!-- Damper -->
      <rect x="232" y="110" width="16" height="60" rx="3" fill="#fffbeb" stroke="#d97706" stroke-width="1.5"/>
      <line x1="232" y1="125" x2="248" y2="125" stroke="#d97706" stroke-width="1"/>
      <line x1="232" y1="155" x2="248" y2="155" stroke="#d97706" stroke-width="1"/>
      <line x1="240" y1="110" x2="240" y2="170" stroke="#d97706" stroke-width="2"/>

      <!-- Force arrow -->
      <path d="M 240,210 L 240,72" fill="none" stroke="#d97706" stroke-width="2" marker-end="url(#arrowAmber)"/>

      <!-- Labels -->
      <text x="200" y="88" font-size="10" fill="#d97706" text-anchor="end">弹簧 Spring</text>
      <text x="200" y="148" font-size="10" fill="#d97706" text-anchor="end">阻尼器 Damper</text>
      <text x="248" y="168" font-size="10" fill="#d97706">无外部动力</text>
      <text x="248" y="182" font-size="10" fill="#94a3b8">Zero External Power</text>
      <text x="224" y="64" font-size="10" fill="#d97706" text-anchor="end">弹簧力 Spring Force</text>
    </g>

    <!-- === DIVIDER === -->
    <line x1="20" y1="235" x2="535" y2="235" stroke="#e2e8f0" stroke-width="1"/>

    <!-- === PRODUCTS === -->
    <text x="20" y="252" font-size="10" fill="#64748b">代表产品 Products</text>
    <text x="20" y="268" font-size="11" fill="#334155">Ski-Mojo (€895, ~900g, 15年历史) · GOGOA Xnowers</text>

    <!-- === KEY SPECS === -->
    <text x="20" y="300" font-size="10" fill="#64748b">关键参数 Key Specs</text>
    <g transform="translate(20, 308)">
      <rect x="0" y="0" width="65" height="18" rx="9" fill="#fef3c7"/>
      <text x="32" y="12" font-size="10" fill="#92400e" text-anchor="middle">零功耗</text>
      <rect x="72" y="0" width="75" height="18" rx="9" fill="#fef3c7"/>
      <text x="110" y="12" font-size="10" fill="#92400e" text-anchor="middle">高可靠性</text>
      <rect x="154" y="0" width="65" height="18" rx="9" fill="#fef3c7"/>
      <text x="186" y="12" font-size="10" fill="#92400e" text-anchor="middle">全天候</text>
    </g>

    <!-- === PROS / CONS === -->
    <text x="20" y="348" font-size="10" fill="#64748b">评价 Assessment</text>
    <text x="20" y="364" font-size="11" fill="#16a34a">
      <tspan font-weight="bold">✓ 优势 Pros</tspan>
      <tspan dx="10">零功耗 · 极可靠 · 任何气候</tspan>
    </text>
    <text x="20" y="380" font-size="11" fill="#dc2626">
      <tspan font-weight="bold">✗ 局限 Cons</tspan>
      <tspan dx="10">无主动助力 · 刚度固定不可调</tspan>
    </text>

    <!-- === BONES NOTE === -->
    <rect x="20" y="390" width="515" height="26" rx="6" fill="#fffbeb" stroke="#fde68a" stroke-width="1"/>
    <text x="30" y="407" font-size="11" fill="#92400e">
      <tspan font-weight="bold">Bones &amp; Manifold:</tspan>
      <tspan dx="6">低端产品线参考 — 零功耗优势明显，适合低成本/长续航场景</tspan>
    </text>
  </g>

  <!-- ================================================================ -->
  <!-- CARD 3: 电缆远程驱动式 Cable Remote                                -->
  <!-- ================================================================ -->
  <g transform="translate(30, 620)">
    <rect x="0" y="0" width="555" height="480" rx="8" fill="#ffffff" stroke="#0096f0" stroke-width="2" filter="url(#shadow)"/>
    <path d="M 0,8 Q 0,0 8,0 L 547,0 Q 555,0 555,8 L 555,34 L 0,34 Z" fill="#0096f0"/>
    <text x="18" y="23" font-size="14" font-weight="bold" fill="#ffffff">电缆远程驱动式 · Cable Remote</text>

    <!-- === DIAGRAM === -->
    <g transform="translate(0, 0)">
      <!-- Torso -->
      <path d="M 248,20 C 248,10 265,5 285,5 C 305,5 320,12 315,25 L 305,50 C 290,55 262,55 252,48 Z" fill="#f1f5f9" stroke="#e2e8f0" stroke-width="1"/>
      <!-- Leg -->
      <path d="M 260,55 C 270,48 282,50 290,55 C 295,60 296,100 295,138 C 295,145 282,148 275,148 C 268,148 258,145 258,138 Z" fill="#f8fafc" stroke="#e2e8f0" stroke-width="1"/>
      <path d="M 258,140 C 258,148 295,145 295,138 C 292,185 290,215 288,225 C 286,230 270,230 262,228 C 256,226 254,222 256,215 Z" fill="#f8fafc" stroke="#e2e8f0" stroke-width="1"/>
      <line x1="280" y1="10" x2="280" y2="50" stroke="#94a3b8" stroke-width="3" stroke-linecap="round"/>
      <line x1="265" y1="55" x2="275" y2="140" stroke="#94a3b8" stroke-width="5" stroke-linecap="round"/>
      <line x1="275" y1="140" x2="270" y2="225" stroke="#94a3b8" stroke-width="4" stroke-linecap="round"/>
      <circle cx="275" cy="140" r="10" fill="#dbeafe" stroke="#0096f0" stroke-width="2"/>
      <path d="M 268,222 L 248,224 L 246,230 L 274,228 Z" fill="#f8fafc" stroke="#94a3b8" stroke-width="1.5" stroke-linejoin="round"/>

      <!-- Motor at waist -->
      <rect x="228" y="18" width="48" height="36" rx="6" fill="#e0f2fe" stroke="#0096f0" stroke-width="1.5"/>
      <text x="252" y="35" font-size="10" font-weight="bold" fill="#0096f0" text-anchor="middle">电机</text>
      <text x="252" y="47" font-size="10" fill="#475569" text-anchor="middle">Motor</text>

      <!-- Cable conduit -->
      <path d="M 228,54 C 208,70 208,100 223,120 C 238,140 258,145 275,145" fill="none" stroke="#94a3b8" stroke-width="4" stroke-linecap="round" opacity="0.3"/>
      <!-- Bowden cable (dashed) -->
      <path d="M 230,54 C 210,70 210,100 225,120 C 240,140 260,145 275,145" fill="none" stroke="#0096f0" stroke-width="2.5" stroke-dasharray="6,3"/>

      <!-- Pulley -->
      <circle cx="275" cy="140" r="14" fill="none" stroke="#0096f0" stroke-width="2"/>
      <circle cx="275" cy="140" r="3" fill="#0096f0"/>
      <line x1="275" y1="126" x2="275" y2="154" stroke="#0096f0" stroke-width="1"/>
      <line x1="261" y1="140" x2="289" y2="140" stroke="#0096f0" stroke-width="1"/>

      <!-- Force arrow -->
      <path d="M 238,60 C 215,75 215,105 230,125" fill="none" stroke="#16a34a" stroke-width="1.5" marker-end="url(#arrowGreen)" stroke-dasharray="4,3"/>

      <!-- Labels -->
      <text x="200" y="82" font-size="10" fill="#0096f0" text-anchor="end">Bowden线缆 Cable</text>
      <text x="296" y="155" font-size="10" fill="#0096f0">滑轮 Pulley</text>
      <text x="308" y="108" font-size="10" fill="#475569">电机→线缆→滑轮→关节</text>
      <text x="308" y="122" font-size="10" fill="#94a3b8">Motor→Cable→Pulley</text>
      <text x="240" y="28" font-size="10" fill="#64748b" text-anchor="end">腰部 Waist</text>
      <text x="250" y="78" font-size="10" fill="#64748b" text-anchor="end">大腿 Thigh</text>
      <text x="250" y="205" font-size="10" fill="#64748b" text-anchor="end">小腿 Calf</text>
    </g>

    <!-- === DIVIDER === -->
    <line x1="20" y1="235" x2="535" y2="235" stroke="#e2e8f0" stroke-width="1"/>

    <!-- === PRODUCTS === -->
    <text x="20" y="252" font-size="10" fill="#64748b">代表产品 Products</text>
    <text x="20" y="268" font-size="11" fill="#334155">Hurotics H-Medi (FDA II, 2.8-4.5kg, 200N) · Harvard Exosuit</text>

    <!-- === KEY SPECS === -->
    <text x="20" y="300" font-size="10" fill="#64748b">关键参数 Key Specs</text>
    <g transform="translate(20, 308)">
      <rect x="0" y="0" width="85" height="18" rx="9" fill="#e0f2fe"/>
      <text x="42" y="12" font-size="10" fill="#0369a1" text-anchor="middle">膝端 &lt;150g</text>
      <rect x="92" y="0" width="65" height="18" rx="9" fill="#e0f2fe"/>
      <text x="124" y="12" font-size="10" fill="#0369a1" text-anchor="middle">低惯量</text>
      <rect x="164" y="0" width="85" height="18" rx="9" fill="#e0f2fe"/>
      <text x="206" y="12" font-size="10" fill="#0369a1" text-anchor="middle">FDA II 认证</text>
    </g>

    <!-- === PROS / CONS === -->
    <text x="20" y="348" font-size="10" fill="#64748b">评价 Assessment</text>
    <text x="20" y="364" font-size="11" fill="#16a34a">
      <tspan font-weight="bold">✓ 优势 Pros</tspan>
      <tspan dx="10">膝端&lt;150g · 低惯量</tspan>
    </text>
    <text x="20" y="380" font-size="11" fill="#dc2626">
      <tspan font-weight="bold">✗ 局限 Cons</tspan>
      <tspan dx="10">摩擦30-50% · 总重&gt;2.8kg</tspan>
    </text>

    <!-- === BONES NOTE === -->
    <rect x="20" y="390" width="515" height="26" rx="6" fill="#f0f9ff" stroke="#bae6fd" stroke-width="1"/>
    <text x="30" y="407" font-size="11" fill="#0369a1">
      <tspan font-weight="bold">Bones &amp; Manifold:</tspan>
      <tspan dx="6">Gen 2+ 备选方案 — 膝端惯量极低，适合精细力控场景</tspan>
    </text>
  </g>

  <!-- ================================================================ -->
  <!-- CARD 4: 软体Exosuit Soft Fabric                                   -->
  <!-- ================================================================ -->
  <g transform="translate(615, 620)">
    <!-- Dashed border -->
    <rect x="0" y="0" width="555" height="480" rx="8" fill="#ffffff" stroke="#0096f0" stroke-width="2" stroke-dasharray="8,4" filter="url(#shadow)"/>
    <!-- Solid header -->
    <path d="M 0,8 Q 0,0 8,0 L 547,0 Q 555,0 555,8 L 555,34 L 0,34 Z" fill="#0096f0"/>
    <text x="18" y="23" font-size="14" font-weight="bold" fill="#ffffff">软体Exosuit · Soft Fabric</text>

    <!-- === DIAGRAM === -->
    <g transform="translate(0, 0)">
      <!-- Fabric outline (dashed) -->
      <path d="M 248,45 C 260,40 290,42 305,48 C 310,55 310,100 308,140 C 308,150 290,155 275,155 C 260,155 242,150 240,140 C 238,100 240,55 248,45 Z" fill="#f0f9ff" fill-opacity="0.4" stroke="#0096f0" stroke-width="1.5" stroke-dasharray="5,4"/>
      <path d="M 242,138 C 240,150 308,148 310,140 C 306,190 302,220 300,228 C 298,236 275,240 260,238 C 248,236 240,230 242,220 Z" fill="#f0f9ff" fill-opacity="0.4" stroke="#0096f0" stroke-width="1.5" stroke-dasharray="5,4"/>

      <!-- Leg -->
      <path d="M 260,52 C 270,48 282,50 290,55 C 295,60 296,100 295,138 C 295,145 282,148 275,148 C 268,148 258,145 258,138 Z" fill="#f8fafc" stroke="#e2e8f0" stroke-width="1"/>
      <path d="M 258,140 C 258,148 295,145 295,138 C 292,185 290,215 288,225 C 286,230 270,230 262,228 C 256,226 254,222 256,215 Z" fill="#f8fafc" stroke="#e2e8f0" stroke-width="1"/>
      <line x1="265" y1="55" x2="275" y2="140" stroke="#94a3b8" stroke-width="5" stroke-linecap="round"/>
      <line x1="275" y1="140" x2="270" y2="225" stroke="#94a3b8" stroke-width="4" stroke-linecap="round"/>
      <circle cx="275" cy="140" r="10" fill="#dbeafe" stroke="#0096f0" stroke-width="2"/>
      <path d="M 268,222 L 248,224 L 246,230 L 274,228 Z" fill="#f8fafc" stroke="#94a3b8" stroke-width="1.5" stroke-linejoin="round"/>

      <!-- Embedded actuator -->
      <rect x="290" y="110" width="30" height="22" rx="4" fill="#dbeafe" stroke="#0096f0" stroke-width="1.5"/>
      <text x="305" y="125" font-size="10" font-weight="bold" fill="#0096f0" text-anchor="middle">执行器</text>
      <line x1="290" y1="121" x2="270" y2="121" stroke="#0096f0" stroke-width="1" stroke-dasharray="3,3"/>

      <!-- Waist band -->
      <path d="M 240,38 Q 275,32 310,38" fill="none" stroke="#0096f0" stroke-width="3" stroke-linecap="round"/>

      <!-- Tension arrows -->
      <path d="M 295,65 L 305,65" fill="none" stroke="#0096f0" stroke-width="1.5" marker-end="url(#arrowBlue)"/>
      <path d="M 242,65 L 235,65" fill="none" stroke="#0096f0" stroke-width="1.5" marker-end="url(#arrowBlue)"/>
      <path d="M 295,95 L 305,95" fill="none" stroke="#0096f0" stroke-width="1.5" marker-end="url(#arrowBlue)"/>
      <path d="M 242,95 L 235,95" fill="none" stroke="#0096f0" stroke-width="1.5" marker-end="url(#arrowBlue)"/>
      <path d="M 295,180 L 305,180" fill="none" stroke="#0096f0" stroke-width="1.5" marker-end="url(#arrowBlue)"/>
      <path d="M 242,180 L 235,180" fill="none" stroke="#0096f0" stroke-width="1.5" marker-end="url(#arrowBlue)"/>
      <path d="M 295,205 L 305,205" fill="none" stroke="#0096f0" stroke-width="1.5" marker-end="url(#arrowBlue)"/>
      <path d="M 242,205 L 235,205" fill="none" stroke="#0096f0" stroke-width="1.5" marker-end="url(#arrowBlue)"/>

      <!-- Tension lines -->
      <line x1="248" y1="75" x2="242" y2="98" stroke="#93c5fd" stroke-width="1" stroke-dasharray="3,3"/>
      <line x1="298" y1="75" x2="305" y2="98" stroke="#93c5fd" stroke-width="1" stroke-dasharray="3,3"/>
      <line x1="248" y1="160" x2="243" y2="195" stroke="#93c5fd" stroke-width="1" stroke-dasharray="3,3"/>
      <line x1="298" y1="160" x2="305" y2="195" stroke="#93c5fd" stroke-width="1" stroke-dasharray="3,3"/>

      <!-- Labels -->
      <text x="315" y="62" font-size="10" fill="#0096f0">织物 Fabric</text>
      <text x="315" y="140" font-size="10" fill="#0369a1">嵌入式执行器</text>
      <text x="315" y="155" font-size="10" fill="#94a3b8">Embedded Actuator</text>
      <text x="188" y="62" font-size="10" fill="#64748b" text-anchor="end">腰带 Waistband</text>
      <text x="315" y="195" font-size="10" fill="#475569">织物张力 Tension T</text>
    </g>

    <!-- === DIVIDER === -->
    <line x1="20" y1="235" x2="535" y2="235" stroke="#e2e8f0" stroke-width="1"/>

    <!-- === PRODUCTS === -->
    <text x="20" y="252" font-size="10" fill="#64748b">代表产品 Products</text>
    <text x="20" y="268" font-size="11" fill="#334155">Skip MO/GO ($5,000, 始祖鸟联名, 3.2kg) · Roam ($2-7K)</text>
    <text x="20" y="284" font-size="11" fill="#334155">XoBrace ($150)</text>

    <!-- === KEY SPECS === -->
    <text x="20" y="300" font-size="10" fill="#64748b">关键参数 Key Specs</text>
    <g transform="translate(20, 308)">
      <rect x="0" y="0" width="105" height="18" rx="9" fill="#e0f2fe"/>
      <text x="52" y="12" font-size="10" fill="#0369a1" text-anchor="middle">社会接受度最高</text>
      <rect x="112" y="0" width="55" height="18" rx="9" fill="#e0f2fe"/>
      <text x="140" y="12" font-size="10" fill="#0369a1" text-anchor="middle">如衣物</text>
      <rect x="174" y="0" width="95" height="18" rx="9" fill="#e0f2fe"/>
      <text x="222" y="12" font-size="10" fill="#0369a1" text-anchor="middle">助力 &lt;20Nm</text>
    </g>

    <!-- === PROS / CONS === -->
    <text x="20" y="348" font-size="10" fill="#64748b">评价 Assessment</text>
    <text x="20" y="364" font-size="11" fill="#16a34a">
      <tspan font-weight="bold">✓ 优势 Pros</tspan>
      <tspan dx="10">社会接受度最高 · 像衣服</tspan>
    </text>
    <text x="20" y="380" font-size="11" fill="#dc2626">
      <tspan font-weight="bold">✗ 局限 Cons</tspan>
      <tspan dx="10">助力&lt;20Nm · 效率&lt;50% · 耐久&lt;1年 · 10尺码</tspan>
    </text>

    <!-- === BONES NOTE === -->
    <rect x="20" y="390" width="515" height="26" rx="6" fill="#f0f9ff" stroke="#bae6fd" stroke-width="1"/>
    <text x="30" y="407" font-size="11" fill="#0369a1">
      <tspan font-weight="bold">Bones &amp; Manifold:</tspan>
      <tspan dx="6">Gen 3 终极方向 — 社会接受度+穿着体验远超其他架构</tspan>
    </text>
  </g>
</svg>
