<svg xmlns="http://www.w3.org/2000/svg" viewBox="0 0 1200 1200" width="1200" height="1000"
     font-family="'PingFang SC','Microsoft YaHei','Noto Sans SC',system-ui,sans-serif">
  <defs>
    <marker id="arrow-blue" markerWidth="8" markerHeight="6" refX="8" refY="3" orient="auto"><polygon points="0 0,8 3,0 6" fill="#0096f0"/></marker>
    <marker id="arrow-amber" markerWidth="8" markerHeight="6" refX="8" refY="3" orient="auto"><polygon points="0 0,8 3,0 6" fill="#d97706"/></marker>
    <marker id="arrow-down" markerWidth="6" markerHeight="8" refX="3" refY="8" orient="auto"><polygon points="0 0,3 8,6 0" fill="#9E9E9E"/></marker>
    <filter id="shadow" x="-2%" y="-2%" width="104%" height="106%"><feDropShadow dx="1" dy="2" stdDeviation="2" flood-color="#00000010"/></filter>
    <g id="leg-silhouette">
      <path d="M 0,-55 L 22,-55 L 18,-10 L 22,40 L 18,70 L -4,70 L 0,40 L 4,-10 Z" fill="#f5f5f5" stroke="#ddd" stroke-width="0.8"/>
      <circle cx="12" cy="-10" r="9" fill="#fff" stroke="#ddd" stroke-width="0.8"/>
      <path d="M -6,70 L -8,80 L 24,80 L 24,70 Z" fill="#f5f5f5" stroke="#ddd" stroke-width="0.8"/>
    </g>
  </defs>
  <rect width="1200" height="1000" fill="#ffffff"/>
  <line x1="740" y1="0" x2="740" y2="1000" stroke="#e0e0e0" stroke-width="1"/>

  <!-- ====== GEN 0-1 PANEL (LEFT) ====== -->
  <g transform="translate(20,25)" filter="url(#shadow)">
    <rect x="0" y="0" width="720" height="280" fill="#fafcff" stroke="#0096f0" stroke-width="2" rx="6"/>
    <path d="M 0,6 Q 0,0 6,0 L 714,0 Q 720,0 720,6 L 720,28 L 0,28 Z" fill="#0096f0"/>
    <text x="360" y="19" text-anchor="middle" font-size="12" font-weight="bold" fill="#fff">Gen 0-1  铰链单轴 · 腰带集中供电 (刚性外骨骼)</text>
    <g transform="translate(20,40)">
      <use href="#leg-silhouette" transform="translate(60,30) scale(2)"/>
      <rect x="148" y="20" width="14" height="90" rx="3" fill="#dbeafe" stroke="#0096f0" stroke-width="1.5"/>
      <text x="155" y="75" text-anchor="middle" font-size="7" fill="#0096f0">股骨连杆</text>
      <rect x="148" y="130" width="14" height="100" rx="3" fill="#dbeafe" stroke="#0096f0" stroke-width="1.5"/>
      <text x="155" y="198" text-anchor="middle" font-size="7" fill="#0096f0">胫骨连杆</text>
      <circle cx="155" cy="115" r="16" fill="#e3f2fd" stroke="#0096f0" stroke-width="2"/>
      <circle cx="155" cy="115" r="5" fill="#0096f0"/>
      <line x1="145" y1="115" x2="165" y2="115" stroke="#0096f0" stroke-width="1.5"/>
      <line x1="155" y1="105" x2="155" y2="125" stroke="#0096f0" stroke-width="1.5"/>
      <path d="M 165,105 A 14,14 0 0 0 168,122" fill="none" stroke="#0096f0" stroke-width="1.2" stroke-dasharray="3,2"/>
      <polygon points="168,122 165,119 170,118" fill="#0096f0"/>
      <text x="172" y="110" font-size="8" fill="#0096f0" font-style="italic">theta;</text>
      <circle cx="155" cy="230" r="8" fill="#e3f2fd" stroke="#0096f0" stroke-width="1.5"/>
      <circle cx="155" cy="230" r="3" fill="#0096f0"/>
      <g transform="translate(200,10)">
        <path d="M 0,15 Q 20,0 50,8" fill="none" stroke="#0096f0" stroke-width="2.5"/>
        <path d="M 0,40 Q 20,55 50,48" fill="none" stroke="#0096f0" stroke-width="2.5"/>
        <rect x="10" y="16" width="30" height="24" rx="4" fill="#bbdefb" stroke="#0096f0" stroke-width="1.5"/>
        <text x="25" y="32" text-anchor="middle" font-size="9" fill="#0096f0" font-weight="bold">腰带</text>
        <rect x="55" y="12" width="50" height="32" rx="4" fill="#e8eaf6" stroke="#0096f0" stroke-width="1.5"/>
        <text x="80" y="24" text-anchor="middle" font-size="7" fill="#333">电池组</text>
        <text x="80" y="36" text-anchor="middle" font-size="7" fill="#666">24V 2Ah</text>
        <path d="M 80,44 L 80,65 L 40,65 L 40,85" fill="none" stroke="#0096f0" stroke-width="1.2" stroke-dasharray="4,2" marker-end="url(#arrow-blue)"/>
      </g>
      <g transform="translate(200,75)">
        <rect x="0" y="0" width="40" height="32" rx="4" fill="#bbdefb" stroke="#0096f0" stroke-width="1.5"/>
        <text x="20" y="14" text-anchor="middle" font-size="10" fill="#0096f0" font-weight="bold">M</text>
        <text x="20" y="26" text-anchor="middle" font-size="7" fill="#666">DCX22</text>
        <path d="M 40,10 L 70,100" fill="none" stroke="#666" stroke-width="1.2"/>
        <path d="M 40,22 L 70,112" fill="none" stroke="#666" stroke-width="1.2"/>
        <line x1="40" y1="10" x2="40" y2="22" stroke="#666" stroke-width="1"/>
        <line x1="70" y1="100" x2="70" y2="112" stroke="#666" stroke-width="1"/>
        <text x="60" y="70" font-size="7" fill="#666" transform="rotate(-15,60,70)">同步带</text>
      </g>
      <rect x="140" y="30" width="30" height="6" rx="2" fill="#0096f0" opacity="0.3"/>
      <rect x="140" y="175" width="30" height="6" rx="2" fill="#0096f0" opacity="0.3"/>
      <rect x="140" y="215" width="30" height="6" rx="2" fill="#0096f0" opacity="0.3"/>
      <g transform="translate(260,90)">
        <path d="M 0,0 A 25,25 0 0,1 35,-25" fill="none" stroke="#0096f0" stroke-width="1.2" marker-end="url(#arrow-blue)"/>
        <text x="40" y="-15" font-size="8" fill="#0096f0">12 Nm</text>
        <text x="40" y="-5" font-size="7" fill="#666">DC-5Hz</text>
      </g>
      <g transform="translate(280,140)">
        <rect x="0" y="0" width="200" height="50" rx="3" fill="#f0f4ff" stroke="#0096f0" stroke-width="0.8"/>
        <text x="10" y="16" font-size="8" fill="#0096f0" font-weight="bold">机构特征</text>
        <text x="10" y="30" font-size="7" fill="#666">1-DOF 旋转铰链</text>
        <text x="10" y="44" font-size="7" fill="#666">腰带集中供电 + 同步带传动</text>
      </g>
      <g transform="translate(0,250)">
        <rect x="0" y="0" width="700" height="25" fill="#f5f5f5" stroke="#e0e0e0" stroke-width="0.5" rx="2"/>
        <text x="10" y="16" font-size="8" fill="#555">电机:AK80-9|电池:24V 2Ah|框架:碳纤维+铝+钛|重量:~2.4kg|穿戴:绑带30s|控制:阻抗|安全:机械限位|噪音:约50dB</text>
      </g>
    </g>
  </g>

  <g transform="translate(390,308)">
    <line x1="0" y1="0" x2="0" y2="22" stroke="#9E9E9E" stroke-width="2.5"/>
    <polygon points="-6,19 0,27 6,19" fill="#9E9E9E"/>
    <text x="18" y="15" font-size="9" fill="#666">架构升级</text>
  </g>

  <!-- ====== GEN 2+ PANEL (LEFT) ====== -->
  <g transform="translate(20,335)" filter="url(#shadow)">
    <rect x="0" y="0" width="720" height="280" fill="#fffcf5" stroke="#d97706" stroke-width="2" rx="6"/>
    <path d="M 0,6 Q 0,0 6,0 L 714,0 Q 720,0 720,6 L 720,28 L 0,28 Z" fill="#d97706"/>
    <text x="360" y="19" text-anchor="middle" font-size="12" font-weight="bold" fill="#fff">Gen 2+  电缆远程驱动 · TSA弹性储能 (半刚性外骨骼)</text>
    <g transform="translate(20,40)">
      <use href="#leg-silhouette" transform="translate(60,30) scale(2)"/>
      <g transform="translate(180,10)">
        <rect x="0" y="0" width="65" height="50" rx="5" fill="#fef3c7" stroke="#d97706" stroke-width="1.5"/>
        <text x="32" y="16" text-anchor="middle" font-size="8" fill="#d97706" font-weight="bold">驱动器</text>
        <text x="32" y="30" text-anchor="middle" font-size="7" fill="#666">MTG-30</text>
        <text x="32" y="43" text-anchor="middle" font-size="7" fill="#666">200W BLDC</text>
        <path d="M 65,25 Q 85,25 100,15" fill="none" stroke="#d97706" stroke-width="1.2" stroke-dasharray="3,2"/>
        <text x="95" y="10" font-size="7" fill="#666">背板固定</text>
      </g>
      <g transform="translate(245,20)">
        <path d="M 0,15 Q 40,-5 70,15 Q 90,30 110,45" fill="none" stroke="#bbb" stroke-width="3"/>
        <path d="M 0,15 Q 40,-5 70,15 Q 90,30 110,45" fill="none" stroke="#d97706" stroke-width="1" stroke-dasharray="2,3"/>
        <circle cx="35" cy="4" r="2.5" fill="none" stroke="#d97706" stroke-width="0.8"/>
        <circle cx="80" cy="21" r="2.5" fill="none" stroke="#d97706" stroke-width="0.8"/>
        <text x="55" y="-8" font-size="7" fill="#666">Bowden电缆</text>
        <text x="55" y="1" font-size="6" fill="#999">~0.5m</text>
      </g>
      <g transform="translate(340,45)">
        <rect x="0" y="0" width="22" height="22" fill="#f5f5f5" stroke="#999" stroke-width="1.2" rx="2"/>
        <text x="11" y="10" text-anchor="middle" font-size="6" fill="#555">力</text>
        <text x="11" y="18" text-anchor="middle" font-size="6" fill="#555">传感</text>
        <line x1="22" y1="11" x2="35" y2="11" stroke="#999" stroke-width="1"/>
        <polygon points="35,11 31,8 31,14" fill="#999"/>
      </g>
      <g transform="translate(375,20)">
        <rect x="0" y="0" width="55" height="65" rx="4" fill="#fef3c7" stroke="#d97706" stroke-width="1.5"/>
        <text x="27" y="14" text-anchor="middle" font-size="8" fill="#d97706" font-weight="bold">TSA</text>
        <text x="27" y="25" text-anchor="middle" font-size="6" fill="#666">弹性机构</text>
        <path d="M 12,32 L 18,36 L 24,32 L 30,36 L 36,32 L 42,36 L 48,32" fill="none" stroke="#d97706" stroke-width="1.5"/>
        <text x="27" y="55" text-anchor="middle" font-size="7" fill="#666">k=45N/rad</text>
      </g>
      <g transform="translate(440,22)">
        <circle cx="20" cy="20" r="16" fill="#fef3c7" stroke="#d97706" stroke-width="2"/>
        <circle cx="20" cy="20" r="5" fill="#d97706"/>
        <path d="M 20,4 L 20,-10" stroke="#d97706" stroke-width="2"/>
        <path d="M 20,36 L 20,55" stroke="#d97706" stroke-width="2.5" stroke-linecap="round"/>
        <text x="20" y="68" text-anchor="middle" font-size="8" fill="#d97706">髋/膝关节</text>
        <path d="M 36,20 A 16,16 0 0,1 20,36" fill="none" stroke="#d97706" stroke-width="1" stroke-dasharray="3,2"/>
        <polygon points="34,34 31,32 36,31" fill="#d97706"/>
      </g>
      <g transform="translate(510,30)">
        <rect x="0" y="0" width="180" height="55" rx="3" fill="#fff8e1" stroke="#d97706" stroke-width="0.8"/>
        <text x="10" y="16" font-size="8" fill="#d97706" font-weight="bold">力矩传递路径</text>
        <text x="10" y="30" font-size="7" fill="#666">BLDC→减速器→Bowden→TSA</text>
        <text x="10" y="44" font-size="7" fill="#666">峰值35Nm·DC-12Hz·储能2.5J</text>
      </g>
      <g transform="translate(510,95)">
        <rect x="0" y="0" width="180" height="40" rx="3" fill="#f5f5f5" stroke="#e0e0e0" stroke-width="0.8"/>
        <text x="10" y="15" font-size="8" fill="#333" font-weight="bold">走线方式</text>
        <text x="10" y="28" font-size="7" fill="#666">背板穿出→沿连杆背侧→关节入口</text>
      </g>
      <g transform="translate(0,250)">
        <rect x="0" y="0" width="700" height="25" fill="#f5f5f5" stroke="#e0e0e0" stroke-width="0.5" rx="2"/>
        <text x="10" y="16" font-size="8" fill="#555">电机:TSA绞盘x2|电池:48V 4Ah|框架:碳纤维+铝合金|重量:&lt;2.0kg|穿戴:卡扣1min|控制:力位混合|安全:TSA+软件|噪音:&lt;42dB</text>
      </g>
    </g>
  </g>

  <g transform="translate(390,618)">
    <line x1="0" y1="0" x2="0" y2="22" stroke="#9E9E9E" stroke-width="2.5"/>
    <polygon points="-6,19 0,27 6,19" fill="#9E9E9E"/>
    <text x="18" y="15" font-size="9" fill="#666">下一代</text>
  </g>

  <!-- ====== GEN 3 PANEL (LEFT) ====== -->
  <g transform="translate(20,645)" filter="url(#shadow)">
    <rect x="0" y="0" width="720" height="280" fill="#f6fdf9" stroke="#059669" stroke-width="2" stroke-dasharray="6,4" rx="6"/>
    <path d="M 0,6 Q 0,0 6,0 L 714,0 Q 720,0 720,6 L 720,28 L 0,28 Z" fill="#059669"/>
    <text x="360" y="19" text-anchor="middle" font-size="12" font-weight="bold" fill="#fff">Gen 3 (开发中) 软体织物混合 · 零刚性关节</text>
    <g transform="translate(20,40)">
      <use href="#leg-silhouette" transform="translate(60,30) scale(2)"/>
      <rect x="130" y="15" width="280" height="200" rx="12" fill="#ecfdf5" stroke="#059669" stroke-width="1" stroke-dasharray="4,2"/>
      <text x="270" y="30" text-anchor="middle" font-size="8" fill="#059669">柔性织物基底 (Kevlar编织+弹性体)</text>
      <g stroke="#a7f3d0" stroke-width="0.5" fill="none" opacity="0.6">
        <line x1="150" y1="45" x2="170" y2="45"/><line x1="150" y1="51" x2="170" y2="51"/>
        <line x1="150" y1="57" x2="170" y2="57"/><line x1="150" y1="63" x2="170" y2="63"/>
        <line x1="155" y1="40" x2="155" y2="68"/><line x1="163" y1="40" x2="163" y2="68"/>
        <line x1="250" y1="45" x2="270" y2="45"/><line x1="250" y1="51" x2="270" y2="51"/>
        <line x1="250" y1="57" x2="270" y2="57"/><line x1="250" y1="63" x2="270" y2="63"/>
        <line x1="255" y1="40" x2="255" y2="68"/><line x1="263" y1="40" x2="263" y2="68"/>
        <line x1="350" y1="45" x2="370" y2="45"/><line x1="350" y1="51" x2="370" y2="51"/>
        <line x1="350" y1="57" x2="370" y2="57"/><line x1="350" y1="63" x2="370" y2="63"/>
        <line x1="355" y1="40" x2="355" y2="68"/><line x1="363" y1="40" x2="363" y2="68"/>
      </g>
      <g transform="translate(145,45)"><rect x="0" y="0" width="100" height="22" rx="11" fill="#d1fae5" stroke="#059669" stroke-width="1.5"/><text x="50" y="10" text-anchor="middle" font-size="7" fill="#059669">软体气动肌肉</text><text x="50" y="18" text-anchor="middle" font-size="6" fill="#666">McKibben型</text></g>
      <g transform="translate(145,85)"><rect x="0" y="0" width="100" height="22" rx="11" fill="#d1fae5" stroke="#059669" stroke-width="1.5"/><text x="50" y="10" text-anchor="middle" font-size="7" fill="#059669">软体液压肌肉</text><text x="50" y="18" text-anchor="middle" font-size="6" fill="#666">PEA型</text></g>
      <g transform="translate(145,125)"><rect x="0" y="0" width="100" height="22" rx="11" fill="#d1fae5" stroke="#059669" stroke-width="1.5"/><text x="50" y="10" text-anchor="middle" font-size="7" fill="#059669">弹性绷带x3</text><text x="50" y="18" text-anchor="middle" font-size="6" fill="#666">被动张力层</text></g>
      <path d="M 195,56 Q 220,35 260,35 L 280,35" fill="none" stroke="#059669" stroke-width="1.2"/>
      <circle cx="195" cy="56" r="2" fill="#059669"/>
      <circle cx="280" cy="35" r="2" fill="#059669"/>
      <path d="M 195,96 Q 230,110 260,110 L 280,110" fill="none" stroke="#059669" stroke-width="1.2"/>
      <circle cx="195" cy="96" r="2" fill="#059669"/>
      <circle cx="280" cy="110" r="2" fill="#059669"/>
      <text x="290" y="40" font-size="7" fill="#666">气/液管路</text>
      <g transform="translate(290,140)"><rect x="0" y="0" width="55" height="30" rx="4" fill="#d1fae5" stroke="#059669" stroke-width="1" stroke-dasharray="3,2"/><text x="27" y="12" text-anchor="middle" font-size="7" fill="#059669">微型泵</text><text x="27" y="23" text-anchor="middle" font-size="6" fill="#666">&lt;30g</text></g>
      <g fill="#059669"><circle cx="265" cy="55" r="3.5"/><circle cx="300" cy="85" r="3.5"/><circle cx="250" cy="120" r="3.5"/><circle cx="280" cy="150" r="3.5"/></g>
      <text x="310" y="58" font-size="7" fill="#666">分布式IMU x4</text>
      <path d="M 90,35 Q 110,55 105,95 Q 100,135 115,165" fill="none" stroke="#059669" stroke-width="2.5" stroke-dasharray="5,3" opacity="0.6"/>
      <path d="M 170,25 Q 175,60 172,105 Q 169,150 180,170" fill="none" stroke="#059669" stroke-width="2.5" stroke-dasharray="5,3" opacity="0.6"/>
      <rect x="88" y="40" width="84" height="6" rx="3" fill="#059669" opacity="0.2" stroke="#059669" stroke-width="0.5"/>
      <rect x="82" y="80" width="92" height="6" rx="3" fill="#059669" opacity="0.2" stroke="#059669" stroke-width="0.5"/>
      <rect x="80" y="130" width="94" height="6" rx="3" fill="#059669" opacity="0.2" stroke="#059669" stroke-width="0.5"/>
      <g transform="translate(370,50)"><rect x="0" y="0" width="180" height="55" rx="3" fill="#f0fdf4" stroke="#059669" stroke-width="0.8"/><text x="10" y="15" font-size="8" fill="#059669" font-weight="bold">软体结构特征</text><text x="10" y="28" font-size="7" fill="#666">零刚性关节·人体共形设计</text><text x="10" y="40" font-size="7" fill="#666">分布式驱动+被动弹性</text></g>
      <g transform="translate(370,115)"><rect x="0" y="0" width="180" height="55" rx="3" fill="#f0fdf4" stroke="#059669" stroke-width="0.8"/><text x="10" y="15" font-size="8" fill="#059669" font-weight="bold">目标参数</text><text x="10" y="28" font-size="7" fill="#666">重量:&lt;1.2kg/腿</text><text x="10" y="40" font-size="7" fill="#666">噪音:&lt;25dB·穿戴:15s</text></g>
      <g transform="translate(0,250)">
        <rect x="0" y="0" width="700" height="25" fill="#f5f5f5" stroke="#e0e0e0" stroke-width="0.5" rx="2"/>
        <text x="10" y="16" font-size="8" fill="#555">电机:微型BLDCx4|电池:柔性薄膜12V|框架:Kevlar+弹性体|重量:&lt;1.2kg|穿戴:套穿式|控制:自适应模糊|安全:被动弹性|噪音:&lt;25dB</text>
      </g>
    </g>
  </g>

  <!-- ====== RIGHT COLUMN: PARAMETER TABLES ====== -->
  <g transform="translate(800,25)" filter="url(#shadow)">
    <rect x="0" y="0" width="380" height="280" fill="#fff" stroke="#0096f0" stroke-width="1.5" rx="6"/>
    <path d="M 0,6 Q 0,0 6,0 L 374,0 Q 380,0 380,6 L 380,28 L 0,28 Z" fill="#0096f0"/>
    <text x="190" y="19" text-anchor="middle" font-size="11" font-weight="bold" fill="#fff">Gen 0-1 关键参数</text>
    <g transform="translate(16,40)">
      <rect x="0" y="0" width="348" height="20" fill="#f0f4ff" rx="2"/>
      <text x="10" y="14" font-size="9" font-weight="bold" fill="#0096f0">参数</text><text x="120" y="14" font-size="9" font-weight="bold" fill="#0096f0">规格</text><text x="260" y="14" font-size="9" font-weight="bold" fill="#0096f0">评估</text>
      <line x1="0" y1="20" x2="348" y2="20" stroke="#0096f0" stroke-width="0.5"/>
      <g font-size="8.5" fill="#333">
        <text x="10" y="37">电机</text><text x="120" y="37">AK80-9 V3.0</text><text x="260" y="37" fill="#d97706">480g, 22Nm</text>
        <line x1="0" y1="43" x2="348" y2="43" stroke="#e0e0e0" stroke-width="0.5"/>
        <text x="10" y="57">电池</text><text x="120" y="57">三星50E 4S1P 72Wh</text><text x="260" y="57" fill="#0096f0">310g, 热插拔</text>
        <line x1="0" y1="63" x2="348" y2="63" stroke="#e0e0e0" stroke-width="0.5"/>
        <text x="10" y="77">框架</text><text x="120" y="77">T700碳+7075铝+TC4钛</text><text x="260" y="77" fill="#0096f0">高刚性</text>
        <line x1="0" y1="83" x2="348" y2="83" stroke="#e0e0e0" stroke-width="0.5"/>
        <text x="10" y="97">重量</text><text x="120" y="97">~2.4 kg (单腿)</text><text x="260" y="97" fill="#c45a5a">偏重</text>
        <line x1="0" y1="103" x2="348" y2="103" stroke="#e0e0e0" stroke-width="0.5"/>
        <text x="10" y="117">穿戴</text><text x="120" y="117">绑带+魔术贴</text><text x="260" y="117" fill="#d97706">~30s</text>
        <line x1="0" y1="123" x2="348" y2="123" stroke="#e0e0e0" stroke-width="0.5"/>
        <text x="10" y="137">控制</text><text x="120" y="137">PPO RL int8 ESP32-S3</text><text x="260" y="137" fill="#0096f0">低延迟</text>
        <line x1="0" y1="143" x2="348" y2="143" stroke="#e0e0e0" stroke-width="0.5"/>
        <text x="10" y="157">安全</text><text x="120" y="157">Ogura离合器+双MCU</text><text x="260" y="157" fill="#0096f0">可靠</text>
        <line x1="0" y1="163" x2="348" y2="163" stroke="#e0e0e0" stroke-width="0.5"/>
        <text x="10" y="177">噪音</text><text x="120" y="177">~50 dB</text><text x="260" y="177" fill="#d97706">可接受</text>
        <line x1="0" y1="183" x2="348" y2="183" stroke="#e0e0e0" stroke-width="0.5"/>
      </g>
      <g transform="translate(0,195)">
        <rect x="0" y="0" width="348" height="28" fill="#f0f4ff" stroke="#0096f0" stroke-width="0.5" rx="3"/>
        <text x="10" y="18" font-size="8" fill="#333" font-weight="bold">结论</text>
        <rect x="90" y="8" width="12" height="12" rx="2" fill="#0096f0"/>
        <text x="106" y="18" font-size="8" fill="#0096f0">Phase 0-1 验证平台</text>
        <text x="220" y="18" font-size="8" fill="#c45a5a">(已过时)</text>
      </g>
      <g transform="translate(0,230)">
        <text x="0" y="12" font-size="8" fill="#9E9E9E">适用: Phase 0-1 原型验证与RL算法开发</text>
        <text x="0" y="24" font-size="8" fill="#9E9E9E">定位: 力矩精确可控, 为RL训练提供平台</text>
      </g>
    </g>
  </g>

  <g transform="translate(800,335)" filter="url(#shadow)">
    <rect x="0" y="0" width="380" height="280" fill="#fff" stroke="#d97706" stroke-width="1.5" rx="6"/>
    <path d="M 0,6 Q 0,0 6,0 L 374,0 Q 380,0 380,6 L 380,28 L 0,28 Z" fill="#d97706"/>
    <text x="190" y="19" text-anchor="middle" font-size="11" font-weight="bold" fill="#fff">Gen 2+ 关键参数</text>
    <g transform="translate(16,40)">
      <rect x="0" y="0" width="348" height="20" fill="#fff8e1" rx="2"/>
      <text x="10" y="14" font-size="9" font-weight="bold" fill="#d97706">参数</text><text x="120" y="14" font-size="9" font-weight="bold" fill="#d97706">规格</text><text x="260" y="14" font-size="9" font-weight="bold" fill="#d97706">评估</text>
      <line x1="0" y1="20" x2="348" y2="20" stroke="#d97706" stroke-width="0.5"/>
      <g font-size="8.5" fill="#333">
        <text x="10" y="37">电机</text><text x="120" y="37">TSA绞盘x2, 200W</text><text x="260" y="37" fill="#0096f0">效率&gt;85%</text>
        <line x1="0" y1="43" x2="348" y2="43" stroke="#e0e0e0" stroke-width="0.5"/>
        <text x="10" y="57">电池</text><text x="120" y="57">21700 4S2P 144Wh</text><text x="260" y="57" fill="#0096f0">590g, 续航4h+</text>
        <line x1="0" y1="63" x2="348" y2="63" stroke="#e0e0e0" stroke-width="0.5"/>
        <text x="10" y="77">框架</text><text x="120" y="77">碳纤维膝端+铝合金腰带</text><text x="260" y="77" fill="#0096f0">轻量化</text>
        <line x1="0" y1="83" x2="348" y2="83" stroke="#e0e0e0" stroke-width="0.5"/>
        <text x="10" y="97">重量</text><text x="120" y="97">&lt;2.0 kg (系统)</text><text x="260" y="97" fill="#0096f0">膝端&lt;500g</text>
        <line x1="0" y1="103" x2="348" y2="103" stroke="#e0e0e0" stroke-width="0.5"/>
        <text x="10" y="117">穿戴</text><text x="120" y="117">快速卡扣式</text><text x="260" y="117" fill="#0096f0">&lt;1min</text>
        <line x1="0" y1="123" x2="348" y2="123" stroke="#e0e0e0" stroke-width="0.5"/>
        <text x="10" y="137">控制</text><text x="120" y="137">力位混合+联邦学习</text><text x="260" y="137" fill="#0096f0">跨用户泛化</text>
        <line x1="0" y1="143" x2="348" y2="143" stroke="#e0e0e0" stroke-width="0.5"/>
        <text x="10" y="157">安全</text><text x="120" y="157">TSA弹性+电子离合器</text><text x="260" y="157" fill="#0096f0">双层保护</text>
        <line x1="0" y1="163" x2="348" y2="163" stroke="#e0e0e0" stroke-width="0.5"/>
        <text x="10" y="177">噪音</text><text x="120" y="177">&lt;42 dB</text><text x="260" y="177" fill="#0096f0">低噪</text>
        <line x1="0" y1="183" x2="348" y2="183" stroke="#e0e0e0" stroke-width="0.5"/>
      </g>
      <g transform="translate(0,195)">
        <rect x="0" y="0" width="348" height="28" fill="#fff8e1" stroke="#d97706" stroke-width="0.5" rx="3"/>
        <text x="10" y="18" font-size="8" fill="#333" font-weight="bold">结论</text>
        <rect x="90" y="8" width="12" height="12" rx="2" fill="#0096f0"/>
        <text x="106" y="18" font-size="8" fill="#0096f0">当前基线方案</text>
        <rect x="200" y="8" width="12" height="12" rx="2" fill="#d97706"/>
        <text x="216" y="18" font-size="8" fill="#d97706">持续优化中</text>
      </g>
      <g transform="translate(0,230)">
        <text x="0" y="12" font-size="8" fill="#9E9E9E">适用: Phase 2-3 原型迭代与临床验证</text>
        <text x="0" y="24" font-size="8" fill="#9E9E9E">定位: 力矩分布优化, 轻量化, 舒适性提升</text>
      </g>
    </g>
  </g>

  <g transform="translate(800,645)" filter="url(#shadow)">
    <rect x="0" y="0" width="380" height="280" fill="#fff" stroke="#059669" stroke-width="1.5" stroke-dasharray="6,3" rx="6"/>
    <path d="M 0,6 Q 0,0 6,0 L 374,0 Q 380,0 380,6 L 380,28 L 0,28 Z" fill="#059669"/>
    <text x="190" y="19" text-anchor="middle" font-size="11" font-weight="bold" fill="#fff">Gen 3 (目标) 关键参数</text>
    <g transform="translate(16,40)">
      <rect x="0" y="0" width="348" height="20" fill="#f0fdf4" rx="2"/>
      <text x="10" y="14" font-size="9" font-weight="bold" fill="#059669">参数</text><text x="120" y="14" font-size="9" font-weight="bold" fill="#059669">规格</text><text x="260" y="14" font-size="9" font-weight="bold" fill="#059669">评估</text>
      <line x1="0" y1="20" x2="348" y2="20" stroke="#059669" stroke-width="0.5"/>
      <g font-size="8.5" fill="#333">
        <text x="10" y="37">电机</text><text x="120" y="37">微型BLDCx4, 30W</text><text x="260" y="37" fill="#d97706">待验证</text>
        <line x1="0" y1="43" x2="348" y2="43" stroke="#e0e0e0" stroke-width="0.5"/>
        <text x="10" y="57">电池</text><text x="120" y="57">柔性薄膜12V 1Ah</text><text x="260" y="57" fill="#d97706">织物内嵌</text>
        <line x1="0" y1="63" x2="348" y2="63" stroke="#e0e0e0" stroke-width="0.5"/>
        <text x="10" y="77">框架</text><text x="120" y="77">Kevlar织物+弹性体</text><text x="260" y="77" fill="#d97706">零刚性</text>
        <line x1="0" y1="83" x2="348" y2="83" stroke="#e0e0e0" stroke-width="0.5"/>
        <text x="10" y="97">重量</text><text x="120" y="97">&lt;1.2 kg/腿</text><text x="260" y="97" fill="#0096f0">减重75%</text>
        <line x1="0" y1="103" x2="348" y2="103" stroke="#e0e0e0" stroke-width="0.5"/>
        <text x="10" y="117">穿戴</text><text x="120" y="117">套穿式紧身衣</text><text x="260" y="117" fill="#0096f0">~15s</text>
        <line x1="0" y1="123" x2="348" y2="123" stroke="#e0e0e0" stroke-width="0.5"/>
        <text x="10" y="137">控制</text><text x="120" y="137">自适应模糊控制</text><text x="260" y="137" fill="#d97706">无模型</text>
        <line x1="0" y1="143" x2="348" y2="143" stroke="#e0e0e0" stroke-width="0.5"/>
        <text x="10" y="157">安全</text><text x="120" y="157">被动弹性限位</text><text x="260" y="157" fill="#0096f0">本质安全</text>
        <line x1="0" y1="163" x2="348" y2="163" stroke="#e0e0e0" stroke-width="0.5"/>
        <text x="10" y="177">噪音</text><text x="120" y="177">&lt;25 dB</text><text x="260" y="177" fill="#0096f0">近静音</text>
        <line x1="0" y1="183" x2="348" y2="183" stroke="#e0e0e0" stroke-width="0.5"/>
      </g>
      <g transform="translate(0,195)">
        <rect x="0" y="0" width="348" height="28" fill="#f0fdf4" stroke="#059669" stroke-width="0.5" rx="3"/>
        <text x="10" y="18" font-size="8" fill="#333" font-weight="bold">结论</text>
        <rect x="90" y="8" width="12" height="12" rx="2" fill="#d97706"/>
        <text x="106" y="18" font-size="8" fill="#d97706">技术预研</text>
        <rect x="182" y="8" width="12" height="12" rx="2" fill="#c45a5a"/>
        <text x="198" y="18" font-size="8" fill="#c45a5a">材料未量产</text>
      </g>
      <g transform="translate(0,230)">
        <text x="0" y="12" font-size="8" fill="#9E9E9E">适用: Phase 4+ 产品化研发 (未启动)</text>
        <text x="0" y="24" font-size="8" fill="#9E9E9E">定位: 先突破材料瓶颈, 再推进集成设计</text>
      </g>
    </g>
  </g>

  <!-- ====== BOTTOM LEGEND ====== -->
  <g transform="translate(20,940)">
    <rect x="0" y="0" width="1160" height="40" fill="#fafafa" stroke="#e0e0e0" stroke-width="1" rx="4"/>
    <text x="15" y="16" font-size="9" font-weight="bold" fill="#333">评估维度:</text>
    <rect x="95" y="6" width="14" height="14" rx="2" fill="#0096f0"/>
    <text x="114" y="17" font-size="9" fill="#333">力矩效率 — Gen 2+最优(电缆远程传输损耗低, TSA弹性储能效率高)</text>
    <rect x="470" y="6" width="14" height="14" rx="2" fill="#d97706"/>
    <text x="489" y="17" font-size="9" fill="#333">技术成熟度 — Gen 2+经过临床验证, Gen 1已过时, Gen 3待突破</text>
    <rect x="830" y="6" width="14" height="14" rx="2" fill="#c45a5a"/>
    <text x="849" y="17" font-size="9" fill="#333">供应链 — Gen 2+供应链稳定, Gen 3新材料未量产</text>
    <text x="15" y="35" font-size="8" fill="#666">渐进创新路线: Gen 0→1(概念验证)→Gen 2+(稳定迭代)→Gen 3(下一代研发)—每代可独立商用, 无需一步到位</text>
  </g>
</svg>