<svg xmlns="http://www.w3.org/2000/svg" viewBox="0 0 1200 860" width="1200" height="860">
  <defs>
    <filter id="s" x="-2%" y="-2%" width="104%" height="104%"><feDropShadow dx="1" dy="1" stdDeviation="2" flood-opacity="0.08"/></filter>
    <marker id="a1" markerWidth="8" markerHeight="6" refX="8" refY="3" orient="auto"><polygon points="0 0, 8 3, 0 6" fill="#d97706"/></marker>
    <marker id="a2" markerWidth="8" markerHeight="6" refX="8" refY="3" orient="auto"><polygon points="0 0, 8 3, 0 6" fill="#6b7280"/></marker>
    <marker id="a3" markerWidth="8" markerHeight="6" refX="8" refY="3" orient="auto"><polygon points="0 0, 8 3, 0 6" fill="#ef4444"/></marker>
    <pattern id="hatch" width="6" height="6" patternUnits="userSpaceOnUse" patternTransform="rotate(45)"><line x1="0" y1="0" x2="0" y2="6" stroke="#d1d5db" stroke-width="0.5"/></pattern>
    <pattern id="hatch2" width="6" height="6" patternUnits="userSpaceOnUse" patternTransform="rotate(-45)"><line x1="0" y1="0" x2="0" y2="6" stroke="#d1d5db" stroke-width="0.5"/></pattern>
    <pattern id="dot" width="4" height="4" patternUnits="userSpaceOnUse"><circle cx="2" cy="2" r="0.5" fill="#d1d5db"/></pattern>
  </defs>
  <rect width="1200" height="860" fill="#ffffff"/>
  <rect x="0" y="0" width="1200" height="80" fill="#faf7f2"/>
  <text x="600" y="38" text-anchor="middle" font-family="'Helvetica Neue', Arial, sans-serif" font-size="24" font-weight="bold" fill="#1f2937">TRL 5-7 外骨骼驱动架构概览</text>
  <text x="600" y="60" text-anchor="middle" font-family="'Helvetica Neue', Arial, sans-serif" font-size="13" fill="#6b7280">电液伺服 · 气动人工肌肉 · 多自由度关节 · 串联弹性驱动器</text>
  <line x1="60" y1="80" x2="1140" y2="80" stroke="#d97706" stroke-width="2"/>

  <!-- PANEL 1: Electro-Hydraulic (REEV) -->
  <g transform="translate(20, 95)">
    <rect x="0" y="0" width="570" height="365" rx="4" fill="#ffffff" stroke="#d1d5db" stroke-width="1" filter="url(#s)"/>
    <rect x="0" y="0" width="570" height="32" rx="4" fill="#d97706" opacity="0.12"/>
    <rect x="0" y="20" width="570" height="12" fill="#d97706" opacity="0.12"/>
    <text x="16" y="21" font-family="sans-serif" font-size="14" font-weight="bold" fill="#b45309">Panel A 电液伺服驱动器 (REEV DREEVEN)</text>
    <text x="554" y="21" text-anchor="end" font-family="sans-serif" font-size="11" fill="#6b7280">産品：REEV Robotics</text>
    <g transform="translate(80, 170)">
      <rect x="0" y="-30" width="80" height="60" rx="3" fill="#fff" stroke="#d97706" stroke-width="1.5"/>
      <rect x="0" y="-30" width="80" height="60" rx="3" fill="url(#hatch)" opacity="0.3"/>
      <rect x="10" y="-4" width="60" height="8" rx="1" fill="#d97706" opacity="0.5"/>
      <line x1="40" y1="0" x2="40" y2="40" stroke="#d97706" stroke-width="2.5"/>
      <rect x="36" y="30" width="8" height="40" rx="2" fill="#9a3412"/>
      <circle cx="40" cy="75" r="6" fill="none" stroke="#d97706" stroke-width="1.5"/>
      <rect x="-6" y="-20" width="6" height="10" rx="1" fill="#d97706"/>
      <rect x="80" y="10" width="6" height="10" rx="1" fill="#d97706"/>
      <text x="40" y="-42" text-anchor="middle" font-family="sans-serif" font-size="11" fill="#4b5563">双作用液压缸</text>
      <text x="100" y="26" font-family="sans-serif" font-size="9" fill="#6b7280">A口</text>
      <text x="-20" y="-14" font-family="sans-serif" font-size="9" fill="#6b7280">B口</text>
    </g>
    <g transform="translate(230, 120)">
      <circle cx="30" cy="30" r="24" fill="#fff" stroke="#d97706" stroke-width="1.5"/>
      <circle cx="30" cy="30" r="10" fill="none" stroke="#d97706" stroke-width="1" stroke-dasharray="3,2"/>
      <polygon points="30,18 36,30 30,42 24,30" fill="#d97706" opacity="0.4"/>
      <text x="30" y="68" text-anchor="middle" font-family="sans-serif" font-size="11" fill="#4b5563">液压泵</text>
    </g>
    <g transform="translate(170, 250)">
      <rect x="0" y="0" width="50" height="40" rx="2" fill="#fff" stroke="#d97706" stroke-width="1.5"/>
      <line x1="25" y1="5" x2="25" y2="35" stroke="#d97706" stroke-width="1.5"/>
      <rect x="18" y="12" width="14" height="16" rx="1" fill="#d97706" opacity="0.3"/>
      <text x="25" y="54" text-anchor="middle" font-family="sans-serif" font-size="11" fill="#4b5563">伺服阀</text>
    </g>
    <g transform="translate(340, 200)">
      <rect x="0" y="0" width="40" height="50" rx="2" fill="#fff" stroke="#d97706" stroke-width="1.5"/>
      <line x1="5" y1="15" x2="35" y2="15" stroke="#d1d5db" stroke-width="0.8"/>
      <line x1="5" y1="25" x2="35" y2="25" stroke="#d1d5db" stroke-width="0.8"/>
      <line x1="5" y1="35" x2="35" y2="35" stroke="#d1d5db" stroke-width="0.8"/>
      <text x="20" y="66" text-anchor="middle" font-family="sans-serif" font-size="11" fill="#4b5563">油箱</text>
    </g>
    <g transform="translate(340, 100)">
      <ellipse cx="20" cy="25" rx="16" ry="25" fill="none" stroke="#d97706" stroke-width="1.5"/>
      <ellipse cx="20" cy="15" rx="12" ry="8" fill="none" stroke="#d97706" stroke-width="0.8" stroke-dasharray="2,2"/>
      <text x="20" y="60" text-anchor="middle" font-family="sans-serif" font-size="11" fill="#4b5563">蓄能器</text>
    </g>
    <line x1="160" y1="130" x2="230" y2="130" stroke="#d97706" stroke-width="1.5"/>
    <line x1="260" y1="144" x2="260" y2="200" stroke="#d97706" stroke-width="1.5"/>
    <line x1="260" y1="200" x2="340" y2="200" stroke="#d97706" stroke-width="1.5"/>
    <line x1="260" y1="144" x2="260" y2="250" stroke="#d97706" stroke-width="1.5"/>
    <line x1="220" y1="250" x2="170" y2="250" stroke="#d97706" stroke-width="1.5"/>
    <line x1="120" y1="190" x2="120" y2="250" stroke="#d97706" stroke-width="1.5"/>
    <line x1="120" y1="250" x2="170" y2="250" stroke="#d97706" stroke-width="1.5"/>
    <line x1="360" y1="130" x2="360" y2="150" stroke="#d97706" stroke-width="1.5" stroke-dasharray="4,3"/>
    <polygon points="340,200 345,195 345,205" fill="#d97706"/>
    <polygon points="230,130 235,125 235,135" fill="#d97706"/>
    <g transform="translate(420, 90)">
      <rect x="0" y="0" width="140" height="155" rx="3" fill="#fffbeb" stroke="#d97706" stroke-width="0.8"/>
      <text x="70" y="18" text-anchor="middle" font-family="sans-serif" font-size="11" font-weight="bold" fill="#b45309">关键规格</text>
      <line x1="10" y1="24" x2="130" y2="24" stroke="#d97706" stroke-width="0.5"/>
      <text x="12" y="40" font-family="sans-serif" font-size="10" fill="#4b5563">峰值压力</text>
      <text x="128" y="40" text-anchor="end" font-family="sans-serif" font-size="10" font-weight="bold" fill="#1f2937">21 MPa</text>
      <text x="12" y="56" font-family="sans-serif" font-size="10" fill="#4b5563">峰值扭矩</text>
      <text x="128" y="56" text-anchor="end" font-family="sans-serif" font-size="10" font-weight="bold" fill="#1f2937">150 Nm</text>
      <text x="12" y="72" font-family="sans-serif" font-size="10" fill="#4b5563">控制带宽</text>
      <text x="128" y="72" text-anchor="end" font-family="sans-serif" font-size="10" font-weight="bold" fill="#1f2937">8 Hz</text>
      <text x="12" y="88" font-family="sans-serif" font-size="10" fill="#4b5563">系统能效</text>
      <text x="128" y="88" text-anchor="end" font-family="sans-serif" font-size="10" font-weight="bold" fill="#1f2937">~62%</text>
      <text x="12" y="104" font-family="sans-serif" font-size="10" fill="#4b5563">总成质量</text>
      <text x="128" y="104" text-anchor="end" font-family="sans-serif" font-size="10" font-weight="bold" fill="#1f2937">3.8 kg</text>
      <text x="12" y="120" font-family="sans-serif" font-size="10" fill="#4b5563">功率密度</text>
      <text x="128" y="120" text-anchor="end" font-family="sans-serif" font-size="10" font-weight="bold" fill="#1f2937">2.1 kW/kg</text>
      <rect x="10" y="130" width="120" height="8" rx="4" fill="#d1d5db"/>
      <rect x="10" y="130" width="96" height="8" rx="4" fill="#d97706" opacity="0.7"/>
      <text x="70" y="137" text-anchor="middle" font-family="sans-serif" font-size="7" fill="#fff" font-weight="bold">TRL 7</text>
    </g>
    <line x1="120" y1="245" x2="120" y2="270" stroke="#6b7280" stroke-width="0.5" stroke-dasharray="2,2"/>
    <line x1="120" y1="270" x2="40" y2="270" stroke="#6b7280" stroke-width="0.5"/>
    <text x="38" y="264" text-anchor="end" font-family="sans-serif" font-size="9" fill="#6b7280">缸径 32mm 行程 80mm</text>
    <line x1="40" y1="170" x2="40" y2="148" stroke="#6b7280" stroke-width="0.5" stroke-dasharray="2,2"/>
    <line x1="40" y1="148" x2="120" y2="148" stroke="#6b7280" stroke-width="0.5"/>
    <text x="40" y="146" font-family="sans-serif" font-size="9" fill="#6b7280">缸体内径 D</text>
    <g transform="translate(60, 280)">
      <text x="0" y="12" font-family="sans-serif" font-size="9" fill="#6b7280">原理：Maxon EC-i电机驱动液压泵 → 伺服阀控缸 → 线性力经四杆机构转为关节扭矩</text>
      <text x="0" y="26" font-family="sans-serif" font-size="9" fill="#6b7280">优势：高功率密度、柔性管道布线、天然液压缓冲</text>
      <text x="0" y="40" font-family="sans-serif" font-size="9" fill="#6b7280">劣势：漏液风险、效率低(~40%)、泵噪大、系统复杂</text>
    </g>
  </g>

  <!-- PANEL 2: PAM (EsoMark/XoBrace) -->
  <g transform="translate(610, 95)">
    <rect x="0" y="0" width="570" height="365" rx="4" fill="#ffffff" stroke="#d1d5db" stroke-width="1" filter="url(#s)"/>
    <rect x="0" y="0" width="570" height="32" rx="4" fill="#d97706" opacity="0.12"/>
    <rect x="0" y="20" width="570" height="12" fill="#d97706" opacity="0.12"/>
    <text x="16" y="21" font-family="sans-serif" font-size="14" font-weight="bold" fill="#b45309">Panel B 气动人工肌肉 (PAM McKibben)</text>
    <text x="554" y="21" text-anchor="end" font-family="sans-serif" font-size="11" fill="#6b7280">産品：EsoMark / XoBrace</text>
    <g transform="translate(60, 90)">
      <path d="M 0,20 Q 30,0 60,20 Q 90,40 120,20 Q 150,0 180,20" fill="none" stroke="#d97706" stroke-width="1.5" stroke-dasharray="4,2"/>
      <path d="M 0,40 Q 30,60 60,40 Q 90,20 120,40 Q 150,60 180,40" fill="none" stroke="#d97706" stroke-width="1.5" stroke-dasharray="4,2"/>
      <rect x="20" y="22" width="140" height="16" rx="8" fill="#fef3c7" stroke="#d97706" stroke-width="1" opacity="0.6"/>
      <rect x="0" y="16" width="14" height="28" rx="2" fill="#d1d5db" stroke="#9a3412" stroke-width="1"/>
      <rect x="166" y="16" width="14" height="28" rx="2" fill="#d1d5db" stroke="#9a3412" stroke-width="1"/>
      <line x1="7" y1="30" x2="-30" y2="30" stroke="#6b7280" stroke-width="1.5"/>
      <circle cx="-30" cy="30" r="3" fill="#6b7280"/>
      <line x1="20" y1="55" x2="160" y2="55" stroke="#ef4444" stroke-width="1.5"/>
      <polygon points="20,55 30,51 30,59" fill="#ef4444"/>
      <polygon points="160,55 150,51 150,59" fill="#ef4444"/>
      <text x="90" y="70" text-anchor="middle" font-family="sans-serif" font-size="10" fill="#ef4444">收缩方向</text>
      <text x="90" y="-8" text-anchor="middle" font-family="sans-serif" font-size="11" fill="#4b5563">编织层 (双螺旋)</text>
      <text x="90" y="96" text-anchor="middle" font-family="sans-serif" font-size="11" fill="#4b5563">McKibben 气动人工肌肉截面</text>
    </g>
    <g transform="translate(60, 210)">
      <rect x="0" y="10" width="40" height="30" rx="3" fill="#fff" stroke="#d97706" stroke-width="1.2"/>
      <circle cx="20" cy="25" r="6" fill="none" stroke="#d97706" stroke-width="0.8"/>
      <circle cx="20" cy="25" r="3" fill="#d97706" opacity="0.3"/>
      <text x="20" y="54" text-anchor="middle" font-family="sans-serif" font-size="10" fill="#4b5563">气泵</text>
      <rect x="70" y="12" width="30" height="26" rx="2" fill="#fff" stroke="#d97706" stroke-width="1.2"/>
      <text x="85" y="30" text-anchor="middle" font-family="sans-serif" font-size="9" fill="#4b5563">比例阀</text>
      <line x1="40" y1="25" x2="70" y2="25" stroke="#6b7280" stroke-width="1.5"/>
      <line x1="100" y1="25" x2="130" y2="25" stroke="#6b7280" stroke-width="1.5"/>
      <text x="115" y="18" text-anchor="middle" font-family="sans-serif" font-size="8" fill="#6b7280">0-6 bar</text>
      <line x1="130" y1="25" x2="130" y2="-10" stroke="#6b7280" stroke-width="1.5" stroke-dasharray="4,2"/>
    </g>
    <g transform="translate(260, 80)">
      <rect x="0" y="0" width="140" height="100" rx="3" fill="#f9fafb" stroke="#e5e7eb" stroke-width="0.8"/>
      <text x="70" y="16" text-anchor="middle" font-family="sans-serif" font-size="10" font-weight="bold" fill="#4b5563">编织角变化</text>
      <line x1="20" y1="30" x2="50" y2="50" stroke="#d97706" stroke-width="1"/>
      <line x1="60" y1="30" x2="90" y2="60" stroke="#d97706" stroke-width="1.5"/>
      <line x1="100" y1="30" x2="125" y2="55" stroke="#d97706" stroke-width="2"/>
      <text x="35" y="75" text-anchor="middle" font-family="sans-serif" font-size="9" fill="#6b7280">0=80</text>
      <text x="75" y="80" text-anchor="middle" font-family="sans-serif" font-size="9" fill="#6b7280">1=65</text>
      <text x="112" y="78" text-anchor="middle" font-family="sans-serif" font-size="9" fill="#6b7280">2=50</text>
    </g>
    <g transform="translate(260, 190)">
      <rect x="0" y="0" width="140" height="100" rx="3" fill="#f9fafb" stroke="#e5e7eb" stroke-width="0.8"/>
      <text x="70" y="16" text-anchor="middle" font-family="sans-serif" font-size="10" font-weight="bold" fill="#4b5563">力-收缩率曲线</text>
      <path d="M 20,75 Q 40,70 60,55 Q 80,35 100,25 Q 110,20 120,20" fill="none" stroke="#d97706" stroke-width="1.5"/>
      <line x1="20" y1="75" x2="120" y2="75" stroke="#d1d5db" stroke-width="0.5"/>
      <line x1="20" y1="75" x2="20" y2="20" stroke="#d1d5db" stroke-width="0.5"/>
      <text x="15" y="90" font-family="sans-serif" font-size="8" fill="#6b7280">0%</text>
      <text x="105" y="90" font-family="sans-serif" font-size="8" fill="#6b7280">25%</text>
      <text x="130" y="50" transform="rotate(-90, 130, 50)" text-anchor="middle" font-family="sans-serif" font-size="8" fill="#6b7280">力 (N)</text>
      <text x="70" y="94" text-anchor="middle" font-family="sans-serif" font-size="8" fill="#6b7280">收缩率 </text>
    </g>
    <g transform="translate(420, 80)">
      <rect x="0" y="0" width="140" height="155" rx="3" fill="#fffbeb" stroke="#d97706" stroke-width="0.8"/>
      <text x="70" y="18" text-anchor="middle" font-family="sans-serif" font-size="11" font-weight="bold" fill="#b45309">关键规格</text>
      <line x1="10" y1="24" x2="130" y2="24" stroke="#d97706" stroke-width="0.5"/>
      <text x="12" y="40" font-family="sans-serif" font-size="10" fill="#4b5563">最大拉力</text>
      <text x="128" y="40" text-anchor="end" font-family="sans-serif" font-size="10" font-weight="bold" fill="#1f2937">3500 N</text>
      <text x="12" y="56" font-family="sans-serif" font-size="10" fill="#4b5563">最大收缩率</text>
      <text x="128" y="56" text-anchor="end" font-family="sans-serif" font-size="10" font-weight="bold" fill="#1f2937">25%</text>
      <text x="12" y="72" font-family="sans-serif" font-size="10" fill="#4b5563">工作气压</text>
      <text x="128" y="72" text-anchor="end" font-family="sans-serif" font-size="10" font-weight="bold" fill="#1f2937">0-6 bar</text>
      <text x="12" y="88" font-family="sans-serif" font-size="10" fill="#4b5563">控制带宽</text>
      <text x="128" y="88" text-anchor="end" font-family="sans-serif" font-size="10" font-weight="bold" fill="#1f2937">~5 Hz</text>
      <text x="12" y="104" font-family="sans-serif" font-size="10" fill="#4b5563">固有柔顺性</text>
      <text x="128" y="104" text-anchor="end" font-family="sans-serif" font-size="10" font-weight="bold" fill="#1f2937">被动</text>
      <text x="12" y="120" font-family="sans-serif" font-size="10" fill="#4b5563">质量</text>
      <text x="128" y="120" text-anchor="end" font-family="sans-serif" font-size="10" font-weight="bold" fill="#1f2937">0.3-1.2 kg</text>
      <rect x="10" y="130" width="120" height="8" rx="4" fill="#d1d5db"/>
      <rect x="10" y="130" width="96" height="8" rx="4" fill="#d97706" opacity="0.7"/>
      <text x="70" y="137" text-anchor="middle" font-family="sans-serif" font-size="7" fill="#fff" font-weight="bold">TRL 7</text>
      <text x="12" y="152" font-family="sans-serif" font-size="8" fill="#9ca3af">商用：EsoMark, XoBrace</text>
    </g>
    <g transform="translate(60, 280)">
      <text x="0" y="12" font-family="sans-serif" font-size="9" fill="#6b7280">原理：压缩空气充入编织网管 → 径向膨胀 → 轴向收缩产生拉力</text>
      <text x="0" y="26" font-family="sans-serif" font-size="9" fill="#6b7280">优势：天然柔顺、低成本(~$150)、高力重比</text>
      <text x="0" y="40" font-family="sans-serif" font-size="9" fill="#6b7280">劣势：需外置气源、非线性严重、带宽低、无力矩精度</text>
    </g>
  </g>

  <!-- PANEL 3: Multi-Axis (IEEE research) -->
  <g transform="translate(20, 480)">
    <rect x="0" y="0" width="570" height="365" rx="4" fill="#ffffff" stroke="#d1d5db" stroke-width="1" filter="url(#s)"/>
    <rect x="0" y="0" width="570" height="32" rx="4" fill="#d97706" opacity="0.12"/>
    <rect x="0" y="20" width="570" height="12" fill="#d97706" opacity="0.12"/>
    <text x="16" y="21" font-family="sans-serif" font-size="14" font-weight="bold" fill="#b45309">Panel C 多自由度关节机构 (IEEE TRO/ICRA)</text>
    <text x="554" y="21" text-anchor="end" font-family="sans-serif" font-size="11" fill="#6b7280">学术前沿：2023-2025</text>
    <g transform="translate(60, 70)">
      <rect x="-10" y="70" width="100" height="20" rx="2" fill="#d1d5db" stroke="#6b7280" stroke-width="1"/>
      <text x="40" y="105" text-anchor="middle" font-family="sans-serif" font-size="10" fill="#4b5563">基座</text>
      <rect x="35" y="45" width="10" height="30" fill="#d97706" opacity="0.5" stroke="#d97706" stroke-width="1"/>
      <ellipse cx="40" cy="55" rx="12" ry="4" fill="none" stroke="#ef4444" stroke-width="0.8" stroke-dasharray="2,2"/>
      <path d="M 28,55 A 12,4 0 0,1 52,55" fill="none" stroke="#ef4444" stroke-width="0.8" marker-end="url(#a3)"/>
      <text x="60" y="58" font-family="sans-serif" font-size="9" fill="#ef4444">偏航</text>
      <circle cx="40" cy="40" r="6" fill="#fff" stroke="#d97706" stroke-width="1.5"/>
      <rect x="35" y="0" width="10" height="34" fill="#d97706" opacity="0.3" stroke="#d97706" stroke-width="1"/>
      <path d="M 40,6 A 10,10 0 0,1 50,16" fill="none" stroke="#ef4444" stroke-width="0.8" marker-end="url(#a3)"/>
      <text x="58" y="14" font-family="sans-serif" font-size="9" fill="#ef4444">俯仰</text>
      <rect x="30" y="-20" width="20" height="20" rx="3" fill="#d97706" opacity="0.2" stroke="#d97706" stroke-width="1"/>
      <ellipse cx="40" cy="-15" rx="8" ry="3" fill="none" stroke="#ef4444" stroke-width="0.8"/>
      <path d="M 32,-15 A 8,3 0 0,1 48,-15" fill="none" stroke="#ef4444" stroke-width="0.8" marker-end="url(#a3)"/>
      <text x="55" y="-12" font-family="sans-serif" font-size="9" fill="#ef4444">滚转</text>
      <rect x="30" y="-40" width="20" height="20" rx="2" fill="#d1d5db" stroke="#6b7280" stroke-width="1"/>
      <text x="40" y="-48" text-anchor="middle" font-family="sans-serif" font-size="10" fill="#4b5563">输出</text>
    </g>
    <g transform="translate(200, 65)">
      <rect x="0" y="0" width="130" height="120" rx="3" fill="#f9fafb" stroke="#e5e7eb" stroke-width="0.8"/>
      <text x="65" y="16" text-anchor="middle" font-family="sans-serif" font-size="10" font-weight="bold" fill="#4b5563">关节内部结构</text>
      <circle cx="65" cy="55" r="30" fill="none" stroke="#d97706" stroke-width="1.5"/>
      <circle cx="65" cy="55" r="15" fill="none" stroke="#d97706" stroke-width="1" stroke-dasharray="3,2"/>
      <circle cx="65" cy="30" r="4" fill="#9a3412"/>
      <circle cx="65" cy="80" r="4" fill="#9a3412"/>
      <line x1="35" y1="55" x2="40" y2="55" stroke="#6b7280" stroke-width="0.5"/>
      <line x1="90" y1="55" x2="95" y2="55" stroke="#6b7280" stroke-width="0.5"/>
      <line x1="65" y1="25" x2="65" y2="30" stroke="#6b7280" stroke-width="0.5"/>
      <line x1="65" y1="80" x2="65" y2="85" stroke="#6b7280" stroke-width="0.5"/>
      <text x="40" y="50" text-anchor="end" font-family="sans-serif" font-size="8" fill="#6b7280">交叉滚子轴承</text>
      <text x="40" y="62" text-anchor="end" font-family="sans-serif" font-size="8" fill="#6b7280">力矩传感器</text>
      <text x="65" y="110" text-anchor="middle" font-family="sans-serif" font-size="9" fill="#6b7280">集成IMU+编码器</text>
    </g>
    <g transform="translate(200, 195)">
      <rect x="0" y="0" width="130" height="80" rx="3" fill="#f9fafb" stroke="#e5e7eb" stroke-width="0.8"/>
      <text x="65" y="16" text-anchor="middle" font-family="sans-serif" font-size="10" font-weight="bold" fill="#4b5563">串联弹性元件</text>
      <path d="M 20,45 L 30,35 L 40,55 L 50,35 L 60,55 L 70,35 L 80,55 L 90,35 L 100,45" fill="none" stroke="#d97706" stroke-width="1.2"/>
      <line x1="20" y1="45" x2="15" y2="45" stroke="#6b7280" stroke-width="1"/>
      <line x1="100" y1="45" x2="110" y2="45" stroke="#6b7280" stroke-width="1"/>
      <text x="15" y="40" text-anchor="end" font-family="sans-serif" font-size="8" fill="#6b7280">电机端</text>
      <text x="112" y="40" font-family="sans-serif" font-size="8" fill="#6b7280">输出端</text>
      <text x="65" y="68" text-anchor="middle" font-family="sans-serif" font-size="8" fill="#6b7280">K = 150-300 Nm/rad</text>
    </g>
    <g transform="translate(60, 210)">
      <rect x="0" y="0" width="130" height="90" rx="3" fill="#f9fafb" stroke="#e5e7eb" stroke-width="0.8"/>
      <text x="65" y="16" text-anchor="middle" font-family="sans-serif" font-size="10" font-weight="bold" fill="#4b5563">控制架构</text>
      <rect x="15" y="25" width="40" height="20" rx="2" fill="#fff" stroke="#d97706" stroke-width="0.8"/>
      <text x="35" y="38" text-anchor="middle" font-family="sans-serif" font-size="8" fill="#4b5563">IMU</text>
      <rect x="75" y="25" width="40" height="20" rx="2" fill="#fff" stroke="#d97706" stroke-width="0.8"/>
      <text x="95" y="38" text-anchor="middle" font-family="sans-serif" font-size="8" fill="#4b5563">力矩</text>
      <line x1="55" y1="35" x2="75" y2="35" stroke="#d97706" stroke-width="0.8"/>
      <rect x="35" y="55" width="60" height="20" rx="2" fill="#d97706" opacity="0.15" stroke="#d97706" stroke-width="0.8"/>
      <text x="65" y="68" text-anchor="middle" font-family="sans-serif" font-size="8" fill="#b45309">自适应鲁棒控制</text>
      <line x1="55" y1="45" x2="55" y2="55" stroke="#d1d5db" stroke-width="0.5"/>
      <line x1="95" y1="45" x2="95" y2="55" stroke="#d1d5db" stroke-width="0.5"/>
    </g>
    <g transform="translate(420, 65)">
      <rect x="0" y="0" width="140" height="155" rx="3" fill="#fffbeb" stroke="#d97706" stroke-width="0.8"/>
      <text x="70" y="18" text-anchor="middle" font-family="sans-serif" font-size="11" font-weight="bold" fill="#b45309">关键规格</text>
      <line x1="10" y1="24" x2="130" y2="24" stroke="#d97706" stroke-width="0.5"/>
      <text x="12" y="40" font-family="sans-serif" font-size="10" fill="#4b5563">自由度</text>
      <text x="128" y="40" text-anchor="end" font-family="sans-serif" font-size="10" font-weight="bold" fill="#1f2937">3 (P/R/Y)</text>
      <text x="12" y="56" font-family="sans-serif" font-size="10" fill="#4b5563">运动范围</text>
      <text x="128" y="56" text-anchor="end" font-family="sans-serif" font-size="10" font-weight="bold" fill="#1f2937">120</text>
      <text x="12" y="72" font-family="sans-serif" font-size="10" fill="#4b5563">峰值扭矩</text>
      <text x="128" y="72" text-anchor="end" font-family="sans-serif" font-size="10" font-weight="bold" fill="#1f2937">60 Nm</text>
      <text x="12" y="88" font-family="sans-serif" font-size="10" fill="#4b5563">总成质量</text>
      <text x="128" y="88" text-anchor="end" font-family="sans-serif" font-size="10" font-weight="bold" fill="#1f2937">2.1 kg</text>
      <text x="12" y="104" font-family="sans-serif" font-size="10" fill="#4b5563">传感器</text>
      <text x="128" y="104" text-anchor="end" font-family="sans-serif" font-size="10" font-weight="bold" fill="#1f2937">IMU + 6轴FT</text>
      <text x="12" y="120" font-family="sans-serif" font-size="10" fill="#4b5563">控制频率</text>
      <text x="128" y="120" text-anchor="end" font-family="sans-serif" font-size="10" font-weight="bold" fill="#1f2937">1 kHz</text>
      <rect x="10" y="130" width="120" height="8" rx="4" fill="#d1d5db"/>
      <rect x="10" y="130" width="84" height="8" rx="4" fill="#d97706" opacity="0.7"/>
      <text x="70" y="137" text-anchor="middle" font-family="sans-serif" font-size="7" fill="#fff" font-weight="bold">TRL 5-6</text>
      <text x="12" y="152" font-family="sans-serif" font-size="8" fill="#9ca3af">研究：IEEE TRO, ICRA 2023-25</text>
    </g>
    <g transform="translate(60, 310)">
      <text x="0" y="12" font-family="sans-serif" font-size="9" fill="#6b7280">代表成果：五杆机构 ICR 误差 &lt; 0.43mm，自对准 PSC 显著减少滑移</text>
      <text x="0" y="26" font-family="sans-serif" font-size="9" fill="#6b7280">局限性：机械复杂、尚无商业化、生物仿生度高但可靠性待验证</text>
    </g>
  </g>

  <!-- PANEL 4: SEA (MIT RFSEA) -->
  <g transform="translate(610, 480)">
    <rect x="0" y="0" width="570" height="365" rx="4" fill="#ffffff" stroke="#d1d5db" stroke-width="1" filter="url(#s)"/>
    <rect x="0" y="0" width="570" height="32" rx="4" fill="#d97706" opacity="0.12"/>
    <rect x="0" y="20" width="570" height="12" fill="#d97706" opacity="0.12"/>
    <text x="16" y="21" font-family="sans-serif" font-size="14" font-weight="bold" fill="#b45309">Panel D 串联弹性驱动器 (SEA) MIT RFSEA</text>
    <text x="554" y="21" text-anchor="end" font-family="sans-serif" font-size="11" fill="#6b7280">MIT Leg Laboratory</text>
    <g transform="translate(50, 65)">
      <rect x="0" y="20" width="50" height="50" rx="3" fill="#f9fafb" stroke="#d97706" stroke-width="1.5"/>
      <circle cx="25" cy="45" r="12" fill="none" stroke="#d97706" stroke-width="1"/>
      <circle cx="25" cy="45" r="6" fill="#d97706" opacity="0.3"/>
      <line x1="13" y1="45" x2="37" y2="45" stroke="#d97706" stroke-width="0.8"/>
      <line x1="25" y1="33" x2="25" y2="57" stroke="#d97706" stroke-width="0.8"/>
      <text x="25" y="16" text-anchor="middle" font-family="sans-serif" font-size="11" fill="#4b5563">直流电机</text>
      <rect x="60" y="20" width="30" height="50" rx="2" fill="#f9fafb" stroke="#d97706" stroke-width="1.2"/>
      <circle cx="75" cy="45" r="5" fill="none" stroke="#d97706" stroke-width="0.8"/>
      <text x="75" y="90" text-anchor="middle" font-family="sans-serif" font-size="9" fill="#4b5563">减速器</text>
      <g transform="translate(100, 30)">
        <rect x="0" y="0" width="70" height="30" rx="2" fill="#fef3c7" stroke="#d97706" stroke-width="1.5"/>
        <path d="M 5,15 L 15,8 L 25,22 L 35,8 L 45,22 L 55,8 L 65,15" fill="none" stroke="#d97706" stroke-width="1.2"/>
        <text x="35" y="38" text-anchor="middle" font-family="sans-serif" font-size="9" fill="#b45309">弹性体 K</text>
      </g>
      <rect x="180" y="25" width="60" height="40" rx="3" fill="#d1d5db" stroke="#6b7280" stroke-width="1.2"/>
      <text x="210" y="50" text-anchor="middle" font-family="sans-serif" font-size="11" fill="#4b5563">负载</text>
      <g transform="translate(0, 100)">
        <rect x="15" y="0" width="30" height="16" rx="2" fill="#fff" stroke="#d97706" stroke-width="0.8"/>
        <text x="30" y="11" text-anchor="middle" font-family="sans-serif" font-size="8" fill="#4b5563">编码器</text>
        <line x1="30" y1="0" x2="30" y2="-20" stroke="#d1d5db" stroke-width="0.5" stroke-dasharray="2,2"/>
        <line x1="140" y1="0" x2="140" y2="-20" stroke="#d1d5db" stroke-width="0.5" stroke-dasharray="2,2"/>
        <rect x="125" y="0" width="30" height="16" rx="2" fill="#fff" stroke="#d97706" stroke-width="0.8"/>
        <text x="140" y="11" text-anchor="middle" font-family="sans-serif" font-size="8" fill="#4b5563">编码器</text>
      </g>
      <g transform="translate(100, 100)">
        <rect x="0" y="0" width="50" height="16" rx="2" fill="#fff" stroke="#d97706" stroke-width="0.8"/>
        <text x="25" y="11" text-anchor="middle" font-family="sans-serif" font-size="8" fill="#4b5563">力矩传感器</text>
      </g>
      <line x1="50" y1="45" x2="60" y2="45" stroke="#6b7280" stroke-width="2"/>
      <line x1="90" y1="45" x2="100" y2="45" stroke="#6b7280" stroke-width="2"/>
      <line x1="170" y1="45" x2="180" y2="45" stroke="#6b7280" stroke-width="2"/>
    </g>
    <g transform="translate(50, 190)">
      <rect x="0" y="0" width="240" height="90" rx="3" fill="#f9fafb" stroke="#e5e7eb" stroke-width="0.8"/>
      <text x="120" y="16" text-anchor="middle" font-family="sans-serif" font-size="10" font-weight="bold" fill="#4b5563">力控制回路</text>
      <rect x="5" y="28" width="40" height="20" rx="2" fill="#fff" stroke="#d97706" stroke-width="0.8"/>
      <text x="25" y="41" text-anchor="middle" font-family="sans-serif" font-size="8" fill="#4b5563">des</text>
      <circle cx="60" cy="38" r="8" fill="#fff" stroke="#d97706" stroke-width="0.8"/>
      <text x="60" y="41" text-anchor="middle" font-family="sans-serif" font-size="9" fill="#b45309">S</text>
      <rect x="80" y="28" width="40" height="20" rx="2" fill="#d97706" opacity="0.15" stroke="#d97706" stroke-width="0.8"/>
      <text x="100" y="41" text-anchor="middle" font-family="sans-serif" font-size="8" fill="#b45309">PID</text>
      <rect x="130" y="28" width="40" height="20" rx="2" fill="#fff" stroke="#d97706" stroke-width="0.8"/>
      <text x="150" y="41" text-anchor="middle" font-family="sans-serif" font-size="8" fill="#4b5563">电机</text>
      <rect x="180" y="28" width="30" height="20" rx="2" fill="#fff" stroke="#d97706" stroke-width="0.8"/>
      <text x="195" y="41" text-anchor="middle" font-family="sans-serif" font-size="8" fill="#4b5563">SEA</text>
      <line x1="45" y1="38" x2="52" y2="38" stroke="#d97706" stroke-width="0.8"/>
      <line x1="68" y1="38" x2="80" y2="38" stroke="#d97706" stroke-width="0.8"/>
      <line x1="120" y1="38" x2="130" y2="38" stroke="#d97706" stroke-width="0.8"/>
      <line x1="170" y1="38" x2="180" y2="38" stroke="#d97706" stroke-width="0.8"/>
      <line x1="195" y1="48" x2="195" y2="65" stroke="#d1d5db" stroke-width="0.5"/>
      <line x1="195" y1="65" x2="60" y2="65" stroke="#d1d5db" stroke-width="0.5"/>
      <line x1="60" y1="65" x2="60" y2="46" stroke="#d1d5db" stroke-width="0.5"/>
      <polygon points="195,65 185,63 185,67" fill="#d1d5db"/>
      <text x="120" y="80" text-anchor="middle" font-family="sans-serif" font-size="8" fill="#6b7280">力反馈 (弹簧变形量  K)</text>
    </g>
    <g transform="translate(310, 190)">
      <rect x="0" y="0" width="140" height="100" rx="3" fill="#f9fafb" stroke="#e5e7eb" stroke-width="0.8"/>
      <text x="70" y="16" text-anchor="middle" font-family="sans-serif" font-size="10" font-weight="bold" fill="#4b5563">力矩-变形特性</text>
      <line x1="20" y1="75" x2="120" y2="75" stroke="#d1d5db" stroke-width="0.5"/>
      <line x1="70" y1="75" x2="70" y2="20" stroke="#d1d5db" stroke-width="0.5"/>
      <line x1="30" y1="65" x2="110" y2="35" stroke="#d97706" stroke-width="1.5"/>
      <text x="92" y="32" font-family="sans-serif" font-size="8" fill="#d97706">K</text>
      <text x="12" y="90" font-family="sans-serif" font-size="8" fill="#6b7280">变形 </text>
      <text x="130" y="60" transform="rotate(-90, 130, 60)" text-anchor="middle" font-family="sans-serif" font-size="8" fill="#6b7280">力矩 </text>
    </g>
    <g transform="translate(310, 65)">
      <rect x="0" y="0" width="100" height="90" rx="3" fill="#f9fafb" stroke="#e5e7eb" stroke-width="0.8"/>
      <text x="50" y="16" text-anchor="middle" font-family="sans-serif" font-size="10" font-weight="bold" fill="#4b5563">阻抗范围</text>
      <rect x="10" y="25" width="80" height="14" rx="3" fill="#d97706" opacity="0.15" stroke="#d97706" stroke-width="0.5"/>
      <text x="50" y="35" text-anchor="middle" font-family="sans-serif" font-size="8" fill="#b45309">低阻抗</text>
      <rect x="10" y="45" width="80" height="14" rx="3" fill="#d97706" opacity="0.15" stroke="#d97706" stroke-width="0.5"/>
      <text x="50" y="55" text-anchor="middle" font-family="sans-serif" font-size="8" fill="#b45309">高阻抗</text>
      <text x="50" y="78" text-anchor="middle" font-family="sans-serif" font-size="8" fill="#6b7280">0.1 — 100 Nm/rad</text>
    </g>
    <g transform="translate(420, 65)">
      <rect x="0" y="0" width="140" height="155" rx="3" fill="#fffbeb" stroke="#d97706" stroke-width="0.8"/>
      <text x="70" y="18" text-anchor="middle" font-family="sans-serif" font-size="11" font-weight="bold" fill="#b45309">关键规格</text>
      <line x1="10" y1="24" x2="130" y2="24" stroke="#d97706" stroke-width="0.5"/>
      <text x="12" y="40" font-family="sans-serif" font-size="10" fill="#4b5563">控制带宽</text>
      <text x="128" y="40" text-anchor="end" font-family="sans-serif" font-size="10" font-weight="bold" fill="#1f2937">20 Hz</text>
      <text x="12" y="56" font-family="sans-serif" font-size="10" fill="#4b5563">力矩分辨率</text>
      <text x="128" y="56" text-anchor="end" font-family="sans-serif" font-size="10" font-weight="bold" fill="#1f2937">0.1 Nm</text>
      <text x="12" y="72" font-family="sans-serif" font-size="10" fill="#4b5563">弹簧刚度</text>
      <text x="128" y="72" text-anchor="end" font-family="sans-serif" font-size="10" font-weight="bold" fill="#1f2937">可调</text>
      <text x="12" y="88" font-family="sans-serif" font-size="10" fill="#4b5563">峰值扭矩</text>
      <text x="128" y="88" text-anchor="end" font-family="sans-serif" font-size="10" font-weight="bold" fill="#1f2937">80 Nm</text>
      <text x="12" y="104" font-family="sans-serif" font-size="10" fill="#4b5563">减重比</text>
      <text x="128" y="104" text-anchor="end" font-family="sans-serif" font-size="10" font-weight="bold" fill="#1f2937">2.8</text>
      <text x="12" y="120" font-family="sans-serif" font-size="10" fill="#4b5563">应用部位</text>
      <text x="128" y="120" text-anchor="end" font-family="sans-serif" font-size="10" font-weight="bold" fill="#1f2937">腰/髋/膝</text>
      <rect x="10" y="130" width="120" height="8" rx="4" fill="#d1d5db"/>
      <rect x="10" y="130" width="96" height="8" rx="4" fill="#d97706" opacity="0.7"/>
      <text x="70" y="137" text-anchor="middle" font-family="sans-serif" font-size="7" fill="#fff" font-weight="bold">TRL 6-7</text>
      <text x="12" y="152" font-family="sans-serif" font-size="8" fill="#9ca3af">MIT RFSEA, 商用化中</text>
    </g>
    <g transform="translate(50, 300)">
      <text x="0" y="12" font-family="sans-serif" font-size="9" fill="#6b7280">RFSEA 参数：85 Nm 额定 / 175 Nm 峰值 / 1.6 kg / 6 Hz 力控带宽</text>
      <text x="0" y="26" font-family="sans-serif" font-size="9" fill="#6b7280">力控精度 (3-5%)，冲击吸收佳，能量回收；但弹簧增加重量并限制带宽</text>
      <text x="0" y="40" font-family="sans-serif" font-size="9" fill="#6b7280">商用化局限：Ossur Power Knee 假肢端有产品，外骨骼端尚无成熟方案</text>
    </g>
  </g>
  <text x="600" y="855" text-anchor="middle" font-family="sans-serif" font-size="9" fill="#9ca3af">附录 C 图 5 TRL 5-7 外骨骼驱动架构技术概览 | 参考：REEV, EsoMark, IEEE TRO/ICRA, MIT Leg Lab</text>
</svg>