<svg xmlns="http://www.w3.org/2000/svg" viewBox="0 0 1200 1100" width="100%" height="100%">
  <defs>
    <linearGradient id="titleGrad" x1="0" y1="0" x2="1" y2="0">
      <stop offset="0%" stop-color="#0d1137"/>
      <stop offset="100%" stop-color="#1a237e"/>
    </linearGradient>
    <linearGradient id="boneGrad" x1="0%" y1="0%" x2="100%" y2="100%">
      <stop offset="0%" stop-color="#ede3cc"/>
      <stop offset="40%" stop-color="#e8ddc0"/>
      <stop offset="70%" stop-color="#dfd2b2"/>
      <stop offset="100%" stop-color="#d4c9a8"/>
    </linearGradient>
    <linearGradient id="boneShadow" x1="0%" y1="0%" x2="50%" y2="100%">
      <stop offset="0%" stop-color="#f5edd8"/>
      <stop offset="100%" stop-color="#c4b898"/>
    </linearGradient>
    <linearGradient id="boneDark" x1="0%" y1="0%" x2="0%" y2="100%">
      <stop offset="0%" stop-color="#d4c9a8"/>
      <stop offset="100%" stop-color="#b8ad90"/>
    </linearGradient>
    <linearGradient id="metalGrad" x1="0%" y1="0%" x2="100%" y2="100%">
      <stop offset="0%" stop-color="#A0AAB5"/>
      <stop offset="40%" stop-color="#8B93A0"/>
      <stop offset="100%" stop-color="#6B7280"/>
    </linearGradient>
    <linearGradient id="metalLight" x1="0%" y1="0%" x2="100%" y2="0%">
      <stop offset="0%" stop-color="#B8C0CA"/>
      <stop offset="50%" stop-color="#8B93A0"/>
      <stop offset="100%" stop-color="#6B7280"/>
    </linearGradient>
    <linearGradient id="batteryGrad" x1="0" y1="0" x2="1" y2="1">
      <stop offset="0%" stop-color="#f59e0b"/>
      <stop offset="50%" stop-color="#d97706"/>
      <stop offset="100%" stop-color="#b45309"/>
    </linearGradient>
    <linearGradient id="skinGrad" x1="0" y1="0" x2="1" y2="1">
      <stop offset="0%" stop-color="#f5e6d3"/>
      <stop offset="100%" stop-color="#e8d5b8"/>
    </linearGradient>
    <linearGradient id="clothGrad" x1="0" y1="0" x2="1" y2="1">
      <stop offset="0%" stop-color="#e0e0e0"/>
      <stop offset="100%" stop-color="#bdbdbd"/>
    </linearGradient>
    <filter id="shadow" x="-2%" y="-2%" width="104%" height="104%">
      <feDropShadow dx="1" dy="2" stdDeviation="3" flood-opacity="0.10"/>
    </filter>
    <filter id="shadowLight" x="-2%" y="-2%" width="104%" height="104%">
      <feDropShadow dx="0" dy="1" stdDeviation="2" flood-opacity="0.06"/>
    </filter>
    <marker id="arrowRed" markerWidth="10" markerHeight="8" refX="10" refY="4" orient="auto">
      <path d="M0,0 L10,4 L0,8 Z" fill="#dc2626"/>
    </marker>
    <marker id="arrowRedSmall" markerWidth="8" markerHeight="6" refX="8" refY="3" orient="auto">
      <path d="M0,0 L8,3 L0,6 Z" fill="#dc2626"/>
    </marker>
    <marker id="arrowBlue" markerWidth="10" markerHeight="8" refX="10" refY="4" orient="auto">
      <path d="M0,0 L10,4 L0,8 Z" fill="#0096f0"/>
    </marker>
    <marker id="arrowGray" markerWidth="8" markerHeight="6" refX="8" refY="3" orient="auto">
      <path d="M0,0 L8,3 L0,6 Z" fill="#8B93A0"/>
    </marker>
    <marker id="arrowOrange" markerWidth="10" markerHeight="8" refX="10" refY="4" orient="auto">
      <path d="M0,0 L10,4 L0,8 Z" fill="#d97706"/>
    </marker>
  </defs>

  <!-- Background -->
  <rect width="1200" height="1100" fill="#ffffff"/>

  <!-- ===== TITLE BAR ===== -->
  <rect x="0" y="0" width="1200" height="68" fill="url(#titleGrad)"/>
  <text x="600" y="30" text-anchor="middle" font-family="'PingFang SC','Microsoft YaHei','Noto Sans SC',sans-serif" font-size="20" font-weight="bold" fill="#ffffff">DNSYS Z1 穿戴结构与力流路径分析</text>
  <text x="600" y="54" text-anchor="middle" font-family="'PingFang SC','Microsoft YaHei','Noto Sans SC',sans-serif" font-size="13" fill="#9fa8da">DNSYS Z1 Wear Structure &amp; Force Flow Path Analysis</text>

  <!-- ===== CENTER SECTION: Elderly figure wearing DNSYS Z1 ===== -->
  <rect x="25" y="85" width="780" height="780" rx="8" fill="#fafcff" stroke="#e0e5ef" stroke-width="1.2" filter="url(#shadow)"/>
  <text x="415" y="110" text-anchor="middle" font-family="'PingFang SC','Microsoft YaHei','Noto Sans SC',sans-serif" font-size="14" font-weight="bold" fill="#0d1137">人体穿戴示意图 (Human Wear Diagram)</text>
  <line x1="55" y1="118" x2="775" y2="118" stroke="#0096f0" stroke-width="0.8" opacity="0.3"/>

  <!-- Human Figure (front view, simplified elderly person) -->
  <g transform="translate(180, 140)">
    <!-- Head -->
    <ellipse cx="235" cy="35" rx="28" ry="30" fill="url(#skinGrad)" stroke="#c4a882" stroke-width="0.8"/>
    <!-- Hair (gray, elderly) -->
    <path d="M 207,25 C 207,10 265,10 265,25 C 270,30 270,35 265,38 C 260,32 250,28 235,28 C 220,28 210,32 205,38 C 200,35 200,30 207,25 Z" fill="#9e9e9e"/>
    <!-- Eyes -->
    <ellipse cx="225" cy="32" rx="3" ry="2" fill="#555"/>
    <ellipse cx="245" cy="32" rx="3" ry="2" fill="#555"/>
    <!-- Mouth -->
    <path d="M 230,45 C 233,48 237,48 240,45" fill="none" stroke="#c4a882" stroke-width="0.8"/>
    <!-- Neck -->
    <rect x="227" y="62" width="16" height="15" rx="3" fill="url(#skinGrad)" stroke="#c4a882" stroke-width="0.6"/>

    <!-- Torso -->
    <path d="M 195,75 
             C 190,90 185,110 185,130
             L 185,180
             C 185,185 188,188 195,188
             L 275,188
             C 282,188 285,185 285,180
             L 285,130
             C 285,110 280,90 275,75
             Z"
          fill="url(#clothGrad)" stroke="#999" stroke-width="0.8"/>

    <!-- Shirt detail - collar -->
    <path d="M 215,75 L 235,90 L 255,75" fill="none" stroke="#999" stroke-width="0.8"/>

    <!-- Left Arm -->
    <path d="M 190,85 C 170,95 155,115 150,140 C 145,160 148,170 152,175" fill="none" stroke="url(#skinGrad)" stroke-width="16" stroke-linecap="round"/>
    <!-- Left hand -->
    <circle cx="152" cy="178" r="7" fill="url(#skinGrad)" stroke="#c4a882" stroke-width="0.6"/>

    <!-- Right Arm -->
    <path d="M 280,85 C 300,95 315,115 320,140 C 325,160 322,170 318,175" fill="none" stroke="url(#skinGrad)" stroke-width="16" stroke-linecap="round"/>
    <!-- Right hand -->
    <circle cx="318" cy="178" r="7" fill="url(#skinGrad)" stroke="#c4a882" stroke-width="0.6"/>

    <!-- Waist belt -->
    <rect x="180" y="165" width="110" height="20" rx="4" fill="#5a626e" stroke="#444" stroke-width="1" filter="url(#shadowLight)"/>
    <!-- Control unit on belt -->
    <rect x="195" y="163" width="40" height="24" rx="3" fill="url(#metalGrad)" stroke="#555" stroke-width="0.8"/>
    <text x="215" y="179" text-anchor="middle" font-family="sans-serif" font-size="6" fill="#fff">控制单元</text>

    <!-- Left Leg -->
    <path d="M 210,183 L 205,250 L 200,330 L 198,400" stroke="url(#skinGrad)" stroke-width="28" stroke-linecap="round" fill="none"/>
    <!-- Left foot -->
    <ellipse cx="198" cy="408" rx="18" ry="7" fill="url(#skinGrad)" stroke="#c4a882" stroke-width="0.6"/>

    <!-- Right Leg -->
    <path d="M 260,183 L 265,250 L 270,330 L 272,400" stroke="url(#skinGrad)" stroke-width="28" stroke-linecap="round" fill="none"/>
    <!-- Right foot -->
    <ellipse cx="272" cy="408" rx="18" ry="7" fill="url(#skinGrad)" stroke="#c4a882" stroke-width="0.6"/>

    <!-- ===== DNSYS Z1 Knee Units ===== -->
    <!-- Left knee unit -->
    <g transform="translate(0,0)">
      <!-- Motor housing -->
      <rect x="190" y="240" width="32" height="40" rx="6" fill="url(#metalGrad)" stroke="#555" stroke-width="1" filter="url(#shadowLight)"/>
      <rect x="192" y="242" width="28" height="10" rx="2" fill="#555" opacity="0.3"/>
      <!-- Battery pack on left knee -->
      <rect x="224" y="242" width="20" height="36" rx="3" fill="url(#batteryGrad)" stroke="#92400e" stroke-width="0.6"/>
      <!-- Battery symbol -->
      <rect x="230" y="245" width="8" height="8" rx="1" fill="#fef3c7" opacity="0.5"/>
      <!-- Straps -->
      <line x1="186" y1="248" x2="190" y2="248" stroke="#5a626e" stroke-width="3"/>
      <line x1="186" y1="262" x2="190" y2="262" stroke="#5a626e" stroke-width="3"/>
      <line x1="186" y1="276" x2="190" y2="276" stroke="#5a626e" stroke-width="3"/>
    </g>

    <!-- Right knee unit -->
    <g transform="translate(0,0)">
      <rect x="248" y="240" width="32" height="40" rx="6" fill="url(#metalGrad)" stroke="#555" stroke-width="1" filter="url(#shadowLight)"/>
      <rect x="250" y="242" width="28" height="10" rx="2" fill="#555" opacity="0.3"/>
      <!-- Battery pack on right knee -->
      <rect x="266" y="242" width="20" height="36" rx="3" fill="url(#batteryGrad)" stroke="#92400e" stroke-width="0.6"/>
      <rect x="272" y="245" width="8" height="8" rx="1" fill="#fef3c7" opacity="0.5"/>
      <!-- Straps -->
      <line x1="280" y1="248" x2="284" y2="248" stroke="#5a626e" stroke-width="3"/>
      <line x1="280" y1="262" x2="284" y2="262" stroke="#5a626e" stroke-width="3"/>
      <line x1="280" y1="276" x2="284" y2="276" stroke="#5a626e" stroke-width="3"/>
    </g>

    <!-- ===== Annotations ===== -->
    <!-- Left knee unit label -->
    <line x1="205" y1="260" x2="135" y2="240" stroke="#0096f0" stroke-width="0.8" stroke-dasharray="4,2"/>
    <text x="80" y="238" font-family="'PingFang SC','Microsoft YaHei','Noto Sans SC',sans-serif" font-size="9" fill="#0096f0">左膝Z1单元</text>

    <!-- Right knee unit label -->
    <line x1="265" y1="260" x2="330" y2="240" stroke="#0096f0" stroke-width="0.8" stroke-dasharray="4,2"/>
    <text x="310" y="235" font-family="'PingFang SC','Microsoft YaHei','Noto Sans SC',sans-serif" font-size="9" fill="#0096f0">右膝Z1单元</text>

    <!-- Belt label -->
    <line x1="215" y1="170" x2="170" y2="150" stroke="#0096f0" stroke-width="0.8" stroke-dasharray="4,2"/>
    <text x="110" y="148" font-family="'PingFang SC','Microsoft YaHei','Noto Sans SC',sans-serif" font-size="9" fill="#0096f0">腰带控制单元</text>

    <!-- Calf annotation -->
    <line x1="250" y1="350" x2="330" y2="350" stroke="#0096f0" stroke-width="0.8" stroke-dasharray="4,2"/>
    <text x="288" y="348" font-family="'PingFang SC','Microsoft YaHei','Noto Sans SC',sans-serif" font-size="9" fill="#0096f0">无线缆独立双腿</text>

    <!-- Ankle annotation -->
    <line x1="198" y1="408" x2="135" y2="418" stroke="#0096f0" stroke-width="0.8" stroke-dasharray="4,2"/>
    <text x="80" y="416" font-family="'PingFang SC','Microsoft YaHei','Noto Sans SC',sans-serif" font-size="9" fill="#0096f0">无地面传感器</text>
  </g>

  <!-- ===== RIGHT SECTION: Force Flow Path Analysis ===== -->
  <rect x="820" y="85" width="355" height="780" rx="8" fill="#fefefa" stroke="#e0e0d8" stroke-width="1.2" filter="url(#shadow)"/>
  <text x="997" y="110" text-anchor="middle" font-family="'PingFang SC','Microsoft YaHei','Noto Sans SC',sans-serif" font-size="14" font-weight="bold" fill="#0d1137">力流传动路径</text>
  <line x1="840" y1="118" x2="1155" y2="118" stroke="#dc2626" stroke-width="0.8" opacity="0.3"/>

  <!-- Force flow diagram -->
  <g transform="translate(855, 140)">
    <!-- Motor -->
    <rect x="60" y="0" width="100" height="40" rx="6" fill="url(#metalGrad)" stroke="#555" stroke-width="1" filter="url(#shadowLight)"/>
    <text x="110" y="25" text-anchor="middle" font-family="'PingFang SC','Microsoft YaHei','Noto Sans SC',sans-serif" font-size="10" fill="#fff">BLDC电机</text>

    <!-- Arrow down -->
    <line x1="110" y1="40" x2="110" y2="65" stroke="#dc2626" stroke-width="2" marker-end="url(#arrowRed)"/>

    <!-- Planetary Gearbox -->
    <rect x="60" y="65" width="100" height="40" rx="6" fill="url(#metalLight)" stroke="#555" stroke-width="1" filter="url(#shadowLight)"/>
    <text x="110" y="82" text-anchor="middle" font-family="'PingFang SC','Microsoft YaHei','Noto Sans SC',sans-serif" font-size="9" fill="#fff">行星齿轮减速</text>
    <text x="110" y="96" text-anchor="middle" font-family="'PingFang SC','Microsoft YaHei','Noto Sans SC',sans-serif" font-size="8" fill="#ddd">&gt;100:1</text>

    <!-- Arrow down -->
    <line x1="110" y1="105" x2="110" y2="130" stroke="#dc2626" stroke-width="2" marker-end="url(#arrowRed)"/>

    <!-- Output Flange -->
    <rect x="60" y="130" width="100" height="35" rx="6" fill="url(#metalGrad)" stroke="#555" stroke-width="1" filter="url(#shadowLight)"/>
    <text x="110" y="152" text-anchor="middle" font-family="'PingFang SC','Microsoft YaHei','Noto Sans SC',sans-serif" font-size="9" fill="#fff">输出法兰</text>

    <!-- Arrow down -->
    <line x1="110" y1="165" x2="110" y2="190" stroke="#dc2626" stroke-width="2" marker-end="url(#arrowRed)"/>

    <!-- Rigid Link -->
    <rect x="60" y="190" width="100" height="35" rx="6" fill="url(#metalLight)" stroke="#555" stroke-width="1" filter="url(#shadowLight)"/>
    <text x="110" y="212" text-anchor="middle" font-family="'PingFang SC','Microsoft YaHei','Noto Sans SC',sans-serif" font-size="9" fill="#fff">刚性连杆</text>

    <!-- Fork arrows to straps -->
    <path d="M 60,225 L 30,250 L 30,265" fill="none" stroke="#dc2626" stroke-width="1.5" marker-end="url(#arrowRedSmall)"/>
    <path d="M 110,225 L 110,250 L 110,265" fill="none" stroke="#dc2626" stroke-width="1.5" marker-end="url(#arrowRedSmall)"/>
    <path d="M 160,225 L 190,250 L 190,265" fill="none" stroke="#dc2626" stroke-width="1.5" marker-end="url(#arrowRedSmall)"/>

    <!-- 3 Straps -->
    <rect x="10" y="265" width="40" height="25" rx="4" fill="#5a626e" stroke="#444" stroke-width="0.8"/>
    <text x="30" y="281" text-anchor="middle" font-family="sans-serif" font-size="7" fill="#fff">上绑带</text>

    <rect x="90" y="265" width="40" height="25" rx="4" fill="#5a626e" stroke="#444" stroke-width="0.8"/>
    <text x="110" y="281" text-anchor="middle" font-family="sans-serif" font-size="7" fill="#fff">中绑带</text>

    <rect x="170" y="265" width="40" height="25" rx="4" fill="#5a626e" stroke="#444" stroke-width="0.8"/>
    <text x="190" y="281" text-anchor="middle" font-family="sans-serif" font-size="7" fill="#fff">下绑带</text>

    <!-- Final arrows to body -->
    <line x1="30" y1="290" x2="30" y2="310" stroke="#dc2626" stroke-width="1.5" marker-end="url(#arrowRedSmall)"/>
    <line x1="110" y1="290" x2="110" y2="310" stroke="#dc2626" stroke-width="1.5" marker-end="url(#arrowRedSmall)"/>
    <line x1="190" y1="290" x2="190" y2="310" stroke="#dc2626" stroke-width="1.5" marker-end="url(#arrowRedSmall)"/>

    <!-- Body/Leg target -->
    <path d="M 0,315 L 220,315 L 200,335 L 20,335 Z" fill="#f0f0f0" stroke="#999" stroke-width="0.8" opacity="0.6"/>
    <text x="110" y="330" text-anchor="middle" font-family="'PingFang SC','Microsoft YaHei','Noto Sans SC',sans-serif" font-size="9" fill="#666">大腿/小腿 (力传递目标)</text>

    <!-- Side annotation: battery power -->
    <path d="M 200,10 L 240,5" fill="none" stroke="#d97706" stroke-width="1" stroke-dasharray="3,2"/>
    <path d="M 200,30 L 240,35" fill="none" stroke="#d97706" stroke-width="1" stroke-dasharray="3,2"/>
    <text x="248" y="14" font-family="'PingFang SC','Microsoft YaHei','Noto Sans SC',sans-serif" font-size="8" fill="#d97706">电池供电</text>
    <text x="248" y="34" font-family="'PingFang SC','Microsoft YaHei','Noto Sans SC',sans-serif" font-size="8" fill="#d97706">~450W持续</text>
  </g>

  <!-- Key parameter callouts on right -->
  <g transform="translate(855, 500)">
    <rect x="0" y="0" width="320" height="145" rx="6" fill="#fff7ed" stroke="#fcd34d" stroke-width="1.2" filter="url(#shadowLight)"/>
    <text x="160" y="22" text-anchor="middle" font-family="'PingFang SC','Microsoft YaHei','Noto Sans SC',sans-serif" font-size="11" font-weight="bold" fill="#b45309">关键参数</text>
    <line x1="15" y1="30" x2="305" y2="30" stroke="#fde68a" stroke-width="0.8"/>

    <!-- Param 1 -->
    <circle cx="20" cy="48" r="4" fill="#d97706"/>
    <text x="30" y="52" font-family="'PingFang SC','Microsoft YaHei','Noto Sans SC',sans-serif" font-size="10" fill="#92400e">单腿重量: 680g (含电池)</text>

    <!-- Param 2 -->
    <circle cx="20" cy="68" r="4" fill="#d97706"/>
    <text x="30" y="72" font-family="'PingFang SC','Microsoft YaHei','Noto Sans SC',sans-serif" font-size="10" fill="#92400e">扭矩密度: 50Nm/kg</text>

    <!-- Param 3 -->
    <circle cx="20" cy="88" r="4" fill="#d97706"/>
    <text x="30" y="92" font-family="'PingFang SC','Microsoft YaHei','Noto Sans SC',sans-serif" font-size="10" fill="#92400e">模块化设计: X1(髋) + Z1(膝) 可组合</text>

    <!-- Param 4 -->
    <circle cx="20" cy="108" r="4" fill="#d97706"/>
    <text x="30" y="112" font-family="'PingFang SC','Microsoft YaHei','Noto Sans SC',sans-serif" font-size="10" fill="#92400e">无线缆: 左右腿独立运行</text>

    <!-- Architecture callout -->
    <rect x="15" y="122" width="290" height="16" rx="3" fill="#fef3c7" stroke="#fcd34d" stroke-width="0.5"/>
    <text x="160" y="134" text-anchor="middle" font-family="'PingFang SC','Microsoft YaHei','Noto Sans SC',sans-serif" font-size="8" fill="#92400e">腿部分布式供电架构: 每膝独立含电池+电机+控制板</text>
  </g>

  <!-- ===== BOTTOM: Architecture Comparison ===== -->
  <rect x="25" y="880" width="1150" height="110" rx="8" fill="#f8f9fa" stroke="#ddd" stroke-width="1" filter="url(#shadow)"/>
  <text x="600" y="905" text-anchor="middle" font-family="'PingFang SC','Microsoft YaHei','Noto Sans SC',sans-serif" font-size="13" font-weight="bold" fill="#0d1137">架构对比: DNSYS腿部分布式 vs BONES腰部集中式</text>
  <line x1="100" y1="915" x2="1100" y2="915" stroke="#ccc" stroke-width="0.5"/>

  <!-- DNSYS: Leg-distributed -->
  <g transform="translate(80, 925)">
    <rect x="0" y="0" width="200" height="55" rx="6" fill="#fff5f5" stroke="#ffcdd2" stroke-width="1"/>
    <text x="100" y="16" text-anchor="middle" font-family="'PingFang SC','Microsoft YaHei','Noto Sans SC',sans-serif" font-size="9" font-weight="bold" fill="#c62828">DNSYS 腿部分布式</text>
    <!-- Mini knee icon -->
    <rect x="30" y="22" width="30" height="22" rx="3" fill="url(#metalGrad)" stroke="#555" stroke-width="0.6"/>
    <rect x="65" y="24" width="14" height="18" rx="2" fill="url(#batteryGrad)" stroke="#92400e" stroke-width="0.5"/>
    <rect x="130" y="22" width="30" height="22" rx="3" fill="url(#metalGrad)" stroke="#555" stroke-width="0.6"/>
    <rect x="102" y="24" width="14" height="18" rx="2" fill="url(#batteryGrad)" stroke="#92400e" stroke-width="0.5"/>
    <text x="100" y="50" text-anchor="middle" font-family="sans-serif" font-size="6" fill="#555">每膝含完整驱动+电池</text>
  </g>

  <!-- Connecting arrow (vs) -->
  <text x="330" y="953" text-anchor="middle" font-family="'PingFang SC','Microsoft YaHei','Noto Sans SC',sans-serif" font-size="18" font-weight="bold" fill="#555">VS</text>

  <!-- BONES: Waist-centralized -->
  <g transform="translate(360, 925)">
    <rect x="0" y="0" width="200" height="55" rx="6" fill="#e8f5e9" stroke="#c8e6c9" stroke-width="1"/>
    <text x="100" y="16" text-anchor="middle" font-family="'PingFang SC','Microsoft YaHei','Noto Sans SC',sans-serif" font-size="9" font-weight="bold" fill="#2e7d32">BONES 腰部集中式</text>
    <!-- Waist battery -->
    <rect x="70" y="22" width="60" height="16" rx="3" fill="url(#batteryGrad)" stroke="#92400e" stroke-width="0.6"/>
    <text x="100" y="34" text-anchor="middle" font-family="sans-serif" font-size="6" fill="#fff">腰部电池仓</text>
    <!-- Cable down -->
    <line x1="50" y1="30" x2="40" y2="48" stroke="#555" stroke-width="0.6" stroke-dasharray="1.5,1.5"/>
    <line x1="150" y1="30" x2="160" y2="48" stroke="#555" stroke-width="0.6" stroke-dasharray="1.5,1.5"/>
    <!-- Knee units (lightweight) -->
    <rect x="30" y="40" width="20" height="12" rx="2" fill="url(#metalGrad)" stroke="#555" stroke-width="0.5"/>
    <rect x="150" y="40" width="20" height="12" rx="2" fill="url(#metalGrad)" stroke="#555" stroke-width="0.5"/>
    <text x="100" y="50" text-anchor="middle" font-family="sans-serif" font-size="6" fill="#555">膝部仅电机+减速器(~680g)</text>
  </g>

  <!-- Advantage callout -->
  <g transform="translate(600, 925)">
    <rect x="0" y="0" width="545" height="55" rx="6" fill="#f0f4ff" stroke="#b3ddfb" stroke-width="1"/>
    <text x="272" y="18" text-anchor="middle" font-family="'PingFang SC','Microsoft YaHei','Noto Sans SC',sans-serif" font-size="10" font-weight="bold" fill="#0d1137">Bones方案核心优势</text>
    <text x="15" y="35" font-family="'PingFang SC','Microsoft YaHei','Noto Sans SC',sans-serif" font-size="9" fill="#37474f">• 重心上移 → 平衡性↑ (老年人跌倒风险↓)</text>
    <text x="15" y="50" font-family="'PingFang SC','Microsoft YaHei','Noto Sans SC',sans-serif" font-size="9" fill="#37474f">• 腿部惯量↓50% → 摆动能耗↓ · 热插拔续航无限</text>
    <text x="290" y="35" font-family="'PingFang SC','Microsoft YaHei','Noto Sans SC',sans-serif" font-size="9" fill="#37474f">• 膝部静音(50dB vs 70dB) → 社交可接受</text>
    <text x="290" y="50" font-family="'PingFang SC','Microsoft YaHei','Noto Sans SC',sans-serif" font-size="9" fill="#37474f">• 离合器断电脱开 → 零摆动阻力</text>
  </g>

  <!-- ===== LEGEND ===== -->
  <rect x="25" y="1005" width="1150" height="40" rx="6" fill="#f8f9fa" stroke="#ddd" stroke-width="0.8"/>
  <text x="45" y="1025" font-family="'PingFang SC','Microsoft YaHei','Noto Sans SC',sans-serif" font-size="10" font-weight="bold" fill="#333">图例:</text>

  <rect x="95" y="1018" width="14" height="10" rx="2" fill="url(#boneGrad)" stroke="#c4b898" stroke-width="0.6"/>
  <text x="113" y="1027" font-family="'PingFang SC','Microsoft YaHei','Noto Sans SC',sans-serif" font-size="9" fill="#555">骨骼</text>

  <rect x="165" y="1018" width="14" height="10" rx="2" fill="url(#metalGrad)" stroke="#555" stroke-width="0.6"/>
  <text x="183" y="1027" font-family="'PingFang SC','Microsoft YaHei','Noto Sans SC',sans-serif" font-size="9" fill="#555">电机/金属件</text>

  <rect x="280" y="1018" width="14" height="10" rx="2" fill="url(#batteryGrad)" stroke="#92400e" stroke-width="0.6"/>
  <text x="298" y="1027" font-family="'PingFang SC','Microsoft YaHei','Noto Sans SC',sans-serif" font-size="9" fill="#555">电池</text>

  <line x1="365" y1="1023" x2="380" y2="1023" stroke="#dc2626" stroke-width="1.5" marker-end="url(#arrowRedSmall)"/>
  <text x="385" y="1027" font-family="'PingFang SC','Microsoft YaHei','Noto Sans SC',sans-serif" font-size="9" fill="#555">力流路径</text>

  <rect x="475" y="1018" width="14" height="10" rx="2" fill="#5a626e" stroke="#444" stroke-width="0.6"/>
  <text x="493" y="1027" font-family="'PingFang SC','Microsoft YaHei','Noto Sans SC',sans-serif" font-size="9" fill="#555">绑带</text>

  <line x1="560" y1="1023" x2="575" y2="1023" stroke="#0096f0" stroke-width="1" stroke-dasharray="3,2"/>
  <text x="580" y="1027" font-family="'PingFang SC','Microsoft YaHei','Noto Sans SC',sans-serif" font-size="9" fill="#555">标注/注释</text>

  <text x="850" y="1032" font-family="'PingFang SC','Microsoft YaHei','Noto Sans SC',sans-serif" font-size="8" fill="#999" text-anchor="end">数据来源: DNSYS Kickstarter页面 · Wareable独立评测 · Trustpilot用户反馈 · CES 2026创新奖</text>
</svg>
