<svg xmlns="http://www.w3.org/2000/svg" viewBox="0 0 1200 1000" width="100%" height="100%">
  <defs>
    <linearGradient id="boneGrad" x1="0%" y1="0%" x2="100%" y2="100%">
      <stop offset="0%" stop-color="#ede3cc"/>
      <stop offset="40%" stop-color="#e8ddc0"/>
      <stop offset="70%" stop-color="#dfd2b2"/>
      <stop offset="100%" stop-color="#d4c9a8"/>
    </linearGradient>
    <linearGradient id="boneShadow" x1="0%" y1="0%" x2="50%" y2="100%">
      <stop offset="0%" stop-color="#f5edd8"/>
      <stop offset="100%" stop-color="#c4b898"/>
    </linearGradient>
    <linearGradient id="metalGrad" x1="0%" y1="0%" x2="100%" y2="100%">
      <stop offset="0%" stop-color="#A0AAB5"/>
      <stop offset="40%" stop-color="#8B93A0"/>
      <stop offset="100%" stop-color="#6B7280"/>
    </linearGradient>
    <linearGradient id="metalLight" x1="0%" y1="0%" x2="100%" y2="0%">
      <stop offset="0%" stop-color="#B8C0CA"/>
      <stop offset="50%" stop-color="#8B93A0"/>
      <stop offset="100%" stop-color="#6B7280"/>
    </linearGradient>
    <linearGradient id="titleGrad" x1="0" y1="0" x2="1" y2="0">
      <stop offset="0%" stop-color="#0d1137"/>
      <stop offset="100%" stop-color="#1a237e"/>
    </linearGradient>
    <linearGradient id="panelBgLeft" x1="0" y1="0" x2="0" y2="1">
      <stop offset="0%" stop-color="#fafcff"/>
      <stop offset="100%" stop-color="#f0f5ff"/>
    </linearGradient>
    <linearGradient id="panelBgRight" x1="0" y1="0" x2="0" y2="1">
      <stop offset="0%" stop-color="#fefefa"/>
      <stop offset="100%" stop-color="#f5f5f0"/>
    </linearGradient>
    <linearGradient id="fabricGrad" x1="0" y1="0" x2="1" y2="1">
      <stop offset="0%" stop-color="#e8e0d0"/>
      <stop offset="100%" stop-color="#d4cbb8"/>
    </linearGradient>
    <linearGradient id="batteryGrad" x1="0" y1="0" x2="1" y2="1">
      <stop offset="0%" stop-color="#f59e0b"/>
      <stop offset="50%" stop-color="#d97706"/>
      <stop offset="100%" stop-color="#b45309"/>
    </linearGradient>
    <linearGradient id="cartilageGrad" x1="0" y1="0" x2="0" y2="1">
      <stop offset="0%" stop-color="#cce5f0"/>
      <stop offset="100%" stop-color="#a8cce0"/>
    </linearGradient>
    <linearGradient id="actuatorGrad" x1="0%" y1="0%" x2="100%" y2="100%">
      <stop offset="0%" stop-color="#2d3748"/>
      <stop offset="50%" stop-color="#4a5568"/>
      <stop offset="100%" stop-color="#1a202c"/>
    </linearGradient>
    <filter id="shadow" x="-2%" y="-2%" width="104%" height="104%">
      <feDropShadow dx="1" dy="2" stdDeviation="3" flood-opacity="0.10"/>
    </filter>
    <filter id="shadowLight" x="-2%" y="-2%" width="104%" height="104%">
      <feDropShadow dx="0" dy="1" stdDeviation="2" flood-opacity="0.06"/>
    </filter>
    <marker id="arrowRed" markerWidth="10" markerHeight="8" refX="10" refY="4" orient="auto">
      <path d="M0,0 L10,4 L0,8 Z" fill="#dc2626"/>
    </marker>
    <marker id="arrowRedSmall" markerWidth="8" markerHeight="6" refX="8" refY="3" orient="auto">
      <path d="M0,0 L8,3 L0,6 Z" fill="#dc2626"/>
    </marker>
    <marker id="arrowBlue" markerWidth="10" markerHeight="8" refX="10" refY="4" orient="auto">
      <path d="M0,0 L10,4 L0,8 Z" fill="#0096f0"/>
    </marker>
    <marker id="arrowOrange" markerWidth="10" markerHeight="8" refX="10" refY="4" orient="auto">
      <path d="M0,0 L10,4 L0,8 Z" fill="#d97706"/>
    </marker>
    <marker id="arrowGray" markerWidth="8" markerHeight="6" refX="8" refY="3" orient="auto">
      <path d="M0,0 L8,3 L0,6 Z" fill="#8B93A0"/>
    </marker>
  </defs>

  <!-- Background -->
  <rect width="1200" height="1000" fill="#ffffff"/>

  <!-- ===== TITLE BAR ===== -->
  <rect x="0" y="0" width="1200" height="68" fill="url(#titleGrad)"/>
  <text x="600" y="30" text-anchor="middle" font-family="'PingFang SC','Microsoft YaHei','Noto Sans SC',sans-serif" font-size="20" font-weight="bold" fill="#ffffff">Skip MO/GO 产品工程分析图</text>
  <text x="600" y="54" text-anchor="middle" font-family="'PingFang SC','Microsoft YaHei','Noto Sans SC',sans-serif" font-size="13" fill="#9fa8da">Skip MO/GO Product Engineering Analysis — Google X 衍生·始祖鸟联名·软体外骨骼</text>

  <!-- ===== LEFT PANEL: Hip + Knee Anatomy Lateral View ===== -->
  <rect x="25" y="85" width="710" height="822" rx="8" fill="url(#panelBgLeft)" stroke="#e0e5ef" stroke-width="1.2" filter="url(#shadow)"/>
  <text x="380" y="110" text-anchor="middle" font-family="'PingFang SC','Microsoft YaHei','Noto Sans SC',sans-serif" font-size="14" font-weight="bold" fill="#0d1137">下肢解剖结构 (Hip and Knee Lateral View)</text>
  <line x1="60" y1="118" x2="700" y2="118" stroke="#0096f0" stroke-width="0.8" opacity="0.3"/>

  <g transform="translate(0, 0)">
    <!-- ===== HIP BONE (Ilium) ===== -->
    <path d="M 280,135 
             C 250,140 230,160 220,185
             C 210,210 215,235 225,255
             C 230,265 240,270 250,272
             C 260,270 270,265 280,258
             C 290,265 300,270 310,272
             C 320,270 330,265 340,258
             C 350,250 355,235 355,215
             C 355,190 345,165 330,145
             C 315,130 295,130 280,135 Z"
          fill="url(#boneGrad)" stroke="#c4b898" stroke-width="0.8" filter="url(#shadowLight)"/>
    <path d="M 260,145 C 270,138 290,138 310,145" fill="none" stroke="#b8ad90" stroke-width="0.6" opacity="0.4"/>
    <circle cx="290" cy="248" r="18" fill="none" stroke="#c4b898" stroke-width="1" opacity="0.6"/>
    <circle cx="290" cy="248" r="10" fill="#d9ceb0" opacity="0.3"/>

    <!-- ===== FEMUR ===== -->
    <path d="M 290,248
             C 275,260 270,280 270,300
             L 270,420
             C 270,440 258,455 248,465
             C 260,472 278,468 292,466
             C 305,464 318,464 330,466
             C 345,468 360,472 372,465
             C 362,455 350,440 350,420
             L 350,300
             C 350,280 340,260 325,248
             C 315,240 300,240 290,248 Z"
          fill="url(#boneGrad)" stroke="#c4b898" stroke-width="0.8" filter="url(#shadowLight)"/>
    <circle cx="290" cy="248" r="9" fill="url(#boneShadow)" opacity="0.5"/>
    <path d="M 270,260 C 260,265 255,275 260,285" fill="none" stroke="#b8ad90" stroke-width="0.6" opacity="0.5"/>
    <path d="M 285,258 C 290,265 295,265 300,258" fill="none" stroke="#b8ad90" stroke-width="0.5" opacity="0.3"/>
    <path d="M 255,455 C 260,468 280,470 305,466" fill="none" stroke="#b8ad90" stroke-width="0.6" opacity="0.5"/>
    <path d="M 365,455 C 360,468 340,470 318,466" fill="none" stroke="#b8ad90" stroke-width="0.6" opacity="0.5"/>

    <!-- ===== PATELLA ===== -->
    <ellipse cx="370" cy="435" rx="20" ry="28" fill="url(#boneGrad)" stroke="#c4b898" stroke-width="1" transform="rotate(-8,370,435)" filter="url(#shadowLight)"/>
    <path d="M 360,420 C 356,430 360,450 370,455" fill="none" stroke="#b8ad90" stroke-width="0.6" opacity="0.4"/>

    <!-- ===== TIBIA ===== -->
    <path d="M 255,475 
             C 265,470 280,468 298,468
             C 315,468 328,470 340,472
             L 360,475
             C 365,478 370,482 367,490
             L 345,500
             L 310,800
             C 308,810 292,810 290,800
             L 265,510
             C 258,498 253,485 255,475 Z"
          fill="url(#boneGrad)" stroke="#c4b898" stroke-width="0.8" filter="url(#shadowLight)"/>
    <path d="M 258,475 C 270,485 305,490 365,480" fill="none" stroke="#b8ad90" stroke-width="0.5" opacity="0.4"/>
    <ellipse cx="340" cy="510" rx="8" ry="4" fill="url(#boneShadow)" opacity="0.4"/>

    <!-- ===== FIBULA ===== -->
    <path d="M 360,530 
             C 368,525 374,530 374,540
             L 365,770
             C 363,780 355,780 353,770
             L 345,540
             C 343,530 352,525 360,530 Z"
          fill="url(#boneShadow)" stroke="#c4b898" stroke-width="0.6" opacity="0.7"/>

    <!-- ===== JOINT CARTILAGE ===== -->
    <ellipse cx="290" cy="248" r="16" ry="6" fill="url(#cartilageGrad)" opacity="0.5" transform="rotate(-15,290,248)"/>
    <ellipse cx="300" cy="468" rx="35" ry="5" fill="url(#cartilageGrad)" opacity="0.7"/>
    <ellipse cx="340" cy="470" rx="32" ry="4.5" fill="url(#cartilageGrad)" opacity="0.7"/>

    <!-- ===== MUSCLES ===== -->
    <!-- Quadriceps -->
    <path d="M 325,175 
             C 365,195 395,240 410,290
             C 420,330 418,370 412,400
             C 408,420 398,430 385,435
             C 378,420 370,405 365,385
             C 358,350 355,310 350,270
             C 345,230 338,200 325,185 Z"
          fill="rgba(200,50,50,0.12)" stroke="rgba(200,50,50,0.25)" stroke-width="1"/>
    <path d="M 385,435 L 388,460" stroke="rgba(200,50,50,0.3)" stroke-width="2"/>

    <!-- Hamstring -->
    <path d="M 275,190 
             C 250,210 228,260 220,310
             C 215,355 218,395 225,430
             C 230,450 240,460 250,470
             C 255,455 262,440 265,425
             C 270,395 268,355 265,315
             C 262,275 265,235 275,205 Z"
          fill="rgba(200,50,50,0.14)" stroke="rgba(200,50,50,0.25)" stroke-width="1"/>

    <!-- Gastrocnemius -->
    <path d="M 275,500 
             C 265,530 258,570 255,610
             C 252,650 255,690 260,730
             C 262,750 265,765 270,775
             C 275,760 280,740 282,720
             C 285,680 288,640 290,600
             C 292,560 292,530 288,505 Z"
          fill="rgba(200,50,50,0.10)" stroke="rgba(200,50,50,0.2)" stroke-width="1"/>
    <path d="M 330,510
             C 335,530 338,560 338,590
             C 338,620 335,660 330,700
             C 328,720 325,740 320,760
             C 318,740 316,720 315,700
             C 312,660 312,620 315,590
             C 318,560 322,535 330,510 Z"
          fill="rgba(200,50,50,0.08)" stroke="rgba(200,50,50,0.15)" stroke-width="0.8"/>

    <!-- Gluteus maximus -->
    <path d="M 248,165 
             C 225,185 215,220 218,255
             C 220,275 228,285 240,290
             C 245,280 252,270 258,255
             C 262,240 260,210 255,185 Z"
          fill="rgba(200,50,50,0.10)" stroke="rgba(200,50,50,0.2)" stroke-width="0.8"/>

    <!-- Soleus -->
    <path d="M 320,530
             C 325,560 328,600 328,650
             C 328,690 325,720 320,745
             C 315,720 312,690 312,650
             C 312,600 315,565 320,530 Z"
          fill="rgba(200,50,50,0.06)" stroke="rgba(200,50,50,0.12)" stroke-width="0.6"/>

    <!-- ===== MUSCLE LABELS ===== -->
    <line x1="410" y1="280" x2="480" y2="250" stroke="#0096f0" stroke-width="0.8" stroke-dasharray="4,2"/>
    <text x="482" y="248" font-family="'PingFang SC','Microsoft YaHei','Noto Sans SC',sans-serif" font-size="10" fill="#0096f0">股四头肌 (Quadriceps)</text>

    <line x1="220" y1="350" x2="150" y2="330" stroke="#0096f0" stroke-width="0.8" stroke-dasharray="4,2"/>
    <text x="98" y="328" font-family="'PingFang SC','Microsoft YaHei','Noto Sans SC',sans-serif" font-size="10" fill="#0096f0">腘绳肌 (Hamstring)</text>

    <line x1="260" y1="640" x2="150" y2="630" stroke="#0096f0" stroke-width="0.8" stroke-dasharray="4,2"/>
    <text x="98" y="628" font-family="'PingFang SC','Microsoft YaHei','Noto Sans SC',sans-serif" font-size="10" fill="#0096f0">腓肠肌 (Gastrocnemius)</text>

    <line x1="230" y1="230" x2="150" y2="210" stroke="#0096f0" stroke-width="0.8" stroke-dasharray="4,2"/>
    <text x="98" y="208" font-family="'PingFang SC','Microsoft YaHei','Noto Sans SC',sans-serif" font-size="10" fill="#0096f0">臀大肌 (Gluteus Max.)</text>

    <!-- ===== BONE LABELS ===== -->
    <line x1="330" y1="310" x2="480" y2="310" stroke="#0096f0" stroke-width="0.8" stroke-dasharray="4,2"/>
    <text x="482" y="308" font-family="'PingFang SC','Microsoft YaHei','Noto Sans SC',sans-serif" font-size="10" fill="#0096f0">股骨 (Femur)</text>

    <line x1="310" y1="620" x2="480" y2="610" stroke="#0096f0" stroke-width="0.8" stroke-dasharray="4,2"/>
    <text x="482" y="608" font-family="'PingFang SC','Microsoft YaHei','Noto Sans SC',sans-serif" font-size="10" fill="#0096f0">胫骨 (Tibia)</text>

    <line x1="368" y1="660" x2="480" y2="660" stroke="#0096f0" stroke-width="0.8" stroke-dasharray="4,2"/>
    <text x="482" y="658" font-family="'PingFang SC','Microsoft YaHei','Noto Sans SC',sans-serif" font-size="10" fill="#0096f0">腓骨 (Fibula)</text>

    <line x1="382" y1="430" x2="480" y2="440" stroke="#0096f0" stroke-width="0.8" stroke-dasharray="4,2"/>
    <text x="482" y="438" font-family="'PingFang SC','Microsoft YaHei','Noto Sans SC',sans-serif" font-size="10" fill="#0096f0">髌骨 (Patella)</text>

    <line x1="270" y1="155" x2="480" y2="155" stroke="#0096f0" stroke-width="0.8" stroke-dasharray="4,2"/>
    <text x="482" y="153" font-family="'PingFang SC','Microsoft YaHei','Noto Sans SC',sans-serif" font-size="10" fill="#0096f0">髂骨 (Ilium)</text>

    <!-- ===== JOINT LABELS ===== -->
    <circle cx="290" cy="248" r="3" fill="#dc2626"/>
    <line x1="290" y1="238" x2="290" y2="258" stroke="#dc2626" stroke-width="1" stroke-dasharray="2,2"/>
    <line x1="280" y1="248" x2="300" y2="248" stroke="#dc2626" stroke-width="1" stroke-dasharray="2,2"/>
    <text x="295" y="275" font-family="'PingFang SC','Microsoft YaHei','Noto Sans SC',sans-serif" font-size="9" fill="#dc2626">髋关节旋转中心</text>

    <circle cx="320" cy="468" r="3" fill="#dc2626"/>
    <line x1="320" y1="458" x2="320" y2="478" stroke="#dc2626" stroke-width="1" stroke-dasharray="2,2"/>
    <line x1="310" y1="468" x2="330" y2="468" stroke="#dc2626" stroke-width="1" stroke-dasharray="2,2"/>
    <text x="330" y="488" font-family="'PingFang SC','Microsoft YaHei','Noto Sans SC',sans-serif" font-size="9" fill="#dc2626">膝关节旋转中心</text>
  </g>

  <!-- ===== RIGHT PANEL: Skip MO/GO Device ===== -->
  <rect x="748" y="85" width="427" height="822" rx="8" fill="url(#panelBgRight)" stroke="#e0e0d8" stroke-width="1.2" filter="url(#shadow)"/>
  <text x="961" y="110" text-anchor="middle" font-family="'PingFang SC','Microsoft YaHei','Noto Sans SC',sans-serif" font-size="14" font-weight="bold" fill="#0d1137">MO/GO 装置拆解</text>
  <line x1="770" y1="118" x2="1153" y2="118" stroke="#d97706" stroke-width="0.8" opacity="0.3"/>

  <g transform="translate(0, 0)">
    <!-- Leg silhouette outline -->
    <path d="M 870,150 C 870,150 882,170 892,210 L 922,390 C 928,410 922,435 912,445 L 892,510 L 872,750 C 868,762 860,762 858,750 L 838,510 L 818,445 C 808,435 802,410 808,390 L 838,210 C 848,170 860,150 870,150 Z"
          fill="none" stroke="#ccc" stroke-width="0.8" stroke-dasharray="4,4" opacity="0.4"/>

    <!-- Arc'teryx Gamma Pants -->
    <path d="M 845,195 C 855,195 865,195 875,195 
             C 880,200 885,210 890,230 L 900,400 
             C 902,420 898,440 890,450 L 875,530
             L 865,740 C 863,750 857,750 855,740 
             L 845,530 L 828,450 C 820,440 816,420 818,400 
             L 828,230 C 832,210 838,200 845,195 Z"
          fill="url(#fabricGrad)" stroke="#a09078" stroke-width="1.5" opacity="0.5"/>
    <!-- Fabric texture lines -->
    <path d="M 848,250 Q 870,255 885,250" fill="none" stroke="#c4b898" stroke-width="0.3" opacity="0.4"/>
    <path d="M 845,300 Q 870,305 888,300" fill="none" stroke="#c4b898" stroke-width="0.3" opacity="0.4"/>
    <path d="M 840,350 Q 868,355 895,350" fill="none" stroke="#c4b898" stroke-width="0.3" opacity="0.4"/>
    <path d="M 835,400 Q 865,405 898,400" fill="none" stroke="#c4b898" stroke-width="0.3" opacity="0.4"/>
    <path d="M 835,500 Q 860,505 885,500" fill="none" stroke="#c4b898" stroke-width="0.3" opacity="0.4"/>
    <path d="M 855,650 Q 865,655 873,650" fill="none" stroke="#c4b898" stroke-width="0.3" opacity="0.4"/>
    <rect x="840" y="185" width="50" height="18" rx="2" fill="#8B7D6B" stroke="#6B5D4B" stroke-width="0.8" opacity="0.6"/>

    <!-- Magnetic Actuator at Hip -->
    <g transform="translate(810, 230)">
      <rect x="8" y="0" width="42" height="48" rx="8" fill="url(#actuatorGrad)" stroke="#555" stroke-width="1.2" filter="url(#shadowLight)"/>
      <rect x="12" y="4" width="34" height="4" rx="1" fill="#4a5568" opacity="0.5"/>
      <rect x="12" y="11" width="34" height="4" rx="1" fill="#4a5568" opacity="0.5"/>
      <rect x="12" y="18" width="34" height="4" rx="1" fill="#4a5568" opacity="0.5"/>
      <rect x="12" y="25" width="34" height="4" rx="1" fill="#4a5568" opacity="0.5"/>
      <rect x="12" y="32" width="34" height="4" rx="1" fill="#4a5568" opacity="0.5"/>
      <rect x="12" y="39" width="34" height="4" rx="1" fill="#4a5568" opacity="0.5"/>
      <circle cx="29" cy="48" r="6" fill="#6B7280" stroke="#555" stroke-width="0.8"/>
      <circle cx="29" cy="48" r="2.5" fill="#4a5568"/>
      <rect x="50" y="14" width="6" height="20" rx="2" fill="url(#metalLight)"/>
      <path d="M 56,10 Q 65,24 56,38" fill="none" stroke="#a09078" stroke-width="2" opacity="0.6"/>
    </g>

    <!-- Magnetic Actuator at Knee -->
    <g transform="translate(808, 390)">
      <rect x="8" y="0" width="42" height="48" rx="8" fill="url(#actuatorGrad)" stroke="#555" stroke-width="1.2" filter="url(#shadowLight)"/>
      <rect x="12" y="4" width="34" height="4" rx="1" fill="#4a5568" opacity="0.5"/>
      <rect x="12" y="11" width="34" height="4" rx="1" fill="#4a5568" opacity="0.5"/>
      <rect x="12" y="18" width="34" height="4" rx="1" fill="#4a5568" opacity="0.5"/>
      <rect x="12" y="25" width="34" height="4" rx="1" fill="#4a5568" opacity="0.5"/>
      <rect x="12" y="32" width="34" height="4" rx="1" fill="#4a5568" opacity="0.5"/>
      <rect x="12" y="39" width="34" height="4" rx="1" fill="#4a5568" opacity="0.5"/>
      <circle cx="29" cy="48" r="6" fill="#6B7280" stroke="#555" stroke-width="0.8"/>
      <circle cx="29" cy="48" r="2.5" fill="#4a5568"/>
      <rect x="0" y="20" width="10" height="8" rx="1" fill="url(#metalLight)"/>
      <circle cx="8" cy="24" r="4" fill="#8B93A0" stroke="#6B7280" stroke-width="0.8"/>
    </g>

    <!-- Cable Routing -->
    <path d="M 835,255 C 815,240 800,220 810,200" fill="none" stroke="#5a626e" stroke-width="2" stroke-dasharray="4,2" opacity="0.6"/>
    <path d="M 820,280 C 818,310 820,350 830,390" fill="none" stroke="#5a626e" stroke-width="2.5" stroke-dasharray="3,2" opacity="0.7"/>
    <path d="M 822,290 C 820,320 822,355 830,385" fill="none" stroke="#a09078" stroke-width="4" opacity="0.2"/>
    <path d="M 822,440 C 820,470 825,510 835,540" fill="none" stroke="#5a626e" stroke-width="1.5" stroke-dasharray="3,2" opacity="0.5"/>

    <!-- Waist Belt with Battery -->
    <g transform="translate(755, 170)">
      <path d="M 0,0 Q 20,8 40,4 Q 60,0 80,4 Q 100,8 120,0" fill="none" stroke="#5a626e" stroke-width="8" opacity="0.5"/>
      <path d="M 0,0 Q 20,8 40,4 Q 60,0 80,4 Q 100,8 120,0" fill="none" stroke="#4a5568" stroke-width="3" opacity="0.7"/>
      <rect x="55" y="-8" width="40" height="24" rx="5" fill="url(#batteryGrad)" stroke="#92400e" stroke-width="1" filter="url(#shadowLight)"/>
      <text x="75" y="4" text-anchor="middle" font-family="sans-serif" font-size="5" fill="#fff">150Wh</text>
      <rect x="60" y="10" width="30" height="3" rx="1" fill="#fef3c7" opacity="0.6"/>
      <rect x="38" y="-6" width="16" height="20" rx="3" fill="url(#metalGrad)" stroke="#555" stroke-width="0.8"/>
      <text x="46" y="6" text-anchor="middle" font-family="sans-serif" font-size="4" fill="#fff">控制</text>
    </g>

    <!-- Fabric Tension Distribution -->
    <path d="M 830,245 Q 800,240 790,260" fill="none" stroke="#dc2626" stroke-width="1" stroke-dasharray="2,3" opacity="0.4" marker-end="url(#arrowRedSmall)"/>
    <path d="M 830,250 Q 805,255 795,275" fill="none" stroke="#dc2626" stroke-width="1" stroke-dasharray="2,3" opacity="0.4" marker-end="url(#arrowRedSmall)"/>
    <path d="M 830,240 Q 810,220 800,210" fill="none" stroke="#dc2626" stroke-width="1" stroke-dasharray="2,3" opacity="0.4" marker-end="url(#arrowRedSmall)"/>
    <path d="M 828,415 Q 800,420 790,440" fill="none" stroke="#dc2626" stroke-width="1" stroke-dasharray="2,3" opacity="0.4" marker-end="url(#arrowRedSmall)"/>
    <path d="M 828,410 Q 805,405 795,395" fill="none" stroke="#dc2626" stroke-width="1" stroke-dasharray="2,3" opacity="0.4" marker-end="url(#arrowRedSmall)"/>
    <path d="M 828,425 Q 810,450 800,470" fill="none" stroke="#dc2626" stroke-width="1" stroke-dasharray="2,3" opacity="0.4" marker-end="url(#arrowRedSmall)"/>

    <!-- Component Labels -->
    <line x1="900" y1="255" x2="970" y2="240" stroke="#0096f0" stroke-width="0.8" stroke-dasharray="4,2"/>
    <text x="972" y="238" font-family="'PingFang SC','Microsoft YaHei','Noto Sans SC',sans-serif" font-size="9" fill="#0096f0">磁性致动器·髋 (准直驱外转子无刷电机)</text>

    <line x1="898" y1="415" x2="970" y2="415" stroke="#0096f0" stroke-width="0.8" stroke-dasharray="4,2"/>
    <text x="972" y="413" font-family="'PingFang SC','Microsoft YaHei','Noto Sans SC',sans-serif" font-size="9" fill="#0096f0">磁性致动器·膝 (准直驱外转子无刷电机)</text>

    <line x1="885" y1="320" x2="1000" y2="320" stroke="#0096f0" stroke-width="0.8" stroke-dasharray="4,2"/>
    <text x="1002" y="318" font-family="'PingFang SC','Microsoft YaHei','Noto Sans SC',sans-serif" font-size="9" fill="#0096f0">始祖鸟Gamma软壳裤·承载平台</text>

    <line x1="820" y1="340" x2="770" y2="370" stroke="#0096f0" stroke-width="0.8" stroke-dasharray="4,2"/>
    <text x="718" y="368" font-family="'PingFang SC','Microsoft YaHei','Noto Sans SC',sans-serif" font-size="9" fill="#0096f0">织物内嵌电缆通道</text>

    <line x1="815" y1="185" x2="770" y2="155" stroke="#0096f0" stroke-width="0.8" stroke-dasharray="4,2"/>
    <text x="710" y="148" font-family="'PingFang SC','Microsoft YaHei','Noto Sans SC',sans-serif" font-size="9" fill="#0096f0">腰带电池 150Wh</text>

    <rect x="825" y="580" width="145" height="22" rx="4" fill="#fff7ed" stroke="#fcd34d" stroke-width="1"/>
    <text x="897" y="595" text-anchor="middle" font-family="'PingFang SC','Microsoft YaHei','Noto Sans SC',sans-serif" font-size="9" font-weight="bold" fill="#b45309">无刚性框架 · 全织物结构</text>

    <!-- Force Vectors -->
    <path d="M 798,245 C 778,240 768,250 775,265" fill="none" stroke="#dc2626" stroke-width="2" marker-end="url(#arrowRed)"/>
    <text x="762" y="258" text-anchor="end" font-family="'PingFang SC','Microsoft YaHei','Noto Sans SC',sans-serif" font-size="9" fill="#dc2626">髋屈曲助力</text>

    <path d="M 798,415 C 778,410 768,400 775,385" fill="none" stroke="#dc2626" stroke-width="2" marker-end="url(#arrowRed)"/>
    <text x="762" y="398" text-anchor="end" font-family="'PingFang SC','Microsoft YaHei','Noto Sans SC',sans-serif" font-size="9" fill="#dc2626">膝伸展助力</text>

    <line x1="870" y1="530" x2="870" y2="490" stroke="#dc2626" stroke-width="1.5" marker-end="url(#arrowRedSmall)" opacity="0.7"/>
    <line x1="870" y1="175" x2="870" y2="140" stroke="#dc2626" stroke-width="2" marker-end="url(#arrowRed)"/>
    <text x="878" y="158" font-family="'PingFang SC','Microsoft YaHei','Noto Sans SC',sans-serif" font-size="8" fill="#dc2626">辅助力传递至人体</text>
    <line x1="870" y1="790" x2="870" y2="750" stroke="#dc2626" stroke-width="1.5" marker-end="url(#arrowRedSmall)" opacity="0.6"/>
  </g>

  <!-- Callout Box -->
  <rect x="748" y="615" width="427" height="55" rx="6" fill="#fff7ed" stroke="#fcd34d" stroke-width="1.5" filter="url(#shadowLight)"/>
  <text x="961" y="637" text-anchor="middle" font-family="'PingFang SC','Microsoft YaHei','Noto Sans SC',sans-serif" font-size="11" font-weight="bold" fill="#b45309">Google X衍生 · 始祖鸟联名</text>
  <text x="961" y="657" text-anchor="middle" font-family="'PingFang SC','Microsoft YaHei','Noto Sans SC',sans-serif" font-size="10" fill="#92400e">软体外骨骼的社会接受度天花板</text>

  <!-- Key Annotations -->
  <g transform="translate(748, 685)">
    <rect x="0" y="0" width="427" height="110" rx="6" fill="#f0f4ff" stroke="#b3ddfb" stroke-width="1" filter="url(#shadowLight)"/>
    <text x="213" y="22" text-anchor="middle" font-family="'PingFang SC','Microsoft YaHei','Noto Sans SC',sans-serif" font-size="11" font-weight="bold" fill="#0d1137">关键工程参数</text>
    <line x1="20" y1="30" x2="407" y2="30" stroke="#0096f0" stroke-width="0.5" opacity="0.3"/>
    <text x="25" y="50" font-family="'PingFang SC','Microsoft YaHei','Noto Sans SC',sans-serif" font-size="10" fill="#37474f">定价: $5,000 (约¥36,500) · 系统重量: 3.2kg</text>
    <text x="25" y="68" font-family="'PingFang SC','Microsoft YaHei','Noto Sans SC',sans-serif" font-size="10" fill="#37474f">续航: ~3h (上坡最大助力) · 实际全力 ~45-90min</text>
    <text x="25" y="86" font-family="'PingFang SC','Microsoft YaHei','Noto Sans SC',sans-serif" font-size="10" fill="#37474f">减速比: 准直驱 8:1 · 裤码: 10个尺码</text>
    <text x="25" y="104" font-family="'PingFang SC','Microsoft YaHei','Noto Sans SC',sans-serif" font-size="10" fill="#37474f">租赁: $80/天 · 跳票至2027 Spring</text>
  </g>

  <!-- Legend -->
  <rect x="25" y="920" width="1150" height="60" rx="6" fill="#f8f9fa" stroke="#ddd" stroke-width="0.8"/>
  <text x="45" y="940" font-family="'PingFang SC','Microsoft YaHei','Noto Sans SC',sans-serif" font-size="11" font-weight="bold" fill="#333">图例:</text>

  <rect x="95" y="930" width="18" height="14" rx="2" fill="#ede3cc" stroke="#c4b898" stroke-width="0.6"/>
  <text x="117" y="942" font-family="'PingFang SC','Microsoft YaHei','Noto Sans SC',sans-serif" font-size="10" fill="#555">骨骼 (米黄)</text>

  <rect x="195" y="930" width="18" height="14" rx="2" fill="rgba(200,50,50,0.15)" stroke="rgba(200,50,50,0.3)" stroke-width="0.6"/>
  <text x="217" y="942" font-family="'PingFang SC','Microsoft YaHei','Noto Sans SC',sans-serif" font-size="10" fill="#555">肌肉 (半透明红)</text>

  <rect x="325" y="930" width="18" height="14" rx="2" fill="#4a5568" stroke="#555" stroke-width="0.6"/>
  <text x="347" y="942" font-family="'PingFang SC','Microsoft YaHei','Noto Sans SC',sans-serif" font-size="10" fill="#555">磁性致动器</text>

  <rect x="445" y="930" width="18" height="14" rx="2" fill="#d97706" stroke="#b45309" stroke-width="0.6"/>
  <text x="467" y="942" font-family="'PingFang SC','Microsoft YaHei','Noto Sans SC',sans-serif" font-size="10" fill="#555">电池 (橙)</text>

  <rect x="555" y="930" width="18" height="14" rx="2" fill="#d4cbb8" stroke="#a09078" stroke-width="0.6"/>
  <text x="577" y="942" font-family="'PingFang SC','Microsoft YaHei','Noto Sans SC',sans-serif" font-size="10" fill="#555">织物/布料</text>

  <line x1="665" y1="937" x2="685" y2="937" stroke="#dc2626" stroke-width="2" marker-end="url(#arrowRed)"/>
  <text x="690" y="942" font-family="'PingFang SC','Microsoft YaHei','Noto Sans SC',sans-serif" font-size="10" fill="#555">力矢量 (红)</text>

  <text x="45" y="962" font-family="'PingFang SC','Microsoft YaHei','Noto Sans SC',sans-serif" font-size="8" fill="#999">数据来源: Skip官网 · The Verge评测 · Wired独立评测 · Arc'teryx合作公告 · IEEE Spectrum</text>

  <text x="800" y="962" font-family="'PingFang SC','Microsoft YaHei','Noto Sans SC',sans-serif" font-size="8" fill="#999" text-anchor="end">Legend: Bone | Muscle | Actuator | Battery | Fabric | Force Vector</text>
</svg>
