<svg xmlns="http://www.w3.org/2000/svg" viewBox="0 0 1200 1200" width="1200" height="1200">
  <defs>
    <linearGradient id="boneGrad" x1="0%" y1="0%" x2="100%" y2="100%">
      <stop offset="0%" stop-color="#ede3cc"/>
      <stop offset="40%" stop-color="#e8ddc0"/>
      <stop offset="70%" stop-color="#dfd2b2"/>
      <stop offset="100%" stop-color="#d4c9a8"/>
    </linearGradient>
    <linearGradient id="boneShadow" x1="0%" y1="0%" x2="50%" y2="100%">
      <stop offset="0%" stop-color="#f5edd8"/>
      <stop offset="100%" stop-color="#c4b898"/>
    </linearGradient>
    <linearGradient id="boneDark" x1="0%" y1="0%" x2="0%" y2="100%">
      <stop offset="0%" stop-color="#d4c9a8"/>
      <stop offset="100%" stop-color="#b8ad90"/>
    </linearGradient>
    <linearGradient id="metalGrad" x1="0%" y1="0%" x2="100%" y2="100%">
      <stop offset="0%" stop-color="#A0AAB5"/>
      <stop offset="40%" stop-color="#8B93A0"/>
      <stop offset="100%" stop-color="#6B7280"/>
    </linearGradient>
    <linearGradient id="metalDark" x1="0%" y1="0%" x2="0%" y2="100%">
      <stop offset="0%" stop-color="#6B7280"/>
      <stop offset="100%" stop-color="#4B5563"/>
    </linearGradient>
    <linearGradient id="metalLight" x1="0%" y1="0%" x2="0%" y2="100%">
      <stop offset="0%" stop-color="#B8BFC8"/>
      <stop offset="100%" stop-color="#9CA3AF"/>
    </linearGradient>
    <linearGradient id="skinGrad" x1="0%" y1="0%" x2="100%" y2="0%">
      <stop offset="0%" stop-color="#f5f0eb"/>
      <stop offset="50%" stop-color="#faf5ef"/>
      <stop offset="100%" stop-color="#f5f0eb"/>
    </linearGradient>
    <linearGradient id="muscleGlow" x1="0%" y1="0%" x2="0%" y2="100%">
      <stop offset="0%" stop-color="rgba(220,38,38,0.05)"/>
      <stop offset="50%" stop-color="rgba(220,38,38,0.10)"/>
      <stop offset="100%" stop-color="rgba(220,38,38,0.06)"/>
    </linearGradient>
    <linearGradient id="springGrad" x1="0" y1="0" x2="0" y2="1">
      <stop offset="0%" stop-color="#d97706" stop-opacity="0.8"/>
      <stop offset="100%" stop-color="#d97706" stop-opacity="0.95"/>
    </linearGradient>
    <marker id="arrowRed" viewBox="0 0 12 12" refX="10" refY="6" markerWidth="8" markerHeight="8" orient="auto">
      <path d="M 0 0 L 12 6 L 0 12 Z" fill="#dc2626"/>
    </marker>
    <marker id="arrowRedSmall" viewBox="0 0 8 8" refX="7" refY="4" markerWidth="5" markerHeight="5" orient="auto">
      <path d="M 0 0 L 8 4 L 0 8 Z" fill="#dc2626"/>
    </marker>
    <marker id="arrowAmber" viewBox="0 0 12 12" refX="10" refY="6" markerWidth="7" markerHeight="7" orient="auto">
      <path d="M 0 0 L 12 6 L 0 12 Z" fill="#d97706"/>
    </marker>
    <marker id="arrowAmberSmall" viewBox="0 0 8 8" refX="7" refY="4" markerWidth="5" markerHeight="5" orient="auto">
      <path d="M 0 0 L 8 4 L 0 8 Z" fill="#d97706"/>
    </marker>
    <marker id="arrowGreen" viewBox="0 0 10 10" refX="8" refY="5" markerWidth="6" markerHeight="6" orient="auto">
      <path d="M 0 0 L 10 5 L 0 10 Z" fill="#16a34a"/>
    </marker>
    <marker id="arrowGray" viewBox="0 0 10 10" refX="8" refY="5" markerWidth="5" markerHeight="5" orient="auto">
      <path d="M 0 0 L 10 5 L 0 10 Z" fill="#9CA3AF"/>
    </marker>
    <filter id="shadow" x="-8%" y="-8%" width="120%" height="120%">
      <feDropShadow dx="2" dy="3" stdDeviation="3" flood-color="rgba(0,0,0,0.15)"/>
    </filter>
    <filter id="softShadow" x="-10%" y="-10%" width="125%" height="125%">
      <feDropShadow dx="1" dy="2" stdDeviation="4" flood-color="rgba(0,0,0,0.08)"/>
    </filter>
    <filter id="glow" x="-20%" y="-20%" width="140%" height="140%">
      <feGaussianBlur stdDeviation="2" result="blur"/>
      <feMerge><feMergeNode in="blur"/><feMergeNode in="SourceGraphic"/></feMerge>
    </filter>
    <clipPath id="leftPane">
      <rect x="0" y="0" width="740" height="1080"/>
    </clipPath>
    <style>
      .label-sm { font-size: 9px; fill: #64748b; font-family: sans-serif; }
      .label-md { font-size: 11px; fill: #334155; font-family: sans-serif; }
      .label-lg { font-size: 13px; fill: #1e293b; font-family: sans-serif; font-weight: bold; }
      .label-em { font-size: 10px; fill: #d97706; font-family: sans-serif; font-weight: bold; }
      .label-force { font-size: 11px; fill: #dc2626; font-family: sans-serif; font-weight: bold; }
      .title-amber { font-size: 18px; fill: #d97706; font-family: sans-serif; font-weight: bold; }
      .title-gray { font-size: 13px; fill: #475569; font-family: sans-serif; font-weight: bold; }
    </style>
  </defs>

  <rect width="1200" height="1200" fill="#ffffff"/>

  <!-- ISOLATION ZONE -->
  <rect x="740" y="0" width="60" height="1200" fill="#fafbfc" opacity="0.4"/>
  <line x1="740" y1="0" x2="740" y2="1200" stroke="#e5e7eb" stroke-width="0.8"/>
  <line x1="800" y1="0" x2="800" y2="1200" stroke="#e5e7eb" stroke-width="0.8"/>

  <!-- ================================================================
       LEFT PANEL — SCIENTIFIC DIAGRAM (clipped)
       ================================================================ -->
  <g clip-path="url(#leftPane)">
    <rect x="20" y="0" width="720" height="1080" fill="#ffffff"/>

    <g>
      <text x="30" y="24" class="label-em" font-size="12">Fig. D 被动弹簧式外骨骼 | 侧面观 Lateral View</text>
      <line x1="30" y1="28" x2="300" y2="28" stroke="#e5e7eb" stroke-width="0.5"/>
    </g>

    <!-- HUMAN BODY -->
    <g filter="url(#softShadow)">
      <path d="M 240,70 C 230,110 225,160 230,210 C 235,260 260,300 285,330 L 475,330 C 500,300 525,260 530,210 C 535,160 530,110 520,70 C 510,60 480,55 380,55 C 280,55 250,60 240,70 Z" fill="url(#skinGrad)" stroke="#e8ddd0" stroke-width="0.8"/>
      <rect x="350" y="30" width="60" height="40" rx="10" fill="#f5f0eb" stroke="#e8ddd0" stroke-width="0.6"/>
      <ellipse cx="380" cy="10" rx="32" ry="26" fill="#f5f0eb" stroke="#e0d5c8" stroke-width="0.8"/>
      <line x1="380" y1="0" x2="380" y2="8" stroke="#dccfc0" stroke-width="0.5"/>
      <line x1="370" y1="14" x2="390" y2="14" stroke="#dccfc0" stroke-width="0.5"/>
    </g>
    <line x1="380" y1="60" x2="380" y2="260" stroke="#d4c9a8" stroke-width="1.2" stroke-dasharray="6,4" opacity="0.5"/>
    <g stroke="#dccfc0" stroke-width="0.6" fill="none" opacity="0.35">
      <path d="M 280,110 Q 320,105 340,115"/><path d="M 420,115 Q 440,105 480,110"/>
      <path d="M 270,140 Q 320,130 340,145"/><path d="M 420,145 Q 440,130 490,140"/>
      <path d="M 265,170 Q 315,155 340,175"/><path d="M 420,175 Q 445,155 495,170"/>
      <path d="M 268,200 Q 318,185 340,205"/><path d="M 420,205 Q 442,185 492,200"/>
    </g>

    <!-- Pelvis -->
    <g filter="url(#shadow)">
      <path d="M 380,255 C 340,252 295,260 270,285 C 250,310 245,340 260,360 C 275,380 295,395 320,405 C 340,412 360,415 380,416 C 400,415 420,412 440,405 C 465,395 485,380 500,360 C 515,340 510,310 490,285 C 465,260 420,252 380,255 Z" fill="url(#boneGrad)" stroke="#c4b898" stroke-width="0.8"/>
      <path d="M 265,290 C 260,305 258,325 265,345" fill="none" stroke="#c4b898" stroke-width="0.6"/>
      <path d="M 495,290 C 500,305 502,325 495,345" fill="none" stroke="#c4b898" stroke-width="0.6"/>
      <ellipse cx="380" cy="400" rx="12" ry="6" fill="url(#boneShadow)" stroke="#b8ad90" stroke-width="0.4"/>
      <ellipse cx="380" cy="290" rx="18" ry="12" fill="url(#boneDark)" opacity="0.3"/>
      <circle cx="290" cy="355" r="18" fill="url(#boneShadow)" stroke="#c4b898" stroke-width="0.8"/><circle cx="290" cy="355" r="13" fill="#dfd2b2" stroke="#c4b898" stroke-width="0.4"/>
      <circle cx="470" cy="355" r="18" fill="url(#boneShadow)" stroke="#c4b898" stroke-width="0.8"/><circle cx="470" cy="355" r="13" fill="#dfd2b2" stroke="#c4b898" stroke-width="0.4"/>
    </g>
    <path d="M 260,290 C 240,310 235,340 250,365 C 265,390 285,400 310,405 C 300,385 295,360 300,335 C 305,310 290,295 260,290 Z" fill="url(#muscleGlow)" stroke="rgba(200,50,50,0.12)" stroke-width="0.5"/>
    <path d="M 500,290 C 520,310 525,340 510,365 C 495,390 475,400 450,405 C 460,385 465,360 460,335 C 455,310 470,295 500,290 Z" fill="url(#muscleGlow)" stroke="rgba(200,50,50,0.12)" stroke-width="0.5"/>

    <!-- Femurs, Quads, Patella, Tibias, Calves, Feet -->
    <g filter="url(#shadow)">
      <circle cx="290" cy="355" r="14" fill="url(#boneGrad)" stroke="#c4b898" stroke-width="0.8"/>
      <path d="M 285,355 Q 278,380 282,400 L 290,398 Q 288,378 292,355 Z" fill="url(#boneGrad)" stroke="#c4b898" stroke-width="0.6"/>
      <path d="M 282,400 C 280,450 278,500 278,550 C 278,600 280,650 285,700 L 298,700 C 293,650 290,600 290,550 C 290,500 292,450 296,400 Z" fill="url(#boneGrad)" stroke="#c4b898" stroke-width="0.7"/>
      <path d="M 296,400 Q 310,415 308,430 L 300,428 Q 300,415 296,400 Z" fill="url(#boneShadow)" stroke="#c4b898" stroke-width="0.5"/>
      <ellipse cx="285" cy="698" rx="10" ry="14" fill="url(#boneGrad)" stroke="#c4b898" stroke-width="0.6"/><ellipse cx="300" cy="698" rx="8" ry="12" fill="url(#boneGrad)" stroke="#c4b898" stroke-width="0.6"/>
      <circle cx="470" cy="355" r="14" fill="url(#boneGrad)" stroke="#c4b898" stroke-width="0.8"/>
      <path d="M 475,355 Q 482,380 478,400 L 470,398 Q 472,378 468,355 Z" fill="url(#boneGrad)" stroke="#c4b898" stroke-width="0.6"/>
      <path d="M 478,400 C 480,450 482,500 482,550 C 482,600 480,650 475,700 L 462,700 C 467,650 470,600 470,550 C 470,500 468,450 464,400 Z" fill="url(#boneGrad)" stroke="#c4b898" stroke-width="0.7"/>
      <path d="M 464,400 Q 450,415 452,430 L 460,428 Q 460,415 464,400 Z" fill="url(#boneShadow)" stroke="#c4b898" stroke-width="0.5"/>
      <ellipse cx="475" cy="698" rx="10" ry="14" fill="url(#boneGrad)" stroke="#c4b898" stroke-width="0.6"/><ellipse cx="460" cy="698" rx="8" ry="12" fill="url(#boneGrad)" stroke="#c4b898" stroke-width="0.6"/>
    </g>
    <g opacity="0.12">
      <path d="M 285,410 C 282,470 280,530 283,590 C 286,630 290,660 295,690 L 285,690 C 282,660 278,630 276,590 C 274,530 277,470 282,410 Z" fill="#dc2626"/>
      <path d="M 283,450 C 278,500 275,550 278,620 C 280,660 283,690 285,695 L 278,695 C 276,660 273,620 272,550 C 271,500 276,450 283,450 Z" fill="#dc2626"/>
      <path d="M 296,450 C 300,500 302,560 300,630 C 298,670 296,695 295,698 L 302,698 C 304,670 306,630 305,560 C 303,500 298,450 296,450 Z" fill="#dc2626"/>
      <path d="M 475,410 C 478,470 480,530 477,590 C 474,630 470,660 465,690 L 475,690 C 478,660 482,630 484,590 C 486,530 483,470 478,410 Z" fill="#dc2626"/>
      <path d="M 477,450 C 482,500 485,550 482,620 C 480,660 477,690 475,695 L 482,695 C 484,660 487,620 488,550 C 489,500 484,450 477,450 Z" fill="#dc2626"/>
      <path d="M 464,450 C 460,500 458,560 460,630 C 462,670 464,695 465,698 L 458,698 C 456,670 454,630 455,560 C 457,500 462,450 464,450 Z" fill="#dc2626"/>
    </g>
    <g filter="url(#softShadow)">
      <ellipse cx="290" cy="705" rx="12" ry="9" fill="url(#boneGrad)" stroke="#c4b898" stroke-width="0.6"/><ellipse cx="290" cy="705" rx="7" ry="5" fill="url(#boneShadow)"/>
      <ellipse cx="470" cy="705" rx="12" ry="9" fill="url(#boneGrad)" stroke="#c4b898" stroke-width="0.6"/><ellipse cx="470" cy="705" rx="7" ry="5" fill="url(#boneShadow)"/>
    </g>
    <g filter="url(#shadow)">
      <ellipse cx="290" cy="700" rx="8" ry="10" fill="url(#boneGrad)" stroke="#c4b898" stroke-width="0.6"/><ellipse cx="285" cy="700" rx="7" ry="10" fill="url(#boneShadow)" stroke="#c4b898" stroke-width="0.5"/>
      <path d="M 283,710 C 280,760 278,810 277,860 C 276,910 278,950 282,980 L 294,980 C 290,950 288,910 287,860 C 286,810 288,760 290,710 Z" fill="url(#boneGrad)" stroke="#c4b898" stroke-width="0.7"/>
      <ellipse cx="470" cy="700" rx="8" ry="10" fill="url(#boneGrad)" stroke="#c4b898" stroke-width="0.6"/><ellipse cx="475" cy="700" rx="7" ry="10" fill="url(#boneShadow)" stroke="#c4b898" stroke-width="0.5"/>
      <path d="M 477,710 C 480,760 482,810 483,860 C 484,910 482,950 478,980 L 466,980 C 470,950 472,910 473,860 C 474,810 472,760 470,710 Z" fill="url(#boneGrad)" stroke="#c4b898" stroke-width="0.7"/>
    </g>
    <g opacity="0.10">
      <path d="M 278,740 C 273,780 271,830 273,870 C 275,900 280,930 288,960 L 280,960 C 274,930 269,900 267,870 C 265,830 268,780 275,740 Z" fill="#dc2626"/>
      <path d="M 482,740 C 487,780 489,830 487,870 C 485,900 480,930 472,960 L 480,960 C 486,930 491,900 493,870 C 495,830 492,780 485,740 Z" fill="#dc2626"/>
    </g>
    <g filter="url(#softShadow)">
      <path d="M 280,980 L 278,1010 C 278,1020 282,1025 290,1025 L 296,1020 C 298,1015 296,1005 294,980 Z" fill="#f5f0eb" stroke="#e0d5c8" stroke-width="0.6"/>
      <path d="M 480,980 L 482,1010 C 482,1020 478,1025 470,1025 L 464,1020 C 462,1015 464,1005 466,980 Z" fill="#f5f0eb" stroke="#e0d5c8" stroke-width="0.6"/>
    </g>

    <!-- ==================== PASSIVE SPRING EXOSKELETON ==================== -->

    <!-- Pelvic belt -->
    <g filter="url(#shadow)">
      <path d="M 225,260 C 215,285 210,310 220,330 C 228,345 245,352 265,355 L 495,355 C 515,352 532,345 540,330 C 550,310 545,285 535,260 C 525,248 495,245 380,245 C 265,245 235,248 225,260 Z" fill="url(#metalDark)" stroke="#4B5563" stroke-width="1.5" opacity="0.7"/>
    </g>

    <!-- Left side: spring mechanism across hip -->
    <g filter="url(#shadow)">
      <!-- Lower attachment on femur -->
      <circle cx="280" cy="420" r="6" fill="#6B7280" stroke="#4B5563" stroke-width="1"/>
      <!-- Spring coil representation -->
      <path d="M 285,395 L 285,385 L 278,380 L 292,372 L 278,364 L 292,356 L 278,348 L 292,340 L 285,335 L 285,325"
            fill="none" stroke="url(#springGrad)" stroke-width="3" stroke-linecap="round"/>
      <!-- Upper attachment on pelvis -->
      <circle cx="285" cy="320" r="6" fill="#6B7280" stroke="#4B5563" stroke-width="1"/>
      <!-- Spring housing tube -->
      <path d="M 280,318 L 275,398" fill="none" stroke="#9CA3AF" stroke-width="5" opacity="0.25" stroke-linecap="round"/>
    </g>

    <!-- Right side: spring mechanism -->
    <g filter="url(#shadow)">
      <circle cx="480" cy="420" r="6" fill="#6B7280" stroke="#4B5563" stroke-width="1"/>
      <path d="M 475,395 L 475,385 L 482,380 L 468,372 L 482,364 L 468,356 L 482,348 L 468,340 L 475,335 L 475,325"
            fill="none" stroke="url(#springGrad)" stroke-width="3" stroke-linecap="round"/>
      <circle cx="475" cy="320" r="6" fill="#6B7280" stroke="#4B5563" stroke-width="1"/>
      <path d="M 480,318 L 485,398" fill="none" stroke="#9CA3AF" stroke-width="5" opacity="0.25" stroke-linecap="round"/>
    </g>

    <!-- Damper element (left) -->
    <g filter="url(#shadow)">
      <rect x="258" y="355" width="18" height="30" rx="3" fill="url(#metalGrad)" stroke="#4B5563" stroke-width="0.8"/>
      <rect x="262" y="360" width="10" height="20" rx="2" fill="#6B7280"/>
      <line x1="262" y1="375" x2="272" y2="375" stroke="#9CA3AF" stroke-width="0.8"/>
    </g>

    <!-- Damper element (right) -->
    <g filter="url(#shadow)">
      <rect x="484" y="355" width="18" height="30" rx="3" fill="url(#metalGrad)" stroke="#4B5563" stroke-width="0.8"/>
      <rect x="488" y="360" width="10" height="20" rx="2" fill="#6B7280"/>
      <line x1="488" y1="375" x2="498" y2="375" stroke="#9CA3AF" stroke-width="0.8"/>
    </g>

    <!-- Energy storage indicator (visual hint of spring compression) -->
    <g opacity="0.15">
      <path d="M 270,355 L 270,340" stroke="#16a34a" stroke-width="1.5" marker-end="url(#arrowGreen)"/>
      <path d="M 490,355 L 490,340" stroke="#16a34a" stroke-width="1.5" marker-end="url(#arrowGreen)"/>
    </g>

    <!-- Thigh braces -->
    <g filter="url(#shadow)">
      <path d="M 282,420 C 280,470 278,530 279,580 C 280,630 283,670 286,710 L 296,710 C 293,670 291,630 290,580 C 289,530 291,470 294,420 Z" fill="none" stroke="url(#metalLight)" stroke-width="5" stroke-linecap="round"/>
      <path d="M 478,420 C 480,470 482,530 481,580 C 480,630 477,670 474,710 L 464,710 C 467,670 469,630 470,580 C 471,530 469,470 464,420 Z" fill="none" stroke="url(#metalLight)" stroke-width="5" stroke-linecap="round"/>
    </g>

    <!-- Adjustable mechanical stop (left) -->
    <g filter="url(#shadow)">
      <rect x="266" y="410" width="8" height="12" rx="2" fill="#d97706" opacity="0.5"/>
    </g>
    <g filter="url(#shadow)">
      <rect x="486" y="410" width="8" height="12" rx="2" fill="#d97706" opacity="0.5"/>
    </g>

    <!-- ==================== NUMBERED ANNOTATIONS ==================== -->
    <line x1="285" y1="320" x2="230" y2="310" stroke="#d97706" stroke-width="0.8"/>
    <circle cx="224" cy="308" r="9" fill="#d97706"/>
    <text x="224" y="312" font-size="10" fill="#fff" font-family="sans-serif" text-anchor="middle" font-weight="bold">1</text>
    <text x="208" y="304" class="label-sm" font-size="8" fill="#d97706" text-anchor="end">骨盆固定锚点</text>

    <line x1="268" y1="365" x2="230" y2="365" stroke="#d97706" stroke-width="0.8"/>
    <circle cx="224" cy="365" r="9" fill="#d97706"/>
    <text x="224" y="369" font-size="10" fill="#fff" font-family="sans-serif" text-anchor="middle" font-weight="bold">2</text>
    <text x="208" y="360" class="label-sm" font-size="8" fill="#d97706" text-anchor="end">阻尼器</text>

    <line x1="292" y1="370" x2="320" y2="355" stroke="#d97706" stroke-width="0.8"/>
    <circle cx="326" cy="353" r="9" fill="#d97706"/>
    <text x="326" y="357" font-size="10" fill="#fff" font-family="sans-serif" text-anchor="middle" font-weight="bold">3</text>
    <text x="340" y="352" class="label-sm" font-size="8" fill="#d97706">弹簧 (储能)</text>

    <line x1="280" y1="420" x2="250" y2="430" stroke="#d97706" stroke-width="0.8"/>
    <circle cx="244" cy="432" r="9" fill="#d97706"/>
    <text x="244" y="436" font-size="10" fill="#fff" font-family="sans-serif" text-anchor="middle" font-weight="bold">4</text>
    <text x="230" y="426" class="label-sm" font-size="8" fill="#d97706" text-anchor="end">股骨锚点</text>

    <line x1="272" y1="412" x2="250" y2="405" stroke="#d97706" stroke-width="0.8"/>
    <circle cx="244" cy="403" r="9" fill="#d97706"/>
    <text x="244" y="407" font-size="10" fill="#fff" font-family="sans-serif" text-anchor="middle" font-weight="bold">5</text>
    <text x="230" y="398" class="label-sm" font-size="8" fill="#d97706" text-anchor="end">机械限位挡块</text>

    <line x1="296" y1="550" x2="320" y2="540" stroke="#d97706" stroke-width="0.8"/>
    <circle cx="326" cy="538" r="9" fill="#d97706"/>
    <text x="326" y="542" font-size="10" fill="#fff" font-family="sans-serif" text-anchor="middle" font-weight="bold">6</text>
    <text x="340" y="536" class="label-sm" font-size="8" fill="#d97706">大腿支撑杆</text>

    <line x1="286" y1="710" x2="320" y2="710" stroke="#d97706" stroke-width="0.8"/>
    <circle cx="326" cy="710" r="9" fill="#d97706"/>
    <text x="326" y="714" font-size="10" fill="#fff" font-family="sans-serif" text-anchor="middle" font-weight="bold">7</text>
    <text x="340" y="708" class="label-sm" font-size="8" fill="#d97706">膝关节铰链</text>

    <line x1="292" y1="340" x2="320" y2="330" stroke="#d97706" stroke-width="0.8"/>
    <circle cx="326" cy="328" r="9" fill="#d97706"/>
    <text x="326" y="332" font-size="10" fill="#fff" font-family="sans-serif" text-anchor="middle" font-weight="bold">8</text>
    <text x="340" y="326" class="label-sm" font-size="8" fill="#d97706">弹簧预紧调节</text>

    <line x1="225" y1="270" x2="170" y2="260" stroke="#d97706" stroke-width="0.8"/>
    <circle cx="164" cy="258" r="9" fill="#d97706"/>
    <text x="164" y="262" font-size="10" fill="#fff" font-family="sans-serif" text-anchor="middle" font-weight="bold">9</text>
    <text x="148" y="252" class="label-sm" font-size="8" fill="#d97706" text-anchor="end">骨盆束带</text>

    <line x1="475" y1="340" x2="510" y2="330" stroke="#d97706" stroke-width="0.8"/>
    <circle cx="516" cy="328" r="9" fill="#d97706"/>
    <text x="516" y="332" font-size="10" fill="#fff" font-family="sans-serif" text-anchor="middle" font-weight="bold">10</text>
    <text x="530" y="326" class="label-sm" font-size="8" fill="#d97706">右侧弹簧模组</text>

    <!-- FORCE VECTORS -->
    <line x1="380" y1="10" x2="380" y2="-30" stroke="#dc2626" stroke-width="3" marker-end="url(#arrowRed)"/>
    <text x="388" y="-18" class="label-force">W (体重)</text>
    <path d="M 255,390 L 235,400" stroke="#16a34a" stroke-width="2" stroke-dasharray="4,2" marker-end="url(#arrowGreen)"/>
    <text x="218" y="408" class="label-sm" font-size="8" fill="#16a34a" text-anchor="end">F_spring (储能)</text>
    <path d="M 505,390 L 525,400" stroke="#16a34a" stroke-width="2" stroke-dasharray="4,2" marker-end="url(#arrowGreen)"/>
    <text x="530" y="408" class="label-sm" font-size="8" fill="#16a34a">F_spring</text>
    <path d="M 260,355 L 240,355" stroke="#dc2626" stroke-width="2.5" marker-end="url(#arrowRed)"/>
    <text x="222" y="353" class="label-force" font-size="10">F_joint</text>
    <path d="M 500,355 L 520,355" stroke="#dc2626" stroke-width="2.5" marker-end="url(#arrowRed)"/>
    <text x="528" y="353" class="label-force" font-size="10">F_joint</text>
    <line x1="285" y1="1030" x2="285" y2="1055" stroke="#dc2626" stroke-width="2" marker-end="url(#arrowRed)"/>
    <text x="270" y="1068" class="label-force" font-size="9">GRF</text>
    <line x1="475" y1="1030" x2="475" y2="1055" stroke="#dc2626" stroke-width="2" marker-end="url(#arrowRed)"/>
    <text x="478" y="1068" class="label-force" font-size="9">GRF</text>

    <!-- PRODUCT CALLOUTS -->
    <g transform="translate(540, 55)">
      <rect x="0" y="0" width="180" height="140" rx="5" fill="#fff" stroke="#d97706" stroke-width="1.2" filter="url(#shadow)"/>
      <rect x="0" y="0" width="180" height="22" rx="5" fill="#d97706" opacity="0.9"/>
      <text x="90" y="15" font-size="9" fill="#fff" font-family="sans-serif" text-anchor="middle" font-weight="bold">Spring Exoskeleton</text>
      <text x="8" y="34" class="label-sm" font-size="8">重量：1.0 – 2.0 kg</text>
      <text x="8" y="48" class="label-sm" font-size="8">驱动：被动弹簧</text>
      <text x="8" y="62" class="label-sm" font-size="8">储能：每次步态 ~5-10 J</text>
      <text x="8" y="76" class="label-sm" font-size="8">无电机 / 无电池</text>
      <text x="8" y="90" class="label-sm" font-size="8">应用：步态节能辅助</text>
      <line x1="8" y1="96" x2="172" y2="96" stroke="#e5e7eb" stroke-width="0.3"/>
      <text x="8" y="110" class="label-em" font-size="8">最低重量 / 零功耗</text>
      <text x="8" y="126" class="label-sm" font-size="8" fill="#94a3b8">被动弹簧储能+阻尼</text>
    </g>

    <g transform="translate(540, 210)">
      <rect x="0" y="0" width="180" height="130" rx="5" fill="#fff" stroke="#d97706" stroke-width="1.2" filter="url(#shadow)"/>
      <rect x="0" y="0" width="180" height="22" rx="5" fill="#d97706" opacity="0.9"/>
      <text x="90" y="15" font-size="9" fill="#fff" font-family="sans-serif" text-anchor="middle" font-weight="bold">Mile High (NASA)</text>
      <text x="8" y="34" class="label-sm" font-size="8">重量：1.5 kg</text>
      <text x="8" y="48" class="label-sm" font-size="8">储能：扭杆弹簧</text>
      <text x="8" y="62" class="label-sm" font-size="8">节能：~6% 代谢能</text>
      <text x="8" y="76" class="label-sm" font-size="8">应用：长距离行军</text>
      <text x="8" y="90" class="label-sm" font-size="8">价格：原型阶段</text>
      <line x1="8" y1="96" x2="172" y2="96" stroke="#e5e7eb" stroke-width="0.3"/>
      <text x="8" y="110" class="label-em" font-size="8">扭杆弹簧研究先驱</text>
    </g>

    <!-- Anatomy labels -->
    <line x1="350" y1="280" x2="330" y2="270" stroke="#64748b" stroke-width="0.6"/>
    <line x1="330" y1="270" x2="220" y2="270" stroke="#64748b" stroke-width="0.6" stroke-dasharray="3,2"/>
    <text x="218" y="275" class="label-md" font-size="10" text-anchor="end">骨盆 Pelvis</text>
    <line x1="285" y1="450" x2="220" y2="440" stroke="#64748b" stroke-width="0.6"/>
    <text x="218" y="445" class="label-md" font-size="10" text-anchor="end">股骨 Femur</text>

    <g transform="translate(30, 1020)">
      <rect x="0" y="0" width="700" height="48" rx="4" fill="#fafbfc" stroke="#eef0f2" stroke-width="0.5"/>
      <rect x="10" y="10" width="14" height="14" rx="2" fill="url(#boneGrad)" stroke="#c4b898" stroke-width="0.6"/>
      <text x="28" y="22" class="label-sm" font-size="9">骨骼 Bone</text>
      <rect x="100" y="10" width="14" height="14" rx="2" fill="rgba(220,38,38,0.15)" stroke="rgba(220,38,38,0.3)" stroke-width="0.6"/>
      <text x="118" y="22" class="label-sm" font-size="9">肌肉 Muscle</text>
      <rect x="190" y="10" width="14" height="14" rx="2" fill="url(#metalGrad)" stroke="#6B7280" stroke-width="0.6"/>
      <text x="208" y="22" class="label-sm" font-size="9">框架 Frame</text>
      <rect x="280" y="10" width="14" height="14" rx="2" fill="#d97706"/>
      <text x="298" y="22" class="label-sm" font-size="9">弹簧/阻尼</text>
      <line x1="380" y1="16" x2="395" y2="16" stroke="#16a34a" stroke-width="2" marker-end="url(#arrowGreen)"/>
      <text x="402" y="22" class="label-sm" font-size="9">储能方向</text>
      <line x1="480" y1="16" x2="495" y2="16" stroke="#dc2626" stroke-width="2.5" marker-end="url(#arrowRed)"/>
      <text x="502" y="22" class="label-sm" font-size="9">力矢量</text>
      <text x="10" y="42" class="label-sm" font-size="8" fill="#94a3b8">被动弹簧式髋外骨骼 · Spring Exoskeleton / Mile High 技术路线</text>
    </g>
  </g>

  <!-- RIGHT PANEL -->
  <g transform="translate(808, 16)">
    <rect x="-8" y="0" width="380" height="60" rx="4" fill="#fefdf8" stroke="#f0e0c0" stroke-width="0.5"/>
    <rect x="-8" y="0" width="4" height="60" rx="2" fill="#d97706"/>
    <text x="12" y="26" class="title-amber">被动弹簧式</text>
    <text x="12" y="46" class="label-sm" font-size="10" fill="#9ca3af">PASSIVE SPRING HIP EXOSKELETON</text>
    <rect x="262" y="10" width="100" height="24" rx="12" fill="#d97706" opacity="0.15"/>
    <text x="312" y="27" font-size="12" fill="#d97706" font-family="sans-serif" text-anchor="middle" font-weight="bold">部分借鉴</text>

    <g transform="translate(0, 80)">
      <rect x="-8" y="0" width="380" height="130" rx="4" fill="#fafbfc" stroke="#eef0f2" stroke-width="0.5"/>
      <rect x="-8" y="0" width="3" height="130" rx="1.5" fill="#94a3b8"/>
      <text x="12" y="22" class="title-gray" font-size="14">架构特征</text>
      <text x="140" y="22" class="label-sm" fill="#94a3b8">ARCHITECTURE</text>
      <line x1="12" y1="28" x2="364" y2="28" stroke="#e2e8f0" stroke-width="0.5"/>
      <g font-size="12" fill="#475569" font-family="sans-serif">
        <circle cx="16" cy="48" r="3.5" fill="#d97706"/>
        <text x="28" y="53">骨盆固定带 + 弹簧模组跨髋关节</text>
        <circle cx="16" cy="68" r="3.5" fill="#d97706"/>
        <text x="28" y="73">弹簧储能 + 释放辅助步态</text>
        <circle cx="16" cy="88" r="3.5" fill="#d97706"/>
        <text x="28" y="93">阻尼器控制释放速度</text>
        <circle cx="16" cy="108" r="3.5" fill="#d97706"/>
        <text x="28" y="113">无电机 / 无电池 / 零功耗</text>
        <circle cx="16" cy="128" r="3.5" fill="#d97706"/>
        <text x="28" y="133">机械限位挡块保护关节</text>
      </g>
    </g>

    <g transform="translate(0, 228)">
      <rect x="-8" y="0" width="380" height="145" rx="4" fill="#fafbfc" stroke="#eef0f2" stroke-width="0.5"/>
      <rect x="-8" y="0" width="3" height="145" rx="1.5" fill="#94a3b8"/>
      <text x="12" y="22" class="title-gray" font-size="14">技术参数</text>
      <text x="120" y="22" class="label-sm" fill="#94a3b8">PARAMETERS</text>
      <line x1="12" y1="28" x2="364" y2="28" stroke="#e2e8f0" stroke-width="0.5"/>
      <g font-size="12" fill="#475569" font-family="sans-serif">
        <text x="16" y="50">系统重量</text>
        <text x="160" y="50" fill="#1f2937" font-weight="bold">1.0 – 2.0 kg</text>
        <text x="16" y="70">髋关节储能</text>
        <text x="160" y="70" fill="#1f2937" font-weight="bold">5 – 10 J/步</text>
        <text x="16" y="90">驱动方式</text>
        <text x="160" y="90" fill="#1f2937" font-weight="bold">弹簧被动储能</text>
        <text x="16" y="110">代表产品</text>
        <text x="160" y="110" fill="#1f2937" font-weight="bold">SpringExo / Mile High</text>
        <text x="16" y="130">核心优势</text>
        <text x="160" y="130" fill="#1f2937" font-weight="bold">最低重量，零功耗</text>
      </g>
    </g>

    <g transform="translate(0, 392)">
      <rect x="-8" y="0" width="380" height="155" rx="4" fill="#fefdf8" stroke="#f0e0c0" stroke-width="0.5"/>
      <rect x="-8" y="0" width="3" height="155" rx="1.5" fill="#d97706"/>
      <text x="12" y="22" class="title-gray" font-size="14">工作原理</text>
      <text x="110" y="22" class="label-sm" fill="#94a3b8">WORKING PRINCIPLE</text>
      <line x1="12" y1="28" x2="364" y2="28" stroke="#f0e0c0" stroke-width="0.5"/>
      <g font-size="12" fill="#475569" font-family="sans-serif">
        <text x="16" y="50">弹簧储能循环：</text>
        <text x="16" y="70">1. 髋屈曲 (摆动相) — 弹簧压缩储能</text>
        <text x="16" y="88">2. 髋伸展 (支撑相) — 弹簧释放助力</text>
        <text x="16" y="106">3. 阻尼器控制释放速度防止冲击</text>
        <text x="16" y="124">4. 机械限位保护关节安全范围</text>
        <line x1="16" y1="132" x2="364" y2="132" stroke="#e5e7eb" stroke-width="0.3"/>
        <text x="16" y="148" fill="#d97706" font-weight="bold">效果：</text>
        <text x="76" y="148" fill="#475569">代谢能耗降低 ~6% (实测)</text>
      </g>
    </g>

    <g transform="translate(0, 566)">
      <rect x="-8" y="0" width="380" height="115" rx="4" fill="#fefcf8" stroke="#fde68a" stroke-width="0.5"/>
      <rect x="-8" y="0" width="380" height="26" rx="4" fill="#d97706" opacity="0.1"/>
      <text x="12" y="18" font-size="12" fill="#d97706" font-family="sans-serif" font-weight="bold">Bones 评估：部分借鉴</text>
      <g font-size="12" fill="#475569" font-family="sans-serif">
        <text x="16" y="48">被动弹簧是降低外骨骼重量的终极方案</text>
        <text x="16" y="66">1 kg 零功耗架构非常有吸引力</text>
        <line x1="16" y1="74" x2="364" y2="74" stroke="#fde68a" stroke-width="0.3"/>
        <text x="16" y="92" fill="#d97706" font-weight="bold">注意：</text>
        <text x="86" y="92" fill="#475569">纯被动助力有限 (~6% 代谢节省)</text>
        <text x="86" y="110" fill="#475569">可作为混合式辅助组件</text>
      </g>
    </g>

    <g transform="translate(0, 700)">
      <rect x="-8" y="0" width="380" height="110" rx="4" fill="#fafbfc" stroke="#eef0f2" stroke-width="0.5"/>
      <rect x="-8" y="0" width="3" height="110" rx="1.5" fill="#94a3b8"/>
      <text x="12" y="22" class="title-gray" font-size="13">市场竞争分析</text>
      <line x1="12" y1="28" x2="364" y2="28" stroke="#e2e8f0" stroke-width="0.3"/>
      <g font-size="12" fill="#475569" font-family="sans-serif">
        <text x="16" y="48">学术研究多 (Stanford/Carnegie Mellon/NASA)</text>
        <text x="16" y="66">商业化产品极少，助力效果有限</text>
        <text x="16" y="84">弹簧材料 (SMA/碳纤维) 决定性能</text>
        <text x="16" y="102">适合作为其他架构的补充储能组件</text>
      </g>
    </g>

    <g transform="translate(0, 828)">
      <rect x="-8" y="0" width="380" height="115" rx="4" fill="#fafbfc" stroke="#eef0f2" stroke-width="0.5"/>
      <rect x="-8" y="0" width="3" height="115" rx="1.5" fill="#94a3b8"/>
      <text x="12" y="22" class="title-gray" font-size="13">关键学习点</text>
      <line x1="12" y1="28" x2="364" y2="28" stroke="#e2e8f0" stroke-width="0.3"/>
      <g font-size="12" fill="#475569" font-family="sans-serif">
        <text x="16" y="46">被动弹簧是架构简化的极致 (1 kg / 零功耗)</text>
        <text x="16" y="64">材料科学 (高储能密度弹簧) 是技术核心</text>
        <text x="16" y="82">适合作为主动系统的辅助储能模块</text>
        <text x="16" y="100">阻尼器匹配弹簧刚度是调校关键</text>
      </g>
    </g>
  </g>

  <!-- BOTTOM LEGEND -->
  <g transform="translate(0, 1100)">
    <rect x="20" y="0" width="1160" height="50" rx="4" fill="#fafbfc" stroke="#eef0f2" stroke-width="0.5"/>
    <rect x="40" y="10" width="18" height="18" rx="3" fill="url(#boneGrad)" stroke="#c4b898" stroke-width="0.8"/>
    <text x="62" y="24" font-size="12" fill="#475569" font-family="sans-serif" font-weight="500">骨骼</text>
    <rect x="110" y="10" width="18" height="18" rx="3" fill="rgba(220,38,38,0.2)" stroke="rgba(220,38,38,0.4)" stroke-width="0.8"/>
    <text x="132" y="24" font-size="12" fill="#475569" font-family="sans-serif" font-weight="500">肌肉</text>
    <rect x="180" y="10" width="18" height="18" rx="3" fill="url(#metalGrad)" stroke="#6B7280" stroke-width="0.8"/>
    <text x="202" y="24" font-size="12" fill="#475569" font-family="sans-serif" font-weight="500">框架</text>
    <rect x="270" y="10" width="18" height="18" rx="3" fill="#d97706" stroke="#b45309" stroke-width="0.8"/>
    <text x="292" y="24" font-size="12" fill="#475569" font-family="sans-serif" font-weight="500">弹簧/阻尼</text>
    <line x1="380" y1="19" x2="400" y2="19" stroke="#16a34a" stroke-width="2.5" marker-end="url(#arrowGreen)"/>
    <text x="408" y="24" font-size="12" fill="#475569" font-family="sans-serif" font-weight="500">储能方向</text>
    <line x1="500" y1="19" x2="520" y2="19" stroke="#dc2626" stroke-width="3" marker-end="url(#arrowRed)"/>
    <text x="528" y="24" font-size="12" fill="#475569" font-family="sans-serif" font-weight="500">力矢量</text>
    <line x1="610" y1="10" x2="630" y2="10" stroke="#e5e7eb" stroke-width="0.8"/>
    <text x="635" y="24" font-size="12" fill="#475569" font-family="sans-serif" font-weight="500">评估：</text>
    <rect x="706" y="10" width="18" height="18" rx="3" fill="#0096f0"/>
    <text x="728" y="24" font-size="12" fill="#475569" font-family="sans-serif" font-weight="500">推荐采用</text>
    <rect x="804" y="10" width="18" height="18" rx="3" fill="#d97706"/>
    <text x="826" y="24" font-size="12" fill="#475569" font-family="sans-serif" font-weight="500">部分借鉴</text>
    <rect x="902" y="10" width="18" height="18" rx="3" fill="#9E9E9E"/>
    <text x="924" y="24" font-size="12" fill="#475569" font-family="sans-serif" font-weight="500">仅跟踪</text>
    <line x1="40" y1="34" x2="1140" y2="34" stroke="#e2e8f0" stroke-width="0.3"/>
    <text x="580" y="44" font-size="9" fill="#a0aec0" font-family="sans-serif" text-anchor="middle">附录 C · 髋关节外骨骼架构分析 | Bones &amp; Manifold · Nexum Project 2026</text>
  </g>

  <!-- OVERLAY: Spring Mechanism Detail -->
  <g transform="translate(50, 850)" clip-path="url(#leftPane)">
    <rect x="0" y="0" width="310" height="190" rx="5" fill="#fafbfc" stroke="#eef0f2" stroke-width="0.8" filter="url(#softShadow)"/>
    <text x="12" y="20" class="title-amber" font-size="11">弹簧阻尼系统详图</text>
    <text x="12" y="34" class="label-sm" font-size="8">SPRING-DAMPER — CROSS SECTION</text>
    <line x1="12" y1="38" x2="298" y2="38" stroke="#e5e7eb" stroke-width="0.5"/>

    <g transform="translate(15, 48)">
      <!-- Spring schematic -->
      <rect x="0" y="0" width="120" height="80" rx="4" fill="#fff" stroke="#e5e7eb" stroke-width="0.8"/>
      <!-- Coil spring -->
      <path d="M 20,70 L 20,60 L 30,55 L 10,45 L 30,35 L 10,25 L 30,15 L 20,10 L 20,5"
            fill="none" stroke="#d97706" stroke-width="2.5" stroke-linecap="round"/>
      <!-- Damper -->
      <rect x="50" y="20" width="40" height="50" rx="3" fill="url(#metalGrad)" stroke="#4B5563" stroke-width="0.8"/>
      <rect x="55" y="25" width="30" height="40" rx="2" fill="#6B7280"/>
      <line x1="55" y1="45" x2="85" y2="45" stroke="#9CA3AF" stroke-width="1.5"/>
      <!-- Force direction -->
      <path d="M 20,5 L 20,-10" stroke="#16a34a" stroke-width="1.5" marker-end="url(#arrowGreen)"/>
      <text x="26" y="-5" class="label-sm" font-size="6" fill="#16a34a">压缩</text>
      <path d="M 20,70 L 20,85" stroke="#d97706" stroke-width="1.5" marker-end="url(#arrowAmberSmall)"/>
      <text x="26" y="80" class="label-sm" font-size="6" fill="#d97706">释放</text>
    </g>

    <g transform="translate(150, 48)">
      <text x="0" y="0" class="label-sm" font-size="9" fill="#475569">弹簧参数</text>
      <text x="0" y="16" class="label-sm" font-size="8" fill="#64748b">刚度 k：10-40 N/mm</text>
      <text x="0" y="28" class="label-sm" font-size="8" fill="#64748b">预紧力：50 N</text>
      <text x="0" y="40" class="label-sm" font-size="8" fill="#64748b">最大行程：30 mm</text>
      <text x="0" y="52" class="label-sm" font-size="8" fill="#64748b">储能：5-10 J/步</text>
      <line x1="0" y1="60" x2="150" y2="60" stroke="#e5e7eb" stroke-width="0.3"/>
      <text x="0" y="74" class="label-sm" font-size="8" fill="#d97706" font-weight="bold">阻尼器参数：</text>
      <text x="0" y="86" class="label-sm" font-size="8" fill="#64748b">阻尼系数 c：0.5-2 Ns/mm</text>
      <text x="0" y="98" class="label-sm" font-size="8" fill="#64748b">温度范围：-20~60°C</text>
      <text x="0" y="110" class="label-sm" font-size="8" fill="#64748b">材料：高碳钢 / 钛合金</text>
    </g>
  </g>
  <g transform="translate(50, 750)" clip-path="url(#leftPane)">
    <rect x="0" y="0" width="660" height="70" rx="4" fill="#fefdf8" stroke="#fde68a" stroke-width="0.5"/>
    <text x="12" y="16" class="label-sm" font-size="8" fill="#475569">注：被动弹簧式外骨骼是最轻量的髋助力方案 (1-2 kg, 零功耗)，SpringExo (Stanford, 2017) 和 Mile High (NASA, 2019)</text>
    <text x="12" y="30" class="label-sm" font-size="8" fill="#475569">是代表研究。代谢节省约 6%，助力有限但极低重量优势明显。适合作为主动系统的辅助储能模块。</text>
    <text x="12" y="44" class="label-sm" font-size="8" fill="#64748b">弹簧材料：SAE 5160 弹簧钢 (V1) / Ti-6Al-4V 钛合金 (V2) / 碳纤维复合 (实验) | 阻尼：油压可调式</text>
  </g>
</svg>
