<svg xmlns="http://www.w3.org/2000/svg" viewBox="0 0 1200 1200" width="1200" height="1200">
  <defs>
    <linearGradient id="boneGrad" x1="0%" y1="0%" x2="100%" y2="100%">
      <stop offset="0%" stop-color="#ede3cc"/>
      <stop offset="40%" stop-color="#e8ddc0"/>
      <stop offset="70%" stop-color="#dfd2b2"/>
      <stop offset="100%" stop-color="#d4c9a8"/>
    </linearGradient>
    <linearGradient id="boneShadow" x1="0%" y1="0%" x2="50%" y2="100%">
      <stop offset="0%" stop-color="#f5edd8"/>
      <stop offset="100%" stop-color="#c4b898"/>
    </linearGradient>
    <linearGradient id="boneDark" x1="0%" y1="0%" x2="0%" y2="100%">
      <stop offset="0%" stop-color="#d4c9a8"/>
      <stop offset="100%" stop-color="#b8ad90"/>
    </linearGradient>
    <linearGradient id="metalGrad" x1="0%" y1="0%" x2="100%" y2="100%">
      <stop offset="0%" stop-color="#A0AAB5"/>
      <stop offset="40%" stop-color="#8B93A0"/>
      <stop offset="100%" stop-color="#6B7280"/>
    </linearGradient>
    <linearGradient id="metalDark" x1="0%" y1="0%" x2="0%" y2="100%">
      <stop offset="0%" stop-color="#6B7280"/>
      <stop offset="100%" stop-color="#4B5563"/>
    </linearGradient>
    <linearGradient id="metalLight" x1="0%" y1="0%" x2="0%" y2="100%">
      <stop offset="0%" stop-color="#B8BFC8"/>
      <stop offset="100%" stop-color="#9CA3AF"/>
    </linearGradient>
    <linearGradient id="skinGrad" x1="0%" y1="0%" x2="100%" y2="0%">
      <stop offset="0%" stop-color="#f5f0eb"/>
      <stop offset="50%" stop-color="#faf5ef"/>
      <stop offset="100%" stop-color="#f5f0eb"/>
    </linearGradient>
    <linearGradient id="muscleGlow" x1="0%" y1="0%" x2="0%" y2="100%">
      <stop offset="0%" stop-color="rgba(220,38,38,0.05)"/>
      <stop offset="50%" stop-color="rgba(220,38,38,0.10)"/>
      <stop offset="100%" stop-color="rgba(220,38,38,0.06)"/>
    </linearGradient>
    <linearGradient id="mod1Grad" x1="0" y1="0" x2="0" y2="1">
      <stop offset="0%" stop-color="#38bdf8" stop-opacity="0.7"/>
      <stop offset="100%" stop-color="#0096f0" stop-opacity="0.9"/>
    </linearGradient>
    <linearGradient id="mod2Grad" x1="0" y1="0" x2="0" y2="1">
      <stop offset="0%" stop-color="#818cf8" stop-opacity="0.7"/>
      <stop offset="100%" stop-color="#6366f1" stop-opacity="0.9"/>
    </linearGradient>
    <linearGradient id="mod3Grad" x1="0" y1="0" x2="0" y2="1">
      <stop offset="0%" stop-color="#f472b6" stop-opacity="0.7"/>
      <stop offset="100%" stop-color="#ec4899" stop-opacity="0.9"/>
    </linearGradient>
    <marker id="arrowRed" viewBox="0 0 12 12" refX="10" refY="6" markerWidth="8" markerHeight="8" orient="auto">
      <path d="M 0 0 L 12 6 L 0 12 Z" fill="#dc2626"/>
    </marker>
    <marker id="arrowBlue" viewBox="0 0 12 12" refX="10" refY="6" markerWidth="7" markerHeight="7" orient="auto">
      <path d="M 0 0 L 12 6 L 0 12 Z" fill="#0096f0"/>
    </marker>
    <marker id="arrowGray" viewBox="0 0 10 10" refX="8" refY="5" markerWidth="5" markerHeight="5" orient="auto">
      <path d="M 0 0 L 10 5 L 0 10 Z" fill="#9CA3AF"/>
    </marker>
    <filter id="shadow" x="-8%" y="-8%" width="120%" height="120%">
      <feDropShadow dx="2" dy="3" stdDeviation="3" flood-color="rgba(0,0,0,0.15)"/>
    </filter>
    <filter id="softShadow" x="-10%" y="-10%" width="125%" height="125%">
      <feDropShadow dx="1" dy="2" stdDeviation="4" flood-color="rgba(0,0,0,0.08)"/>
    </filter>
    <clipPath id="leftPane">
      <rect x="0" y="0" width="740" height="1080"/>
    </clipPath>
    <style>
      .label-sm { font-size: 9px; fill: #64748b; font-family: sans-serif; }
      .label-md { font-size: 11px; fill: #334155; font-family: sans-serif; }
      .label-lg { font-size: 13px; fill: #1e293b; font-family: sans-serif; font-weight: bold; }
      .label-em { font-size: 10px; fill: #0096f0; font-family: sans-serif; font-weight: bold; }
      .label-force { font-size: 11px; fill: #dc2626; font-family: sans-serif; font-weight: bold; }
      .title-blue { font-size: 18px; fill: #0096f0; font-family: sans-serif; font-weight: bold; }
      .title-gray { font-size: 13px; fill: #475569; font-family: sans-serif; font-weight: bold; }
    </style>
  </defs>

  <rect width="1200" height="1200" fill="#ffffff"/>

  <!-- ISOLATION ZONE -->
  <rect x="740" y="0" width="60" height="1200" fill="#fafbfc" opacity="0.4"/>
  <line x1="740" y1="0" x2="740" y2="1200" stroke="#e5e7eb" stroke-width="0.8"/>
  <line x1="800" y1="0" x2="800" y2="1200" stroke="#e5e7eb" stroke-width="0.8"/>

  <!-- LEFT PANEL -->
  <g clip-path="url(#leftPane)">
    <rect x="20" y="0" width="720" height="1080" fill="#ffffff"/>
    <g>
      <text x="30" y="24" class="label-em" font-size="12">Fig. H 模块化可重构式 | 侧面观 Lateral View</text>
      <line x1="30" y1="28" x2="300" y2="28" stroke="#e5e7eb" stroke-width="0.5"/>
    </g>

    <!-- HUMAN BODY (abbreviated) -->
    <g filter="url(#softShadow)">
      <path d="M 240,70 C 230,110 225,160 230,210 C 235,260 260,300 285,330 L 475,330 C 500,300 525,260 530,210 C 535,160 530,110 520,70 C 510,60 480,55 380,55 C 280,55 250,60 240,70 Z" fill="url(#skinGrad)" stroke="#e8ddd0" stroke-width="0.8"/>
      <rect x="350" y="30" width="60" height="40" rx="10" fill="#f5f0eb" stroke="#e8ddd0" stroke-width="0.6"/>
      <ellipse cx="380" cy="10" rx="32" ry="26" fill="#f5f0eb" stroke="#e0d5c8" stroke-width="0.8"/>
    </g>
    <line x1="380" y1="60" x2="380" y2="260" stroke="#d4c9a8" stroke-width="1.2" stroke-dasharray="6,4" opacity="0.5"/>
    <g stroke="#dccfc0" stroke-width="0.6" fill="none" opacity="0.35">
      <path d="M 280,110 Q 320,105 340,115"/><path d="M 420,115 Q 440,105 480,110"/>
      <path d="M 270,140 Q 320,130 340,145"/><path d="M 420,145 Q 440,130 490,140"/>
    </g>
    <g filter="url(#shadow)">
      <path d="M 380,255 C 340,252 295,260 270,285 C 250,310 245,340 260,360 C 275,380 295,395 320,405 C 340,412 360,415 380,416 C 400,415 420,412 440,405 C 465,395 485,380 500,360 C 515,340 510,310 490,285 C 465,260 420,252 380,255 Z" fill="url(#boneGrad)" stroke="#c4b898" stroke-width="0.8"/>
      <circle cx="290" cy="355" r="18" fill="url(#boneShadow)" stroke="#c4b898" stroke-width="0.8"/><circle cx="290" cy="355" r="13" fill="#dfd2b2" stroke="#c4b898" stroke-width="0.4"/>
      <circle cx="470" cy="355" r="18" fill="url(#boneShadow)" stroke="#c4b898" stroke-width="0.8"/><circle cx="470" cy="355" r="13" fill="#dfd2b2" stroke="#c4b898" stroke-width="0.4"/>
    </g>
    <g filter="url(#shadow)">
      <circle cx="290" cy="355" r="14" fill="url(#boneGrad)" stroke="#c4b898" stroke-width="0.8"/>
      <path d="M 285,355 Q 278,380 282,400 L 290,398 Q 288,378 292,355 Z" fill="url(#boneGrad)" stroke="#c4b898" stroke-width="0.6"/>
      <path d="M 282,400 C 280,450 278,500 278,550 C 278,600 280,650 285,700 L 298,700 C 293,650 290,600 290,550 C 290,500 292,450 296,400 Z" fill="url(#boneGrad)" stroke="#c4b898" stroke-width="0.7"/>
      <ellipse cx="285" cy="698" rx="10" ry="14" fill="url(#boneGrad)" stroke="#c4b898" stroke-width="0.6"/><ellipse cx="300" cy="698" rx="8" ry="12" fill="url(#boneGrad)" stroke="#c4b898" stroke-width="0.6"/>
      <circle cx="470" cy="355" r="14" fill="url(#boneGrad)" stroke="#c4b898" stroke-width="0.8"/>
      <path d="M 475,355 Q 482,380 478,400 L 470,398 Q 472,378 468,355 Z" fill="url(#boneGrad)" stroke="#c4b898" stroke-width="0.6"/>
      <path d="M 478,400 C 480,450 482,500 482,550 C 482,600 480,650 475,700 L 462,700 C 467,650 470,600 470,550 C 470,500 468,450 464,400 Z" fill="url(#boneGrad)" stroke="#c4b898" stroke-width="0.7"/>
      <ellipse cx="475" cy="698" rx="10" ry="14" fill="url(#boneGrad)" stroke="#c4b898" stroke-width="0.6"/><ellipse cx="460" cy="698" rx="8" ry="12" fill="url(#boneGrad)" stroke="#c4b898" stroke-width="0.6"/>
    </g>
    <g filter="url(#softShadow)">
      <ellipse cx="290" cy="705" rx="12" ry="9" fill="url(#boneGrad)" stroke="#c4b898" stroke-width="0.6"/><ellipse cx="470" cy="705" rx="12" ry="9" fill="url(#boneGrad)" stroke="#c4b898" stroke-width="0.6"/>
    </g>
    <g filter="url(#shadow)">
      <path d="M 283,710 C 280,760 278,810 277,860 C 276,910 278,950 282,980 L 294,980 C 290,950 288,910 287,860 C 286,810 288,760 290,710 Z" fill="url(#boneGrad)" stroke="#c4b898" stroke-width="0.7"/>
      <path d="M 477,710 C 480,760 482,810 483,860 C 484,910 482,950 478,980 L 466,980 C 470,950 472,910 473,860 C 474,810 472,760 470,710 Z" fill="url(#boneGrad)" stroke="#c4b898" stroke-width="0.7"/>
    </g>

    <!-- ==================== MODULAR EXOSKELETON ==================== -->

    <!-- Base pelvic frame (common platform) -->
    <g filter="url(#shadow)">
      <path d="M 225,260 C 215,285 210,310 220,330 C 228,345 245,352 265,355 L 495,355 C 515,352 532,345 540,330 C 550,310 545,285 535,260 C 525,248 495,245 380,245 C 265,245 235,248 225,260 Z" fill="url(#metalDark)" stroke="#4B5563" stroke-width="2" opacity="0.8"/>
      <!-- Docking rails -->
      <path d="M 240,280 L 260,280" stroke="#0096f0" stroke-width="2"/>
      <path d="M 500,280 L 520,280" stroke="#0096f0" stroke-width="2"/>
    </g>

    <!-- Module A: Hip actuator module (quick-release) -->
    <g filter="url(#shadow)">
      <rect x="248" y="320" width="36" height="50" rx="5" fill="url(#mod1Grad)" stroke="#0284c7" stroke-width="1.5"/>
      <rect x="254" y="326" width="24" height="14" rx="3" fill="#e0f2fe" opacity="0.5"/>
      <text x="266" y="335" font-size="7" fill="#0096f0" font-family="sans-serif" text-anchor="middle" font-weight="bold">MOD</text>
      <text x="266" y="345" font-size="6" fill="#fff" font-family="sans-serif" text-anchor="middle">A</text>
      <!-- Quick-release lever -->
      <rect x="282" y="328" width="6" height="12" rx="2" fill="#fbbf24" stroke="#d97706" stroke-width="0.5"/>
    </g>

    <!-- Module B: Battery module -->
    <g filter="url(#shadow)">
      <rect x="340" y="260" width="40" height="55" rx="5" fill="url(#mod2Grad)" stroke="#4f46e5" stroke-width="1.5"/>
      <rect x="348" y="268" width="24" height="8" rx="2" fill="#22c55e" opacity="0.7"/>
      <rect x="348" y="280" width="24" height="8" rx="2" fill="#22c55e" opacity="0.5"/>
      <rect x="348" y="292" width="24" height="8" rx="2" fill="#22c55e" opacity="0.3"/>
      <text x="360" y="310" font-size="6" fill="#fff" font-family="sans-serif" text-anchor="middle">BAT</text>
      <!-- Quick-release clip -->
      <path d="M 340,275 L 333,275 L 333,283 L 340,283" fill="none" stroke="#fbbf24" stroke-width="2"/>
    </g>

    <!-- Module C: Sensor/Controller module -->
    <g filter="url(#shadow)">
      <rect x="395" y="270" width="34" height="40" rx="5" fill="url(#mod3Grad)" stroke="#db2777" stroke-width="1.5"/>
      <rect x="402" y="278" width="20" height="10" rx="2" fill="#fce7f3" opacity="0.5"/>
      <text x="412" y="293" font-size="6" fill="#fff" font-family="sans-serif" text-anchor="middle">CTRL</text>
    </g>

    <!-- Right side Module A equivalent -->
    <g filter="url(#shadow)">
      <rect x="476" y="320" width="36" height="50" rx="5" fill="url(#mod1Grad)" stroke="#0284c7" stroke-width="1.5"/>
      <rect x="482" y="326" width="24" height="14" rx="3" fill="#e0f2fe" opacity="0.5"/>
      <text x="494" y="335" font-size="7" fill="#0096f0" font-family="sans-serif" text-anchor="middle" font-weight="bold">MOD</text>
      <text x="494" y="345" font-size="6" fill="#fff" font-family="sans-serif" text-anchor="middle">A</text>
      <rect x="472" y="328" width="6" height="12" rx="2" fill="#fbbf24" stroke="#d97706" stroke-width="0.5"/>
    </g>

    <!-- Thigh braces with modular joints -->
    <g filter="url(#shadow)">
      <path d="M 282,380 C 280,440 278,500 279,560 C 280,620 283,660 286,710 L 296,710 C 293,660 291,620 290,560 C 289,500 291,440 294,380 Z" fill="none" stroke="url(#metalLight)" stroke-width="5" stroke-linecap="round"/>
      <path d="M 478,380 C 480,440 482,500 481,560 C 480,620 477,660 474,710 L 464,710 C 467,660 469,620 470,560 C 471,500 469,440 464,380 Z" fill="none" stroke="url(#metalLight)" stroke-width="5" stroke-linecap="round"/>
    </g>

    <!-- Module interface details (electrical/data connectors) -->
    <g opacity="0.4">
      <circle cx="340" cy="280" r="4" fill="#0096f0"/>
      <circle cx="340" cy="292" r="4" fill="#0096f0"/>
      <circle cx="340" cy="304" r="4" fill="#0096f0"/>
    </g>

    <!-- ==================== NUMBERED ANNOTATIONS ==================== -->
    <line x1="266" y1="330" x2="310" y2="320" stroke="#0096f0" stroke-width="0.8"/>
    <circle cx="316" cy="318" r="9" fill="#0096f0"/>
    <text x="316" y="322" font-size="10" fill="#fff" font-family="sans-serif" text-anchor="middle" font-weight="bold">1</text>
    <text x="330" y="316" class="label-sm" font-size="8" fill="#0096f0">模块 A — 髋执行器</text>

    <line x1="360" y1="290" x2="390" y2="295" stroke="#0096f0" stroke-width="0.8"/>
    <circle cx="396" cy="297" r="9" fill="#0096f0"/>
    <text x="396" y="301" font-size="10" fill="#fff" font-family="sans-serif" text-anchor="middle" font-weight="bold">2</text>
    <text x="410" y="294" class="label-sm" font-size="8" fill="#0096f0">模块 B — 电池</text>

    <line x1="412" y1="290" x2="440" y2="295" stroke="#0096f0" stroke-width="0.8"/>
    <circle cx="446" cy="297" r="9" fill="#0096f0"/>
    <text x="446" y="301" font-size="10" fill="#fff" font-family="sans-serif" text-anchor="middle" font-weight="bold">3</text>
    <text x="460" y="294" class="label-sm" font-size="8" fill="#0096f0">模块 C — 控制器</text>

    <line x1="282" y1="334" x2="250" y2="340" stroke="#0096f0" stroke-width="0.8"/>
    <circle cx="244" cy="342" r="9" fill="#0096f0"/>
    <text x="244" y="346" font-size="10" fill="#fff" font-family="sans-serif" text-anchor="middle" font-weight="bold">4</text>
    <text x="230" y="336" class="label-sm" font-size="8" fill="#0096f0" text-anchor="end">快拆扳手</text>

    <line x1="340" y1="280" x2="310" y2="280" stroke="#0096f0" stroke-width="0.8"/>
    <circle cx="304" cy="280" r="9" fill="#0096f0"/>
    <text x="304" y="284" font-size="10" fill="#fff" font-family="sans-serif" text-anchor="middle" font-weight="bold">5</text>
    <text x="290" y="274" class="label-sm" font-size="8" fill="#0096f0" text-anchor="end">电气/数据接口</text>

    <line x1="240" y1="280" x2="210" y2="280" stroke="#0096f0" stroke-width="0.8"/>
    <circle cx="204" cy="280" r="9" fill="#0096f0"/>
    <text x="204" y="284" font-size="10" fill="#fff" font-family="sans-serif" text-anchor="middle" font-weight="bold">6</text>
    <text x="190" y="274" class="label-sm" font-size="8" fill="#0096f0" text-anchor="end">安装导轨</text>

    <line x1="296" y1="550" x2="320" y2="540" stroke="#0096f0" stroke-width="0.8"/>
    <circle cx="326" cy="538" r="9" fill="#0096f0"/>
    <text x="326" y="542" font-size="10" fill="#fff" font-family="sans-serif" text-anchor="middle" font-weight="bold">7</text>
    <text x="340" y="536" class="label-sm" font-size="8" fill="#0096f0">大腿连杆</text>

    <line x1="286" y1="710" x2="320" y2="710" stroke="#0096f0" stroke-width="0.8"/>
    <circle cx="326" cy="710" r="9" fill="#0096f0"/>
    <text x="326" y="714" font-size="10" fill="#fff" font-family="sans-serif" text-anchor="middle" font-weight="bold">8</text>
    <text x="340" y="708" class="label-sm" font-size="8" fill="#0096f0">膝关节铰链</text>

    <line x1="510" y1="330" x2="530" y2="320" stroke="#0096f0" stroke-width="0.8"/>
    <circle cx="536" cy="318" r="9" fill="#0096f0"/>
    <text x="536" y="322" font-size="10" fill="#fff" font-family="sans-serif" text-anchor="middle" font-weight="bold">9</text>
    <text x="550" y="316" class="label-sm" font-size="8" fill="#0096f0">右侧模组 A</text>

    <line x1="225" y1="265" x2="170" y2="255" stroke="#0096f0" stroke-width="0.8"/>
    <circle cx="164" cy="253" r="9" fill="#0096f0"/>
    <text x="164" y="257" font-size="10" fill="#fff" font-family="sans-serif" text-anchor="middle" font-weight="bold">10</text>
    <text x="148" y="248" class="label-sm" font-size="8" fill="#0096f0" text-anchor="end">骨盆基础框架</text>

    <!-- FORCE VECTORS -->
    <line x1="380" y1="10" x2="380" y2="-30" stroke="#dc2626" stroke-width="3" marker-end="url(#arrowRed)"/>
    <text x="388" y="-18" class="label-force">W (体重)</text>
    <path d="M 308,335 A 20 20 0 0 1 308,375" fill="none" stroke="#0096f0" stroke-width="2" marker-end="url(#arrowBlue)"/>
    <text x="316" y="350" class="label-em" font-size="10">tau</text>
    <path d="M 452,335 A 20 20 0 0 0 452,375" fill="none" stroke="#0096f0" stroke-width="2" marker-end="url(#arrowBlue)"/>
    <text x="440" y="350" class="label-em" font-size="10">tau</text>
    <line x1="285" y1="1030" x2="285" y2="1055" stroke="#dc2626" stroke-width="2" marker-end="url(#arrowRed)"/>
    <text x="270" y="1068" class="label-force" font-size="9">GRF</text>
    <line x1="475" y1="1030" x2="475" y2="1055" stroke="#dc2626" stroke-width="2" marker-end="url(#arrowRed)"/>
    <text x="478" y="1068" class="label-force" font-size="9">GRF</text>

    <!-- PRODUCT CALLOUTS -->
    <g transform="translate(540, 55)">
      <rect x="0" y="0" width="180" height="140" rx="5" fill="#fff" stroke="#0096f0" stroke-width="1.2" filter="url(#shadow)"/>
      <rect x="0" y="0" width="180" height="22" rx="5" fill="#0096f0" opacity="0.9"/>
      <text x="90" y="15" font-size="9" fill="#fff" font-family="sans-serif" text-anchor="middle" font-weight="bold">Modular Exosuit</text>
      <text x="8" y="34" class="label-sm" font-size="8">概念：模块化可重构</text>
      <text x="8" y="48" class="label-sm" font-size="8">基础框架 + 可换模组</text>
      <text x="8" y="62" class="label-sm" font-size="8">模组：执行器/电池/控制</text>
      <text x="8" y="76" class="label-sm" font-size="8">接口：标准电气/机械</text>
      <text x="8" y="90" class="label-sm" font-size="8">应用：多场景适配</text>
      <line x1="8" y1="96" x2="172" y2="96" stroke="#e5e7eb" stroke-width="0.3"/>
      <text x="8" y="110" class="label-em" font-size="8">可扩展 / 可升级</text>
      <text x="8" y="126" class="label-sm" font-size="8" fill="#94a3b8">模块化消费级外骨骼</text>
    </g>

    <g transform="translate(540, 210)">
      <rect x="0" y="0" width="180" height="130" rx="5" fill="#fff" stroke="#0096f0" stroke-width="1.2" filter="url(#shadow)"/>
      <rect x="0" y="0" width="180" height="22" rx="5" fill="#0096f0" opacity="0.9"/>
      <text x="90" y="15" font-size="9" fill="#fff" font-family="sans-serif" text-anchor="middle" font-weight="bold">OpenEXO 协议</text>
      <text x="8" y="34" class="label-sm" font-size="8">开源模块化外骨骼标准</text>
      <text x="8" y="48" class="label-sm" font-size="8">机械/电气接口开放</text>
      <text x="8" y="62" class="label-sm" font-size="8">社区驱动硬件生态</text>
      <text x="8" y="76" class="label-sm" font-size="8">可 3D 打印部件</text>
      <text x="8" y="90" class="label-sm" font-size="8">应用：研发 / 教育</text>
      <line x1="8" y1="96" x2="172" y2="96" stroke="#e5e7eb" stroke-width="0.3"/>
      <text x="8" y="110" class="label-em" font-size="8">开源生态参考</text>
    </g>

    <g transform="translate(30, 1020)">
      <rect x="0" y="0" width="700" height="48" rx="4" fill="#fafbfc" stroke="#eef0f2" stroke-width="0.5"/>
      <rect x="10" y="10" width="14" height="14" rx="2" fill="url(#boneGrad)" stroke="#c4b898" stroke-width="0.6"/>
      <text x="28" y="22" class="label-sm" font-size="9">骨骼</text>
      <rect x="100" y="10" width="14" height="14" rx="2" fill="rgba(220,38,38,0.15)" stroke="rgba(220,38,38,0.3)" stroke-width="0.6"/>
      <text x="118" y="22" class="label-sm" font-size="9">肌肉</text>
      <rect x="190" y="10" width="14" height="14" rx="2" fill="url(#metalGrad)" stroke="#6B7280" stroke-width="0.6"/>
      <text x="208" y="22" class="label-sm" font-size="9">基础框架</text>
      <rect x="290" y="10" width="14" height="14" rx="2" fill="#38bdf8"/>
      <text x="308" y="22" class="label-sm" font-size="9">模块 A 执行器</text>
      <rect x="400" y="10" width="14" height="14" rx="2" fill="#818cf8"/>
      <text x="418" y="22" class="label-sm" font-size="9">模块 B 电池</text>
      <rect x="500" y="10" width="14" height="14" rx="2" fill="#f472b6"/>
      <text x="518" y="22" class="label-sm" font-size="9">模块 C 控制</text>
      <text x="10" y="42" class="label-sm" font-size="8" fill="#94a3b8">模块化可重构外骨骼 · OpenEXO 标准参考</text>
    </g>
  </g>

  <!-- RIGHT PANEL -->
  <g transform="translate(808, 16)">
    <rect x="-8" y="0" width="380" height="60" rx="4" fill="#f0f7ff" stroke="#bfdbfe" stroke-width="0.5"/>
    <rect x="-8" y="0" width="4" height="60" rx="2" fill="#0096f0"/>
    <text x="12" y="26" class="title-blue">模块化可重构式</text>
    <text x="12" y="46" class="label-sm" font-size="10" fill="#9ca3af">MODULAR RECONFIGURABLE EXOSKELETON</text>
    <rect x="262" y="10" width="100" height="24" rx="12" fill="#0096f0" opacity="0.15"/>
    <text x="312" y="27" font-size="12" fill="#0096f0" font-family="sans-serif" text-anchor="middle" font-weight="bold">推荐采用</text>

    <g transform="translate(0, 80)">
      <rect x="-8" y="0" width="380" height="130" rx="4" fill="#fafbfc" stroke="#eef0f2" stroke-width="0.5"/>
      <rect x="-8" y="0" width="3" height="130" rx="1.5" fill="#94a3b8"/>
      <text x="12" y="22" class="title-gray" font-size="14">架构特征</text>
      <text x="140" y="22" class="label-sm" fill="#94a3b8">ARCHITECTURE</text>
      <line x1="12" y1="28" x2="364" y2="28" stroke="#e2e8f0" stroke-width="0.5"/>
      <g font-size="12" fill="#475569" font-family="sans-serif">
        <circle cx="16" cy="48" r="3.5" fill="#0096f0"/>
        <text x="28" y="53">骨盆基础框架 (共用平台)</text>
        <circle cx="16" cy="68" r="3.5" fill="#0096f0"/>
        <text x="28" y="73">模块 A：髋执行器 (快拆更换)</text>
        <circle cx="16" cy="88" r="3.5" fill="#0096f0"/>
        <text x="28" y="93">模块 B：电池 (热插拔)</text>
        <circle cx="16" cy="108" r="3.5" fill="#0096f0"/>
        <text x="28" y="113">模块 C：控制器 (可升级)</text>
        <circle cx="16" cy="128" r="3.5" fill="#0096f0"/>
        <text x="28" y="133">标准化机械/电气接口</text>
      </g>
    </g>

    <g transform="translate(0, 228)">
      <rect x="-8" y="0" width="380" height="175" rx="4" fill="#fafbfc" stroke="#eef0f2" stroke-width="0.5"/>
      <rect x="-8" y="0" width="3" height="175" rx="1.5" fill="#94a3b8"/>
      <text x="12" y="22" class="title-gray" font-size="14">模块规格</text>
      <text x="120" y="22" class="label-sm" fill="#94a3b8">MODULE SPECS</text>
      <line x1="12" y1="28" x2="364" y2="28" stroke="#e2e8f0" stroke-width="0.5"/>
      <g font-size="12" fill="#475569" font-family="sans-serif">
        <text x="16" y="50" fill="#0096f0" font-weight="bold">模块 A (执行器)</text>
        <text x="130" y="50" fill="#1f2937">300g / 12 Nm / 快拆</text>
        <text x="16" y="72" fill="#818cf8" font-weight="bold">模块 B (电池)</text>
        <text x="130" y="72" fill="#1f2937">200g / 48 Wh / 热插拔</text>
        <text x="16" y="94" fill="#f472b6" font-weight="bold">模块 C (控制器)</text>
        <text x="130" y="94" fill="#1f2937">100g / 6 轴 IMU / BLE</text>
        <text x="16" y="116">基础框架重量</text>
        <text x="130" y="116" fill="#1f2937" font-weight="bold">~1.0 kg</text>
        <text x="16" y="138">最大组合重量</text>
        <text x="130" y="138" fill="#1f2937" font-weight="bold">~2.0 kg (A+B+C)</text>
        <text x="16" y="160">接口标准</text>
        <text x="130" y="160" fill="#1f2937" font-weight="bold">USB-C PD / M.2 机械</text>
      </g>
    </g>

    <g transform="translate(0, 420)">
      <rect x="-8" y="0" width="380" height="130" rx="4" fill="#f0f7ff" stroke="#bfdbfe" stroke-width="0.5"/>
      <rect x="-8" y="0" width="3" height="130" rx="1.5" fill="#0096f0"/>
      <text x="12" y="22" class="title-gray" font-size="14">模块化优势</text>
      <text x="120" y="22" class="label-sm" fill="#94a3b8">BENEFITS</text>
      <line x1="12" y1="28" x2="364" y2="28" stroke="#bfdbfe" stroke-width="0.5"/>
      <g font-size="12" fill="#475569" font-family="sans-serif">
        <circle cx="16" cy="48" r="3.5" fill="#22c55e"/>
        <text x="28" y="53">可热插拔电池 — 无限续航</text>
        <circle cx="16" cy="68" r="3.5" fill="#22c55e"/>
        <text x="28" y="73">执行器可选不同扭矩等级</text>
        <circle cx="16" cy="88" r="3.5" fill="#22c55e"/>
        <text x="28" y="93">控制器可 OTA 升级</text>
        <circle cx="16" cy="108" r="3.5" fill="#22c55e"/>
        <text x="28" y="113">左右互换 / 单双侧可用</text>
        <circle cx="16" cy="128" r="3.5" fill="#22c55e"/>
        <text x="28" y="133">消费级生态扩展可能</text>
      </g>
    </g>

    <g transform="translate(0, 568)">
      <rect x="-8" y="0" width="380" height="115" rx="4" fill="#f0f7ff" stroke="#93c5fd" stroke-width="0.5"/>
      <rect x="-8" y="0" width="380" height="26" rx="4" fill="#0096f0" opacity="0.1"/>
      <text x="12" y="18" font-size="12" fill="#0096f0" font-family="sans-serif" font-weight="bold">Bones 评估：推荐采用</text>
      <g font-size="12" fill="#475569" font-family="sans-serif">
        <text x="16" y="48">模块化是消费级产品的正确哲学</text>
        <text x="16" y="66">热插拔电池 + 快拆执行器 + OTA 控制</text>
        <line x1="16" y1="74" x2="364" y2="74" stroke="#93c5fd" stroke-width="0.3"/>
        <text x="16" y="92" fill="#0096f0" font-weight="bold">采用理由：</text>
        <text x="86" y="92" fill="#475569">模块化降低维修/升级成本，消费者友好</text>
        <text x="86" y="110" fill="#475569">生态扩展能力决定产品生命周期</text>
      </g>
    </g>

    <g transform="translate(0, 700)">
      <rect x="-8" y="0" width="380" height="115" rx="4" fill="#fafbfc" stroke="#eef0f2" stroke-width="0.5"/>
      <rect x="-8" y="0" width="3" height="115" rx="1.5" fill="#94a3b8"/>
      <text x="12" y="22" class="title-gray" font-size="13">竞争与生态</text>
      <line x1="12" y1="28" x2="364" y2="28" stroke="#e2e8f0" stroke-width="0.3"/>
      <g font-size="12" fill="#475569" font-family="sans-serif">
        <text x="16" y="48">OpenEXO 是最成熟的开源外骨骼框架</text>
        <text x="16" y="66">模块化可借鉴无人机 (DJI) 生态模式</text>
        <text x="16" y="84">接口标准化是生态成功的关键</text>
        <text x="16" y="102">自主研发 vs 接轨 OpenEXO 是战略选择</text>
      </g>
    </g>

    <g transform="translate(0, 832)">
      <rect x="-8" y="0" width="380" height="90" rx="4" fill="#fafbfc" stroke="#eef0f2" stroke-width="0.5"/>
      <rect x="-8" y="0" width="3" height="90" rx="1.5" fill="#94a3b8"/>
      <text x="12" y="22" class="title-gray" font-size="13">关键学习点</text>
      <line x1="12" y1="28" x2="364" y2="28" stroke="#e2e8f0" stroke-width="0.3"/>
      <g font-size="12" fill="#475569" font-family="sans-serif">
        <text x="16" y="46">模块化是产品可迭代、可扩展的核心架构选择</text>
        <text x="16" y="64">标准化接口 (机械/电气/数据) 是模块化的基石</text>
      </g>
    </g>
  </g>

  <!-- BOTTOM LEGEND -->
  <g transform="translate(0, 1100)">
    <rect x="20" y="0" width="1160" height="50" rx="4" fill="#fafbfc" stroke="#eef0f2" stroke-width="0.5"/>
    <rect x="40" y="10" width="18" height="18" rx="3" fill="url(#boneGrad)" stroke="#c4b898" stroke-width="0.8"/><text x="62" y="24" font-size="12" fill="#475569" font-family="sans-serif" font-weight="500">骨骼</text>
    <rect x="110" y="10" width="18" height="18" rx="3" fill="rgba(220,38,38,0.2)" stroke="rgba(220,38,38,0.4)" stroke-width="0.8"/><text x="132" y="24" font-size="12" fill="#475569" font-family="sans-serif" font-weight="500">肌肉</text>
    <rect x="180" y="10" width="18" height="18" rx="3" fill="url(#metalGrad)" stroke="#6B7280" stroke-width="0.8"/><text x="202" y="24" font-size="12" fill="#475569" font-family="sans-serif" font-weight="500">基础框架</text>
    <rect x="290" y="10" width="18" height="18" rx="3" fill="#38bdf8" stroke="#0284c7" stroke-width="0.8"/><text x="312" y="24" font-size="12" fill="#475569" font-family="sans-serif" font-weight="500">模块 A</text>
    <rect x="390" y="10" width="18" height="18" rx="3" fill="#818cf8" stroke="#4f46e5" stroke-width="0.8"/><text x="412" y="24" font-size="12" fill="#475569" font-family="sans-serif" font-weight="500">模块 B</text>
    <rect x="490" y="10" width="18" height="18" rx="3" fill="#f472b6" stroke="#db2777" stroke-width="0.8"/><text x="512" y="24" font-size="12" fill="#475569" font-family="sans-serif" font-weight="500">模块 C</text>
    <line x1="600" y1="10" x2="620" y2="10" stroke="#e5e7eb" stroke-width="0.8"/><text x="625" y="24" font-size="12" fill="#475569" font-family="sans-serif" font-weight="500">评估：</text>
    <rect x="696" y="10" width="18" height="18" rx="3" fill="#0096f0"/><text x="718" y="24" font-size="12" fill="#475569" font-family="sans-serif" font-weight="500">推荐采用</text>
    <rect x="794" y="10" width="18" height="18" rx="3" fill="#d97706"/><text x="816" y="24" font-size="12" fill="#475569" font-family="sans-serif" font-weight="500">部分借鉴</text>
    <rect x="892" y="10" width="18" height="18" rx="3" fill="#9E9E9E"/><text x="914" y="24" font-size="12" fill="#475569" font-family="sans-serif" font-weight="500">仅跟踪</text>
    <line x1="40" y1="34" x2="1140" y2="34" stroke="#e2e8f0" stroke-width="0.3"/>
    <text x="580" y="44" font-size="9" fill="#a0aec0" font-family="sans-serif" text-anchor="middle">附录 C · 髋关节外骨骼架构分析 | Bones &amp; Manifold · Nexum Project 2026</text>
  </g>

  <!-- OVERLAY: Modular Interface Detail -->
  <g transform="translate(50, 850)" clip-path="url(#leftPane)">
    <rect x="0" y="0" width="310" height="190" rx="5" fill="#fafbfc" stroke="#eef0f2" stroke-width="0.8" filter="url(#softShadow)"/>
    <text x="12" y="20" class="title-blue" font-size="11">模块接口标准定义</text>
    <text x="12" y="34" class="label-sm" font-size="8">MODULE INTERFACE — STANDARD</text>
    <line x1="12" y1="38" x2="298" y2="38" stroke="#e5e7eb" stroke-width="0.5"/>

    <g transform="translate(15, 48)">
      <!-- Interface diagram -->
      <rect x="0" y="0" width="140" height="80" rx="4" fill="#fff" stroke="#e5e7eb" stroke-width="0.8"/>
      <!-- Base -->
      <rect x="10" y="55" width="120" height="20" rx="3" fill="#6B7280"/>
      <text x="70" y="68" font-size="7" fill="#fff" font-family="sans-serif" text-anchor="middle">基础框架接口</text>
      <!-- Module -->
      <rect x="40" y="10" width="60" height="45" rx="3" fill="#0096f0" opacity="0.7"/>
      <text x="70" y="35" font-size="7" fill="#fff" font-family="sans-serif" text-anchor="middle">模块</text>
      <!-- Guide rails -->
      <rect x="10" y="48" width="10" height="10" rx="2" fill="#9CA3AF"/>
      <rect x="120" y="48" width="10" height="10" rx="2" fill="#9CA3AF"/>
      <!-- Connector -->
      <rect x="60" y="48" width="20" height="8" rx="1" fill="#fbbf24"/>
    </g>

    <g transform="translate(170, 48)">
      <text x="0" y="0" class="label-sm" font-size="9" fill="#475569">接口标准</text>
      <line x1="0" y1="8" x2="130" y2="8" stroke="#e5e7eb" stroke-width="0.3"/>
      <text x="0" y="22" class="label-sm" font-size="8" fill="#64748b">机械：M3 导轨 + 快拆锁扣</text>
      <text x="0" y="34" class="label-sm" font-size="8" fill="#64748b">电气：USB-C PD 100W</text>
      <text x="0" y="46" class="label-sm" font-size="8" fill="#64748b">数据：I²C / UART / BLE</text>
      <text x="0" y="58" class="label-sm" font-size="8" fill="#64748b">防水：IP54 (接口密封)</text>
      <line x1="0" y1="66" x2="130" y2="66" stroke="#e5e7eb" stroke-width="0.3"/>
      <text x="0" y="80" class="label-sm" font-size="8" fill="#0096f0" font-weight="bold">Bones 模块规划：</text>
      <text x="0" y="92" class="label-sm" font-size="8" fill="#64748b">V1: 电机/电池/控制 3 模块</text>
      <text x="0" y="104" class="label-sm" font-size="8" fill="#64748b">V2: 扩展传感器 + 通信</text>
      <text x="0" y="116" class="label-sm" font-size="8" fill="#64748b">V3: 生态开放给第三方</text>
    </g>
  </g>

  <!-- OVERLAY: Modular Ecosystem -->
  <g transform="translate(400, 830)" clip-path="url(#leftPane)">
    <rect x="0" y="0" width="300" height="210" rx="5" fill="#f0f7ff" stroke="#bfdbfe" stroke-width="0.8" filter="url(#softShadow)"/>
    <text x="12" y="20" class="title-blue" font-size="11">模块化产品矩阵规划</text>
    <text x="12" y="34" class="label-sm" font-size="8">PRODUCT MATRIX — MODULAR ECOSYSTEM</text>
    <line x1="12" y1="38" x2="288" y2="38" stroke="#bfdbfe" stroke-width="0.5"/>
    <g transform="translate(12, 48)">
      <rect x="0" y="0" width="270" height="72" rx="3" fill="#fff" stroke="#e5e7eb" stroke-width="0.5"/>
      <text x="6" y="14" class="label-sm" font-size="8" fill="#475569" font-weight="bold">产品线扩展路径</text>
      <line x1="6" y1="18" x2="264" y2="18" stroke="#e5e7eb" stroke-width="0.3"/>
      <text x="6" y="32" class="label-sm" font-size="7" fill="#64748b">Base (框架) → Lite (单侧) → Pro (双侧) → Max (全身)</text>
      <text x="6" y="44" class="label-sm" font-size="7" fill="#64748b">每个 SKU 共享同一基础框架和接口</text>
      <text x="6" y="56" class="label-sm" font-size="7" fill="#64748b">用户可逐步升级，降低购买门槛</text>
      <text x="6" y="76" class="label-sm" font-size="8" fill="#0096f0" font-weight="bold">商业模式：</text>
      <text x="6" y="90" class="label-sm" font-size="7" fill="#64748b">基础框架 $299 + 模块按需购买</text>
      <text x="6" y="104" class="label-sm" font-size="7" fill="#64748b">电池模块 $49 / 执行器模块 $199</text>
      <text x="6" y="118" class="label-sm" font-size="7" fill="#64748b">订阅服务 (AI 步态优化) $9.9/月</text>
      <text x="6" y="132" class="label-sm" font-size="7" fill="#64748b">第三方开发者接入 SDK</text>
    </g>
  </g>
  <g transform="translate(50, 750)" clip-path="url(#leftPane)">
    <rect x="0" y="0" width="660" height="70" rx="4" fill="#f0f7ff" stroke="#bfdbfe" stroke-width="0.5"/>
    <text x="12" y="16" class="label-sm" font-size="8" fill="#475569">注：模块化设计是 Bones 产品核心哲学。基础框架 + 热插拔电池 + 快拆执行器架构借鉴了</text>
    <text x="12" y="30" class="label-sm" font-size="8" fill="#475569">DJI 和 GoPro 的生态模式。接口标准化 (USB-C PD 100W / M.2 机械接口) 确保第三方生态。</text>
    <text x="12" y="44" class="label-sm" font-size="8" fill="#64748b">OpenEXO 开源标准参考：机械接口 M3 导轨 / 电气 5V/12V/48V 可选 / 数据总线 CAN FD</text>
  </g>
</svg>
