<svg xmlns="http://www.w3.org/2000/svg" viewBox="0 0 1200 900" font-family="-apple-system,BlinkMacSystemFont,'PingFang SC','Noto Sans SC','Segoe UI','Microsoft YaHei',sans-serif">
  <defs>
    <!-- Common leg schematic -->
    <g id="leg">
      <line x1="132" y1="54" x2="135" y2="89" stroke="#1a1a2e" stroke-width="5" stroke-linecap="round"/>
      <line x1="135" y1="89" x2="139" y2="124" stroke="#1a1a2e" stroke-width="4.5" stroke-linecap="round"/>
      <circle cx="135" cy="89" r="4.5" fill="#888" stroke="none"/>
    </g>
    <!-- Subtle card shadow -->
    <filter id="shadow">
      <feDropShadow dx="0" dy="1" stdDeviation="2.5" flood-opacity="0.07"/>
    </filter>
  </defs>

  <!-- Background -->
  <rect width="1200" height="900" fill="#ffffff"/>

  <!-- ============ HEADER ============ -->
  <text x="600" y="30" font-size="20" font-weight="800" fill="#1a1a2e" text-anchor="middle" letter-spacing="1.5">膝关节外骨骼架构分类图谱</text>
  <text x="600" y="48" font-size="12" fill="#666" text-anchor="middle">Knee Exoskeleton Architecture Taxonomy · 按TRL排列 · Bones适用性标注</text>

  <!-- ============ ROW 1 LABEL ============ -->
  <rect x="24" y="63" width="10" height="10" rx="2" fill="#2e7d32"/>
  <text x="40" y="72" font-size="12" font-weight="700" fill="#2e7d32">TRL 7-9 · 商业化量产</text>
  <line x1="195" y1="68" x2="1176" y2="68" stroke="#e0e0e0" stroke-width="1"/>

  <!-- ============ ROW 2 LABEL ============ -->
  <rect x="24" y="335" width="10" height="10" rx="2" fill="#f57f17"/>
  <text x="40" y="344" font-size="12" font-weight="700" fill="#f57f17">TRL 5-7 · 临床/原型验证中</text>
  <line x1="195" y1="340" x2="1176" y2="340" stroke="#e0e0e0" stroke-width="1"/>

  <!-- ============ ROW 3 LABEL ============ -->
  <rect x="24" y="607" width="10" height="10" rx="2" fill="#c62828"/>
  <text x="40" y="616" font-size="12" font-weight="700" fill="#c62828">TRL 2-5 · 学术研究</text>
  <line x1="195" y1="612" x2="1176" y2="612" stroke="#e0e0e0" stroke-width="1"/>

  <!-- ======================================================================================= -->
  <!-- ROW 1 — TRL 7-9 · 商业化量产 -->
  <!-- ======================================================================================= -->

  <!-- CARD 1: 单轴铰链外置式 Lateral Hinge — Gen 0-2 首选 -->
  <g transform="translate(24, 78)">
    <rect x="0" y="0" width="270" height="250" rx="8" fill="#f0fff4" stroke="#00c853" stroke-width="3" filter="url(#shadow)"/>
    <text x="12" y="21" font-size="15" font-weight="700" fill="#1a1a2e">1. 单轴铰链外置式</text>
    <text x="12" y="36" font-size="11" fill="#666">Lateral Hinge Exoskeleton</text>
    <line x1="12" y1="44" x2="258" y2="44" stroke="#c8e6c9" stroke-width="1.5"/>
    <!-- Diagram -->
    <use href="#leg"/>
    <!-- Exoskeleton rigid bars -->
    <line x1="121" y1="50" x2="126" y2="89" stroke="#00c853" stroke-width="4" stroke-linecap="round"/>
    <line x1="126" y1="89" x2="130" y2="124" stroke="#00c853" stroke-width="4" stroke-linecap="round"/>
    <circle cx="126" cy="89" r="5" fill="#00a844" stroke="none"/>
    <!-- Rotation arrow -->
    <path d="M112,75 A18,18 0 0,1 115,105" fill="none" stroke="#00a844" stroke-width="1.5" stroke-linecap="round"/>
    <polygon points="114,104 117,96 110,98" fill="#00a844"/>
    <text x="135" y="127" font-size="8" fill="#555" text-anchor="middle">刚性连杆 · 膝关节铰链</text>
    <line x1="12" y1="134" x2="258" y2="134" stroke="#c8e6c9" stroke-width="1.5"/>
    <text x="12" y="147" font-size="9" fill="#444">远也PowerKnee ¥7,999</text>
    <text x="12" y="158" font-size="9" fill="#444">DNSYS Z1 $699-2,298</text>
    <text x="12" y="169" font-size="9" fill="#444">Hypershell X $799-1,999</text>
    <rect x="12" y="176" width="98" height="16" rx="3" fill="#e8f5e9"/>
    <text x="61" y="188" font-size="9" font-weight="600" fill="#2e7d32" text-anchor="middle">TRL 7-9 · 商业化量产</text>
    <rect x="10" y="200" width="250" height="28" rx="4" fill="#00c853"/>
    <text x="135" y="219" font-size="11" font-weight="700" fill="#fff" text-anchor="middle">Gen 0-2 首选 · 成熟铰链方案</text>
  </g>

  <!-- CARD 2: 被动弹簧阻尼式 Passive Spring-Damper — 不推荐 -->
  <g transform="translate(294, 78)">
    <rect x="0" y="0" width="270" height="250" rx="8" fill="#fafafa" stroke="#e0e0e0" stroke-width="1.5" filter="url(#shadow)"/>
    <text x="12" y="21" font-size="15" font-weight="700" fill="#1a1a2e">2. 被动弹簧阻尼式</text>
    <text x="12" y="36" font-size="11" fill="#666">Passive Spring-Damper</text>
    <line x1="12" y1="44" x2="258" y2="44" stroke="#e0e0e0" stroke-width="1"/>
    <!-- Diagram -->
    <use href="#leg"/>
    <!-- Spring behind knee -->
    <polyline points="146,52 155,58 146,64 155,70 146,76 155,82 146,88 155,94 146,100 155,106 146,112" fill="none" stroke="#e91e63" stroke-width="2" stroke-linecap="round" stroke-linejoin="round"/>
    <!-- Damper symbol -->
    <rect x="148" y="100" width="14" height="16" rx="2" fill="none" stroke="#e91e63" stroke-width="1.5"/>
    <line x1="155" y1="104" x2="160" y2="104" stroke="#e91e63" stroke-width="1.5"/>
    <line x1="155" y1="112" x2="160" y2="112" stroke="#e91e63" stroke-width="1.5"/>
    <text x="135" y="127" font-size="8" fill="#555" text-anchor="middle">弹簧阻尼器 · 储能释放</text>
    <line x1="12" y1="134" x2="258" y2="134" stroke="#e0e0e0" stroke-width="1"/>
    <text x="12" y="147" font-size="9" fill="#444">Ski-Mojo €895 · 15年经典</text>
    <text x="12" y="158" font-size="9" fill="#444">GOGOA Xnowers</text>
    <text x="12" y="169" font-size="9" fill="#888">被动储能 · 助力有限</text>
    <rect x="12" y="176" width="98" height="16" rx="3" fill="#e8f5e9"/>
    <text x="61" y="188" font-size="9" font-weight="600" fill="#2e7d32" text-anchor="middle">TRL 7-9 · 商业化量产</text>
    <rect x="10" y="200" width="250" height="28" rx="4" fill="#9e9e9e"/>
    <text x="135" y="219" font-size="11" font-weight="700" fill="#fff" text-anchor="middle">不推荐 · 被动助力有限</text>
  </g>

  <!-- CARD 3: 电缆远程驱动式 Cable Remote — Gen 2+ 备选 -->
  <g transform="translate(564, 78)">
    <rect x="0" y="0" width="270" height="250" rx="8" fill="#fffef5" stroke="#ffc107" stroke-width="2.5" filter="url(#shadow)"/>
    <text x="12" y="21" font-size="15" font-weight="700" fill="#1a1a2e">3. 电缆远程驱动式</text>
    <text x="12" y="36" font-size="11" fill="#666">Cable Remote Actuation</text>
    <line x1="12" y1="44" x2="258" y2="44" stroke="#fff9c4" stroke-width="1.5"/>
    <!-- Diagram -->
    <use href="#leg"/>
    <!-- Motor above -->
    <circle cx="135" cy="46" r="8" fill="none" stroke="#ff9800" stroke-width="2"/>
    <text x="135" y="50" font-size="9" font-weight="700" fill="#ff9800" text-anchor="middle">M</text>
    <!-- Cable path -->
    <path d="M135,54 Q162,60 155,89" fill="none" stroke="#ff9800" stroke-width="2" stroke-dasharray="3,2"/>
    <!-- Pulley at knee -->
    <circle cx="155" cy="89" r="4.5" fill="#fff" stroke="#ff9800" stroke-width="1.5"/>
    <!-- Cable continues down -->
    <path d="M155,93.5 Q160,108 155,124" fill="none" stroke="#ff9800" stroke-width="1.5" stroke-dasharray="3,2"/>
    <text x="135" y="127" font-size="8" fill="#555" text-anchor="middle">远程电机 · 鲍登线缆传动</text>
    <line x1="12" y1="134" x2="258" y2="134" stroke="#fff9c4" stroke-width="1.5"/>
    <text x="12" y="147" font-size="9" fill="#444">Hurotics H-Medi (FDA II)</text>
    <text x="12" y="158" font-size="9" fill="#444">2.8-4.5kg · 轻量化</text>
    <text x="12" y="169" font-size="9" fill="#444">Harvard Exosuit research</text>
    <rect x="12" y="176" width="98" height="16" rx="3" fill="#e8f5e9"/>
    <text x="61" y="188" font-size="9" font-weight="600" fill="#2e7d32" text-anchor="middle">TRL 7-9 · 商业化量产</text>
    <rect x="10" y="200" width="250" height="28" rx="4" fill="#ffc107"/>
    <text x="135" y="219" font-size="11" font-weight="700" fill="#fff" text-anchor="middle">Gen 2+ 备选 · 线缆远程驱动</text>
  </g>

  <!-- CARD 4: 软体Exosuit Soft Fabric — Gen 3 终极 -->
  <g transform="translate(834, 78)">
    <rect x="0" y="0" width="270" height="250" rx="8" fill="#f5faff" stroke="#0096f0" stroke-width="2.5" stroke-dasharray="6,4" filter="url(#shadow)"/>
    <text x="12" y="21" font-size="15" font-weight="700" fill="#1a1a2e">4. 软体Exosuit</text>
    <text x="12" y="36" font-size="11" fill="#666">Soft Fabric Exosuit</text>
    <line x1="12" y1="44" x2="258" y2="44" stroke="#bbdefb" stroke-width="1.5"/>
    <!-- Diagram -->
    <use href="#leg"/>
    <!-- Fabric/wavy lines wrapping the leg -->
    <path d="M118,58 Q135,52 152,58" fill="none" stroke="#0096f0" stroke-width="1.5" opacity="0.7"/>
    <path d="M116,71 Q135,65 154,71" fill="none" stroke="#0096f0" stroke-width="1.5" opacity="0.7"/>
    <path d="M118,84 Q135,78 152,84" fill="none" stroke="#0096f0" stroke-width="1.5" opacity="0.7"/>
    <path d="M116,97 Q135,91 154,97" fill="none" stroke="#0096f0" stroke-width="1.5" opacity="0.7"/>
    <path d="M118,110 Q135,104 152,110" fill="none" stroke="#0096f0" stroke-width="1.5" opacity="0.7"/>
    <!-- Fabric dots -->
    <circle cx="125" cy="63" r="1" fill="#0096f0" opacity="0.4"/>
    <circle cx="145" cy="76" r="1" fill="#0096f0" opacity="0.4"/>
    <circle cx="130" cy="89" r="1" fill="#0096f0" opacity="0.4"/>
    <circle cx="148" cy="102" r="1" fill="#0096f0" opacity="0.4"/>
    <text x="135" y="127" font-size="8" fill="#555" text-anchor="middle">柔性织物 · 无刚性结构</text>
    <line x1="12" y1="134" x2="258" y2="134" stroke="#bbdefb" stroke-width="1.5"/>
    <text x="12" y="147" font-size="9" fill="#444">Skip MO/GO $5,000 · 始祖鸟</text>
    <text x="12" y="158" font-size="9" fill="#444">Roam $2-7K</text>
    <text x="12" y="169" font-size="9" fill="#444">XoBrace $150</text>
    <rect x="12" y="176" width="98" height="16" rx="3" fill="#e8f5e9"/>
    <text x="61" y="188" font-size="9" font-weight="600" fill="#2e7d32" text-anchor="middle">TRL 7-9 · 商业化量产</text>
    <rect x="10" y="200" width="250" height="28" rx="4" fill="#0096f0"/>
    <text x="135" y="219" font-size="11" font-weight="700" fill="#fff" text-anchor="middle">Gen 3 终极 · 软体织物方案</text>
  </g>

  <!-- ======================================================================================= -->
  <!-- ROW 2 — TRL 5-7 · 临床/原型验证中 -->
  <!-- ======================================================================================= -->

  <!-- CARD 5: 电动液压式 Electro-Hydraulic — 不推荐 -->
  <g transform="translate(24, 350)">
    <rect x="0" y="0" width="270" height="250" rx="8" fill="#fafafa" stroke="#e0e0e0" stroke-width="1.5" filter="url(#shadow)"/>
    <text x="12" y="21" font-size="15" font-weight="700" fill="#1a1a2e">5. 电动液压式</text>
    <text x="12" y="36" font-size="11" fill="#666">Electro-Hydraulic</text>
    <line x1="12" y1="44" x2="258" y2="44" stroke="#e0e0e0" stroke-width="1"/>
    <!-- Diagram -->
    <use href="#leg"/>
    <!-- Hydraulic cylinder -->
    <rect x="146" y="54" width="10" height="22" rx="2" fill="#e3f2fd" stroke="#0096f0" stroke-width="1.5"/>
    <!-- Piston rod -->
    <line x1="151" y1="76" x2="151" y2="94" stroke="#555" stroke-width="2" stroke-linecap="round"/>
    <!-- Fluid arrows -->
    <polygon points="159,62 163,64 159,66" fill="#0096f0"/>
    <polygon points="159,74 163,72 159,70" fill="#0096f0"/>
    <text x="135" y="127" font-size="8" fill="#555" text-anchor="middle">液压缸 · 体积大重量高</text>
    <line x1="12" y1="134" x2="258" y2="134" stroke="#e0e0e0" stroke-width="1"/>
    <text x="12" y="147" font-size="9" fill="#444">REEV DREEVEN $9.2M</text>
    <text x="12" y="158" font-size="9" fill="#444">33Nm · ~5kg</text>
    <text x="12" y="169" font-size="9" fill="#888">2026上市 · 成本极高</text>
    <rect x="12" y="176" width="98" height="16" rx="3" fill="#fff8e1"/>
    <text x="61" y="188" font-size="9" font-weight="600" fill="#f57f17" text-anchor="middle">TRL 5-7 · 临床验证中</text>
    <rect x="10" y="200" width="250" height="28" rx="4" fill="#9e9e9e"/>
    <text x="135" y="219" font-size="11" font-weight="700" fill="#fff" text-anchor="middle">不推荐 · 重量大/成本高</text>
  </g>

  <!-- CARD 6: 气动人工肌肉 PAM — 不推荐 -->
  <g transform="translate(294, 350)">
    <rect x="0" y="0" width="270" height="250" rx="8" fill="#fafafa" stroke="#e0e0e0" stroke-width="1.5" filter="url(#shadow)"/>
    <text x="12" y="21" font-size="15" font-weight="700" fill="#1a1a2e">6. 气动人工肌肉</text>
    <text x="12" y="36" font-size="11" fill="#666">Pneumatic Artificial Muscle</text>
    <line x1="12" y1="44" x2="258" y2="44" stroke="#e0e0e0" stroke-width="1"/>
    <!-- Diagram -->
    <use href="#leg"/>
    <!-- Pneumatic muscle (bulging shape) -->
    <path d="M146,50 Q166,70 146,90" fill="none" stroke="#e91e63" stroke-width="2.5" stroke-linecap="round"/>
    <path d="M146,90 Q166,70 146,50" fill="none" stroke="#e91e63" stroke-width="2.5" stroke-linecap="round"/>
    <!-- Air pressure lines -->
    <line x1="158" y1="58" x2="162" y2="56" stroke="#e91e63" stroke-width="1.5" stroke-linecap="round"/>
    <line x1="159" y1="63" x2="164" y2="62" stroke="#e91e63" stroke-width="1.5" stroke-linecap="round"/>
    <text x="135" y="127" font-size="8" fill="#555" text-anchor="middle">气动肌肉 · 非线性控制难</text>
    <line x1="12" y1="134" x2="258" y2="134" stroke="#e0e0e0" stroke-width="1"/>
    <text x="12" y="147" font-size="9" fill="#444">EsoMark 1 £6K · 1.4kg</text>
    <text x="12" y="158" font-size="9" fill="#444">XoBrace合作</text>
    <text x="12" y="169" font-size="9" fill="#444">TUM研究</text>
    <rect x="12" y="176" width="98" height="16" rx="3" fill="#fff8e1"/>
    <text x="61" y="188" font-size="9" font-weight="600" fill="#f57f17" text-anchor="middle">TRL 5-7 · 临床验证中</text>
    <rect x="10" y="200" width="250" height="28" rx="4" fill="#9e9e9e"/>
    <text x="135" y="219" font-size="11" font-weight="700" fill="#fff" text-anchor="middle">不推荐 · 控制精度不足</text>
  </g>

  <!-- CARD 7: 多轴铰链式 Multi-Axis — 不推荐 -->
  <g transform="translate(564, 350)">
    <rect x="0" y="0" width="270" height="250" rx="8" fill="#fafafa" stroke="#e0e0e0" stroke-width="1.5" filter="url(#shadow)"/>
    <text x="12" y="21" font-size="15" font-weight="700" fill="#1a1a2e">7. 多轴铰链式</text>
    <text x="12" y="36" font-size="11" fill="#666">Multi-Axis / Polycentric</text>
    <line x1="12" y1="44" x2="258" y2="44" stroke="#e0e0e0" stroke-width="1"/>
    <!-- Diagram -->
    <use href="#leg"/>
    <!-- Multiple pivot points -->
    <circle cx="131" cy="84" r="3" fill="#666"/>
    <circle cx="135" cy="89" r="3" fill="#666"/>
    <circle cx="139" cy="84" r="3" fill="#666"/>
    <circle cx="133" cy="94" r="3" fill="#666"/>
    <circle cx="139" cy="94" r="3" fill="#666"/>
    <!-- Polycentric motion arc -->
    <path d="M118,78 A20,20 0 0,0 118,100" fill="none" stroke="#666" stroke-width="1.5" stroke-dasharray="3,2"/>
    <polygon points="117,100 120,93 113,95" fill="#666"/>
    <text x="135" y="127" font-size="8" fill="#555" text-anchor="middle">多轴铰链 · 模拟膝关节运动</text>
    <line x1="12" y1="134" x2="258" y2="134" stroke="#e0e0e0" stroke-width="1"/>
    <text x="12" y="147" font-size="9" fill="#444">IEEE研究 ICR误差&lt;0.43mm</text>
    <text x="12" y="158" font-size="9" fill="#444">Hyundai专利布局</text>
    <text x="12" y="169" font-size="9" fill="#888">无商业化产品</text>
    <rect x="12" y="176" width="98" height="16" rx="3" fill="#fff8e1"/>
    <text x="61" y="188" font-size="9" font-weight="600" fill="#f57f17" text-anchor="middle">TRL 5-7 · 临床验证中</text>
    <rect x="10" y="200" width="250" height="28" rx="4" fill="#9e9e9e"/>
    <text x="135" y="219" font-size="11" font-weight="700" fill="#fff" text-anchor="middle">不推荐 · 结构复杂/未量产</text>
  </g>

  <!-- CARD 8: 串联弹性执行器 SEA — 不推荐 -->
  <g transform="translate(834, 350)">
    <rect x="0" y="0" width="270" height="250" rx="8" fill="#fafafa" stroke="#e0e0e0" stroke-width="1.5" filter="url(#shadow)"/>
    <text x="12" y="21" font-size="15" font-weight="700" fill="#1a1a2e">8. 串联弹性执行器</text>
    <text x="12" y="36" font-size="11" fill="#666">Series Elastic Actuator</text>
    <line x1="12" y1="44" x2="258" y2="44" stroke="#e0e0e0" stroke-width="1"/>
    <!-- Diagram -->
    <use href="#leg"/>
    <!-- Motor -->
    <circle cx="148" cy="48" r="8" fill="none" stroke="#0096f0" stroke-width="2"/>
    <text x="148" y="52" font-size="9" font-weight="700" fill="#0096f0" text-anchor="middle">M</text>
    <!-- Spring in series (between motor and knee) -->
    <polyline points="145,56 139,60 145,64 139,68 145,72 139,76 145,80 141,84" fill="none" stroke="#e91e63" stroke-width="2" stroke-linecap="round"/>
    <!-- Arrow showing series connection -->
    <line x1="148" y1="56" x2="148" y2="84" stroke="#e91e63" stroke-width="1" stroke-dasharray="2,2" opacity="0.5"/>
    <text x="135" y="127" font-size="8" fill="#555" text-anchor="middle">电机+弹簧串联 · 力控精准</text>
    <line x1="12" y1="134" x2="258" y2="134" stroke="#e0e0e0" stroke-width="1"/>
    <text x="12" y="147" font-size="9" fill="#444">MIT RFSEA 85Nm·1.6kg</text>
    <text x="12" y="158" font-size="9" fill="#444">6Hz力控带宽</text>
    <text x="12" y="169" font-size="9" fill="#444">Oessur Power Knee</text>
    <rect x="12" y="176" width="98" height="16" rx="3" fill="#fff8e1"/>
    <text x="61" y="188" font-size="9" font-weight="600" fill="#f57f17" text-anchor="middle">TRL 5-7 · 临床验证中</text>
    <rect x="10" y="200" width="250" height="28" rx="4" fill="#9e9e9e"/>
    <text x="135" y="219" font-size="11" font-weight="700" fill="#fff" text-anchor="middle">不推荐 · 带宽受限/体积大</text>
  </g>

  <!-- ======================================================================================= -->
  <!-- ROW 3 — TRL 2-5 · 学术研究 -->
  <!-- ======================================================================================= -->

  <!-- CARD 9: 准直驱 QDD — 不推荐 -->
  <g transform="translate(24, 622)">
    <rect x="0" y="0" width="270" height="250" rx="8" fill="#fafafa" stroke="#e0e0e0" stroke-width="1.5" filter="url(#shadow)"/>
    <text x="12" y="21" font-size="15" font-weight="700" fill="#1a1a2e">9. 准直驱</text>
    <text x="12" y="36" font-size="11" fill="#666">Quasi-Direct Drive</text>
    <line x1="12" y1="44" x2="258" y2="44" stroke="#e0e0e0" stroke-width="1"/>
    <!-- Diagram -->
    <use href="#leg"/>
    <!-- Large diameter motor at knee -->
    <circle cx="135" cy="89" r="16" fill="none" stroke="#0096f0" stroke-width="2.5"/>
    <circle cx="135" cy="89" r="11" fill="none" stroke="#0096f0" stroke-width="1.5" stroke-dasharray="4,2" opacity="0.6"/>
    <!-- Gear teeth indicators -->
    <line x1="119" y1="89" x2="115" y2="89" stroke="#0096f0" stroke-width="1.5"/>
    <line x1="151" y1="89" x2="155" y2="89" stroke="#0096f0" stroke-width="1.5"/>
    <line x1="135" y1="73" x2="135" y2="69" stroke="#0096f0" stroke-width="1.5"/>
    <line x1="135" y1="105" x2="135" y2="109" stroke="#0096f0" stroke-width="1.5"/>
    <!-- Backdrivability double arrow -->
    <line x1="115" y1="60" x2="115" y2="118" stroke="#4caf50" stroke-width="2" stroke-linecap="round"/>
    <polygon points="115,58 112,66 118,66" fill="#4caf50"/>
    <polygon points="115,120 112,112 118,112" fill="#4caf50"/>
    <text x="135" y="127" font-size="8" fill="#555" text-anchor="middle">大扭矩电机 · 低减速比</text>
    <line x1="12" y1="134" x2="258" y2="134" stroke="#e0e0e0" stroke-width="1"/>
    <text x="12" y="147" font-size="9" fill="#444">SU Lab 6:1 · 20Nm</text>
    <text x="12" y="158" font-size="9" fill="#444">UTD 7:1 · 91.9%效率</text>
    <text x="12" y="169" font-size="9" fill="#444">T-BLUE 开源</text>
    <rect x="12" y="176" width="88" height="16" rx="3" fill="#ffebee"/>
    <text x="56" y="188" font-size="9" font-weight="600" fill="#c62828" text-anchor="middle">TRL 2-5 · 学术研究</text>
    <rect x="10" y="200" width="250" height="28" rx="4" fill="#9e9e9e"/>
    <text x="135" y="219" font-size="11" font-weight="700" fill="#fff" text-anchor="middle">不推荐 · 扭矩密度不足</text>
  </g>

  <!-- CARD 10: 磁流变 MR — 不推荐 -->
  <g transform="translate(294, 622)">
    <rect x="0" y="0" width="270" height="250" rx="8" fill="#fafafa" stroke="#e0e0e0" stroke-width="1.5" filter="url(#shadow)"/>
    <text x="12" y="21" font-size="15" font-weight="700" fill="#1a1a2e">10. 磁流变</text>
    <text x="12" y="36" font-size="11" fill="#666">Magnetorheological</text>
    <line x1="12" y1="44" x2="258" y2="44" stroke="#e0e0e0" stroke-width="1"/>
    <!-- Diagram -->
    <use href="#leg"/>
    <!-- MR damper -->
    <rect x="146" y="74" width="14" height="22" rx="2" fill="#f3e5f5" stroke="#9c27b0" stroke-width="1.5"/>
    <!-- Particles (dots) inside -->
    <circle cx="150" cy="79" r="1.5" fill="#9c27b0"/>
    <circle cx="153" cy="84" r="1.5" fill="#9c27b0"/>
    <circle cx="148" cy="89" r="1.5" fill="#9c27b0"/>
    <circle cx="152" cy="91" r="1.5" fill="#9c27b0"/>
    <!-- Magnetic field lines -->
    <path d="M164,74 Q172,85 164,96" fill="none" stroke="#9c27b0" stroke-width="1.2" stroke-dasharray="2,2"/>
    <path d="M167,76 Q174,85 167,94" fill="none" stroke="#9c27b0" stroke-width="1" stroke-dasharray="2,2" opacity="0.6"/>
    <text x="135" y="127" font-size="8" fill="#555" text-anchor="middle">磁流变液 · 毫秒级响应</text>
    <line x1="12" y1="134" x2="258" y2="134" stroke="#e0e0e0" stroke-width="1"/>
    <text x="12" y="147" font-size="9" fill="#444">海普曼(振江603507)</text>
    <text x="12" y="158" font-size="9" fill="#888">研发阶段</text>
    <text x="12" y="169" font-size="9" fill="#444">BaDMr 16ms响应</text>
    <rect x="12" y="176" width="88" height="16" rx="3" fill="#ffebee"/>
    <text x="56" y="188" font-size="9" font-weight="600" fill="#c62828" text-anchor="middle">TRL 2-5 · 学术研究</text>
    <rect x="10" y="200" width="250" height="28" rx="4" fill="#9e9e9e"/>
    <text x="135" y="219" font-size="11" font-weight="700" fill="#fff" text-anchor="middle">不推荐 · 技术成熟度低</text>
  </g>

  <!-- CARD 11: 半主动离合器 Semi-Active Clutch — 不推荐 -->
  <g transform="translate(564, 622)">
    <rect x="0" y="0" width="270" height="250" rx="8" fill="#fafafa" stroke="#e0e0e0" stroke-width="1.5" filter="url(#shadow)"/>
    <text x="12" y="21" font-size="15" font-weight="700" fill="#1a1a2e">11. 半主动离合器</text>
    <text x="12" y="36" font-size="11" fill="#666">Semi-Active Clutch</text>
    <line x1="12" y1="44" x2="258" y2="44" stroke="#e0e0e0" stroke-width="1"/>
    <!-- Diagram -->
    <use href="#leg"/>
    <!-- Clutch upper plate -->
    <rect x="143" y="78" width="20" height="6" rx="1" fill="#666"/>
    <!-- Clutch lower plate -->
    <rect x="143" y="88" width="20" height="6" rx="1" fill="#666"/>
    <!-- Spring above clutch -->
    <polyline points="153,56 148,62 153,68 148,74 153,78" fill="none" stroke="#e91e63" stroke-width="2" stroke-linecap="round"/>
    <!-- Engagement arrows -->
    <line x1="166" y1="81" x2="166" y2="88" stroke="#ff9800" stroke-width="1.5" stroke-linecap="round"/>
    <polygon points="166,89 164,85 168,85" fill="#ff9800"/>
    <text x="135" y="127" font-size="8" fill="#555" text-anchor="middle">能量回收 · 离合器控制</text>
    <line x1="12" y1="134" x2="258" y2="134" stroke="#e0e0e0" stroke-width="1"/>
    <text x="12" y="147" font-size="9" fill="#444">BGU 28Nm · 1:160效率</text>
    <text x="12" y="158" font-size="9" fill="#444">中科大 CPEMA</text>
    <text x="12" y="169" font-size="9" fill="#444">能量回收控制</text>
    <rect x="12" y="176" width="88" height="16" rx="3" fill="#ffebee"/>
    <text x="56" y="188" font-size="9" font-weight="600" fill="#c62828" text-anchor="middle">TRL 2-5 · 学术研究</text>
    <rect x="10" y="200" width="250" height="28" rx="4" fill="#9e9e9e"/>
    <text x="135" y="219" font-size="11" font-weight="700" fill="#fff" text-anchor="middle">不推荐 · 控制复杂/能耗高</text>
  </g>

  <!-- CARD 12: 形状记忆合金 SMA — 不推荐 -->
  <g transform="translate(834, 622)">
    <rect x="0" y="0" width="270" height="250" rx="8" fill="#fafafa" stroke="#e0e0e0" stroke-width="1.5" filter="url(#shadow)"/>
    <text x="12" y="21" font-size="15" font-weight="700" fill="#1a1a2e">12. 形状记忆合金</text>
    <text x="12" y="36" font-size="11" fill="#666">Shape Memory Alloy</text>
    <line x1="12" y1="44" x2="258" y2="44" stroke="#e0e0e0" stroke-width="1"/>
    <!-- Diagram -->
    <use href="#leg"/>
    <!-- SMA wire behind leg -->
    <line x1="146" y1="52" x2="146" y2="118" stroke="#e91e63" stroke-width="2.5" stroke-linecap="round"/>
    <!-- Heat wave symbols -->
    <path d="M152,62 Q156,67 152,72" fill="none" stroke="#ff6b6b" stroke-width="1.5"/>
    <path d="M152,77 Q156,82 152,87" fill="none" stroke="#ff6b6b" stroke-width="1.5"/>
    <path d="M152,92 Q156,97 152,102" fill="none" stroke="#ff6b6b" stroke-width="1.5"/>
    <!-- Contraction arrows on SMA wire -->
    <line x1="140" y1="75" x2="140" y2="85" stroke="#e91e63" stroke-width="1.5"/>
    <polygon points="140,87 138,81 142,81" fill="#e91e63"/>
    <polygon points="140,73 138,79 142,79" fill="#e91e63"/>
    <text x="135" y="127" font-size="8" fill="#555" text-anchor="middle">SMA线 · 通电收缩驱动</text>
    <line x1="12" y1="134" x2="258" y2="134" stroke="#e0e0e0" stroke-width="1"/>
    <text x="12" y="147" font-size="9" fill="#444">UC3M 56g/单元 · 90°C</text>
    <text x="12" y="158" font-size="9" fill="#444">大连理工研究</text>
    <text x="12" y="169" font-size="9" fill="#444">KIT研究</text>
    <rect x="12" y="176" width="88" height="16" rx="3" fill="#ffebee"/>
    <text x="56" y="188" font-size="9" font-weight="600" fill="#c62828" text-anchor="middle">TRL 2-5 · 学术研究</text>
    <rect x="10" y="200" width="250" height="28" rx="4" fill="#9e9e9e"/>
    <text x="135" y="219" font-size="11" font-weight="700" fill="#fff" text-anchor="middle">不推荐 · 响应慢/效率低</text>
  </g>

  <!-- ============ LEGEND ============ -->
  <line x1="24" y1="870" x2="1176" y2="870" stroke="#e0e0e0" stroke-width="1"/>
  <g transform="translate(0, 878)">
    <rect x="24" y="0" width="12" height="12" rx="2" fill="#00c853"/>
    <text x="42" y="10" font-size="10" fill="#555">Gen 0-2 首选</text>

    <rect x="174" y="0" width="12" height="12" rx="2" fill="#ffc107"/>
    <text x="192" y="10" font-size="10" fill="#555">Gen 2+ 备选</text>

    <rect x="324" y="0" width="12" height="12" rx="2" fill="#0096f0"/>
    <rect x="364" y="0" width="12" height="12" rx="2" fill="none" stroke="#0096f0" stroke-width="2" stroke-dasharray="3,2"/>
    <text x="382" y="10" font-size="10" fill="#555">Gen 3 终极 (虚线边框)</text>

    <rect x="592" y="0" width="12" height="12" rx="2" fill="#9e9e9e"/>
    <text x="610" y="10" font-size="10" fill="#555">不推荐 (灰色)</text>

    <text x="770" y="10" font-size="10" fill="#999">—— TRL从高到低排列：第1行 TRL 7-9 / 第2行 TRL 5-7 / 第3行 TRL 2-5</text>
  </g>
</svg>
