<svg xmlns="http://www.w3.org/2000/svg" viewBox="0 0 800 920" width="100%" height="100%">
  <defs>
    <linearGradient id="bgGrad" x1="0" y1="0" x2="0" y2="1">
      <stop offset="0%" stop-color="#FAFBFC"/>
      <stop offset="100%" stop-color="#F2F4F7"/>
    </linearGradient>
    <linearGradient id="beltGrad" x1="0" y1="0" x2="0" y2="1">
      <stop offset="0%" stop-color="#4A4F56"/>
      <stop offset="15%" stop-color="#3A3F47"/>
      <stop offset="50%" stop-color="#2A2E33"/>
      <stop offset="85%" stop-color="#1E2228"/>
      <stop offset="100%" stop-color="#161A1F"/>
    </linearGradient>
    <linearGradient id="motorGrad" x1="0" y1="0" x2="1" y2="1">
      <stop offset="0%" stop-color="#555B63"/>
      <stop offset="30%" stop-color="#3A3F47"/>
      <stop offset="70%" stop-color="#2A2E33"/>
      <stop offset="100%" stop-color="#1A1D23"/>
    </linearGradient>
    <linearGradient id="rodGrad" x1="0" y1="0" x2="1" y2="0">
      <stop offset="0%" stop-color="#2D3238"/>
      <stop offset="25%" stop-color="#4A5058"/>
      <stop offset="50%" stop-color="#555B63"/>
      <stop offset="75%" stop-color="#4A5058"/>
      <stop offset="100%" stop-color="#2D3238"/>
    </linearGradient>
    <linearGradient id="braceGrad" x1="0" y1="0" x2="0" y2="1">
      <stop offset="0%" stop-color="#3D566E"/>
      <stop offset="30%" stop-color="#34495E"/>
      <stop offset="70%" stop-color="#2C3E50"/>
      <stop offset="100%" stop-color="#1E2C3A"/>
    </linearGradient>
    <linearGradient id="braceSide" x1="0" y1="0" x2="1" y2="0">
      <stop offset="0%" stop-color="#000" stop-opacity="0.2"/>
      <stop offset="20%" stop-color="#000" stop-opacity="0"/>
      <stop offset="80%" stop-color="#000" stop-opacity="0"/>
      <stop offset="100%" stop-color="#000" stop-opacity="0.25"/>
    </linearGradient>
    <linearGradient id="cableGrad" x1="0" y1="0" x2="1" y2="0">
      <stop offset="0%" stop-color="#3A3F47"/>
      <stop offset="40%" stop-color="#555B63"/>
      <stop offset="100%" stop-color="#3A3F47"/>
    </linearGradient>
    <linearGradient id="strapGrad" x1="0" y1="0" x2="0" y2="1">
      <stop offset="0%" stop-color="#4A4F56"/>
      <stop offset="100%" stop-color="#2A2E33"/>
    </linearGradient>
    <pattern id="carbonWeave" x="0" y="0" width="8" height="8" patternUnits="userSpaceOnUse">
      <rect width="8" height="8" fill="#3D4249"/>
      <path d="M0,8 L8,0" stroke="#2D3238" stroke-width="0.6"/>
      <path d="M2,8 L8,2" stroke="#4A5058" stroke-width="0.3"/>
      <path d="M0,6 L6,0" stroke="#4A5058" stroke-width="0.3"/>
      <path d="M8,0 L0,8" stroke="#1A1D23" stroke-width="0.3"/>
    </pattern>
    <pattern id="fabricTex" x="0" y="0" width="4" height="4" patternUnits="userSpaceOnUse">
      <rect width="4" height="4" fill="none"/>
      <path d="M0,0 L4,4 M4,0 L0,4" stroke="#1A2A3A" stroke-width="0.3" opacity="0.25"/>
    </pattern>
    <pattern id="grid" x="0" y="0" width="40" height="40" patternUnits="userSpaceOnUse">
      <path d="M 40 0 L 0 0 0 40" fill="none" stroke="#E8EBF0" stroke-width="0.5"/>
    </pattern>
    <filter id="shadowHeavy" x="-5%" y="-5%" width="115%" height="115%">
      <feDropShadow dx="1" dy="3" stdDeviation="4" flood-color="#000" flood-opacity="0.18"/>
    </filter>
    <filter id="shadowLight" x="-5%" y="-5%" width="115%" height="115%">
      <feDropShadow dx="0" dy="1.5" stdDeviation="2.5" flood-color="#000" flood-opacity="0.10"/>
    </filter>
    <filter id="glow" x="-10%" y="-10%" width="120%" height="120%">
      <feDropShadow dx="0" dy="0" stdDeviation="1.5" flood-color="#0096f0" flood-opacity="0.15"/>
    </filter>
  </defs>

  <!-- ============================================================ -->
  <!-- BACKGROUND                                                    -->
  <!-- ============================================================ -->
  <rect width="800" height="920" fill="url(#bgGrad)"/>
  <g opacity="0.6">
    <rect x="25" y="25" width="750" height="870" fill="none" stroke="#D5D8DC" stroke-width="0.8"/>
    <rect x="28" y="28" width="744" height="864" fill="none" stroke="#E0E3E8" stroke-width="0.5"/>
  </g>
  <rect x="0" y="0" width="800" height="920" fill="url(#grid)" opacity="0.4"/>
  <line x1="400" y1="40" x2="400" y2="880" stroke="#E0E3E8" stroke-width="0.5" stroke-dasharray="6,8" opacity="0.6"/>

  <!-- Ground shadow -->
  <ellipse cx="400" cy="882" rx="130" ry="8" fill="#D0D4D8" opacity="0.3"/>
  <ellipse cx="400" cy="882" rx="85" ry="4" fill="#C0C4C8" opacity="0.2"/>

  <!-- ============================================================ -->
  <!-- TITLE AREA                                                    -->
  <!-- ============================================================ -->
  <text x="400" y="44" text-anchor="middle" font-family="'PingFang SC','Microsoft YaHei','Helvetica Neue',sans-serif" font-size="16" font-weight="700" fill="#2C3E50" letter-spacing="3">Bones Gen 1 · 绳驱膝关节外骨骼</text>
  <text x="400" y="62" text-anchor="middle" font-family="'PingFang SC','Microsoft YaHei','Helvetica Neue',sans-serif" font-size="10" font-weight="400" fill="#8C939A" letter-spacing="2">绳驱（Bowden电缆）· 双向推拉（弹簧辅助）· 腰部电机 · 膝部护膝式柔性接口 · 正面视图</text>

  <!-- ============================================================ -->
  <!-- HUMAN FIGURE — full body, front view                          -->
  <!-- ============================================================ -->
  <g id="human-figure">
    <!-- Head -->
    <ellipse cx="400" cy="112" rx="28" ry="32" fill="#F0F1F3"/>
    <!-- Neck -->
    <path d="M 376,142 Q 400,148 424,142 L 427,152 Q 400,160 373,152 Z" fill="#F0F1F3"/>
    <!-- Torso -->
    <path d="M 374,148 Q 325,156 305,168 Q 318,200 326,228 Q 336,278 340,318 Q 334,348 326,365 L 400,374 L 474,365 Q 466,348 460,318 Q 464,278 474,228 Q 482,200 495,168 Q 475,156 426,148 Z" fill="#F0F1F3"/>
    <!-- Left arm -->
    <path d="M 305,168 Q 280,230 283,300 Q 285,340 292,368" fill="none" stroke="#F0F1F3" stroke-width="16" stroke-linecap="round"/>
    <!-- Right arm -->
    <path d="M 495,168 Q 520,230 517,300 Q 515,340 508,368" fill="none" stroke="#F0F1F3" stroke-width="16" stroke-linecap="round"/>
    <!-- Left hand -->
    <ellipse cx="293" cy="380" rx="12" ry="16" fill="#F0F1F3"/>
    <!-- Right hand -->
    <ellipse cx="507" cy="380" rx="12" ry="16" fill="#F0F1F3"/>

    <!-- Left leg (full, down to foot) -->
    <path d="M 342,362 Q 350,440 350,530 Q 350,620 342,710" fill="none" stroke="#F0F1F3" stroke-width="26" stroke-linecap="round"/>
    <!-- Right leg -->
    <path d="M 458,362 Q 450,440 450,530 Q 450,620 458,710" fill="none" stroke="#F0F1F3" stroke-width="26" stroke-linecap="round"/>

    <!-- Left foot -->
    <path d="M 336,710 L 318,732 L 332,744 L 362,744 L 364,730 L 356,710 Z" fill="#F0F1F3"/>
    <!-- Right foot -->
    <path d="M 464,710 L 482,732 L 468,744 L 438,744 L 436,730 L 444,710 Z" fill="#F0F1F3"/>

    <!-- Anatomical landmarks -->
    <g stroke="#D0D4D8" stroke-width="0.7" fill="none">
      <path d="M 338,155 Q 400,162 462,155" stroke-dasharray="2,3" opacity="0.5"/>
      <path d="M 338,318 Q 400,326 462,318" stroke-dasharray="2,3" opacity="0.5"/>
      <circle cx="350" cy="530" r="6" stroke-width="1" opacity="0.4"/>
      <circle cx="450" cy="530" r="6" stroke-width="1" opacity="0.4"/>
      <circle cx="340" cy="708" r="3.5" stroke-width="0.7" opacity="0.3"/>
      <circle cx="460" cy="708" r="3.5" stroke-width="0.7" opacity="0.3"/>
    </g>
  </g>

  <!-- ============================================================ -->
  <!-- EXOSKELETON COMPONENTS                                       -->
  <!-- ============================================================ -->

  <!-- WAIST BELT -->
  <g id="waist-belt" filter="url(#shadowHeavy)">
    <path d="M 322,313 Q 400,330 478,313 L 480,348 Q 400,368 320,348 Z" fill="url(#beltGrad)"/>
    <path d="M 322,313 Q 400,330 478,313" fill="none" stroke="#6B727A" stroke-width="1.2"/>
    <path d="M 320,348 Q 400,368 480,348" fill="none" stroke="#161A1F" stroke-width="1.2"/>
    <path d="M 321,330 Q 400,349 479,330" fill="none" stroke="#1A1D23" stroke-width="0.5" opacity="0.4"/>
    <!-- Center control panel -->
    <rect x="380" y="322" width="40" height="28" rx="3" fill="#1A1D23" stroke="#6B727A" stroke-width="0.8"/>
    <circle cx="400" cy="332" r="4" fill="#555B63"/>
    <circle cx="400" cy="332" r="2.5" fill="#0096F0" opacity="0.8" filter="url(#glow)"/>
    <text x="400" y="344" text-anchor="middle" font-family="'Helvetica Neue',sans-serif" font-size="5" fill="#6B727A" font-weight="600">ON</text>
    <!-- Stitching -->
    <path d="M 328,320 Q 400,336 472,320" fill="none" stroke="#6B727A" stroke-width="0.5" stroke-dasharray="2,3" opacity="0.3"/>
    <path d="M 326,342 Q 400,360 474,342" fill="none" stroke="#6B727A" stroke-width="0.5" stroke-dasharray="2,3" opacity="0.3"/>
  </g>

  <!-- MOTOR UNITS (bilateral) -->
  <g id="motor-units">
    <!-- Left motor -->
    <g filter="url(#shadowHeavy)">
      <rect x="292" y="304" width="30" height="54" rx="6" fill="url(#motorGrad)"/>
      <rect x="292" y="304" width="30" height="54" rx="6" fill="none" stroke="#6B727A" stroke-width="0.8"/>
      <rect x="294" y="306" width="26" height="50" rx="4" fill="none" stroke="#4A5058" stroke-width="0.5"/>
      <line x1="296" y1="315" x2="296" y2="348" stroke="#1A1D23" stroke-width="1.5" opacity="0.3"/>
      <line x1="318" y1="315" x2="318" y2="348" stroke="#1A1D23" stroke-width="1.5" opacity="0.3"/>
      <text x="307" y="326" text-anchor="middle" font-family="'Helvetica Neue',sans-serif" font-size="5.5" fill="#6B727A" font-weight="600">NM</text>
      <circle cx="307" cy="354" r="4" fill="#555B63" stroke="#6B727A" stroke-width="0.5"/>
      <circle cx="307" cy="354" r="2" fill="#2A2E33"/>
    </g>
    <!-- Right motor -->
    <g filter="url(#shadowHeavy)">
      <rect x="478" y="304" width="30" height="54" rx="6" fill="url(#motorGrad)"/>
      <rect x="478" y="304" width="30" height="54" rx="6" fill="none" stroke="#6B727A" stroke-width="0.8"/>
      <rect x="480" y="306" width="26" height="50" rx="4" fill="none" stroke="#4A5058" stroke-width="0.5"/>
      <line x1="482" y1="315" x2="482" y2="348" stroke="#1A1D23" stroke-width="1.5" opacity="0.3"/>
      <line x1="504" y1="315" x2="504" y2="348" stroke="#1A1D23" stroke-width="1.5" opacity="0.3"/>
      <text x="493" y="326" text-anchor="middle" font-family="'Helvetica Neue',sans-serif" font-size="5.5" fill="#6B727A" font-weight="600">NM</text>
      <circle cx="493" cy="354" r="4" fill="#555B63" stroke="#6B727A" stroke-width="0.5"/>
      <circle cx="493" cy="354" r="2" fill="#2A2E33"/>
    </g>
  </g>

  <!-- BATTERY PACK (rear, dashed outline) -->
  <g id="battery-pack">
    <path d="M 386,302 Q 400,294 414,302" fill="none" stroke="#8C939A" stroke-width="0.8" stroke-dasharray="2,3"/>
    <path d="M 384,296 Q 400,287 416,296" fill="none" stroke="#A0A6AE" stroke-width="0.5" stroke-dasharray="2,3"/>
  </g>

  <!-- ============================================================ -->
  <!-- CABLE ASSEMBLIES — 碳纤维大腿连杆 + Bowden电缆                -->
  <!-- ============================================================ -->
  <g id="cable-assemblies">
    <!-- LEFT SIDE -->
    <!-- Carbon fiber rod shadow -->
    <path d="M 336,366 L 348,540" stroke="#1A1D23" stroke-width="7" stroke-linecap="round" opacity="0.15" transform="translate(2,2)"/>
    <!-- Carbon fiber rod -->
    <path d="M 334,366 L 346,540" stroke="url(#carbonWeave)" stroke-width="7" stroke-linecap="round"/>
    <path d="M 334,366 L 346,540" stroke="url(#rodGrad)" stroke-width="7" stroke-linecap="round" opacity="0.7"/>
    <path d="M 332,366 L 344,540" stroke="#727980" stroke-width="1.2" stroke-linecap="round" opacity="0.35"/>
    <path d="M 336,366 L 348,540" stroke="#1A1D23" stroke-width="1.2" stroke-linecap="round" opacity="0.2"/>
    <!-- Bowden cable -->
    <path d="M 307,354 Q 320,366 334,366 L 346,540" stroke="url(#cableGrad)" stroke-width="5" fill="none" stroke-linecap="round"/>
    <path d="M 307,354 Q 320,366 334,366 L 346,540" stroke="#2A2E33" stroke-width="5" fill="none" stroke-linecap="round" opacity="0.3"/>
    <!-- Cable inner wire at motor -->
    <path d="M 307,348 L 307,354" stroke="#8C929A" stroke-width="1.5" fill="none"/>
    <circle cx="307" cy="348" r="1.3" fill="#A0A6AE"/>
    <!-- Cable ferrule at knee -->
    <rect x="342" y="536" width="8" height="5" rx="1.5" fill="#2A2E33" stroke="#555B63" stroke-width="0.5"/>
    <path d="M 346,540 L 348,547" stroke="#8C929A" stroke-width="1.2" fill="none"/>
    <circle cx="348" cy="547" r="1" fill="#A0A6AE"/>
    <!-- Cable clips -->
    <rect x="332" y="418" width="14" height="3" rx="1" fill="#1A1D23" opacity="0.3"/>
    <rect x="334" y="470" width="14" height="3" rx="1" fill="#1A1D23" opacity="0.3"/>

    <!-- RIGHT SIDE -->
    <path d="M 464,366 L 452,540" stroke="#1A1D23" stroke-width="7" stroke-linecap="round" opacity="0.15" transform="translate(-2,2)"/>
    <path d="M 466,366 L 454,540" stroke="url(#carbonWeave)" stroke-width="7" stroke-linecap="round"/>
    <path d="M 466,366 L 454,540" stroke="url(#rodGrad)" stroke-width="7" stroke-linecap="round" opacity="0.7"/>
    <path d="M 468,366 L 456,540" stroke="#727980" stroke-width="1.2" stroke-linecap="round" opacity="0.35"/>
    <path d="M 464,366 L 452,540" stroke="#1A1D23" stroke-width="1.2" stroke-linecap="round" opacity="0.2"/>
    <path d="M 493,354 Q 480,366 466,366 L 454,540" stroke="url(#cableGrad)" stroke-width="5" fill="none" stroke-linecap="round"/>
    <path d="M 493,354 Q 480,366 466,366 L 454,540" stroke="#2A2E33" stroke-width="5" fill="none" stroke-linecap="round" opacity="0.3"/>
    <path d="M 493,348 L 493,354" stroke="#8C929A" stroke-width="1.5" fill="none"/>
    <circle cx="493" cy="348" r="1.3" fill="#A0A6AE"/>
    <rect x="450" y="536" width="8" height="5" rx="1.5" fill="#2A2E33" stroke="#555B63" stroke-width="0.5"/>
    <path d="M 454,540 L 452,547" stroke="#8C929A" stroke-width="1.2" fill="none"/>
    <circle cx="452" cy="547" r="1" fill="#A0A6AE"/>
    <rect x="454" y="418" width="14" height="3" rx="1" fill="#1A1D23" opacity="0.3"/>
    <rect x="452" y="470" width="14" height="3" rx="1" fill="#1A1D23" opacity="0.3"/>
  </g>

  <!-- ============================================================ -->
  <!-- KNEE BRACE INTERFACES — 膝部护膝式柔性接口（无铰链）           -->
  <!-- ============================================================ -->
  <g id="knee-braces">
    <!-- LEFT KNEE BRACE -->
    <g filter="url(#shadowHeavy)">
      <ellipse cx="348" cy="542" rx="30" ry="26" fill="#000" opacity="0.06"/>
      <path d="M 322,512 Q 348,500 374,512 L 376,568 Q 348,580 320,568 Z" fill="url(#braceGrad)"/>
      <path d="M 322,512 Q 348,500 374,512 L 376,568 Q 348,580 320,568 Z" fill="url(#fabricTex)"/>
      <path d="M 322,512 Q 348,500 374,512 L 376,568 Q 348,580 320,568 Z" fill="url(#braceSide)"/>
      <path d="M 322,512 Q 348,500 374,512" fill="none" stroke="#4A6274" stroke-width="4.5" stroke-linecap="round"/>
      <path d="M 322,513 Q 348,501 374,513" fill="none" stroke="#5A7A8E" stroke-width="0.8" stroke-linecap="round" opacity="0.4"/>
      <path d="M 320,568 Q 348,580 376,568" fill="none" stroke="#1E2C3A" stroke-width="4" stroke-linecap="round"/>
      <path d="M 320,567 Q 348,579 376,567" fill="none" stroke="#4A6274" stroke-width="0.8" stroke-linecap="round" opacity="0.3"/>
      <ellipse cx="348" cy="540" rx="10" ry="12" fill="#1E2C3A" stroke="#4A6274" stroke-width="1"/>
      <ellipse cx="348" cy="540" rx="5.5" ry="8" fill="#16202A" opacity="0.6"/>
      <path d="M 328,522 Q 348,512 368,522" fill="none" stroke="#4A6274" stroke-width="0.6" stroke-dasharray="2,3" opacity="0.5"/>
      <path d="M 326,558 Q 348,568 370,558" fill="none" stroke="#4A6274" stroke-width="0.6" stroke-dasharray="2,3" opacity="0.5"/>
      <path d="M 330,514 L 328,564" stroke="#4A6274" stroke-width="1.2" fill="none" opacity="0.25"/>
      <path d="M 366,514 L 368,564" stroke="#4A6274" stroke-width="1.2" fill="none" opacity="0.25"/>
      <circle cx="348" cy="508" r="3.5" fill="#2A2E33" stroke="#555B63" stroke-width="0.6"/>
      <circle cx="348" cy="508" r="1.8" fill="#555B63"/>
      <circle cx="348" cy="508" r="5.5" fill="none" stroke="#4A6274" stroke-width="0.5" stroke-dasharray="2,2" opacity="0.4"/>
      <path d="M 330,528 Q 348,520 366,528" stroke="#1A2A3A" stroke-width="0.3" fill="none" opacity="0.3"/>
      <path d="M 328,548 Q 348,540 368,548" stroke="#1A2A3A" stroke-width="0.3" fill="none" opacity="0.3"/>
    </g>

    <!-- RIGHT KNEE BRACE -->
    <g filter="url(#shadowHeavy)">
      <ellipse cx="452" cy="542" rx="30" ry="26" fill="#000" opacity="0.06"/>
      <path d="M 426,512 Q 452,500 478,512 L 480,568 Q 452,580 424,568 Z" fill="url(#braceGrad)"/>
      <path d="M 426,512 Q 452,500 478,512 L 480,568 Q 452,580 424,568 Z" fill="url(#fabricTex)"/>
      <path d="M 426,512 Q 452,500 478,512 L 480,568 Q 452,580 424,568 Z" fill="url(#braceSide)"/>
      <path d="M 426,512 Q 452,500 478,512" fill="none" stroke="#4A6274" stroke-width="4.5" stroke-linecap="round"/>
      <path d="M 426,513 Q 452,501 478,513" fill="none" stroke="#5A7A8E" stroke-width="0.8" stroke-linecap="round" opacity="0.4"/>
      <path d="M 424,568 Q 452,580 480,568" fill="none" stroke="#1E2C3A" stroke-width="4" stroke-linecap="round"/>
      <path d="M 424,567 Q 452,579 480,567" fill="none" stroke="#4A6274" stroke-width="0.8" stroke-linecap="round" opacity="0.3"/>
      <ellipse cx="452" cy="540" rx="10" ry="12" fill="#1E2C3A" stroke="#4A6274" stroke-width="1"/>
      <ellipse cx="452" cy="540" rx="5.5" ry="8" fill="#16202A" opacity="0.6"/>
      <path d="M 432,522 Q 452,512 472,522" fill="none" stroke="#4A6274" stroke-width="0.6" stroke-dasharray="2,3" opacity="0.5"/>
      <path d="M 430,558 Q 452,568 474,558" fill="none" stroke="#4A6274" stroke-width="0.6" stroke-dasharray="2,3" opacity="0.5"/>
      <path d="M 434,514 L 432,564" stroke="#4A6274" stroke-width="1.2" fill="none" opacity="0.25"/>
      <path d="M 470,514 L 472,564" stroke="#4A6274" stroke-width="1.2" fill="none" opacity="0.25"/>
      <circle cx="452" cy="508" r="3.5" fill="#2A2E33" stroke="#555B63" stroke-width="0.6"/>
      <circle cx="452" cy="508" r="1.8" fill="#555B63"/>
      <circle cx="452" cy="508" r="5.5" fill="none" stroke="#4A6274" stroke-width="0.5" stroke-dasharray="2,2" opacity="0.4"/>
      <path d="M 434,528 Q 452,520 470,528" stroke="#1A2A3A" stroke-width="0.3" fill="none" opacity="0.3"/>
      <path d="M 432,548 Q 452,540 472,548" stroke="#1A2A3A" stroke-width="0.3" fill="none" opacity="0.3"/>
    </g>
  </g>

  <!-- ============================================================ -->
  <!-- CALF STRAPS — 小腿绑带                                         -->
  <!-- ============================================================ -->
  <g id="calf-straps">
    <!-- Left calf strap -->
    <g filter="url(#shadowLight)">
      <path d="M 334,620 Q 350,614 366,620 L 366,630 Q 350,624 334,630 Z" fill="url(#strapGrad)"/>
      <path d="M 334,620 Q 350,614 366,620" fill="none" stroke="#6B727A" stroke-width="0.8"/>
      <path d="M 334,630 Q 350,624 366,630" fill="none" stroke="#1A1D23" stroke-width="0.6"/>
      <rect x="347" y="618" width="7" height="12" rx="1.5" fill="#1A1D23" stroke="#555B63" stroke-width="0.5"/>
      <circle cx="338" cy="625" r="1" fill="#1A1D23" opacity="0.3"/>
      <circle cx="342" cy="624" r="1" fill="#1A1D23" opacity="0.3"/>
    </g>
    <!-- Right calf strap -->
    <g filter="url(#shadowLight)">
      <path d="M 434,620 Q 450,614 466,620 L 466,630 Q 450,624 434,630 Z" fill="url(#strapGrad)"/>
      <path d="M 434,620 Q 450,614 466,620" fill="none" stroke="#6B727A" stroke-width="0.8"/>
      <path d="M 434,630 Q 450,624 466,630" fill="none" stroke="#1A1D23" stroke-width="0.6"/>
      <rect x="446" y="618" width="7" height="12" rx="1.5" fill="#1A1D23" stroke="#555B63" stroke-width="0.5"/>
      <circle cx="458" cy="625" r="1" fill="#1A1D23" opacity="0.3"/>
      <circle cx="462" cy="624" r="1" fill="#1A1D23" opacity="0.3"/>
    </g>
  </g>

  <!-- ============================================================ -->
  <!-- 标注与引导线（科学插图风格·中文标注）                           -->
  <!-- ============================================================ -->
  <g id="labels" font-family="'PingFang SC','Microsoft YaHei','Helvetica Neue',sans-serif">
    <!-- A: 腰带 -->
    <g>
      <polyline points="250,310 280,310 320,316" fill="none" stroke="#7A8088" stroke-width="0.8"/>
      <circle cx="320" cy="316" r="2.5" fill="#7A8088"/>
      <circle cx="320" cy="316" r="1.2" fill="#FFF"/>
      <text x="245" y="305" text-anchor="end" font-size="9" font-weight="700" fill="#3A3F47">A</text>
      <text x="245" y="315" text-anchor="end" font-size="7" fill="#7A8088">腰带（含主控）</text>
    </g>

    <!-- B: 腰部电机 -->
    <g>
      <polyline points="250,338 275,338 294,334" fill="none" stroke="#7A8088" stroke-width="0.8"/>
      <circle cx="294" cy="334" r="2.5" fill="#7A8088"/>
      <circle cx="294" cy="334" r="1.2" fill="#FFF"/>
      <text x="245" y="333" text-anchor="end" font-size="9" font-weight="700" fill="#3A3F47">B</text>
      <text x="245" y="343" text-anchor="end" font-size="7" fill="#7A8088">腰部电机</text>
    </g>

    <!-- C: Bowden电缆 -->
    <g>
      <polyline points="250,410 285,410 326,404" fill="none" stroke="#7A8088" stroke-width="0.8"/>
      <circle cx="326" cy="404" r="2.5" fill="#7A8088"/>
      <circle cx="326" cy="404" r="1.2" fill="#FFF"/>
      <text x="245" y="405" text-anchor="end" font-size="9" font-weight="700" fill="#3A3F47">C</text>
      <text x="245" y="415" text-anchor="end" font-size="7" fill="#7A8088">Bowden电缆（护套+内钢丝）</text>
    </g>

    <!-- D: 碳纤维大腿连杆 -->
    <g>
      <polyline points="250,455 285,455 338,444" fill="none" stroke="#7A8088" stroke-width="0.8"/>
      <circle cx="338" cy="444" r="2.5" fill="#7A8088"/>
      <circle cx="338" cy="444" r="1.2" fill="#FFF"/>
      <text x="245" y="450" text-anchor="end" font-size="9" font-weight="700" fill="#3A3F47">D</text>
      <text x="245" y="460" text-anchor="end" font-size="7" fill="#7A8088">碳纤维大腿连杆</text>
      <text x="245" y="469" text-anchor="end" font-size="7" fill="#7A8088">（沿大腿中线传力）</text>
    </g>

    <!-- E: 膝部护膝式柔性接口 -->
    <g>
      <polyline points="550,520 525,520 478,518" fill="none" stroke="#7A8088" stroke-width="0.8"/>
      <circle cx="478" cy="518" r="2.5" fill="#7A8088"/>
      <circle cx="478" cy="518" r="1.2" fill="#FFF"/>
      <text x="555" y="515" text-anchor="start" font-size="9" font-weight="700" fill="#3A3F47">E</text>
      <text x="555" y="525" text-anchor="start" font-size="7" fill="#7A8088">膝部护膝式柔性接口</text>
      <text x="555" y="534" text-anchor="start" font-size="7" fill="#0096F0" font-weight="600">（无刚性铰链·不约束关节自然运动）</text>
    </g>

    <!-- F: 小腿绑带 -->
    <g>
      <polyline points="550,626 520,626 468,622" fill="none" stroke="#7A8088" stroke-width="0.8"/>
      <circle cx="468" cy="622" r="2.5" fill="#7A8088"/>
      <circle cx="468" cy="622" r="1.2" fill="#FFF"/>
      <text x="555" y="621" text-anchor="start" font-size="9" font-weight="700" fill="#3A3F47">F</text>
      <text x="555" y="631" text-anchor="start" font-size="7" fill="#7A8088">小腿绑带（可调）</text>
    </g>

    <!-- G: 主控板 -->
    <g>
      <polyline points="550,342 510,342 422,340" fill="none" stroke="#7A8088" stroke-width="0.8"/>
      <circle cx="422" cy="340" r="2.5" fill="#7A8088"/>
      <circle cx="422" cy="340" r="1.2" fill="#FFF"/>
      <text x="555" y="337" text-anchor="start" font-size="9" font-weight="700" fill="#3A3F47">G</text>
      <text x="555" y="347" text-anchor="start" font-size="7" fill="#7A8088">主控板（STM32+ESP32）</text>
    </g>

    <!-- H: 电池包（背部·虚线示意） -->
    <g>
      <polyline points="550,300 490,300 410,300" fill="none" stroke="#A0A6AE" stroke-width="0.7" stroke-dasharray="2,2"/>
      <circle cx="410" cy="300" r="2" fill="none" stroke="#A0A6AE" stroke-width="0.7"/>
      <text x="555" y="295" text-anchor="start" font-size="7" font-weight="400" fill="#A0A6AE">H</text>
      <text x="555" y="305" text-anchor="start" font-size="6.5" fill="#A0A6AE">电池包（背部·4S1P 72Wh）</text>
    </g>
  </g>

  <!-- ============================================================ -->
  <!-- 图例                                                          -->
  <!-- ============================================================ -->
  <g id="legend" font-family="'PingFang SC','Microsoft YaHei','Helvetica Neue',sans-serif">
    <line x1="40" y1="888" x2="760" y2="888" stroke="#D5D8DC" stroke-width="0.8"/>
    <line x1="40" y1="889" x2="760" y2="889" stroke="#E8EBF0" stroke-width="0.5"/>

    <!-- Row 1 -->
    <text x="45" y="902" font-size="7" font-weight="700" fill="#3A3F47">A</text>
    <text x="58" y="902" font-size="6.5" fill="#7A8088">腰带（含主控）</text>
    <text x="200" y="902" font-size="7" font-weight="700" fill="#3A3F47">B</text>
    <text x="213" y="902" font-size="6.5" fill="#7A8088">腰部电机（左右各一·绳驱专用）</text>
    <text x="430" y="902" font-size="7" font-weight="700" fill="#3A3F47">C</text>
    <text x="443" y="902" font-size="6.5" fill="#7A8088">Bowden电缆（护套+内钢丝·沿大腿中线布置）</text>

    <!-- Row 2 -->
    <text x="45" y="916" font-size="7" font-weight="700" fill="#3A3F47">D</text>
    <text x="58" y="916" font-size="6.5" fill="#7A8088">碳纤维大腿连杆</text>
    <text x="200" y="916" font-size="7" font-weight="700" fill="#3A3F47">E</text>
    <text x="213" y="916" font-size="6.5" fill="#0096F0" font-weight="600">膝部护膝式柔性接口（无铰链·不约束关节自然运动）</text>
    <text x="620" y="916" font-size="7" font-weight="700" fill="#3A3F47">F</text>
    <text x="633" y="916" font-size="6.5" fill="#7A8088">小腿绑带</text>
  </g>

  <!-- ============================================================ -->
  <!-- 底部说明                                                      -->
  <!-- ============================================================ -->
  <g font-family="'PingFang SC','Microsoft YaHei','Helvetica Neue',sans-serif">
    <text x="400" y="880" text-anchor="middle" font-size="6" fill="#A0A6AE" font-style="italic">绳驱架构：电机在腰部 · 电缆沿大腿中线传力至膝部护膝接口 · 膝部无刚性铰链 · 双向推拉（弹簧辅助）· Fail-Safe: 断电即电缆松弛=零阻力</text>
  </g>
</svg>
