<svg xmlns="http://www.w3.org/2000/svg" viewBox="0 0 1200 1000">
  <defs>
    <marker id="aR" markerWidth="12" markerHeight="8" refX="12" refY="4" orient="auto"><path d="M0,0 L12,4 L0,8" fill="#d32f2f"/></marker>
    <marker id="aB" markerWidth="10" markerHeight="7" refX="10" refY="3.5" orient="auto"><path d="M0,0 L10,3.5 L0,7" fill="#0096f0"/></marker>
    <marker id="aA" markerWidth="10" markerHeight="7" refX="10" refY="3.5" orient="auto"><path d="M0,0 L10,3.5 L0,7" fill="#d97706"/></marker>
    <marker id="aG" markerWidth="10" markerHeight="7" refX="10" refY="3.5" orient="auto"><path d="M0,0 L10,3.5 L0,7" fill="#2e7d32"/></marker>
    <marker id="aGy" markerWidth="7" markerHeight="5" refX="7" refY="2.5" orient="auto"><path d="M0,0 L7,2.5 L0,5" fill="#888"/></marker>
    <linearGradient id="gBone" x1="0" y1="0" x2="1" y2="0"><stop offset="0%" stop-color="#e8ddc0"/><stop offset="35%" stop-color="#eee4cc"/><stop offset="65%" stop-color="#d4c9a8"/><stop offset="100%" stop-color="#c8b898"/></linearGradient>
    <linearGradient id="gBoneVert" x1="0" y1="0" x2="0" y2="1"><stop offset="0%" stop-color="#e8ddc0"/><stop offset="40%" stop-color="#eee4cc"/><stop offset="70%" stop-color="#d4c9a8"/><stop offset="100%" stop-color="#c8b898"/></linearGradient>
    <linearGradient id="gBg" x1="0" y1="0" x2="0" y2="1"><stop offset="0%" stop-color="#fcfcfc"/><stop offset="100%" stop-color="#f8f8f8"/></linearGradient>
    <linearGradient id="gMetal" x1="0" y1="0" x2="0" y2="1"><stop offset="0%" stop-color="#d0d0d0"/><stop offset="50%" stop-color="#b0b0b0"/><stop offset="100%" stop-color="#909090"/></linearGradient>
    <linearGradient id="gCopper" x1="0" y1="0" x2="0" y2="1"><stop offset="0%" stop-color="#c07030"/><stop offset="100%" stop-color="#a06020"/></linearGradient>
    <radialGradient id="gMuscle" cx="0.5" cy="0.5" r="0.5"><stop offset="0%" stop-color="rgba(200,50,50,0.18)"/><stop offset="100%" stop-color="rgba(180,40,40,0.08)"/></radialGradient>
    <linearGradient id="gMagnet" x1="0" y1="0" x2="1" y2="0"><stop offset="0%" stop-color="#c04040"/><stop offset="50%" stop-color="#d06060"/><stop offset="100%" stop-color="#c04040"/></linearGradient>
    <clipPath id="leftClip"><rect x="20" y="72" width="720" height="862"/></clipPath>
    <clipPath id="rightClip"><rect x="800" y="72" width="380" height="862"/></clipPath>
  </defs>
  <rect width="1200" height="1000" fill="#ffffff"/>
  <rect x="0" y="0" width="1200" height="1000" fill="url(#gBg)"/>
  <!-- Header -->
  <rect x="20" y="16" width="1160" height="48" rx="6" fill="#c45a5a"/>
  <text x="600" y="39" text-anchor="middle" font-size="18" font-weight="700" fill="#fff" font-family="'PingFang SC','Microsoft YaHei','Noto Sans SC',system-ui,Arial,Helvetica,sans-serif">准直驱（QDD）</text>
  <text x="600" y="56" text-anchor="middle" font-size="10" fill="rgba(255,255,255,0.8)" font-family="'PingFang SC','Microsoft YaHei','Noto Sans SC',system-ui,Arial,Helvetica,sans-serif">高扭矩密度电机+低减速比直驱 | TRL 2-5 前沿研究</text>
  <!-- Left panel -->
  <rect x="20" y="72" width="720" height="862" rx="4" fill="#ffffff" stroke="#d5d5d5" stroke-width="0.6"/>
  <g id="leftPanelGraphics" transform="translate(45,0)" clip-path="url(#leftClip)">
    <g >
    <!-- ANATOMY: MUSCLES -->
    <path d="M85,95 Q105,95 130,100 Q145,115 150,200 Q152,280 155,350 Q155,400 150,430 Q140,445 125,445 L95,445 Q80,445 75,430 Q70,400 70,350 Q68,280 70,200 Q72,115 85,95 Z" fill="rgba(200,50,50,0.12)" stroke="rgba(200,50,50,0.25)" stroke-width="0.5"/>
    <path d="M155,100 Q165,110 170,200 Q172,280 170,350 Q168,400 160,435 Q153,448 140,448 L130,448 Q120,448 115,435 Q110,400 108,350 Q105,280 110,200 Q113,115 125,100 Q135,95 145,95 Z" fill="rgba(200,50,50,0.10)" stroke="rgba(200,50,50,0.20)" stroke-width="0.5"/>
    <path d="M120,450 Q130,450 140,455 Q150,470 155,520 Q158,580 155,650 Q150,700 140,730 Q130,740 120,740 L95,740 Q85,740 80,730 Q73,700 70,650 Q68,580 72,520 Q75,470 85,455 Q92,450 102,450 Z" fill="rgba(200,50,50,0.10)" stroke="rgba(200,50,50,0.18)" stroke-width="0.5"/>
    <!-- BONES -->
    <path d="M110,100 Q113,100 117,105 Q123,115 127,180 Q130,250 130,300 Q131,350 129,400 Q127,425 123,435 Q117,440 113,440 Q108,440 103,435 Q99,425 97,400 Q95,350 96,300 Q97,250 100,180 Q103,115 107,105 Q108,100 110,100 Z" fill="url(#gBoneVert)" stroke="#c8b898" stroke-width="1"/>
    <ellipse cx="113" cy="108" rx="14" ry="16" fill="url(#gBone)" stroke="#c8b898" stroke-width="0.8"/>
    <ellipse cx="105" cy="438" rx="10" ry="12" fill="url(#gBone)" stroke="#c8b898" stroke-width="0.8"/>
    <ellipse cx="120" cy="438" rx="10" ry="12" fill="url(#gBone)" stroke="#c8b898" stroke-width="0.8"/>
    <path d="M110,450 Q113,450 117,455 Q123,470 127,540 Q130,600 130,660 Q131,720 128,760 Q125,775 120,780 Q115,782 110,780 Q105,782 100,780 Q95,775 92,760 Q89,720 90,660 Q91,600 93,540 Q97,470 103,455 Q107,450 110,450 Z" fill="url(#gBoneVert)" stroke="#c8b898" stroke-width="1"/>
    <rect x="97" y="448" width="28" height="8" rx="3" fill="url(#gBone)" stroke="#c8b898" stroke-width="0.6"/>
    <ellipse cx="133" cy="420" rx="16" ry="20" fill="url(#gBone)" stroke="#c8b898" stroke-width="1"/>
    </g>
    <!-- QDD MECHANISM: OUTER ROTOR MOTOR CROSS-SECTION -->
    <rect x="220" y="85" width="160" height="160" rx="6" fill="#fafafa" stroke="#ddd" stroke-width="0.5"/>
    <circle cx="300" cy="165" r="72" fill="none" stroke="#c45a5a" stroke-width="2.5"/>
    <circle cx="300" cy="165" r="65" fill="none" stroke="#c45a5a" stroke-width="0.6" opacity="0.3"/>
    <circle cx="300" cy="165" r="62" fill="none" stroke="#707070" stroke-width="1.5"/>
    <circle cx="300" cy="165" r="58" fill="none" stroke="#888" stroke-width="0.5" opacity="0.3"/>
    <path d="M250,135 Q255,130 260,135" fill="url(#gMagnet)" stroke="#c04040" stroke-width="0.3"/>
    <path d="M248,148 Q253,143 258,148" fill="url(#gMagnet)" stroke="#c04040" stroke-width="0.3"/>
    <path d="M247,162 Q252,157 257,162" fill="url(#gMagnet)" stroke="#c04040" stroke-width="0.3"/>
    <path d="M248,176 Q253,171 258,176" fill="url(#gMagnet)" stroke="#c04040" stroke-width="0.3"/>
    <path d="M250,190 Q255,185 260,190" fill="url(#gMagnet)" stroke="#c04040" stroke-width="0.3"/>
    <path d="M340,135 Q345,130 350,135" fill="url(#gMagnet)" stroke="#c04040" stroke-width="0.3"/>
    <path d="M342,148 Q347,143 352,148" fill="url(#gMagnet)" stroke="#c04040" stroke-width="0.3"/>
    <path d="M343,162 Q348,157 353,162" fill="url(#gMagnet)" stroke="#c04040" stroke-width="0.3"/>
    <path d="M342,176 Q347,171 352,176" fill="url(#gMagnet)" stroke="#c04040" stroke-width="0.3"/>
    <path d="M340,190 Q345,185 350,190" fill="url(#gMagnet)" stroke="#c04040" stroke-width="0.3"/>
    <circle cx="300" cy="165" r="44" fill="none" stroke="#d5d5d5" stroke-width="0.8" stroke-dasharray="2,2"/>
    <circle cx="300" cy="165" r="40" fill="none" stroke="#a0a0a0" stroke-width="1"/>
    <path d="M285,125 L280,120 L275,125 L270,125 L270,130 L280,135 L285,130" fill="url(#gCopper)" stroke="#a06020" stroke-width="0.4"/>
    <path d="M315,125 L320,120 L325,125 L330,125 L330,130 L320,135 L315,130" fill="url(#gCopper)" stroke="#a06020" stroke-width="0.4"/>
    <path d="M260,165 L255,170 L260,175 L260,180 L265,180 L270,170 L265,165" fill="url(#gCopper)" stroke="#a06020" stroke-width="0.4"/>
    <path d="M340,165 L345,170 L340,175 L340,180 L335,180 L330,170 L335,165" fill="url(#gCopper)" stroke="#a06020" stroke-width="0.4"/>
    <path d="M285,205 L280,210 L275,205 L270,205 L270,200 L280,195 L285,200" fill="url(#gCopper)" stroke="#a06020" stroke-width="0.4"/>
    <path d="M315,205 L320,210 L325,205 L330,205 L330,200 L320,195 L315,200" fill="url(#gCopper)" stroke="#a06020" stroke-width="0.4"/>
    <circle cx="300" cy="165" r="70" fill="none" stroke="#909090" stroke-width="0.5"/>
    <circle cx="300" cy="165" r="8" fill="url(#gMetal)" stroke="#808080" stroke-width="1"/>
    <circle cx="300" cy="165" r="3" fill="#aaa" stroke="#808080" stroke-width="0.5"/>
    <g >
    <!-- Anatomical labels -->
    <line x1="60" y1="180" x2="110" y2="180" stroke="#888" stroke-width="0.5"/><circle cx="110" cy="180" r="1.5" fill="#888"/>
    <text x="55" y="184" text-anchor="end" font-size="10" fill="#555" font-weight="bold" font-family="'PingFang SC','Microsoft YaHei','Noto Sans SC',system-ui,Arial,Helvetica,sans-serif">股骨</text>
    <line x1="60" y1="580" x2="110" y2="580" stroke="#888" stroke-width="0.5"/><circle cx="110" cy="580" r="1.5" fill="#888"/>
    <text x="55" y="584" text-anchor="end" font-size="10" fill="#555" font-weight="bold" font-family="'PingFang SC','Microsoft YaHei','Noto Sans SC',system-ui,Arial,Helvetica,sans-serif">胫骨</text>
    <!-- Supplementary labels -->
    <line x1="60" y1="620" x2="137" y2="620" stroke="#888" stroke-width="0.5"/><circle cx="137" cy="620" r="1.5" fill="#888"/>
    <text x="55" y="624" text-anchor="end" font-size="10" fill="#555" font-weight="bold" font-family="'PingFang SC','Microsoft YaHei','Noto Sans SC',system-ui,Arial,Helvetica,sans-serif">腓骨</text>
    <line x1="60" y1="448" x2="98" y2="448" stroke="#90b8d8" stroke-width="0.6"/>
    <text x="55" y="452" text-anchor="end" font-size="10" fill="#777" font-family="'PingFang SC','Microsoft YaHei','Noto Sans SC',system-ui,Arial,Helvetica,sans-serif">关节软骨</text>
    <path d="M104,452 Q115,458 126,452" fill="none" stroke="#90b8d8" stroke-width="1.5" opacity="0.5"/>
    <line x1="60" y1="462" x2="115" y2="462" stroke="#90b8d8" stroke-width="0.5"/>
    <text x="55" y="466" text-anchor="end" font-size="10" fill="#777" font-family="'PingFang SC','Microsoft YaHei','Noto Sans SC',system-ui,Arial,Helvetica,sans-serif">半月板</text>
    <line x1="60" y1="240" x2="95" y2="240" stroke="rgba(200,50,50,0.3)" stroke-width="0.5"/>
    <circle cx="95" cy="240" r="1.5" fill="rgba(200,50,50,0.3)"/>
    <text x="55" y="244" text-anchor="end" font-size="10" fill="#a04040" font-weight="bold" font-family="'PingFang SC','Microsoft YaHei','Noto Sans SC',system-ui,Arial,Helvetica,sans-serif">股四头肌</text>
    <line x1="60" y1="300" x2="155" y2="300" stroke="rgba(200,50,50,0.25)" stroke-width="0.5"/>
    <circle cx="155" cy="300" r="1.5" fill="rgba(200,50,50,0.25)"/>
    <text x="55" y="304" text-anchor="end" font-size="10" fill="#a04040" font-weight="bold" font-family="'PingFang SC','Microsoft YaHei','Noto Sans SC',system-ui,Arial,Helvetica,sans-serif">腘绳肌</text>
    <line x1="60" y1="550" x2="95" y2="550" stroke="rgba(200,50,50,0.25)" stroke-width="0.5"/>
    <circle cx="95" cy="550" r="1.5" fill="rgba(200,50,50,0.25)"/>
    <text x="55" y="554" text-anchor="end" font-size="10" fill="#a04040" font-weight="bold" font-family="'PingFang SC','Microsoft YaHei','Noto Sans SC',system-ui,Arial,Helvetica,sans-serif">腓肠肌</text>
    <line x1="60" y1="440" x2="133" y2="440" stroke="#888" stroke-width="0.5"/><circle cx="133" cy="440" r="1.5" fill="#888"/>
    <text x="55" y="444" text-anchor="end" font-size="10" fill="#555" font-weight="bold" font-family="'PingFang SC','Microsoft YaHei','Noto Sans SC',system-ui,Arial,Helvetica,sans-serif">髌骨</text>
    </g>
    <!-- Mechanism labels -->
    <line x1="300" y1="130" x2="410" y2="95" stroke="#c45a5a" stroke-width="0.5"/>
    <text x="415" y="99" font-size="10" fill="#c45a5a" font-weight="bold" font-family="'PingFang SC','Microsoft YaHei','Noto Sans SC',system-ui,Arial,Helvetica,sans-serif">外转子无刷电机 (大直径)</text>
    <line x1="300" y1="165" x2="410" y2="165" stroke="#909090" stroke-width="0.5"/>
    <text x="415" y="169" font-size="10" fill="#909090" font-weight="bold" font-family="'PingFang SC','Microsoft YaHei','Noto Sans SC',system-ui,Arial,Helvetica,sans-serif">定子绕组</text>
    <line x1="300" y1="200" x2="410" y2="210" stroke="#d07070" stroke-width="0.5"/>
    <text x="415" y="214" font-size="10" fill="#d07070" font-weight="bold" font-family="'PingFang SC','Microsoft YaHei','Noto Sans SC',system-ui,Arial,Helvetica,sans-serif">永磁体转子</text>
    <line x1="300" y1="165" x2="410" y2="235" stroke="#c04040" stroke-width="0.5"/>
    <text x="415" y="239" font-size="10" fill="#c04040" font-weight="bold" font-family="'PingFang SC','Microsoft YaHei','Noto Sans SC',system-ui,Arial,Helvetica,sans-serif">低减速比行星减速器</text>
    <!-- Dimension annotations -->
    <line x1="300" y1="165" x2="300" y2="240" stroke="#d32f2f" stroke-width="0.6"/>
    <line x1="255" y1="240" x2="345" y2="240" stroke="#d32f2f" stroke-width="0.5" stroke-dasharray="3,2"/>
    <text x="300" y="258" text-anchor="middle" font-size="10" fill="#d32f2f">电机直径80-120mm（大直径外转子设计）</text>
    <!-- Backdrivability annotation -->
    <path d="M 370,165 Q 390,155 410,165" fill="none" stroke="#2e7d32" stroke-width="0.8" marker-end="url(#aG)"/>
    <text x="415" y="169" font-size="10" fill="#2e7d32">反向驱动效率>80%（近乎透明）</text>
    <!-- Thermal management annotation -->
    <path d="M 300,235 Q 300,270 300,300" fill="none" stroke="#d32f2f" stroke-width="0.6" marker-end="url(#aR)"/>
    <text x="305" y="315" text-anchor="start" font-size="10" fill="#d32f2f">散热路径 (热管理挑战)</text>
    <!-- Torque density annotation -->
    <path d="M 228,165 Q 200,165 180,180" fill="none" stroke="#c45a5a" stroke-width="0.5"/>
    <text x="155" y="195" text-anchor="end" font-size="10" fill="#c45a5a">力矩密度受热限制</text>
    <!-- Speed-torque characteristic -->
    <path d="M 230,130 Q 200,130 180,125" fill="none" stroke="#888" stroke-width="0.5"/>
    <text x="155" y="129" text-anchor="end" font-size="10" fill="#888">控制带宽>50Hz（无弹性谐振限制）</text>
    <!-- Deceleration ratio annotation -->
    <line x1="300" y1="280" x2="300" y2="310" stroke="#888" stroke-width="0.5"/>
    <line x1="250" y1="310" x2="350" y2="310" stroke="#888" stroke-width="0.5" stroke-dasharray="2,2"/>
    <text x="300" y="328" text-anchor="middle" font-size="10" fill="#888">减速比 6-10:1 (远低于传统50-100:1)</text>
    <g >
    <!-- Additional muscle fiber detail -->
    <path d="M90,140 Q105,135 120,140" fill="none" stroke="rgba(200,50,50,0.10)" stroke-width="0.6"/>
    <path d="M85,170 Q100,165 115,170" fill="none" stroke="rgba(200,50,50,0.10)" stroke-width="0.6"/>
    <path d="M82,210 Q98,205 112,210" fill="none" stroke="rgba(200,50,50,0.10)" stroke-width="0.6"/>
    <path d="M80,250 Q95,245 110,250" fill="none" stroke="rgba(200,50,50,0.08)" stroke-width="0.6"/>
    <path d="M78,290 Q93,285 108,290" fill="none" stroke="rgba(200,50,50,0.08)" stroke-width="0.6"/>
    <path d="M78,330 Q93,325 108,330" fill="none" stroke="rgba(200,50,50,0.08)" stroke-width="0.6"/>
    <path d="M80,370 Q95,365 110,370" fill="none" stroke="rgba(200,50,50,0.08)" stroke-width="0.6"/>
    <path d="M82,410 Q97,405 112,410" fill="none" stroke="rgba(200,50,50,0.08)" stroke-width="0.6"/>
    <path d="M90,470 Q105,465 120,470" fill="none" stroke="rgba(200,50,50,0.10)" stroke-width="0.6"/>
    <path d="M85,510 Q100,505 115,510" fill="none" stroke="rgba(200,50,50,0.10)" stroke-width="0.6"/>
    <path d="M82,550 Q97,545 112,550" fill="none" stroke="rgba(200,50,50,0.08)" stroke-width="0.6"/>
    <path d="M80,590 Q95,585 110,590" fill="none" stroke="rgba(200,50,50,0.08)" stroke-width="0.6"/>
    <path d="M80,630 Q95,625 110,630" fill="none" stroke="rgba(200,50,50,0.08)" stroke-width="0.6"/>
    <path d="M82,670 Q97,665 112,670" fill="none" stroke="rgba(200,50,50,0.08)" stroke-width="0.6"/>
    </g>
    <!-- Performance annotation block -->
    <g transform="translate(400,300)">
      <rect x="0" y="0" width="280" height="95" rx="4" fill="#fafafa" stroke="#ddd" stroke-width="0.5" opacity="0.85"/>
      <text x="10" y="16" font-size="10" font-weight="bold" fill="#333" font-family="'PingFang SC','Microsoft YaHei','Noto Sans SC',system-ui,Arial,Helvetica,sans-serif">关键性能指标</text>
      <line x1="10" y1="22" x2="270" y2="22" stroke="#ddd" stroke-width="0.5"/>
      <circle cx="18" cy="38" r="3" fill="#0096f0"/>
      <text x="26" y="42" font-size="10" fill="#555" font-family="'PingFang SC','Microsoft YaHei','Noto Sans SC',system-ui,Arial,Helvetica,sans-serif">减速比: 6-10:1（传统方案50-100:1）</text>
      <circle cx="18" cy="56" r="3" fill="#2e7d32"/>
      <text x="26" y="60" font-size="10" fill="#555" font-family="'PingFang SC','Microsoft YaHei','Noto Sans SC',system-ui,Arial,Helvetica,sans-serif">反向驱动效率: >80%（几乎透明无阻力感）</text>
      <circle cx="18" cy="74" r="3" fill="#d97706"/>
      <text x="26" y="78" font-size="10" fill="#555" font-family="'PingFang SC','Microsoft YaHei','Noto Sans SC',system-ui,Arial,Helvetica,sans-serif">控制带宽: >50Hz（无弹性元件谐振限制）</text>
      <circle cx="145" cy="38" r="3" fill="#808080"/>
      <text x="153" y="42" font-size="10" fill="#555" font-family="'PingFang SC','Microsoft YaHei','Noto Sans SC',system-ui,Arial,Helvetica,sans-serif">电机直径: 80-120mm（大直径=高扭矩密度）</text>
      <circle cx="145" cy="56" r="3" fill="#c45a5a"/>
      <text x="153" y="60" font-size="10" fill="#555" font-family="'PingFang SC','Microsoft YaHei','Noto Sans SC',system-ui,Arial,Helvetica,sans-serif">力矩密度: 受限于热管理</text>
      <circle cx="145" cy="74" r="3" fill="#0096f0"/>
      <text x="153" y="78" font-size="10" fill="#555" font-family="'PingFang SC','Microsoft YaHei','Noto Sans SC',system-ui,Arial,Helvetica,sans-serif">典型应用: MIT Cheetah四足机器人·ANYdrive关节</text>
    </g>
    <!-- Heat dissipation path annotation -->
    <path d="M 300,245 Q 300,280 300,310" fill="none" stroke="#d32f2f" stroke-width="0.8" stroke-dasharray="4,3" opacity="0.5"/>
    <path d="M 290,310 L 300,320 L 310,310" fill="none" stroke="#d32f2f" stroke-width="0.8" opacity="0.5"/>
    <text x="305" y="335" font-size="10" fill="#d32f2f" opacity="0.6" font-family="'PingFang SC','Microsoft YaHei','Noto Sans SC',system-ui,Arial,Helvetica,sans-serif">热量传导路径 (热管理关键)</text>
    <!-- SUPPLEMENTARY: Key Formulas & Force Flow -->
    <rect x="220" y="348" width="480" height="55" rx="3" fill="#fafafa" stroke="#ddd" stroke-width="0.5"/>
    <text x="230" y="365" font-size="10" font-weight="bold" fill="#333" font-family="'PingFang SC','Microsoft YaHei','Noto Sans SC',system-ui,Arial,Helvetica,sans-serif">关键公式</text>
    <text x="230" y="381" font-size="9" fill="#555" font-family="'PingFang SC','Microsoft YaHei','Noto Sans SC',system-ui,Arial,Helvetica,sans-serif">τ = k_t · i  (扭矩常数)  |  ω = V / k_e  (反电动势限制)</text>
    <text x="230" y="396" font-size="9" fill="#555" font-family="'PingFang SC','Microsoft YaHei','Noto Sans SC',system-ui,Arial,Helvetica,sans-serif">P_heat = I² · R_ph · m  (热管理瓶颈)  |  反向驱动 η &gt; 80%</text>
    <!-- Force flow: Electrical -> Magnetic -> Mechanical -->
    <rect x="220" y="410" width="480" height="32" rx="3" fill="#fcfcfc" stroke="#ddd" stroke-width="0.4"/>
    <line x1="230" y1="426" x2="280" y2="426" stroke="#0096f0" stroke-width="1.2" marker-end="url(#aB)"/>
    <line x1="290" y1="426" x2="340" y2="426" stroke="#c45a5a" stroke-width="1.2" marker-end="url(#aR)"/>
    <line x1="350" y1="426" x2="400" y2="426" stroke="#2e7d32" stroke-width="1.2" marker-end="url(#aG)"/>
    <text x="230" y="420" font-size="8" fill="#0096f0" font-family="'PingFang SC','Microsoft YaHei','Noto Sans SC',system-ui,Arial,Helvetica,sans-serif">电能</text>
    <text x="290" y="420" font-size="8" fill="#c45a5a" font-family="'PingFang SC','Microsoft YaHei','Noto Sans SC',system-ui,Arial,Helvetica,sans-serif">磁场</text>
    <text x="350" y="420" font-size="8" fill="#2e7d32" font-family="'PingFang SC','Microsoft YaHei','Noto Sans SC',system-ui,Arial,Helvetica,sans-serif">机械能</text>
    <text x="430" y="426" font-size="8" fill="#888" font-family="'PingFang SC','Microsoft YaHei','Noto Sans SC',system-ui,Arial,Helvetica,sans-serif">→ 关节输出</text>
  </g>
  <!-- Divider -->
  <rect x="740" y="72" width="60" height="862" fill="#ffffff"/>
  <rect x="800" y="72" width="380" height="862" rx="4" fill="#ffffff" stroke="#d5d5d5" stroke-width="0.6"/>
  <!-- Right panel -->
  <g clip-path="url(#rightClip)">
    <rect x="816" y="86" width="348" height="130" rx="5" fill="#fef2f2" stroke="#c45a5a" stroke-width="1"/>
    <rect x="816" y="86" width="348" height="28" rx="5 5 0 0" fill="#c45a5a"/>
    <text x="990" y="105" text-anchor="middle" font-size="13" font-weight="700" fill="#fff" font-family="'PingFang SC','Microsoft YaHei','Noto Sans SC',system-ui,Arial,Helvetica,sans-serif">技术概述</text>
    <text x="828" y="130" font-size="11" fill="#333" font-family="'PingFang SC','Microsoft YaHei','Noto Sans SC',system-ui,Arial,Helvetica,sans-serif">准直驱(QDD)采用大直径高扭矩无刷电机配合低减</text>
    <text x="828" y="148" font-size="11" fill="#333" font-family="'PingFang SC','Microsoft YaHei','Noto Sans SC',system-ui,Arial,Helvetica,sans-serif">速比(&lt;10:1)减速器，直接驱动关节。相比传统高</text>
    <text x="828" y="166" font-size="11" fill="#333" font-family="'PingFang SC','Microsoft YaHei','Noto Sans SC',system-ui,Arial,Helvetica,sans-serif">减速比方案，具有优异的反向驱动能力。</text>
    <text x="828" y="186" font-size="10" fill="#888" font-family="'PingFang SC','Microsoft YaHei','Noto Sans SC',system-ui,Arial,Helvetica,sans-serif">减速比 6-10:1 | 反向驱动效率>80%（近乎透明） | 力矩密度受限于热</text>
    <rect x="816" y="240" width="348" height="135" rx="5" fill="#fafafa" stroke="#ddd" stroke-width="0.6"/>
    <rect x="816" y="240" width="348" height="28" rx="5 5 0 0" fill="#c45a5a" fill-opacity="0.85"/>
    <text x="990" y="259" text-anchor="middle" font-size="13" font-weight="700" fill="#fff" font-family="'PingFang SC','Microsoft YaHei','Noto Sans SC',system-ui,Arial,Helvetica,sans-serif">技术参数</text>
    <text x="828" y="286" font-size="11" fill="#555" font-family="'PingFang SC','Microsoft YaHei','Noto Sans SC',system-ui,Arial,Helvetica,sans-serif">减速比            6-10:1 (远低于传统50-100:1)</text>
    <text x="828" y="306" font-size="11" fill="#555" font-family="'PingFang SC','Microsoft YaHei','Noto Sans SC',system-ui,Arial,Helvetica,sans-serif">反向驱动效率      &gt;80% (近乎透明)</text>
    <text x="828" y="326" font-size="11" fill="#555" font-family="'PingFang SC','Microsoft YaHei','Noto Sans SC',system-ui,Arial,Helvetica,sans-serif">力矩密度          受限于电机热管理</text>
    <text x="828" y="346" font-size="11" fill="#555" font-family="'PingFang SC','Microsoft YaHei','Noto Sans SC',system-ui,Arial,Helvetica,sans-serif">控制带宽          &gt;50 Hz (无弹性谐振)</text>
    <text x="828" y="366" font-size="11" fill="#555" font-family="'PingFang SC','Microsoft YaHei','Noto Sans SC',system-ui,Arial,Helvetica,sans-serif">典型电机直径      80-120 mm (大直径)</text>
    <rect x="816" y="399" width="348" height="100" rx="5" fill="#fafafa" stroke="#ddd" stroke-width="0.6"/>
    <rect x="816" y="399" width="348" height="28" rx="5 5 0 0" fill="#c45a5a" fill-opacity="0.85"/>
    <text x="990" y="418" text-anchor="middle" font-size="13" font-weight="700" fill="#fff" font-family="'PingFang SC','Microsoft YaHei','Noto Sans SC',system-ui,Arial,Helvetica,sans-serif">代表研究</text>
    <text x="828" y="445" font-size="11" fill="#333" font-family="'PingFang SC','Microsoft YaHei','Noto Sans SC',system-ui,Arial,Helvetica,sans-serif">MIT Cheetah / ANYbotics ANYdrive</text>
    <text x="828" y="465" font-size="11" fill="#666" font-family="'PingFang SC','Microsoft YaHei','Noto Sans SC',system-ui,Arial,Helvetica,sans-serif">四足机器人领域验证，人形机器人逐步采用</text>
    <text x="828" y="488" font-size="11" fill="#666" font-family="'PingFang SC','Microsoft YaHei','Noto Sans SC',system-ui,Arial,Helvetica,sans-serif">外骨骼应用有限，力矩密度不满足膝/髋需求</text>
    <rect x="816" y="523" width="348" height="115" rx="5" fill="#f0fdf4" stroke="#2e7d32" stroke-width="0.6"/>
    <rect x="816" y="523" width="348" height="28" rx="5 5 0 0" fill="#2e7d32" fill-opacity="0.85"/>
    <text x="990" y="542" text-anchor="middle" font-size="13" font-weight="700" fill="#fff" font-family="'PingFang SC','Microsoft YaHei','Noto Sans SC',system-ui,Arial,Helvetica,sans-serif">优势</text>
    <text x="828" y="569" font-size="11" fill="#333" font-family="'PingFang SC','Microsoft YaHei','Noto Sans SC',system-ui,Arial,Helvetica,sans-serif">高反向驱动性 — 近乎透明，穿戴者感受自然</text>
    <text x="828" y="589" font-size="11" fill="#333" font-family="'PingFang SC','Microsoft YaHei','Noto Sans SC',system-ui,Arial,Helvetica,sans-serif">极低摩擦 — 无减速器齿隙和摩擦</text>
    <text x="828" y="609" font-size="11" fill="#333" font-family="'PingFang SC','Microsoft YaHei','Noto Sans SC',system-ui,Arial,Helvetica,sans-serif">宽控制带宽 — 无弹性谐振，高频响应好</text>
    <text x="828" y="629" font-size="11" fill="#333" font-family="'PingFang SC','Microsoft YaHei','Noto Sans SC',system-ui,Arial,Helvetica,sans-serif">结构简洁 — 零件少，可靠性高</text>
    <rect x="816" y="662" width="348" height="135" rx="5" fill="#fef2f2" stroke="#c45a5a" stroke-width="0.6"/>
    <rect x="816" y="662" width="348" height="28" rx="5 5 0 0" fill="#c45a5a" fill-opacity="0.85"/>
    <text x="990" y="681" text-anchor="middle" font-size="13" font-weight="700" fill="#fff" font-family="'PingFang SC','Microsoft YaHei','Noto Sans SC',system-ui,Arial,Helvetica,sans-serif">缺陷 Disadvantages</text>
    <text x="828" y="708" font-size="11" fill="#333" font-family="'PingFang SC','Microsoft YaHei','Noto Sans SC',system-ui,Arial,Helvetica,sans-serif">力矩密度低 — 外骨骼膝/髋需要高力矩，QDD不足</text>
    <text x="828" y="728" font-size="11" fill="#333" font-family="'PingFang SC','Microsoft YaHei','Noto Sans SC',system-ui,Arial,Helvetica,sans-serif">热管理挑战 — 大电流导致发热严重</text>
    <text x="828" y="748" font-size="11" fill="#333" font-family="'PingFang SC','Microsoft YaHei','Noto Sans SC',system-ui,Arial,Helvetica,sans-serif">电机直径大 — 不适合纤细的外骨骼形态</text>
    <text x="828" y="768" font-size="11" fill="#333" font-family="'PingFang SC','Microsoft YaHei','Noto Sans SC',system-ui,Arial,Helvetica,sans-serif">冲击敏感性 — 无减速器保护，齿轮直接受力</text>
    <text x="828" y="788" font-size="11" fill="#333" font-family="'PingFang SC','Microsoft YaHei','Noto Sans SC',system-ui,Arial,Helvetica,sans-serif">低速力矩脉动 — 齿槽效应在低速时明显</text>
    <rect x="816" y="815" width="348" height="110" rx="5" fill="#fef2f2" stroke="#c45a5a" stroke-width="1.2"/>
    <rect x="816" y="815" width="348" height="28" rx="5 5 0 0" fill="#c45a5a"/>
    <text x="990" y="834" text-anchor="middle" font-size="13" font-weight="700" fill="#fff" font-family="'PingFang SC','Microsoft YaHei','Noto Sans SC',system-ui,Arial,Helvetica,sans-serif">Bones 评估 Assessment</text>
    <text x="828" y="860" font-size="11" fill="#333" font-family="'PingFang SC','Microsoft YaHei','Noto Sans SC',system-ui,Arial,Helvetica,sans-serif">当前阶段: 不推荐作为膝关节主驱动方案</text>
    <text x="828" y="880" font-size="11" fill="#333" font-family="'PingFang SC','Microsoft YaHei','Noto Sans SC',system-ui,Arial,Helvetica,sans-serif">力矩密度不满足外骨骼膝/髋关节需求</text>
    <text x="828" y="903" font-size="11" fill="#333" font-family="'PingFang SC','Microsoft YaHei','Noto Sans SC',system-ui,Arial,Helvetica,sans-serif">可借鉴电机选型方法论与反向驱动设计</text>
    <text x="828" y="923" font-size="11" fill="#333" font-family="'PingFang SC','Microsoft YaHei','Noto Sans SC',system-ui,Arial,Helvetica,sans-serif">未来若力矩密度提升3-5x，可用于上肢关节</text>
  </g>
  <!-- Bottom legend -->
  <rect x="20" y="940" width="1160" height="50" rx="4" fill="#f8f8f8" stroke="#d5d5d5" stroke-width="0.6"/>
  <rect x="40" y="953" width="18" height="18" rx="2" fill="#0096f0"/>
  <text x="64" y="967" font-size="13" fill="#333" font-weight="600" font-family="'PingFang SC','Microsoft YaHei','Noto Sans SC',system-ui,Arial,Helvetica,sans-serif">推荐采用</text>
  <rect x="240" y="953" width="18" height="18" rx="2" fill="#d97706"/>
  <text x="264" y="967" font-size="13" fill="#333" font-weight="600" font-family="'PingFang SC','Microsoft YaHei','Noto Sans SC',system-ui,Arial,Helvetica,sans-serif">部分借鉴</text>
  <rect x="460" y="953" width="18" height="18" rx="2" fill="#c45a5a"/>
  <text x="484" y="967" font-size="13" fill="#333" font-weight="600" font-family="'PingFang SC','Microsoft YaHei','Noto Sans SC',system-ui,Arial,Helvetica,sans-serif">不推荐</text>
  <rect x="680" y="953" width="18" height="18" rx="2" fill="#2e7d32"/>
  <text x="704" y="967" font-size="13" fill="#333" font-weight="600" font-family="'PingFang SC','Microsoft YaHei','Noto Sans SC',system-ui,Arial,Helvetica,sans-serif">驱动/运动方向</text>
  <rect x="900" y="953" width="18" height="18" rx="2" fill="#c45a5a" fill-opacity="0.5"/>
  <text x="924" y="967" font-size="13" fill="#333" font-weight="600" font-family="'PingFang SC','Microsoft YaHei','Noto Sans SC',system-ui,Arial,Helvetica,sans-serif">QDD电机/发热区域</text>
</svg>
